<?xml version="1.0" encoding="utf-8"?>
<!-- Generator: Adobe Illustrator 19.1.0, SVG Export Plug-In . SVG Version: 6.00 Build 0)  -->
<svg version="1.0" id="Layer_1" xmlns="http://www.w3.org/2000/svg" xmlns:xlink="http://www.w3.org/1999/xlink" x="0px" y="0px"
	 width="150px" height="40px" viewBox="0 0 150 40" enable-background="new 0 0 150 40" xml:space="preserve">
<g>
	<path fill="#205283" d="M46.1,13.2c-0.1-0.3-0.3-0.4-0.5-0.4h-5.2c-0.3,0-0.4,0.2-0.5,0.4l-6.6,20.9c-0.1,0.2,0,0.3,0.1,0.5
		c0.1,0.2,0.3,0.3,0.4,0.3h3.6c0.3,0,0.4-0.2,0.5-0.4l4.5-15.3c0,0,0.1-0.3,0.5-0.3c0.4,0,0.5,0.4,0.5,0.4l2.1,7.3h-2.8
		c-0.3,0-0.4,0.2-0.5,0.4l-0.8,2.9c-0.1,0.2,0,0.3,0.1,0.5c0.1,0.2,0.3,0.3,0.4,0.3h4.8l1.3,4c0.1,0.3,0.3,0.4,0.5,0.4h3.6
		c0.2,0,0.3-0.1,0.4-0.3c0.1-0.2,0.2-0.3,0.1-0.5L46.1,13.2z"/>
	<path fill="#205283" d="M61.8,31.5c0-0.2-0.1-0.3-0.3-0.3c-0.2-0.1-0.3-0.1-0.4-0.1c-0.6,0.2-1.1,0.3-1.5,0.3
		c-0.9,0-1.2-0.3-1.2-1.1v-7.9h3.2c0.3,0,0.6-0.3,0.6-0.6v-2.5c0-0.3-0.3-0.6-0.6-0.6h-3.2v-3.8c0-0.2-0.1-0.3-0.2-0.4
		s-0.3-0.2-0.4-0.2l-3.3,0.4c-0.3,0-0.5,0.3-0.5,0.5v3.4h-1.8c-0.3,0-0.6,0.3-0.6,0.6v2.5c0,0.3,0.3,0.6,0.6,0.6h1.8v8.5
		c0,2.9,1.5,4.4,4.5,4.4c0.9,0,2.3-0.2,3.2-0.5c0.3-0.1,0.4-0.3,0.3-0.6L61.8,31.5z"/>
	<path fill="#205283" d="M67.8,12.4h-3.3c-0.3,0-0.6,0.3-0.6,0.6v21.3c0,0.3,0.3,0.6,0.6,0.6h3.3c0.3,0,0.6-0.3,0.6-0.6V13
		C68.4,12.6,68.2,12.4,67.8,12.4z"/>
	<path fill="#205283" d="M76.4,18.3c-1.7,0-3.7,0.3-5.2,0.7c-0.3,0.1-0.4,0.3-0.4,0.6l0.4,2.4c0,0.2,0.1,0.3,0.3,0.3
		c0.1,0.1,0.3,0.1,0.4,0.1c1.4-0.3,2.8-0.4,4-0.4c2.4,0,2.7,0.5,2.7,2.1v1.5h-3.5c-3.4,0-4.8,1.4-4.8,4.6c0,3.2,1.5,4.9,4.4,4.9
		c1.6,0,3.2-0.4,4.5-1.3l0.2,0.5c0.1,0.3,0.3,0.4,0.5,0.4h2.6c0.3,0,0.6-0.3,0.6-0.6v-9.9C83,19.8,81.2,18.3,76.4,18.3z M78.5,28.8
		v2C78,31,77,31.4,75.8,31.4c-1,0-1.4-0.3-1.4-1.4c0-1,0.2-1.3,1.4-1.3C75.8,28.8,78.5,28.8,78.5,28.8z"/>
	<path fill="#205283" d="M91.3,24.8c-2.1-0.5-2.1-0.5-2.1-1.7c0-0.8,0.1-1.1,1.8-1.1c1.2,0,2.8,0.2,3.9,0.4c0.2,0,0.3,0,0.4-0.1
		c0.1-0.1,0.2-0.3,0.3-0.3l0.3-2.5c0-0.3-0.2-0.5-0.4-0.6c-1.3-0.3-3-0.5-4.4-0.5c-5,0-6.1,1.9-6.1,4.8c0,3.2,0.6,4.2,4.4,5.1
		c2.6,0.6,2.6,1.1,2.6,1.8c0,1-0.1,1.4-1.8,1.4c-1.4,0-2.9-0.2-4.3-0.6c-0.2,0-0.3,0-0.4,0.1c-0.2,0.1-0.3,0.3-0.3,0.3l-0.4,2.4
		c-0.1,0.3,0.1,0.5,0.3,0.6c1.5,0.5,3.7,0.9,5.2,0.9c4.9,0,5.9-2.1,5.9-5.1C96.2,26.6,95.6,25.9,91.3,24.8z"/>
	<path fill="#205283" d="M104,24.8c-2.1-0.5-2.1-0.5-2.1-1.7c0-0.8,0.1-1.1,1.8-1.1c1.2,0,2.8,0.2,3.9,0.4c0.2,0,0.3,0,0.4-0.1
		c0.1-0.1,0.2-0.3,0.3-0.3l0.3-2.5c0-0.3-0.2-0.5-0.4-0.6c-1.3-0.3-3-0.5-4.4-0.5c-5,0-6.1,1.9-6.1,4.8c0,3.2,0.6,4.2,4.4,5.1
		c2.6,0.6,2.6,1.1,2.6,1.8c0,1-0.1,1.4-1.8,1.4c-1.4,0-2.9-0.2-4.3-0.6c-0.2,0-0.3,0-0.4,0.1C98.1,31,98,31.2,98,31.3l-0.4,2.4
		c-0.1,0.3,0.1,0.5,0.3,0.6c1.5,0.5,3.7,0.9,5.2,0.9c4.9,0,5.9-2.1,5.9-5.1C108.9,26.6,108.3,25.9,104,24.8z"/>
	<path fill="#205283" d="M114.7,12.4h-3.3c-0.3,0-0.6,0.3-0.6,0.6v2.9c0,0.3,0.3,0.6,0.6,0.6h3.3c0.3,0,0.6-0.3,0.6-0.6V13
		C115.2,12.6,114.9,12.4,114.7,12.4z"/>
	<path fill="#205283" d="M114.7,18.5h-3.3c-0.3,0-0.6,0.3-0.6,0.6v15c0,0.3,0.3,0.6,0.6,0.6h3.3c0.3,0,0.6-0.3,0.6-0.6v-15
		C115.2,18.8,114.9,18.5,114.7,18.5z"/>
	<path fill="#205283" d="M123.2,18.3c-1.7,0-3.7,0.3-5.2,0.7c-0.3,0.1-0.4,0.3-0.4,0.6l0.4,2.4c0,0.2,0.1,0.3,0.3,0.3
		c0.1,0.1,0.3,0.1,0.4,0.1c1.4-0.3,2.8-0.4,4-0.4c2.4,0,2.7,0.5,2.7,2.1v1.5h-3.5c-3.4,0-4.8,1.4-4.8,4.6c0,3.2,1.5,4.9,4.4,4.9
		c1.6,0,3.2-0.4,4.5-1.3l0.2,0.5c0.1,0.3,0.3,0.4,0.5,0.4h2.6c0.3,0,0.6-0.3,0.6-0.6v-9.9C129.8,19.8,128,18.3,123.2,18.3z
		 M125.4,28.8v2c-0.5,0.3-1.5,0.7-2.7,0.7c-1,0-1.4-0.3-1.4-1.4c0-1,0.2-1.3,1.4-1.3C122.7,28.8,125.4,28.8,125.4,28.8z"/>
	<path fill="#205283" d="M142,18.3c-1.7,0-4.1,0.6-6.2,1.5l-0.3-0.9c-0.1-0.3-0.3-0.4-0.5-0.4h-2.5c-0.3,0-0.6,0.3-0.6,0.6v15
		c0,0.3,0.3,0.6,0.6,0.6h3.3c0.3,0,0.6-0.3,0.6-0.6V23.7c1.2-0.6,2.8-1.2,3.8-1.2c0.8,0,1,0.3,1,1v10.7c0,0.3,0.3,0.6,0.6,0.6h3.3
		c0.3,0,0.6-0.3,0.6-0.6V23.1C145.8,19.9,144.5,18.3,142,18.3z"/>
	<g>
		<path fill="#5AAEDF" d="M37.4,5.4c-0.2-0.2-0.3-0.3-0.6-0.3c-0.1,0-0.3,0-0.3,0.1c-4.5,2.5-9.7,3.8-15.1,3.8S10.7,7.7,6.2,5.2
			c-0.1,0-0.3,0-0.3,0c-0.3,0-0.5,0.1-0.6,0.3C5,5.7,5,6.2,5.4,6.5c2.2,1.7,4.7,3,7.4,3.9c2.7,0.9,5.6,1.4,8.5,1.4l0,0
			c2.9,0,5.8-0.5,8.5-1.4c2.6-0.9,5.1-2.2,7.4-3.9C37.6,6.2,37.6,5.7,37.4,5.4z"/>
		<path fill="#5AAEDF" d="M32.2,12.5c-0.1-0.1-0.3-0.1-0.3-0.1c-0.1,0-0.2,0-0.3,0c-1.3,0.5-2.6,0.9-3.8,1.2
			c-0.3,0.1-0.4,0.3-0.5,0.4c-0.9,2.4-3.2,4.7-5.5,7.1c-0.1,0.1-0.3,0.2-0.4,0.2c-0.3,0-0.3-0.1-0.4-0.2c-2.4-2.4-4.6-4.7-5.5-7.1
			c-0.1-0.3-0.3-0.4-0.5-0.4c-1.2-0.3-2.6-0.7-3.8-1.2c-0.1,0-0.2,0-0.3,0c-0.2,0-0.3,0-0.3,0.1c-0.3,0.2-0.3,0.3-0.3,0.6
			c0.2,2,1,3.9,2.4,6.1c1.4,2,3.1,3.8,4.8,5.5c3.2,3.2,6.1,6.2,6.3,9.7c0,0.3,0.3,0.6,0.6,0.6h3.7c0.2,0,0.3-0.1,0.4-0.2
			c0.1-0.1,0.2-0.3,0.2-0.4c-0.1-2.3-1-4.7-2.6-7.2c-0.3-0.5-0.8-1-1.1-1.5c-0.2-0.2-0.1-0.4,0-0.6c0.1-0.1,0.3-0.3,0.3-0.3
			c1.7-1.7,3.4-3.5,4.8-5.5c1.5-2.1,2.2-4,2.4-6C32.4,12.8,32.4,12.6,32.2,12.5z"/>
		<g>
			<path fill="#5AAEDF" d="M17.3,27.2c-0.1-0.1-0.3-0.2-0.4-0.2c-0.3,0-0.4,0.2-0.5,0.3c-1.5,2.4-2.3,4.5-2.5,6.8
				c0,0.2,0.1,0.3,0.2,0.4c0.1,0.1,0.3,0.2,0.4,0.2h3.7c0.3,0,0.6-0.3,0.6-0.6c0.1-1.1,0.4-2.1,1-3.2c0.2-0.4,0.1-0.8-0.1-0.9
				C19.2,29.2,18.4,28.3,17.3,27.2z"/>
		</g>
		<path fill="#5AAEDF" d="M21.3,14.2c1.1,0,1.8-0.1,2.1-0.1c0.3,0,0.6,0.3,0.6,0.6c0,0.1,0,0.2-0.1,0.3c-0.2,0.4-0.9,1.9-2.1,3.2
			c-0.2,0.2-0.3,0.2-0.4,0.2l0,0c-0.1,0-0.3,0-0.4-0.2c-1.3-1.3-2-2.7-2.1-3.2c0-0.1-0.1-0.1-0.1-0.3c0-0.3,0.3-0.6,0.6-0.6
			C19.5,14.2,20.1,14.2,21.3,14.2L21.3,14.2z"/>
	</g>
</g>
</svg>
