<?xml version="1.0" encoding="utf-8"?>
<!-- Generator: Adobe Illustrator 19.1.0, SVG Export Plug-In . SVG Version: 6.00 Build 0)  -->
<svg version="1.0" id="Layer_1" xmlns="http://www.w3.org/2000/svg" xmlns:xlink="http://www.w3.org/1999/xlink" x="0px" y="0px"
	 width="160px" height="40px" viewBox="0 0 160 40" enable-background="new 0 0 160 40" xml:space="preserve">
<g id="g8">
	<path id="path10" fill="#3D5B9A" d="M81.8,19.5c-1.3,0-2.1,0.4-3.1,0.9v9.4c0.9,0.1,1.4,0.1,2.2,0.1c3,0,3.4-1.4,3.4-3.2v-4.5
		C84.3,20.6,83.9,19.5,81.8,19.5z M61.9,19c-2.1,0-2.6,1.1-2.6,2.6v0.8h5.1v-0.8C64.4,20.1,64,19,61.9,19z M23.4,28.8
		c0,1.1,0.5,1.7,1.7,1.7c1.3,0,2-0.4,2.9-0.9v-2.2h-2.7C23.9,27.5,23.4,27.7,23.4,28.8z M101.2,19.5c-2.1,0-2.8,1.1-2.8,2.6v5.1
		c0,1.5,0.7,2.6,2.8,2.6c2.1,0,2.8-1.1,2.8-2.6v-5.1C104,20.6,103.2,19.5,101.2,19.5z M13.1,34.6H7.1V19.8H4v-5.1h3.1v-3.1
		c0-4.2,1.7-6.7,6.7-6.7h4.1V10h-2.6c-1.9,0-2.1,0.7-2.1,2.1v2.6h4.6l-0.5,5.1h-4.1L13.1,34.6L13.1,34.6z M34.1,34.6H29l-0.2-1.3
		c-2.3,1.3-4.4,1.5-5.8,1.5c-3.8,0-5.7-2.5-5.7-6c0-4.1,2.3-5.6,6.5-5.6h4.2v-0.9c0-2.1-0.3-2.6-3.4-2.6h-5.2l0.5-5.1h5.7
		c7,0,8.5,2.2,8.5,7.9V34.6z M51.4,20.2c-3.2-0.5-4.1-0.7-5.6-0.7c-2.7,0-3.6,0.6-3.6,2.9v4.4c0,2.3,0.9,2.9,3.6,2.9
		c1.5,0,2.5-0.1,5.6-0.7v5c-2.8,0.6-4.6,0.8-6.2,0.8c-6.6,0-9.1-3.4-9.1-8.5v-3.6c0-5,2.6-8.5,9.1-8.5c1.5,0,3.3,0.2,6.2,0.8V20.2z
		 M70.6,26.4H59.4v0.4c0,2.3,0.9,2.9,3.6,2.9c2.5,0,3.9-0.1,7.2-0.7v5c-3.1,0.6-4.6,0.8-7.6,0.8c-6.6,0-9.1-3.4-9.1-8.5v-4.1
		c0-4.4,2-7.9,8.6-7.9s8.6,3.5,8.6,7.9L70.6,26.4L70.6,26.4z M90.5,26.5c0,4.8-1.4,8.4-9.7,8.4c-3,0-4.8-0.3-8.1-0.8V6.5l6.2-1v9.7
		c1.3-0.5,3-0.8,4.5-0.8c6.2,0,7.2,2.7,7.2,7.2C90.5,21.6,90.5,26.5,90.5,26.5z M110.1,26.6c0,4.2-1.7,8.2-8.9,8.2s-9-4-9-8.2v-4
		c0-4.2,1.7-8.2,9-8.2c7.2,0,8.9,4,8.9,8.2V26.6z M129.7,26.6c0,4.2-1.7,8.2-8.9,8.2c-7.2,0-9-4-9-8.2v-4c0-4.2,1.7-8.2,9-8.2
		c7.2,0,8.9,4,8.9,8.2V26.6z M149.8,34.6h-6.7l-5.6-9.4v9.4h-6.2V6.5l6.2-1v18.1l5.6-8.9h6.7l-6.2,9.7L149.8,34.6z M120.8,19.5
		c-2.1,0-2.8,1.1-2.8,2.6v5.1c0,1.5,0.7,2.6,2.8,2.6c2.1,0,2.8-1.1,2.8-2.6v-5.1C123.6,20.6,122.8,19.5,120.8,19.5z"/>
	<path id="path12" fill="#3D5B9A" d="M153.3,31.1c1,0,1.9,0.9,1.9,1.9s-0.9,1.9-1.9,1.9c-1,0-1.9-0.9-1.9-1.9S152.3,31.1,153.3,31.1
		L153.3,31.1z M153.3,31.4c-0.9,0-1.5,0.7-1.5,1.6c0,0.9,0.7,1.6,1.5,1.6c0.9,0,1.5-0.7,1.5-1.6C154.9,32.1,154.2,31.4,153.3,31.4
		L153.3,31.4z M153,34.1h-0.3V32c0.2,0,0.3-0.1,0.6-0.1c0.3,0,0.5,0.1,0.7,0.2c0.1,0.1,0.2,0.3,0.2,0.4c0,0.3-0.2,0.4-0.4,0.5l0,0
		c0.2,0,0.3,0.2,0.3,0.5c0.1,0.3,0.1,0.4,0.2,0.5h-0.3c-0.1-0.1-0.1-0.3-0.2-0.5s-0.2-0.3-0.4-0.3H153V34.1z M153,32.9h0.3
		c0.3,0,0.5-0.1,0.5-0.3c0-0.2-0.2-0.3-0.5-0.3c-0.1,0-0.2,0-0.3,0V32.9z"/>
</g>
</svg>
