<?xml version="1.0" encoding="utf-8"?>
<!-- Generated by IcoMoon.io -->
<!DOCTYPE svg PUBLIC "-//W3C//DTD SVG 1.1//EN" "http://www.w3.org/Graphics/SVG/1.1/DTD/svg11.dtd">
<svg version="1.1" xmlns="http://www.w3.org/2000/svg" xmlns:xlink="http://www.w3.org/1999/xlink" width="14" height="16" viewBox="0 0 14 16">
<path fill="#2cc7c1" d="M11.429 10.652q0-0.098-0.018-0.143-0.027-0.071-0.344-0.263t-0.79-0.442l-0.473-0.259q-0.045-0.027-0.17-0.116t-0.223-0.134-0.188-0.045q-0.161 0-0.42 0.29t-0.509 0.585-0.393 0.295q-0.063 0-0.147-0.031t-0.138-0.058-0.152-0.085-0.125-0.076q-0.884-0.491-1.522-1.129t-1.129-1.522q-0.018-0.027-0.076-0.125t-0.085-0.152-0.058-0.138-0.031-0.147q0-0.116 0.183-0.299t0.402-0.344 0.402-0.353 0.183-0.326q0-0.089-0.045-0.188t-0.134-0.223-0.116-0.17q-0.027-0.054-0.134-0.254t-0.223-0.406-0.237-0.424-0.223-0.362-0.147-0.161-0.143-0.018q-0.429 0-0.902 0.196-0.411 0.188-0.714 0.844t-0.304 1.165q0 0.143 0.022 0.304t0.045 0.272 0.080 0.295 0.089 0.263 0.112 0.295 0.098 0.268q0.536 1.464 1.933 2.862t2.862 1.933q0.054 0.018 0.268 0.098t0.295 0.112 0.263 0.089 0.295 0.080 0.272 0.045 0.304 0.022q0.509 0 1.165-0.304t0.844-0.714q0.196-0.473 0.196-0.902zM13.714 3.714v8.571q0 1.063-0.754 1.817t-1.817 0.754h-8.571q-1.063 0-1.817-0.754t-0.754-1.817v-8.571q0-1.063 0.754-1.817t1.817-0.754h8.571q1.063 0 1.817 0.754t0.754 1.817z"></path>
</svg>
