<?xml version="1.0" encoding="iso-8859-1"?>
<!-- Generator: Adobe Illustrator 19.0.0, SVG Export Plug-In . SVG Version: 6.00 Build 0)  -->
<svg version="1.1" id="Capa_1" xmlns="http://www.w3.org/2000/svg" xmlns:xlink="http://www.w3.org/1999/xlink" x="0px" y="0px"
	 viewBox="0 0 470 470" style="enable-background:new 0 0 470 470;" xml:space="preserve">
<g>
	<path style="fill:#082947;" d="M439.196,186.932c-3.384-2.387-8.063-1.58-10.452,1.806c-2.388,3.385-1.58,8.064,1.805,10.452
		c11.154,7.868,24.45,20.448,24.45,35.694c0,23.599-32.986,48.215-88.649,63.802c-6.24-20.87-14.612-42.684-24.852-64.739
		c9.839-21.465,17.918-42.707,23.973-62.98c14.631,4.038,28.066,8.78,39.954,14.167c1.004,0.455,2.056,0.671,3.091,0.671
		c2.854,0,5.581-1.638,6.835-4.406c1.71-3.772,0.038-8.217-3.735-9.927c-12.555-5.69-26.727-10.69-42.133-14.938
		c3.227-12.589,5.599-24.704,7.055-36.158c6.074-1.362,11.425-5.201,14.6-10.699c3.005-5.204,3.803-11.268,2.248-17.073
		c-1.556-5.806-5.279-10.657-10.483-13.662c-1.851-1.069-3.842-1.854-5.9-2.36c-3.045-21.588-11.762-37.083-25.444-44.981
		c-23.118-13.346-56.986-3.604-95.365,27.434c-7.177,5.804-14.376,12.241-21.546,19.231c-7.249-7.079-14.527-13.595-21.784-19.463
		c-38.379-31.037-72.247-40.781-95.365-27.434c-13.789,7.961-22.536,23.632-25.515,45.487c-1.698,0.501-3.343,1.193-4.889,2.086
		c-5.205,3.005-8.928,7.856-10.484,13.662c-1.555,5.806-0.757,11.869,2.248,17.073c3.01,5.214,7.975,8.943,13.659,10.477
		c1.474,11.592,3.888,23.861,7.175,36.614c-12.496,3.475-24.165,7.446-34.805,11.88c-4.038-3.842-9.493-6.208-15.493-6.208
		c-12.407,0-22.5,10.094-22.5,22.5c0,1.553,0.158,3.07,0.459,4.535C9.437,203.122,0,218.735,0,234.884
		c0,26.694,25.372,51.153,71.441,68.872c8.613,3.313,17.785,6.328,27.42,9.042c-3.97,15.325-6.688,29.964-8.026,43.567
		c-0.406,4.122,2.607,7.793,6.729,8.198c0.25,0.024,0.498,0.037,0.743,0.037c3.812-0.001,7.074-2.895,7.455-6.767
		c1.266-12.864,3.842-26.729,7.601-41.266c21.098,5.049,44.082,8.73,68.211,10.925c13.702,19.39,28.106,37.149,42.691,52.655
		c-41.576,40.862-79.669,57.352-100.206,45.494c-13.204-7.623-17.451-25.428-18.688-39.021c-0.376-4.126-4.032-7.174-8.149-6.789
		c-4.125,0.375-7.165,4.023-6.79,8.148c2.236,24.561,11.27,42.075,26.126,50.652c6.759,3.902,14.435,5.83,22.875,5.83
		c20.43,0,45.331-11.3,72.49-33.264c7.575-6.126,15.175-12.958,22.74-20.4c9.551,9.395,19.124,17.757,28.575,24.934
		c-0.007,0.026-0.018,0.051-0.025,0.078c-1.555,5.805-0.757,11.868,2.248,17.073c4.007,6.94,11.479,11.252,19.5,11.252
		c3.932,0,7.817-1.043,11.236-3.017c1.612-0.931,3.061-2.035,4.346-3.271c10.405,4.231,20.165,6.36,29.057,6.36
		c8.486,0,16.186-1.934,22.898-5.809c23.118-13.347,31.614-47.549,23.924-96.306c-1.477-9.367-3.523-19.089-6.086-29.073
		c9.928-2.772,19.37-5.861,28.221-9.265C444.628,286.037,470,261.578,470,234.884C470,217.73,459.348,201.148,439.196,186.932z
		 M351.82,302.419c-16.197,3.816-34.006,6.901-53.237,9.046c6.102-9.315,12.034-18.948,17.75-28.849
		c5.933-10.276,11.499-20.635,16.685-30.991C340.572,268.943,346.886,285.997,351.82,302.419z M164.778,195.117
		c7.877-13.644,15.96-26.446,24.141-38.395c15.014-1.208,30.444-1.837,46.081-1.837c15.358,0,30.507,0.606,45.253,1.769
		c8.143,11.903,16.187,24.649,24.029,38.231c7.509,13.005,14.414,26.09,20.658,39.1c-6.498,13.702-13.717,27.481-21.598,41.132
		c-7.819,13.543-15.841,26.255-23.96,38.129c-14.156,1.064-28.969,1.638-44.383,1.638c-15.682,0-30.743-0.594-45.122-1.694
		c-8.382-12.191-16.482-25.007-24.16-38.306c-7.83-13.562-15.007-27.254-21.473-40.872
		C150.464,221.049,157.325,208.026,164.778,195.117z M136.236,216.35c-7.189-16.67-13.225-33.086-17.985-48.869
		c16.072-3.774,33.332-6.758,51.388-8.869c-6.138,9.363-12.103,19.048-17.851,29.004
		C146.286,197.147,141.097,206.747,136.236,216.35z M234.639,99.481c11.381,12.054,22.939,25.872,34.397,41.381
		c-11.192-0.643-22.561-0.979-34.036-0.979c-11.745,0-23.383,0.353-34.838,1.027C211.648,125.378,223.233,111.542,234.639,99.481z
		 M332.941,216.317c-4.891-9.655-10.118-19.318-15.669-28.933c-5.72-9.908-11.657-19.548-17.764-28.87
		c18.063,2.08,35.341,5.024,51.432,8.768C346.187,183.114,340.146,199.585,332.941,216.317z M378.149,102.177
		c-1.336,2.314-3.831,3.753-6.509,3.753c-1.321,0-2.578-0.339-3.737-1.008c-1.735-1.002-2.976-2.619-3.494-4.554
		c-0.519-1.936-0.252-3.956,0.75-5.691c1.203-2.083,3.346-3.447,5.716-3.7c0.293-0.028,0.541-0.053,0.793-0.053
		c1.321,0,2.578,0.339,3.736,1.008c1.734,1.002,2.975,2.619,3.494,4.554C379.417,98.421,379.151,100.442,378.149,102.177z
		 M344.061,44.591c11.443,6.606,16.165,20.859,18.025,33.494c-4.091,1.928-7.59,5.063-9.916,9.092
		c-3.005,5.205-3.804,11.269-2.248,17.074c1.556,5.805,5.279,10.656,10.483,13.661c0.408,0.236,0.824,0.457,1.245,0.666
		c-1.379,10.84-3.629,22.32-6.686,34.264c-20.59-4.822-43.009-8.376-66.474-10.53c-13.914-19.726-28.538-37.73-43.403-53.437
		C286.181,48.893,323.724,32.849,344.061,44.591z M91.102,96.486c0.519-1.935,1.759-3.552,3.495-4.554
		c1.146-0.662,2.389-0.999,3.696-1.005c0.05,0.003,0.1,0.003,0.15,0.005c2.636,0.04,5.081,1.463,6.399,3.746
		c1.002,1.735,1.268,3.756,0.75,5.691c-0.519,1.935-1.759,3.552-3.495,4.554c-1.158,0.669-2.415,1.008-3.736,1.008
		c-2.678,0-5.172-1.438-6.509-3.753C90.849,100.442,90.583,98.421,91.102,96.486z M107.491,118.971
		c0.716-0.319,1.422-0.665,2.104-1.059c5.205-3.005,8.928-7.856,10.484-13.661c1.556-5.806,0.757-11.869-2.248-17.074
		c-2.498-4.327-6.343-7.631-10.828-9.507c1.882-12.612,6.619-26.742,17.997-33.312c20.375-11.763,58.02,4.36,99.205,44.505
		c-14.906,15.723-29.571,33.758-43.524,53.526c-23.472,2.192-45.892,5.792-66.471,10.655
		C111.153,141.174,108.894,129.759,107.491,118.971z M56.897,184.941c0,4.136-3.364,7.5-7.5,7.5s-7.5-3.364-7.5-7.5
		s3.364-7.5,7.5-7.5S56.897,180.805,56.897,184.941z M15,234.884c0-13.251,10.027-24.505,20.192-32.51
		c3.876,3.165,8.822,5.066,14.205,5.066c12.407,0,22.5-10.094,22.5-22.5c0-0.976-0.069-1.936-0.191-2.879
		c9.813-4.036,20.543-7.667,32.021-10.862c6.066,20.218,14.141,41.394,23.958,62.783c-10.191,21.967-18.556,43.731-24.803,64.489
		C47.684,282.873,15,258.374,15,234.884z M117.393,302.235c4.937-16.327,11.248-33.33,18.778-50.588
		c5.15,10.272,10.673,20.546,16.557,30.737c5.737,9.937,11.713,19.615,17.866,28.987
		C151.368,309.196,133.567,306.082,117.393,302.235z M235,329.884c11.214,0,22.308-0.311,33.221-0.914
		c-11.151,15.107-22.399,28.608-33.487,40.445c-11.391-12.146-22.686-25.746-33.617-40.479
		C212.243,329.563,223.56,329.884,235,329.884z M278.454,425.383c-1.001-1.735-1.268-3.756-0.749-5.691
		c0.191-0.712,0.481-1.381,0.857-1.993c0.013-0.018,0.028-0.033,0.041-0.05c0.054-0.075,0.098-0.154,0.149-0.231
		c0.627-0.923,1.452-1.705,2.448-2.28c1.141-0.659,2.433-1.008,3.736-1.008c2.678,0,5.172,1.438,6.509,3.753
		c2.068,3.581,0.836,8.177-2.745,10.245c-1.158,0.668-2.415,1.007-3.736,1.007C282.284,429.135,279.79,427.698,278.454,425.383z
		 M361.607,344.431c6.558,41.583,0.505,71.099-16.607,80.979c-11.351,6.553-25.91,3.617-37.732-1.023
		c0.585-4.692-0.293-9.603-2.834-14.003c-4.007-6.94-11.479-11.253-19.499-11.253c-3.933,0-7.818,1.044-11.236,3.018
		c-0.663,0.383-1.3,0.797-1.913,1.237c-8.805-6.722-17.731-14.537-26.65-23.307c14.556-15.491,28.869-33.176,42.501-52.513
		c24.105-2.158,47.077-5.799,68.182-10.803C358.257,326.272,360.203,335.524,361.607,344.431z"/>
	<path style="fill:#6DA8D6;" d="M41.897,184.941c0,4.136,3.364,7.5,7.5,7.5s7.5-3.364,7.5-7.5s-3.364-7.5-7.5-7.5
		S41.897,180.805,41.897,184.941z"/>
	<path style="fill:#F2484B;" d="M291.444,417.883c-1.336-2.314-3.831-3.753-6.509-3.753c-1.303,0-2.595,0.349-3.736,1.008
		c-0.995,0.575-1.821,1.356-2.448,2.28c-0.051,0.077-0.095,0.156-0.149,0.231c-0.013,0.018-0.028,0.033-0.041,0.05
		c-0.376,0.612-0.666,1.28-0.857,1.993c-0.519,1.936-0.252,3.956,0.749,5.691c1.336,2.314,3.831,3.752,6.509,3.752
		c1.321,0,2.579-0.339,3.736-1.007C292.28,426.06,293.512,421.464,291.444,417.883z"/>
	<path style="fill:#6DA8D6;" d="M375.405,91.932c-1.158-0.669-2.415-1.008-3.736-1.008c-0.252,0-0.5,0.025-0.748,0.05
		c-2.415,0.256-4.558,1.62-5.761,3.703c-1.002,1.735-1.268,3.756-0.75,5.691c0.519,1.935,1.759,3.552,3.494,4.554
		c1.159,0.669,2.416,1.008,3.737,1.008c2.678,0,5.172-1.438,6.509-3.753c1.001-1.735,1.268-3.756,0.749-5.691
		C378.38,94.551,377.139,92.934,375.405,91.932z"/>
	<path style="fill:#F2484B;" d="M98.359,105.93c1.321,0,2.578-0.339,3.736-1.008c1.736-1.002,2.977-2.619,3.495-4.554
		c0.519-1.936,0.252-3.956-0.75-5.691c-1.318-2.282-3.763-3.706-6.399-3.746c-0.05-0.002-0.1-0.001-0.15-0.005
		c-1.307,0.007-2.55,0.343-3.696,1.005c-1.735,1.002-2.976,2.619-3.495,4.554c-0.519,1.936-0.252,3.956,0.749,5.691
		C93.187,104.491,95.681,105.93,98.359,105.93z"/>
	<path style="fill:#FFCC75;" d="M235,272.384c20.678,0,37.5-16.822,37.5-37.5s-16.822-37.5-37.5-37.5s-37.5,16.822-37.5,37.5
		S214.322,272.384,235,272.384z"/>
	<path style="fill:#082947;" d="M235,287.384c28.949,0,52.5-23.552,52.5-52.5s-23.551-52.5-52.5-52.5s-52.5,23.552-52.5,52.5
		S206.051,287.384,235,287.384z M235,197.384c20.678,0,37.5,16.822,37.5,37.5s-16.822,37.5-37.5,37.5s-37.5-16.822-37.5-37.5
		S214.322,197.384,235,197.384z"/>
</g>
<g>
</g>
<g>
</g>
<g>
</g>
<g>
</g>
<g>
</g>
<g>
</g>
<g>
</g>
<g>
</g>
<g>
</g>
<g>
</g>
<g>
</g>
<g>
</g>
<g>
</g>
<g>
</g>
<g>
</g>
</svg>
