<?xml version="1.0" encoding="iso-8859-1"?>
<!-- Generator: Adobe Illustrator 19.0.0, SVG Export Plug-In . SVG Version: 6.00 Build 0)  -->
<svg version="1.1" id="Capa_1" xmlns="http://www.w3.org/2000/svg" xmlns:xlink="http://www.w3.org/1999/xlink" x="0px" y="0px"
	 viewBox="0 0 475 475" style="enable-background:new 0 0 475 475;" xml:space="preserve">
<g>
	<path style="fill:#FFFFFF;" d="M382.024,216.421H92.976c-6.893,0-12.5,5.607-12.5,12.5s5.607,12.5,12.5,12.5h289.048
		c6.893,0,12.5-5.607,12.5-12.5S388.917,216.421,382.024,216.421z"/>
	<path style="fill:#F2EBD9;" d="M44.765,63.21c0,26.583,21.627,48.21,48.21,48.21s48.21-21.627,48.21-48.21
		c0-7.852-1.826-15.337-5.426-22.246c-1.915-3.673-0.488-8.203,3.185-10.117c3.675-1.916,8.202-0.489,10.117,3.185
		c4.661,8.944,7.125,19.034,7.125,29.179c0,32.315-24.38,59.027-55.71,62.75v35.46h22.5c4.142,0,7.499,3.357,7.5,7.499h15
		c0-4.142,3.358-7.499,7.5-7.499h221.548v-35.46c-31.33-3.723-55.71-30.435-55.71-62.75c0-10.146,2.464-20.236,7.125-29.179
		c1.915-3.673,6.444-5.099,10.117-3.185c3.673,1.915,5.099,6.444,3.185,10.117c-3.601,6.908-5.426,14.393-5.426,22.246
		c0,26.583,21.627,48.21,48.21,48.21s48.21-21.627,48.21-48.21S408.608,15,382.024,15H92.976C66.392,15,44.765,36.627,44.765,63.21z
		 M356.314,55.71c0.371,0,0.733,0.036,1.09,0.088c2.477-8.238,8.971-14.732,17.209-17.209c-0.052-0.357-0.088-0.719-0.088-1.09
		c0-4.142,3.358-7.5,7.5-7.5c18.313,0,33.21,14.898,33.21,33.21s-14.898,33.21-33.21,33.21s-33.21-14.898-33.21-33.21
		C348.814,59.068,352.172,55.71,356.314,55.71z M178.686,55.71h117.627c4.142,0,7.5,3.358,7.5,7.5s-3.358,7.5-7.5,7.5H178.686
		c-4.142,0-7.5-3.358-7.5-7.5S174.544,55.71,178.686,55.71z M92.976,30c4.142,0,7.5,3.358,7.5,7.5c0,0.371-0.036,0.733-0.088,1.09
		c8.238,2.477,14.732,8.971,17.209,17.209c0.357-0.052,0.719-0.088,1.09-0.088c4.142,0,7.5,3.358,7.5,7.5
		c0,18.313-14.898,33.21-33.21,33.21s-33.21-14.898-33.21-33.21S74.663,30,92.976,30z"/>
	<path style="fill:#F2EBD9;" d="M100.476,256.421V467.5h27.262V308.921c0-15.164,12.336-27.5,27.5-27.5s27.5,12.336,27.5,27.5V467.5
		H210V308.921c0-15.164,12.336-27.5,27.5-27.5s27.5,12.336,27.5,27.5V467.5h27.262V308.921c0-15.164,12.336-27.5,27.5-27.5
		s27.5,12.336,27.5,27.5v30c0,4.141-3.356,7.498-7.497,7.5v15c4.141,0.002,7.497,3.359,7.497,7.5V467.5h27.262V256.421H100.476z"/>
	<path style="fill:#FFCC75;" d="M155.238,296.421c-6.893,0-12.5,5.607-12.5,12.5V467.5h25V308.921
		C167.738,302.028,162.131,296.421,155.238,296.421z"/>
	<path style="fill:#FFCC75;" d="M237.5,296.421c-6.893,0-12.5,5.607-12.5,12.5V467.5h25V308.921
		C250,302.028,244.392,296.421,237.5,296.421z"/>
	<path style="fill:#FFCC75;" d="M339.762,361.421c0.003,0,0.003-15,0.003-15c-4.145,0-7.503-3.358-7.503-7.5v-30
		c0-6.893-5.607-12.5-12.5-12.5s-12.5,5.607-12.5,12.5V467.5h25v-98.579C332.262,364.779,335.62,361.421,339.762,361.421z"/>
	<path style="fill:#FFCC75;" d="M130.476,168.921c0,4.142-3.358,7.5-7.5,7.5h-22.5v25h274.048v-25H152.976
		c-4.142,0-7.5-3.358-7.5-7.5C145.476,168.92,130.476,168.92,130.476,168.921z"/>
	<path style="fill:#FFCC75;" d="M92.976,45c-10.042,0-18.21,8.169-18.21,18.21s8.169,18.21,18.21,18.21s18.21-8.169,18.21-18.21
		c0-3.771,2.786-6.883,6.41-7.412c-2.477-8.238-8.971-14.732-17.209-17.209C99.859,42.214,96.747,45,92.976,45z"/>
	<path style="fill:#FFCC75;" d="M363.814,63.21c0,10.042,8.169,18.21,18.21,18.21s18.21-8.169,18.21-18.21S392.066,45,382.024,45
		c-3.771,0-6.883-2.786-7.412-6.41c-8.238,2.477-14.732,8.971-17.209,17.209C361.028,56.327,363.814,59.439,363.814,63.21z"/>
	<path style="fill:#082947;" d="M389.524,125.961c31.33-3.723,55.71-30.435,55.71-62.75c0-34.854-28.356-63.21-63.21-63.21H92.976
		c-34.854,0-63.21,28.356-63.21,63.21c0,32.315,24.38,59.027,55.71,62.75v76.508c-11.528,3.274-20,13.889-20,26.452
		s8.472,23.178,20,26.452V467.5c0,4.142,3.358,7.5,7.5,7.5s7.5-3.358,7.5-7.5V256.421h274.048V467.5c0,4.142,3.358,7.5,7.5,7.5
		s7.5-3.358,7.5-7.5V255.373c11.528-3.274,20-13.889,20-26.452s-8.472-23.178-20-26.452V125.961z M382.024,241.421H92.976
		c-6.893,0-12.5-5.607-12.5-12.5s5.607-12.5,12.5-12.5h289.048c6.893,0,12.5,5.607,12.5,12.5S388.917,241.421,382.024,241.421z
		 M382.024,15c26.583,0,48.21,21.627,48.21,48.21s-21.627,48.21-48.21,48.21s-48.21-21.627-48.21-48.21
		c0-7.853,1.826-15.338,5.426-22.246c1.915-3.673,0.489-8.203-3.185-10.117c-3.673-1.915-8.203-0.489-10.117,3.185
		c-4.661,8.942-7.125,19.032-7.125,29.179c0,32.315,24.38,59.027,55.71,62.75v35.46H152.976c-4.142,0-7.499,3.357-7.5,7.499
		c0,4.143,3.358,7.501,7.5,7.501h221.548v25H100.476v-25h22.5c4.142,0,7.5-3.358,7.5-7.5c-0.001-4.143-3.358-7.5-7.5-7.5h-22.5
		v-35.46c31.33-3.723,55.71-30.435,55.71-62.75c0-10.145-2.463-20.235-7.125-29.179c-1.915-3.673-6.442-5.1-10.117-3.185
		c-3.673,1.914-5.099,6.444-3.185,10.117c3.601,6.909,5.426,14.394,5.426,22.246c0,26.583-21.627,48.21-48.21,48.21
		s-48.21-21.627-48.21-48.21S66.392,15,92.976,15H382.024z"/>
	<path style="fill:#082947;" d="M155.238,281.421c-15.164,0-27.5,12.336-27.5,27.5V467.5c0,4.142,3.358,7.5,7.5,7.5
		s7.5-3.358,7.5-7.5V308.921c0-6.893,5.607-12.5,12.5-12.5s12.5,5.607,12.5,12.5V467.5c0,4.142,3.358,7.5,7.5,7.5s7.5-3.358,7.5-7.5
		V308.921C182.738,293.757,170.402,281.421,155.238,281.421z"/>
	<path style="fill:#082947;" d="M237.5,281.421c-15.164,0-27.5,12.336-27.5,27.5V467.5c0,4.142,3.358,7.5,7.5,7.5s7.5-3.358,7.5-7.5
		V308.921c0-6.893,5.607-12.5,12.5-12.5s12.5,5.607,12.5,12.5V467.5c0,4.142,3.358,7.5,7.5,7.5s7.5-3.358,7.5-7.5V308.921
		C265,293.757,252.663,281.421,237.5,281.421z"/>
	<path style="fill:#082947;" d="M319.762,296.421c6.893,0,12.5,5.607,12.5,12.5v30c0,4.142,3.358,7.5,7.5,7.5
		c4.144-0.002,7.5-3.359,7.5-7.5v-30c0-15.164-12.336-27.5-27.5-27.5s-27.5,12.336-27.5,27.5V467.5c0,4.142,3.358,7.5,7.5,7.5
		s7.5-3.358,7.5-7.5V308.921C307.262,302.028,312.869,296.421,319.762,296.421z"/>
	<path style="fill:#082947;" d="M339.765,361.421c-4.145,0-7.503,3.358-7.503,7.5V467.5c0,4.142,3.358,7.5,7.5,7.5
		s7.5-3.358,7.5-7.5v-98.579C347.262,364.78,343.906,361.423,339.765,361.421z"/>
	<path style="fill:#082947;" d="M92.976,96.421c18.313,0,33.21-14.898,33.21-33.21c0-4.142-3.358-7.5-7.5-7.5
		c-0.371,0-0.733,0.036-1.09,0.088c-3.624,0.529-6.41,3.641-6.41,7.412c0,10.042-8.169,18.21-18.21,18.21s-18.21-8.169-18.21-18.21
		S82.934,45,92.976,45c3.771,0,6.883-2.786,7.412-6.41c0.052-0.357,0.088-0.719,0.088-1.09c0-4.142-3.358-7.5-7.5-7.5
		c-18.313,0-33.21,14.898-33.21,33.21S74.663,96.421,92.976,96.421z"/>
	<path style="fill:#082947;" d="M382.024,96.421c18.313,0,33.21-14.898,33.21-33.21S400.337,30,382.024,30
		c-4.142,0-7.5,3.358-7.5,7.5c0,0.371,0.036,0.733,0.088,1.09c0.529,3.624,3.641,6.41,7.412,6.41c10.042,0,18.21,8.169,18.21,18.21
		s-8.169,18.21-18.21,18.21s-18.21-8.169-18.21-18.21c0-3.771-2.786-6.883-6.41-7.412c-0.357-0.052-0.718-0.088-1.09-0.088
		c-4.142,0-7.5,3.358-7.5,7.5C348.814,81.523,363.712,96.421,382.024,96.421z"/>
	<path style="fill:#082947;" d="M178.686,70.71h117.627c4.142,0,7.5-3.358,7.5-7.5s-3.358-7.5-7.5-7.5H178.686
		c-4.142,0-7.5,3.358-7.5,7.5S174.544,70.71,178.686,70.71z"/>
</g>
<g>
</g>
<g>
</g>
<g>
</g>
<g>
</g>
<g>
</g>
<g>
</g>
<g>
</g>
<g>
</g>
<g>
</g>
<g>
</g>
<g>
</g>
<g>
</g>
<g>
</g>
<g>
</g>
<g>
</g>
</svg>
