<svg width="30" height="30" viewBox="0 0 30 30" fill="none" xmlns="http://www.w3.org/2000/svg">
<path d="M3.94374e-07 0L4.3549 10.8603H3.94374e-07L10.8487 29.0037L7.5729 16.3065H10.8487L7.5729 0H3.94374e-07Z" fill="#010101"/>
<path d="M28.6095 16.4001C27.6825 15.1731 26.401 14.2734 24.7651 13.7008C25.992 13.0737 26.9327 12.2285 27.587 11.1651C28.2687 10.0745 28.6095 8.84758 28.6095 7.48432C28.6095 5.19404 27.6552 3.38089 25.7466 2.0449C23.838 0.681631 21.057 0 17.4034 0H9.55104L10.778 5.8484H16.3401C19.0666 5.8484 20.4299 6.76179 20.4299 8.58856C20.4299 10.4426 19.0666 11.3696 16.3401 11.3696H11.845L12.786 16.4001H18.6531C21.4887 16.4001 21.8204 17.9405 21.8204 19.8764C21.8204 21.8122 20.4026 22.7801 17.567 22.7801H11.4576L12.786 28.6285H18.2214C22.0385 28.6285 24.9559 27.9469 26.9736 26.5836C28.9912 25.2204 30 23.2845 30 20.7761C30 19.0584 29.5365 17.5997 28.6095 16.4001Z" fill="#010101"/>
</svg>
