<svg width="52" height="50" viewBox="0 0 52 50" fill="none" xmlns="http://www.w3.org/2000/svg">
<path d="M8.31606e-07 0L7.50749 18.7222H8.31606e-07L18.7023 50L13.0551 28.1111H18.7023L13.0551 0H8.31606e-07Z" fill="#fff"/>
<path d="M49.3204 28.2724C47.7223 26.1572 45.5131 24.6061 42.693 23.6191C44.8081 22.538 46.4297 21.0809 47.5578 19.2478C48.7329 17.3676 49.3204 15.2525 49.3204 12.9024C49.3204 8.95409 47.6753 5.82839 44.3851 3.52523C41.0949 1.17508 36.3005 0 30.0021 0H16.4652L18.5804 10.0822H28.169C32.8693 10.0822 35.2195 11.6568 35.2195 14.806C35.2195 18.0022 32.8693 19.6003 28.169 19.6003H20.4198L22.042 28.2724H32.1565C37.0448 28.2724 37.6166 30.928 37.6166 34.2653C37.6166 37.6025 35.1725 39.2711 30.2841 39.2711H19.7519L22.042 49.3533H31.4122C37.9926 49.3533 43.022 48.1782 46.5002 45.828C49.9784 43.4779 51.7176 40.1407 51.7176 35.8164C51.7176 32.8552 50.9185 30.3405 49.3204 28.2724Z" fill="#fff"/>
</svg>
