<svg viewBox="0 0 230 55" xmlns="http://www.w3.org/2000/svg" fill-rule="evenodd" clip-rule="evenodd" stroke-linejoin="round" stroke-miterlimit="1.414"><path d="M51.624 52.68H3.056A1.056 1.056 0 0 1 2 51.624V3.056C2 2.473 2.473 2 3.056 2h48.568c.583 0 1.056.473 1.056 1.056v48.568c0 .583-.473 1.056-1.056 1.056zM4.112 50.569h46.457V4.112H4.112v46.457z" fill="#fff" fill-rule="nonzero"/><path d="M47.401 48.457H7.279a1.056 1.056 0 0 1-1.056-1.056V7.279c0-.583.473-1.056 1.056-1.056h40.122c.583 0 1.056.473 1.056 1.056v40.122c0 .583-.473 1.056-1.056 1.056zM8.335 46.345h38.01V8.335H8.335v38.01z" fill="#fff" fill-rule="nonzero"/><path d="M29.155 34.872c2.76 0 5.016-1.092 6.768-3.276l3.6 3.708c-2.856 3.216-6.222 4.824-10.098 4.824-3.876 0-7.068-1.224-9.576-3.672-2.508-2.448-3.762-5.538-3.762-9.27 0-3.732 1.278-6.846 3.834-9.342 2.556-2.496 5.682-3.744 9.378-3.744 4.128 0 7.584 1.572 10.368 4.716l-3.492 3.96c-1.776-2.208-3.984-3.312-6.624-3.312-2.112 0-3.918.69-5.418 2.07s-2.25 3.24-2.25 5.58.708 4.218 2.124 5.634c1.416 1.416 3.132 2.124 5.148 2.124zm41.427-8.168c1.993 0 3.623-.789 4.888-2.366l2.6 2.678c-2.063 2.323-4.494 3.484-7.293 3.484-2.799 0-5.105-.884-6.916-2.652-1.811-1.768-2.717-4-2.717-6.695 0-2.695.923-4.944 2.769-6.747s4.104-2.704 6.773-2.704c2.981 0 5.477 1.135 7.488 3.406l-2.522 2.86c-1.283-1.595-2.877-2.392-4.784-2.392-1.525 0-2.83.498-3.913 1.495-1.083.997-1.625 2.34-1.625 4.03 0 1.69.511 3.046 1.534 4.069 1.023 1.023 2.262 1.534 3.718 1.534zm22.646-9.75c-1.04-1.144-2.318-1.716-3.835-1.716s-2.795.572-3.835 1.716c-1.04 1.144-1.56 2.526-1.56 4.147 0 1.621.52 2.999 1.56 4.134 1.04 1.135 2.318 1.703 3.835 1.703s2.795-.568 3.835-1.703c1.04-1.135 1.56-2.513 1.56-4.134 0-1.621-.52-3.003-1.56-4.147zm-3.848 13.52c-2.687 0-4.949-.897-6.786-2.691-1.837-1.794-2.756-4.026-2.756-6.695 0-2.669.919-4.901 2.756-6.695 1.837-1.794 4.099-2.691 6.786-2.691 2.687 0 4.949.897 6.786 2.691 1.837 1.794 2.756 4.026 2.756 6.695 0 2.669-.919 4.901-2.756 6.695-1.837 1.794-4.099 2.691-6.786 2.691zm25.688-18.356h4.056v18.174h-4.056l-8.658-11.388v11.388h-4.056V12.118h3.796l8.918 11.7v-11.7zm12.779 3.627c-.39.321-.585.745-.585 1.274s.238.949.715 1.261c.477.312 1.577.68 3.302 1.105 1.725.425 3.064 1.062 4.017 1.911.953.849 1.43 2.089 1.43 3.718s-.611 2.951-1.833 3.965c-1.222 1.014-2.83 1.521-4.823 1.521-2.877 0-5.469-1.066-7.774-3.198l2.418-2.964c1.959 1.716 3.77 2.574 5.434 2.574.745 0 1.33-.16 1.755-.481.425-.321.637-.754.637-1.3s-.225-.979-.676-1.3c-.451-.321-1.343-.646-2.678-.975-2.115-.503-3.662-1.157-4.641-1.963-.979-.806-1.469-2.071-1.469-3.796 0-1.725.62-3.055 1.859-3.991 1.239-.936 2.786-1.404 4.641-1.404 1.213 0 2.427.208 3.64.624 1.213.416 2.271 1.005 3.172 1.768l-2.054 2.964c-1.577-1.196-3.207-1.794-4.888-1.794-.676 0-1.209.16-1.599.481zm19.877-.117v14.664h-4.056V15.628h-5.148v-3.51h14.352v3.51h-5.148zm22.854 2.522c0 2.912-1.153 4.793-3.458 5.642l4.602 6.5h-4.992l-4.03-5.798h-2.808v5.798h-4.056V12.118h6.89c2.825 0 4.84.477 6.045 1.43s1.807 2.487 1.807 4.602zm-4.888 2.158c.503-.451.754-1.166.754-2.145 0-.979-.26-1.651-.78-2.015-.52-.364-1.43-.546-2.73-.546h-3.042v5.382h2.964c1.387 0 2.331-.225 2.834-.676zm16.588 6.552c1.144 0 2.05-.42 2.717-1.261.667-.841 1.001-1.989 1.001-3.445V12.118h4.056v10.166c0 2.635-.728 4.658-2.184 6.071-1.456 1.413-3.319 2.119-5.59 2.119s-4.138-.711-5.603-2.132c-1.465-1.421-2.197-3.441-2.197-6.058V12.118h4.056v10.036c0 1.456.338 2.604 1.014 3.445.676.841 1.586 1.261 2.73 1.261zm20.332-.156c1.993 0 3.623-.789 4.888-2.366l2.6 2.678c-2.063 2.323-4.494 3.484-7.293 3.484-2.799 0-5.105-.884-6.916-2.652-1.811-1.768-2.717-4-2.717-6.695 0-2.695.923-4.944 2.769-6.747s4.104-2.704 6.773-2.704c2.981 0 5.477 1.135 7.488 3.406l-2.522 2.86c-1.283-1.595-2.877-2.392-4.784-2.392-1.525 0-2.83.498-3.913 1.495-1.083.997-1.625 2.34-1.625 4.03 0 1.69.511 3.046 1.534 4.069 1.023 1.023 2.262 1.534 3.718 1.534zm18.382-11.076v14.664h-4.056V15.628h-5.148v-3.51h14.352v3.51h-5.148zM65.602 43.456h-3.06v-6.99h2.72c.473 0 .882.057 1.225.17.343.114.598.267.765.46.32.36.48.767.48 1.22 0 .547-.173.954-.52 1.22a2.156 2.156 0 0 1-.26.175 5.79 5.79 0 0 1-.25.115c.433.094.778.289 1.035.585.257.297.385.665.385 1.105 0 .487-.167.917-.5 1.29-.393.434-1.067.65-2.02.65zm-1.88-4.09h1.5c.853 0 1.28-.29 1.28-.87 0-.333-.103-.573-.31-.72-.207-.146-.527-.22-.96-.22h-1.51v1.81zm0 3h1.85c.433 0 .765-.068.995-.205.23-.136.345-.395.345-.775 0-.62-.497-.93-1.49-.93h-1.7v1.91zm8.75.05c.547 0 .98-.186 1.3-.56.32-.373.48-.88.48-1.52v-3.87h1.18v3.92c0 1.007-.277 1.782-.83 2.325-.553.544-1.263.815-2.13.815s-1.577-.271-2.13-.815c-.553-.543-.83-1.318-.83-2.325v-3.92h1.18v3.87c0 .64.16 1.147.48 1.52.32.374.753.56 1.3.56zm4.81-5.95h1.18v6.99h-1.18zm3.12 6.99v-6.99h1.18v5.87h3.19v1.12h-4.37zm10.95-6.075c.673.61 1.01 1.459 1.01 2.545 0 1.087-.327 1.947-.98 2.58-.653.634-1.653.95-3 .95h-2.32v-6.99h2.4c1.253 0 2.217.305 2.89.915zm-.18 2.575c0-1.6-.917-2.4-2.75-2.4h-1.18v4.79h1.31c.847 0 1.495-.201 1.945-.605.45-.403.675-.998.675-1.785zm2.71-3.49h1.18v6.99h-1.18zm8.36 0h1.18v6.99h-1.28l-3.96-5.1v5.1h-1.18v-6.99h1.18l4.06 5.22v-5.22zm7.96 3.59h1.18v2.39c-.66.727-1.603 1.09-2.83 1.09-1.033 0-1.898-.34-2.595-1.02-.697-.68-1.045-1.54-1.045-2.58s.355-1.906 1.065-2.6c.71-.693 1.568-1.04 2.575-1.04 1.007 0 1.843.294 2.51.88l-.63.9a2.453 2.453 0 0 0-.825-.485 3.123 3.123 0 0 0-.965-.135c-.707 0-1.3.229-1.78.685-.48.457-.72 1.057-.72 1.8 0 .744.233 1.34.7 1.79.467.45 1.032.675 1.695.675s1.218-.143 1.665-.43v-1.92zm6.74-2.46c-.22.14-.33.352-.33.635 0 .284.11.5.33.65.22.15.688.312 1.405.485.717.174 1.257.417 1.62.73.363.314.545.775.545 1.385s-.23 1.105-.69 1.485c-.46.38-1.063.57-1.81.57-1.093 0-2.063-.376-2.91-1.13l.74-.89c.707.614 1.44.92 2.2.92.38 0 .682-.081.905-.245a.767.767 0 0 0 .335-.65.73.73 0 0 0-.315-.63c-.21-.15-.572-.286-1.085-.41a9.61 9.61 0 0 1-1.17-.34 2.625 2.625 0 0 1-.71-.405c-.413-.313-.62-.793-.62-1.44 0-.646.235-1.145.705-1.495.47-.35 1.052-.525 1.745-.525a4.2 4.2 0 0 1 1.33.22c.44.147.82.354 1.14.62l-.63.89c-.207-.186-.487-.34-.84-.46a3.236 3.236 0 0 0-1.045-.18c-.343 0-.625.07-.845.21zm9.94-1.13v1.11h-3.73v1.85h3.35v1.05h-3.35v1.87h3.85v1.11h-5.03v-6.99h4.91zm7.21 2.27c0 1.154-.503 1.88-1.51 2.18l1.83 2.54h-1.5l-1.67-2.35h-1.55v2.35h-1.18v-6.99h2.6c1.067 0 1.83.18 2.29.54.46.36.69.937.69 1.73zm-1.57.99c.24-.206.36-.538.36-.995 0-.456-.123-.77-.37-.94-.247-.17-.687-.255-1.32-.255h-1.5v2.5h1.47c.667 0 1.12-.103 1.36-.31zm6.37 3.73h-1.32l-2.81-6.99h1.32l2.15 5.22 2.15-5.22h1.32l-2.81 6.99zm3.81-6.99h1.18v6.99h-1.18zm6.31 5.92c.407 0 .757-.068 1.05-.205.293-.136.6-.355.92-.655l.76.78c-.74.82-1.638 1.23-2.695 1.23s-1.933-.34-2.63-1.02c-.697-.68-1.045-1.54-1.045-2.58s.355-1.906 1.065-2.6c.71-.693 1.607-1.04 2.69-1.04s1.988.4 2.715 1.2l-.75.82c-.333-.32-.648-.543-.945-.67a2.66 2.66 0 0 0-1.045-.19c-.707 0-1.3.229-1.78.685-.48.457-.72 1.04-.72 1.75s.238 1.304.715 1.78c.477.477 1.042.715 1.695.715zm9.08-5.92v1.11h-3.73v1.85h3.35v1.05h-3.35v1.87h3.85v1.11h-5.03v-6.99h4.91zm2.9 1.13c-.22.14-.33.352-.33.635 0 .284.11.5.33.65.22.15.688.312 1.405.485.717.174 1.257.417 1.62.73.363.314.545.775.545 1.385s-.23 1.105-.69 1.485c-.46.38-1.063.57-1.81.57-1.093 0-2.063-.376-2.91-1.13l.74-.89c.707.614 1.44.92 2.2.92.38 0 .682-.081.905-.245a.767.767 0 0 0 .335-.65.73.73 0 0 0-.315-.63c-.21-.15-.572-.286-1.085-.41a9.61 9.61 0 0 1-1.17-.34 2.625 2.625 0 0 1-.71-.405c-.413-.313-.62-.793-.62-1.44 0-.646.235-1.145.705-1.495.47-.35 1.052-.525 1.745-.525a4.2 4.2 0 0 1 1.33.22c.44.147.82.354 1.14.62l-.63.89c-.207-.186-.487-.34-.84-.46a3.236 3.236 0 0 0-1.045-.18c-.343 0-.625.07-.845.21zm9.65 5.94c-.653 0-1.21-.181-1.67-.545-.46-.363-.69-.861-.69-1.495 0-.753.547-1.423 1.64-2.01-.273-.313-.465-.57-.575-.77-.11-.2-.165-.453-.165-.76 0-.533.197-.943.59-1.23.393-.286.857-.43 1.39-.43.533 0 .987.137 1.36.41.373.274.56.657.56 1.15 0 .66-.533 1.284-1.6 1.87.533.654.967 1.154 1.3 1.5.207-.306.367-.663.48-1.07l.82.58c-.173.46-.37.864-.59 1.21.267.274.607.604 1.02.99l-.75.7-.92-.91c-.587.54-1.32.81-2.2.81zm-.87-1.255c.253.19.59.285 1.01.285.42 0 .867-.193 1.34-.58a33.004 33.004 0 0 1-1.6-1.78c-.753.407-1.13.854-1.13 1.34 0 .3.127.545.38.735zm.785-4.885c-.177.14-.265.304-.265.49 0 .187.045.355.135.505.09.15.245.359.465.625.753-.373 1.13-.72 1.13-1.04 0-.266-.088-.465-.265-.595a.988.988 0 0 0-.6-.195.942.942 0 0 0-.6.21zm9.155.2c-.22.14-.33.352-.33.635 0 .284.11.5.33.65.22.15.688.312 1.405.485.717.174 1.257.417 1.62.73.363.314.545.775.545 1.385s-.23 1.105-.69 1.485c-.46.38-1.063.57-1.81.57-1.093 0-2.063-.376-2.91-1.13l.74-.89c.707.614 1.44.92 2.2.92.38 0 .682-.081.905-.245a.767.767 0 0 0 .335-.65.73.73 0 0 0-.315-.63c-.21-.15-.572-.286-1.085-.41a9.61 9.61 0 0 1-1.17-.34 2.625 2.625 0 0 1-.71-.405c-.413-.313-.62-.793-.62-1.44 0-.646.235-1.145.705-1.495.47-.35 1.052-.525 1.745-.525a4.2 4.2 0 0 1 1.33.22c.44.147.82.354 1.14.62l-.63.89c-.207-.186-.487-.34-.84-.46a3.236 3.236 0 0 0-1.045-.18c-.343 0-.625.07-.845.21zm7.9 4.82c.547 0 .98-.186 1.3-.56.32-.373.48-.88.48-1.52v-3.87h1.18v3.92c0 1.007-.277 1.782-.83 2.325-.553.544-1.263.815-2.13.815s-1.577-.271-2.13-.815c-.553-.543-.83-1.318-.83-2.325v-3.92h1.18v3.87c0 .64.16 1.147.48 1.52.32.374.753.56 1.3.56zm9.53-5.34c.487.407.73 1.034.73 1.88 0 .847-.248 1.467-.745 1.86-.497.394-1.258.59-2.285.59h-1.24v2.05h-1.18v-6.99h2.4c1.06 0 1.833.204 2.32.61zm-.835 2.885c.237-.25.355-.616.355-1.1 0-.483-.15-.825-.45-1.025-.3-.2-.77-.3-1.41-.3h-1.2v2.8h1.37c.653 0 1.098-.125 1.335-.375zm7.675-2.885c.487.407.73 1.034.73 1.88 0 .847-.248 1.467-.745 1.86-.497.394-1.258.59-2.285.59h-1.24v2.05h-1.18v-6.99h2.4c1.06 0 1.833.204 2.32.61zm-.835 2.885c.237-.25.355-.616.355-1.1 0-.483-.15-.825-.45-1.025-.3-.2-.77-.3-1.41-.3h-1.2v2.8h1.37c.653 0 1.098-.125 1.335-.375zm2.955 3.495v-6.99h1.18v5.87h3.19v1.12h-4.37zm5.66-6.99h1.18v6.99h-1.18zm8.03 0v1.11h-3.73v1.85h3.35v1.05h-3.35v1.87h3.85v1.11h-5.03v-6.99h4.91zm2.9 1.13c-.22.14-.33.352-.33.635 0 .284.11.5.33.65.22.15.688.312 1.405.485.717.174 1.257.417 1.62.73.363.314.545.775.545 1.385s-.23 1.105-.69 1.485c-.46.38-1.063.57-1.81.57-1.093 0-2.063-.376-2.91-1.13l.74-.89c.707.614 1.44.92 2.2.92.38 0 .682-.081.905-.245a.767.767 0 0 0 .335-.65.73.73 0 0 0-.315-.63c-.21-.15-.572-.286-1.085-.41a9.61 9.61 0 0 1-1.17-.34 2.625 2.625 0 0 1-.71-.405c-.413-.313-.62-.793-.62-1.44 0-.646.235-1.145.705-1.495.47-.35 1.052-.525 1.745-.525a4.2 4.2 0 0 1 1.33.22c.44.147.82.354 1.14.62l-.63.89c-.207-.186-.487-.34-.84-.46a3.236 3.236 0 0 0-1.045-.18c-.343 0-.625.07-.845.21z" fill="#fff" fill-rule="nonzero"/></svg>