<?xml version="1.0" encoding="UTF-8" standalone="no"?><!DOCTYPE svg PUBLIC "-//W3C//DTD SVG 1.1//EN" "http://www.w3.org/Graphics/SVG/1.1/DTD/svg11.dtd"><svg width="100%" height="100%" viewBox="0 0 230 55" version="1.1" xmlns="http://www.w3.org/2000/svg" xmlns:xlink="http://www.w3.org/1999/xlink" xml:space="preserve" style="fill-rule:evenodd;clip-rule:evenodd;stroke-linejoin:round;stroke-miterlimit:1.41421;"><path d="M51.624,52.68l-48.568,0c-0.583,0 -1.056,-0.473 -1.056,-1.056l0,-48.568c0,-0.583 0.473,-1.056 1.056,-1.056l48.568,0c0.583,0 1.056,0.473 1.056,1.056l0,48.568c0,0.583 -0.473,1.056 -1.056,1.056ZM4.112,50.569l46.457,0l0,-46.457l-46.457,0l0,46.457Z" style="fill:#ffc100;fill-rule:nonzero;"/><path d="M47.401,48.457l-40.122,0c-0.583,0 -1.056,-0.473 -1.056,-1.056l0,-40.122c0,-0.583 0.473,-1.056 1.056,-1.056l40.122,0c0.583,0 1.056,0.473 1.056,1.056l0,40.122c0,0.583 -0.473,1.056 -1.056,1.056ZM8.335,46.345l38.01,0l0,-38.01l-38.01,0l0,38.01Z" style="fill:#ffc100;fill-rule:nonzero;"/><path d="M29.155,34.872c2.76,0 5.016,-1.092 6.768,-3.276l3.6,3.708c-2.856,3.216 -6.222,4.824 -10.098,4.824c-3.876,0 -7.068,-1.224 -9.576,-3.672c-2.508,-2.448 -3.762,-5.538 -3.762,-9.27c0,-3.732 1.278,-6.846 3.834,-9.342c2.556,-2.496 5.682,-3.744 9.378,-3.744c4.128,0 7.584,1.572 10.368,4.716l-3.492,3.96c-1.776,-2.208 -3.984,-3.312 -6.624,-3.312c-2.112,0 -3.918,0.69 -5.418,2.07c-1.5,1.38 -2.25,3.24 -2.25,5.58c0,2.34 0.708,4.218 2.124,5.634c1.416,1.416 3.132,2.124 5.148,2.124Z" style="fill:#ffc100;fill-rule:nonzero;"/><path d="M70.582,26.704c1.993,0 3.623,-0.789 4.888,-2.366l2.6,2.678c-2.063,2.323 -4.494,3.484 -7.293,3.484c-2.799,0 -5.105,-0.884 -6.916,-2.652c-1.811,-1.768 -2.717,-4 -2.717,-6.695c0,-2.695 0.923,-4.944 2.769,-6.747c1.846,-1.803 4.104,-2.704 6.773,-2.704c2.981,0 5.477,1.135 7.488,3.406l-2.522,2.86c-1.283,-1.595 -2.877,-2.392 -4.784,-2.392c-1.525,0 -2.83,0.498 -3.913,1.495c-1.083,0.997 -1.625,2.34 -1.625,4.03c0,1.69 0.511,3.046 1.534,4.069c1.023,1.023 2.262,1.534 3.718,1.534Z" style="fill:#fff;fill-rule:nonzero;"/><path d="M93.228,16.954c-1.04,-1.144 -2.318,-1.716 -3.835,-1.716c-1.517,0 -2.795,0.572 -3.835,1.716c-1.04,1.144 -1.56,2.526 -1.56,4.147c0,1.621 0.52,2.999 1.56,4.134c1.04,1.135 2.318,1.703 3.835,1.703c1.517,0 2.795,-0.568 3.835,-1.703c1.04,-1.135 1.56,-2.513 1.56,-4.134c0,-1.621 -0.52,-3.003 -1.56,-4.147ZM89.38,30.474c-2.687,0 -4.949,-0.897 -6.786,-2.691c-1.837,-1.794 -2.756,-4.026 -2.756,-6.695c0,-2.669 0.919,-4.901 2.756,-6.695c1.837,-1.794 4.099,-2.691 6.786,-2.691c2.687,0 4.949,0.897 6.786,2.691c1.837,1.794 2.756,4.026 2.756,6.695c0,2.669 -0.919,4.901 -2.756,6.695c-1.837,1.794 -4.099,2.691 -6.786,2.691Z" style="fill:#fff;fill-rule:nonzero;"/><path d="M115.068,12.118l4.056,0l0,18.174l-4.056,0l-8.658,-11.388l0,11.388l-4.056,0l0,-18.174l3.796,0l8.918,11.7l0,-11.7Z" style="fill:#fff;fill-rule:nonzero;"/><path d="M127.847,15.745c-0.39,0.321 -0.585,0.745 -0.585,1.274c0,0.529 0.238,0.949 0.715,1.261c0.477,0.312 1.577,0.68 3.302,1.105c1.725,0.425 3.064,1.062 4.017,1.911c0.953,0.849 1.43,2.089 1.43,3.718c0,1.629 -0.611,2.951 -1.833,3.965c-1.222,1.014 -2.83,1.521 -4.823,1.521c-2.877,0 -5.469,-1.066 -7.774,-3.198l2.418,-2.964c1.959,1.716 3.77,2.574 5.434,2.574c0.745,0 1.33,-0.16 1.755,-0.481c0.425,-0.321 0.637,-0.754 0.637,-1.3c0,-0.546 -0.225,-0.979 -0.676,-1.3c-0.451,-0.321 -1.343,-0.646 -2.678,-0.975c-2.115,-0.503 -3.662,-1.157 -4.641,-1.963c-0.979,-0.806 -1.469,-2.071 -1.469,-3.796c0,-1.725 0.62,-3.055 1.859,-3.991c1.239,-0.936 2.786,-1.404 4.641,-1.404c1.213,0 2.427,0.208 3.64,0.624c1.213,0.416 2.271,1.005 3.172,1.768l-2.054,2.964c-1.577,-1.196 -3.207,-1.794 -4.888,-1.794c-0.676,0 -1.209,0.16 -1.599,0.481Z" style="fill:#fff;fill-rule:nonzero;"/><path d="M147.724,15.628l0,14.664l-4.056,0l0,-14.664l-5.148,0l0,-3.51l14.352,0l0,3.51l-5.148,0Z" style="fill:#fff;fill-rule:nonzero;"/><path d="M170.578,18.15c0,2.912 -1.153,4.793 -3.458,5.642l4.602,6.5l-4.992,0l-4.03,-5.798l-2.808,0l0,5.798l-4.056,0l0,-18.174l6.89,0c2.825,0 4.84,0.477 6.045,1.43c1.205,0.953 1.807,2.487 1.807,4.602ZM165.69,20.308c0.503,-0.451 0.754,-1.166 0.754,-2.145c0,-0.979 -0.26,-1.651 -0.78,-2.015c-0.52,-0.364 -1.43,-0.546 -2.73,-0.546l-3.042,0l0,5.382l2.964,0c1.387,0 2.331,-0.225 2.834,-0.676Z" style="fill:#fff;fill-rule:nonzero;"/><path d="M182.278,26.86c1.144,0 2.05,-0.42 2.717,-1.261c0.667,-0.841 1.001,-1.989 1.001,-3.445l0,-10.036l4.056,0l0,10.166c0,2.635 -0.728,4.658 -2.184,6.071c-1.456,1.413 -3.319,2.119 -5.59,2.119c-2.271,0 -4.138,-0.711 -5.603,-2.132c-1.465,-1.421 -2.197,-3.441 -2.197,-6.058l0,-10.166l4.056,0l0,10.036c0,1.456 0.338,2.604 1.014,3.445c0.676,0.841 1.586,1.261 2.73,1.261Z" style="fill:#fff;fill-rule:nonzero;"/><path d="M202.61,26.704c1.993,0 3.623,-0.789 4.888,-2.366l2.6,2.678c-2.063,2.323 -4.494,3.484 -7.293,3.484c-2.799,0 -5.105,-0.884 -6.916,-2.652c-1.811,-1.768 -2.717,-4 -2.717,-6.695c0,-2.695 0.923,-4.944 2.769,-6.747c1.846,-1.803 4.104,-2.704 6.773,-2.704c2.981,0 5.477,1.135 7.488,3.406l-2.522,2.86c-1.283,-1.595 -2.877,-2.392 -4.784,-2.392c-1.525,0 -2.83,0.498 -3.913,1.495c-1.083,0.997 -1.625,2.34 -1.625,4.03c0,1.69 0.511,3.046 1.534,4.069c1.023,1.023 2.262,1.534 3.718,1.534Z" style="fill:#fff;fill-rule:nonzero;"/><path d="M220.992,15.628l0,14.664l-4.056,0l0,-14.664l-5.148,0l0,-3.51l14.352,0l0,3.51l-5.148,0Z" style="fill:#fff;fill-rule:nonzero;"/><path d="M65.602,43.456l-3.06,0l0,-6.99l2.72,0c0.473,0 0.882,0.057 1.225,0.17c0.343,0.114 0.598,0.267 0.765,0.46c0.32,0.36 0.48,0.767 0.48,1.22c0,0.547 -0.173,0.954 -0.52,1.22c-0.127,0.094 -0.213,0.152 -0.26,0.175c-0.047,0.024 -0.13,0.062 -0.25,0.115c0.433,0.094 0.778,0.289 1.035,0.585c0.257,0.297 0.385,0.665 0.385,1.105c0,0.487 -0.167,0.917 -0.5,1.29c-0.393,0.434 -1.067,0.65 -2.02,0.65ZM63.722,39.366l1.5,0c0.853,0 1.28,-0.29 1.28,-0.87c0,-0.333 -0.103,-0.573 -0.31,-0.72c-0.207,-0.146 -0.527,-0.22 -0.96,-0.22l-1.51,0l0,1.81ZM63.722,42.366l1.85,0c0.433,0 0.765,-0.068 0.995,-0.205c0.23,-0.136 0.345,-0.395 0.345,-0.775c0,-0.62 -0.497,-0.93 -1.49,-0.93l-1.7,0l0,1.91Z" style="fill:#fff;fill-rule:nonzero;"/><path d="M72.472,42.416c0.547,0 0.98,-0.186 1.3,-0.56c0.32,-0.373 0.48,-0.88 0.48,-1.52l0,-3.87l1.18,0l0,3.92c0,1.007 -0.277,1.782 -0.83,2.325c-0.553,0.544 -1.263,0.815 -2.13,0.815c-0.867,0 -1.577,-0.271 -2.13,-0.815c-0.553,-0.543 -0.83,-1.318 -0.83,-2.325l0,-3.92l1.18,0l0,3.87c0,0.64 0.16,1.147 0.48,1.52c0.32,0.374 0.753,0.56 1.3,0.56Z" style="fill:#fff;fill-rule:nonzero;"/><rect x="77.282" y="36.466" width="1.18" height="6.99" style="fill:#fff;fill-rule:nonzero;"/><path d="M80.402,43.456l0,-6.99l1.18,0l0,5.87l3.19,0l0,1.12l-4.37,0Z" style="fill:#fff;fill-rule:nonzero;"/><path d="M91.352,37.381c0.673,0.61 1.01,1.459 1.01,2.545c0,1.087 -0.327,1.947 -0.98,2.58c-0.653,0.634 -1.653,0.95 -3,0.95l-2.32,0l0,-6.99l2.4,0c1.253,0 2.217,0.305 2.89,0.915ZM91.172,39.956c0,-1.6 -0.917,-2.4 -2.75,-2.4l-1.18,0l0,4.79l1.31,0c0.847,0 1.495,-0.201 1.945,-0.605c0.45,-0.403 0.675,-0.998 0.675,-1.785Z" style="fill:#fff;fill-rule:nonzero;"/><rect x="93.882" y="36.466" width="1.18" height="6.99" style="fill:#fff;fill-rule:nonzero;"/><path d="M102.242,36.466l1.18,0l0,6.99l-1.28,0l-3.96,-5.1l0,5.1l-1.18,0l0,-6.99l1.18,0l4.06,5.22l0,-5.22Z" style="fill:#fff;fill-rule:nonzero;"/><path d="M110.202,40.056l1.18,0l0,2.39c-0.66,0.727 -1.603,1.09 -2.83,1.09c-1.033,0 -1.898,-0.34 -2.595,-1.02c-0.697,-0.68 -1.045,-1.54 -1.045,-2.58c0,-1.04 0.355,-1.906 1.065,-2.6c0.71,-0.693 1.568,-1.04 2.575,-1.04c1.007,0 1.843,0.294 2.51,0.88l-0.63,0.9c-0.273,-0.233 -0.548,-0.395 -0.825,-0.485c-0.277,-0.09 -0.598,-0.135 -0.965,-0.135c-0.707,0 -1.3,0.229 -1.78,0.685c-0.48,0.457 -0.72,1.057 -0.72,1.8c0,0.744 0.233,1.34 0.7,1.79c0.467,0.45 1.032,0.675 1.695,0.675c0.663,0 1.218,-0.143 1.665,-0.43l0,-1.92Z" style="fill:#fff;fill-rule:nonzero;"/><path d="M116.942,37.596c-0.22,0.14 -0.33,0.352 -0.33,0.635c0,0.284 0.11,0.5 0.33,0.65c0.22,0.15 0.688,0.312 1.405,0.485c0.717,0.174 1.257,0.417 1.62,0.73c0.363,0.314 0.545,0.775 0.545,1.385c0,0.61 -0.23,1.105 -0.69,1.485c-0.46,0.38 -1.063,0.57 -1.81,0.57c-1.093,0 -2.063,-0.376 -2.91,-1.13l0.74,-0.89c0.707,0.614 1.44,0.92 2.2,0.92c0.38,0 0.682,-0.081 0.905,-0.245c0.223,-0.163 0.335,-0.38 0.335,-0.65c0,-0.27 -0.105,-0.48 -0.315,-0.63c-0.21,-0.15 -0.572,-0.286 -1.085,-0.41c-0.513,-0.123 -0.903,-0.236 -1.17,-0.34c-0.267,-0.103 -0.503,-0.238 -0.71,-0.405c-0.413,-0.313 -0.62,-0.793 -0.62,-1.44c0,-0.646 0.235,-1.145 0.705,-1.495c0.47,-0.35 1.052,-0.525 1.745,-0.525c0.447,0 0.89,0.074 1.33,0.22c0.44,0.147 0.82,0.354 1.14,0.62l-0.63,0.89c-0.207,-0.186 -0.487,-0.34 -0.84,-0.46c-0.353,-0.12 -0.702,-0.18 -1.045,-0.18c-0.343,0 -0.625,0.07 -0.845,0.21Z" style="fill:#fff;fill-rule:nonzero;"/><path d="M126.882,36.466l0,1.11l-3.73,0l0,1.85l3.35,0l0,1.05l-3.35,0l0,1.87l3.85,0l0,1.11l-5.03,0l0,-6.99l4.91,0Z" style="fill:#fff;fill-rule:nonzero;"/><path d="M134.092,38.736c0,1.154 -0.503,1.88 -1.51,2.18l1.83,2.54l-1.5,0l-1.67,-2.35l-1.55,0l0,2.35l-1.18,0l0,-6.99l2.6,0c1.067,0 1.83,0.18 2.29,0.54c0.46,0.36 0.69,0.937 0.69,1.73ZM132.522,39.726c0.24,-0.206 0.36,-0.538 0.36,-0.995c0,-0.456 -0.123,-0.77 -0.37,-0.94c-0.247,-0.17 -0.687,-0.255 -1.32,-0.255l-1.5,0l0,2.5l1.47,0c0.667,0 1.12,-0.103 1.36,-0.31Z" style="fill:#fff;fill-rule:nonzero;"/><path d="M138.892,43.456l-1.32,0l-2.81,-6.99l1.32,0l2.15,5.22l2.15,-5.22l1.32,0l-2.81,6.99Z" style="fill:#fff;fill-rule:nonzero;"/><rect x="142.702" y="36.466" width="1.18" height="6.99" style="fill:#fff;fill-rule:nonzero;"/><path d="M149.012,42.386c0.407,0 0.757,-0.068 1.05,-0.205c0.293,-0.136 0.6,-0.355 0.92,-0.655l0.76,0.78c-0.74,0.82 -1.638,1.23 -2.695,1.23c-1.057,0 -1.933,-0.34 -2.63,-1.02c-0.697,-0.68 -1.045,-1.54 -1.045,-2.58c0,-1.04 0.355,-1.906 1.065,-2.6c0.71,-0.693 1.607,-1.04 2.69,-1.04c1.083,0 1.988,0.4 2.715,1.2l-0.75,0.82c-0.333,-0.32 -0.648,-0.543 -0.945,-0.67c-0.297,-0.126 -0.645,-0.19 -1.045,-0.19c-0.707,0 -1.3,0.229 -1.78,0.685c-0.48,0.457 -0.72,1.04 -0.72,1.75c0,0.71 0.238,1.304 0.715,1.78c0.477,0.477 1.042,0.715 1.695,0.715Z" style="fill:#fff;fill-rule:nonzero;"/><path d="M158.092,36.466l0,1.11l-3.73,0l0,1.85l3.35,0l0,1.05l-3.35,0l0,1.87l3.85,0l0,1.11l-5.03,0l0,-6.99l4.91,0Z" style="fill:#fff;fill-rule:nonzero;"/><path d="M160.992,37.596c-0.22,0.14 -0.33,0.352 -0.33,0.635c0,0.284 0.11,0.5 0.33,0.65c0.22,0.15 0.688,0.312 1.405,0.485c0.717,0.174 1.257,0.417 1.62,0.73c0.363,0.314 0.545,0.775 0.545,1.385c0,0.61 -0.23,1.105 -0.69,1.485c-0.46,0.38 -1.063,0.57 -1.81,0.57c-1.093,0 -2.063,-0.376 -2.91,-1.13l0.74,-0.89c0.707,0.614 1.44,0.92 2.2,0.92c0.38,0 0.682,-0.081 0.905,-0.245c0.223,-0.163 0.335,-0.38 0.335,-0.65c0,-0.27 -0.105,-0.48 -0.315,-0.63c-0.21,-0.15 -0.572,-0.286 -1.085,-0.41c-0.513,-0.123 -0.903,-0.236 -1.17,-0.34c-0.267,-0.103 -0.503,-0.238 -0.71,-0.405c-0.413,-0.313 -0.62,-0.793 -0.62,-1.44c0,-0.646 0.235,-1.145 0.705,-1.495c0.47,-0.35 1.052,-0.525 1.745,-0.525c0.447,0 0.89,0.074 1.33,0.22c0.44,0.147 0.82,0.354 1.14,0.62l-0.63,0.89c-0.207,-0.186 -0.487,-0.34 -0.84,-0.46c-0.353,-0.12 -0.702,-0.18 -1.045,-0.18c-0.343,0 -0.625,0.07 -0.845,0.21Z" style="fill:#fff;fill-rule:nonzero;"/><path d="M170.642,43.536c-0.653,0 -1.21,-0.181 -1.67,-0.545c-0.46,-0.363 -0.69,-0.861 -0.69,-1.495c0,-0.753 0.547,-1.423 1.64,-2.01c-0.273,-0.313 -0.465,-0.57 -0.575,-0.77c-0.11,-0.2 -0.165,-0.453 -0.165,-0.76c0,-0.533 0.197,-0.943 0.59,-1.23c0.393,-0.286 0.857,-0.43 1.39,-0.43c0.533,0 0.987,0.137 1.36,0.41c0.373,0.274 0.56,0.657 0.56,1.15c0,0.66 -0.533,1.284 -1.6,1.87c0.533,0.654 0.967,1.154 1.3,1.5c0.207,-0.306 0.367,-0.663 0.48,-1.07l0.82,0.58c-0.173,0.46 -0.37,0.864 -0.59,1.21c0.267,0.274 0.607,0.604 1.02,0.99l-0.75,0.7l-0.92,-0.91c-0.587,0.54 -1.32,0.81 -2.2,0.81ZM169.772,42.281c0.253,0.19 0.59,0.285 1.01,0.285c0.42,0 0.867,-0.193 1.34,-0.58c-0.673,-0.706 -1.207,-1.3 -1.6,-1.78c-0.753,0.407 -1.13,0.854 -1.13,1.34c0,0.3 0.127,0.545 0.38,0.735ZM170.557,37.396c-0.177,0.14 -0.265,0.304 -0.265,0.49c0,0.187 0.045,0.355 0.135,0.505c0.09,0.15 0.245,0.359 0.465,0.625c0.753,-0.373 1.13,-0.72 1.13,-1.04c0,-0.266 -0.088,-0.465 -0.265,-0.595c-0.177,-0.13 -0.377,-0.195 -0.6,-0.195c-0.223,0 -0.423,0.07 -0.6,0.21Z" style="fill:#fff;fill-rule:nonzero;"/><path d="M179.712,37.596c-0.22,0.14 -0.33,0.352 -0.33,0.635c0,0.284 0.11,0.5 0.33,0.65c0.22,0.15 0.688,0.312 1.405,0.485c0.717,0.174 1.257,0.417 1.62,0.73c0.363,0.314 0.545,0.775 0.545,1.385c0,0.61 -0.23,1.105 -0.69,1.485c-0.46,0.38 -1.063,0.57 -1.81,0.57c-1.093,0 -2.063,-0.376 -2.91,-1.13l0.74,-0.89c0.707,0.614 1.44,0.92 2.2,0.92c0.38,0 0.682,-0.081 0.905,-0.245c0.223,-0.163 0.335,-0.38 0.335,-0.65c0,-0.27 -0.105,-0.48 -0.315,-0.63c-0.21,-0.15 -0.572,-0.286 -1.085,-0.41c-0.513,-0.123 -0.903,-0.236 -1.17,-0.34c-0.267,-0.103 -0.503,-0.238 -0.71,-0.405c-0.413,-0.313 -0.62,-0.793 -0.62,-1.44c0,-0.646 0.235,-1.145 0.705,-1.495c0.47,-0.35 1.052,-0.525 1.745,-0.525c0.447,0 0.89,0.074 1.33,0.22c0.44,0.147 0.82,0.354 1.14,0.62l-0.63,0.89c-0.207,-0.186 -0.487,-0.34 -0.84,-0.46c-0.353,-0.12 -0.702,-0.18 -1.045,-0.18c-0.343,0 -0.625,0.07 -0.845,0.21Z" style="fill:#fff;fill-rule:nonzero;"/><path d="M187.612,42.416c0.547,0 0.98,-0.186 1.3,-0.56c0.32,-0.373 0.48,-0.88 0.48,-1.52l0,-3.87l1.18,0l0,3.92c0,1.007 -0.277,1.782 -0.83,2.325c-0.553,0.544 -1.263,0.815 -2.13,0.815c-0.867,0 -1.577,-0.271 -2.13,-0.815c-0.553,-0.543 -0.83,-1.318 -0.83,-2.325l0,-3.92l1.18,0l0,3.87c0,0.64 0.16,1.147 0.48,1.52c0.32,0.374 0.753,0.56 1.3,0.56Z" style="fill:#fff;fill-rule:nonzero;"/><path d="M197.142,37.076c0.487,0.407 0.73,1.034 0.73,1.88c0,0.847 -0.248,1.467 -0.745,1.86c-0.497,0.394 -1.258,0.59 -2.285,0.59l-1.24,0l0,2.05l-1.18,0l0,-6.99l2.4,0c1.06,0 1.833,0.204 2.32,0.61ZM196.307,39.961c0.237,-0.25 0.355,-0.616 0.355,-1.1c0,-0.483 -0.15,-0.825 -0.45,-1.025c-0.3,-0.2 -0.77,-0.3 -1.41,-0.3l-1.2,0l0,2.8l1.37,0c0.653,0 1.098,-0.125 1.335,-0.375Z" style="fill:#fff;fill-rule:nonzero;"/><path d="M203.982,37.076c0.487,0.407 0.73,1.034 0.73,1.88c0,0.847 -0.248,1.467 -0.745,1.86c-0.497,0.394 -1.258,0.59 -2.285,0.59l-1.24,0l0,2.05l-1.18,0l0,-6.99l2.4,0c1.06,0 1.833,0.204 2.32,0.61ZM203.147,39.961c0.237,-0.25 0.355,-0.616 0.355,-1.1c0,-0.483 -0.15,-0.825 -0.45,-1.025c-0.3,-0.2 -0.77,-0.3 -1.41,-0.3l-1.2,0l0,2.8l1.37,0c0.653,0 1.098,-0.125 1.335,-0.375Z" style="fill:#fff;fill-rule:nonzero;"/><path d="M206.102,43.456l0,-6.99l1.18,0l0,5.87l3.19,0l0,1.12l-4.37,0Z" style="fill:#fff;fill-rule:nonzero;"/><rect x="211.762" y="36.466" width="1.18" height="6.99" style="fill:#fff;fill-rule:nonzero;"/><path d="M219.792,36.466l0,1.11l-3.73,0l0,1.85l3.35,0l0,1.05l-3.35,0l0,1.87l3.85,0l0,1.11l-5.03,0l0,-6.99l4.91,0Z" style="fill:#fff;fill-rule:nonzero;"/><path d="M222.692,37.596c-0.22,0.14 -0.33,0.352 -0.33,0.635c0,0.284 0.11,0.5 0.33,0.65c0.22,0.15 0.688,0.312 1.405,0.485c0.717,0.174 1.257,0.417 1.62,0.73c0.363,0.314 0.545,0.775 0.545,1.385c0,0.61 -0.23,1.105 -0.69,1.485c-0.46,0.38 -1.063,0.57 -1.81,0.57c-1.093,0 -2.063,-0.376 -2.91,-1.13l0.74,-0.89c0.707,0.614 1.44,0.92 2.2,0.92c0.38,0 0.682,-0.081 0.905,-0.245c0.223,-0.163 0.335,-0.38 0.335,-0.65c0,-0.27 -0.105,-0.48 -0.315,-0.63c-0.21,-0.15 -0.572,-0.286 -1.085,-0.41c-0.513,-0.123 -0.903,-0.236 -1.17,-0.34c-0.267,-0.103 -0.503,-0.238 -0.71,-0.405c-0.413,-0.313 -0.62,-0.793 -0.62,-1.44c0,-0.646 0.235,-1.145 0.705,-1.495c0.47,-0.35 1.052,-0.525 1.745,-0.525c0.447,0 0.89,0.074 1.33,0.22c0.44,0.147 0.82,0.354 1.14,0.62l-0.63,0.89c-0.207,-0.186 -0.487,-0.34 -0.84,-0.46c-0.353,-0.12 -0.702,-0.18 -1.045,-0.18c-0.343,0 -0.625,0.07 -0.845,0.21Z" style="fill:#fff;fill-rule:nonzero;"/></svg>