<svg xmlns="http://www.w3.org/2000/svg" viewBox="0 0 512 512"><path fill="#72bede" d="M307.914 108.978h45.029v94.649h-45.029z"/><path d="M413.43 198.728h-60.487v-84.854h60.487c23.432 0 42.427 18.995 42.427 42.427-.001 23.432-18.996 42.427-42.427 42.427z" fill="#f2f2f2"/><path d="M297.35 95.196H40.522c-14.717 0-26.647 11.93-26.647 26.647 0 14.717 11.93 26.647 26.647 26.647L10.199 258.756l5.128 128.711c.751 16.415 14.277 29.337 30.709 29.337 19.792 0 35.836-16.044 35.836-35.836v-46.547l18.378-9.506v-42.269h133.697c40.853 0 73.97-33.118 73.97-73.97V105.762c0-5.836-4.731-10.566-10.567-10.566z" fill="#ffad61"/><g fill="#534741"><path d="M501.801 145.642H464.97c-4.942-23.925-26.172-41.967-51.54-41.967h-51.788c-1.792-2.932-5.012-4.896-8.7-4.896h-36.06c-2.877-8.02-10.535-13.783-19.533-13.783H40.522c-20.318 0-36.847 16.529-36.847 36.847 0 15.835 10.04 29.37 24.091 34.57L.365 256.052a10.204 10.204 0 0 0-.357 3.111l5.13 128.769c1.001 21.909 18.965 39.071 40.898 39.071 25.384 0 46.035-20.651 46.035-46.035v-40.34l12.863-6.653a10.198 10.198 0 0 0 5.514-9.059v-32.069h4.803v11.855c0 5.632 4.566 10.199 10.199 10.199s10.199-4.567 10.199-10.199v-11.855h98.297c44.683 0 81.327-35.002 83.997-79.023h34.999c3.687 0 6.908-1.963 8.7-4.896h51.788c25.69 0 47.125-18.507 51.708-42.887h36.663c5.633 0 10.199-4.567 10.199-10.199s-4.566-10.2-10.199-10.2zm-204.083 63.035c0 35.164-28.608 63.771-63.771 63.771H100.25c-5.633 0-10.199 4.567-10.199 10.199v36.061l-12.863 6.653a10.198 10.198 0 0 0-5.514 9.059v46.547c0 14.136-11.501 25.637-25.638 25.637-11.004 0-20.017-8.61-20.517-19.544l-5.065-127.127 27.842-101.244h116.276c5.633 0 10.199-4.567 10.199-10.199s-4.566-10.199-10.199-10.199H40.522c-9.07 0-16.448-7.378-16.448-16.448s7.379-16.448 16.448-16.448H297.35c.203 0 .368.165.368.367v102.915zm20.398-89.499h24.627v74.246h-24.627v-74.246zm95.314 69.351h-50.288v-64.456h50.288c17.77 0 32.227 14.457 32.227 32.228 0 17.77-14.457 32.228-32.227 32.228z"/><path d="M198.57 158.69h5.514c5.633 0 10.199-4.567 10.199-10.199s-4.566-10.199-10.199-10.199h-5.514c-5.633 0-10.199 4.567-10.199 10.199s4.566 10.199 10.199 10.199zm34.917 85.07h-33.08c-5.633 0-10.199 4.567-10.199 10.199s4.566 10.199 10.199 10.199h33.08c5.633 0 10.199-4.567 10.199-10.199 0-5.631-4.566-10.199-10.199-10.199zm0-28.485h-33.08c-5.633 0-10.199 4.567-10.199 10.199s4.566 10.199 10.199 10.199h33.08c5.633 0 10.199-4.567 10.199-10.199s-4.566-10.199-10.199-10.199zm0-28.485h-33.08c-5.633 0-10.199 4.567-10.199 10.199s4.566 10.199 10.199 10.199h33.08c5.633 0 10.199-4.567 10.199-10.199s-4.566-10.199-10.199-10.199z"/></g></svg>