<?xml version="1.0" encoding="iso-8859-1"?>
<!-- Generator: Adobe Illustrator 19.0.0, SVG Export Plug-In . SVG Version: 6.00 Build 0)  -->
<svg version="1.1" id="Layer_1" xmlns="http://www.w3.org/2000/svg" xmlns:xlink="http://www.w3.org/1999/xlink" x="0px" y="0px"
	 viewBox="0 0 512 512" style="enable-background:new 0 0 512 512;" xml:space="preserve">
<rect x="307.914" y="108.978" style="fill:#72BEDE;" width="45.029" height="94.649"/>
<path style="fill:#F2F2F2;" d="M413.43,198.728h-60.487v-84.854h60.487c23.432,0,42.427,18.995,42.427,42.427l0,0
	C455.856,179.733,436.861,198.728,413.43,198.728z"/>
<path style="fill:#FFAD61;" d="M297.35,95.196H40.522c-14.717,0-26.647,11.93-26.647,26.647l0,0
	c0,14.717,11.93,26.647,26.647,26.647L10.199,258.756l5.128,128.711c0.751,16.415,14.277,29.337,30.709,29.337l0,0
	c19.792,0,35.836-16.044,35.836-35.836v-46.547l18.378-9.506v-42.269h133.697c40.853,0,73.97-33.118,73.97-73.97V105.762
	C307.917,99.926,303.186,95.196,297.35,95.196z"/>
<g>
	<path style="fill:#534741;" d="M501.801,145.642h-36.831c-4.942-23.925-26.172-41.967-51.54-41.967h-51.788
		c-1.792-2.932-5.012-4.896-8.7-4.896h-36.06c-2.877-8.02-10.535-13.783-19.533-13.783H40.522
		c-20.318,0-36.847,16.529-36.847,36.847c0,15.835,10.04,29.37,24.091,34.57L0.365,256.052c-0.278,1.012-0.399,2.061-0.357,3.111
		l5.13,128.769c1.001,21.909,18.965,39.071,40.898,39.071c25.384,0,46.035-20.651,46.035-46.035v-40.34l12.863-6.653
		c3.387-1.751,5.514-5.246,5.514-9.059v-32.069h4.803v11.855c0,5.632,4.566,10.199,10.199,10.199
		c5.633,0,10.199-4.567,10.199-10.199v-11.855h98.297c44.683,0,81.327-35.002,83.997-79.023h34.999c3.687,0,6.908-1.963,8.7-4.896
		h51.788c25.69,0,47.125-18.507,51.708-42.887h36.663c5.633,0,10.199-4.567,10.199-10.199S507.434,145.642,501.801,145.642z
		 M297.718,208.677c0,35.164-28.608,63.771-63.771,63.771H100.25c-5.633,0-10.199,4.567-10.199,10.199v36.061l-12.863,6.653
		c-3.387,1.751-5.514,5.246-5.514,9.059v46.547c0,14.136-11.501,25.637-25.638,25.637c-11.004,0-20.017-8.61-20.517-19.544
		l-5.065-127.127l27.842-101.244h116.276c5.633,0,10.199-4.567,10.199-10.199s-4.566-10.199-10.199-10.199H40.522
		c-9.07,0-16.448-7.378-16.448-16.448s7.379-16.448,16.448-16.448H297.35c0.203,0,0.368,0.165,0.368,0.367L297.718,208.677
		L297.718,208.677z M318.116,119.178h24.627v74.246h-24.627V119.178z M413.43,188.529h-50.288v-64.456h50.288
		c17.77,0,32.227,14.457,32.227,32.228C445.657,174.071,431.2,188.529,413.43,188.529z"/>
	<path style="fill:#534741;" d="M198.57,158.69h5.514c5.633,0,10.199-4.567,10.199-10.199s-4.566-10.199-10.199-10.199h-5.514
		c-5.633,0-10.199,4.567-10.199,10.199S192.937,158.69,198.57,158.69z"/>
	<path style="fill:#534741;" d="M233.487,243.76h-33.08c-5.633,0-10.199,4.567-10.199,10.199c0,5.632,4.566,10.199,10.199,10.199
		h33.08c5.633,0,10.199-4.567,10.199-10.199C243.686,248.328,239.12,243.76,233.487,243.76z"/>
	<path style="fill:#534741;" d="M233.487,215.275h-33.08c-5.633,0-10.199,4.567-10.199,10.199s4.566,10.199,10.199,10.199h33.08
		c5.633,0,10.199-4.567,10.199-10.199S239.12,215.275,233.487,215.275z"/>
	<path style="fill:#534741;" d="M233.487,186.79h-33.08c-5.633,0-10.199,4.567-10.199,10.199s4.566,10.199,10.199,10.199h33.08
		c5.633,0,10.199-4.567,10.199-10.199S239.12,186.79,233.487,186.79z"/>
</g>
<g>
</g>
<g>
</g>
<g>
</g>
<g>
</g>
<g>
</g>
<g>
</g>
<g>
</g>
<g>
</g>
<g>
</g>
<g>
</g>
<g>
</g>
<g>
</g>
<g>
</g>
<g>
</g>
<g>
</g>
</svg>
