<svg xmlns="http://www.w3.org/2000/svg" width="16" height="16"><path fill="#ffc133" d="M8.001 8.873c1.655 0 3-1.346 3-3s-1.345-3-3-3-3 1.345-3 3 1.345 3 3 3zm0-5.5c1.379 0 2.5 1.121 2.5 2.5s-1.121 2.5-2.5 2.5-2.5-1.121-2.5-2.5 1.121-2.5 2.5-2.5zM8 0C4.691 0 2 2.658 2 6c0 3.5 3.001 7.08 5.188 9.597.008.01.359.402.793.402h.039c.434 0 .785-.393.793-.402C11.001 13.08 14.002 9.501 14.002 6c0-3.342-2.691-6-6.001-6zm.059 14.941a.702.702 0 0 1-.067.049c-.005-.014-.042-.043-.064-.066C6.096 12.816 3.002 9.257 3.002 6c0-2.757 2.244-5 5-5a5.007 5.007 0 0 1 5.001 5.001c0 3.256-3.094 6.815-4.942 8.941z"/></svg>