<svg xmlns="http://www.w3.org/2000/svg" width="16" height="16" viewBox="0 0 16 16"><title>mail</title><path fill="#ffc133" d="M14 2.5H2a2 2 0 0 0-2 2V11a2 2 0 0 0 2 2h12a2 2 0 0 0 2-2V4.5a2 2 0 0 0-2-2zM1 5.125L4.499 7.75 1 10.375v-5.25zM15 11c0 .552-.449 1-1 1H2c-.551 0-1-.448-1-1l3.916-2.938L7.1 9.701a1.502 1.502 0 0 0 1.799 0l2.184-1.639L14.999 11zm0-.625L11.5 7.75 15 5.125v5.25zM8.6 9.301c-.175.131-.382.2-.6.2s-.425-.069-.6-.2L1 4.5c0-.551.449-1 1-1h12c.551 0 1 .449 1 1L8.599 9.301z"/></svg>