<svg xmlns="http://www.w3.org/2000/svg" viewBox="0 0 512 512"><path d="M386.299 127.922H128.467c-18.066 0-27.745-21.256-15.884-34.883l65.805-75.607a21.057 21.057 0 0 1 15.884-7.233h192.027c10.134 0 18.348 8.215 18.348 18.348v81.026c.001 10.134-8.214 18.349-18.348 18.349z" fill="#f2f2f2"/><path d="M303.493 127.922h-76.738v359.599c0 7.886 6.393 14.279 14.279 14.279h48.179c7.886 0 14.279-6.393 14.279-14.279V127.922h.001z" fill="#ffad61"/><g fill="#534741"><path d="M386.299 0H194.273a31.245 31.245 0 0 0-23.577 10.736L104.89 86.342c-8.145 9.358-10.011 22.184-4.869 33.475 5.141 11.289 16.041 18.304 28.447 18.304h88.09v349.401c0 13.497 10.981 24.478 24.478 24.478h48.179c13.497 0 24.478-10.981 24.478-24.478v-349.4h72.606c15.741 0 28.548-12.807 28.548-28.548V28.548C414.847 12.807 402.04 0 386.299 0zm-93.005 487.522c0 2.25-1.83 4.08-4.08 4.08h-48.179c-2.25 0-4.08-1.83-4.08-4.08v-349.4h56.339v349.4zM128.467 117.723c-6.483 0-9.203-4.867-9.882-6.358-.679-1.492-2.565-6.739 1.692-11.629l65.805-75.607a10.86 10.86 0 0 1 8.192-3.73H386.3c4.494 0 8.149 3.655 8.149 8.149v81.026c0 4.494-3.655 8.149-8.149 8.149H128.467z"/><path d="M371.947 31.61h-55.592c-5.632 0-10.199 4.567-10.199 10.199s4.567 10.199 10.199 10.199h55.592c5.632 0 10.199-4.567 10.199-10.199S377.58 31.61 371.947 31.61zm-88.292 0h-4.36c-5.632 0-10.199 4.567-10.199 10.199s4.567 10.199 10.199 10.199h4.36c5.632 0 10.199-4.567 10.199-10.199s-4.567-10.199-10.199-10.199z"/></g></svg>