<!-- Generated by IcoMoon.io -->
<svg version="1.1" xmlns="http://www.w3.org/2000/svg" width="16" height="16" viewBox="0 0 16 16">
<title>location</title>
<path fill="#000000" d="M8.001 8.873c1.655 0 3-1.346 3-3s-1.345-3-3-3c-1.655 0-3 1.345-3 3s1.345 3 3 3zM8.001 3.373c1.379 0 2.5 1.121 2.5 2.5s-1.121 2.5-2.5 2.5c-1.379 0-2.5-1.121-2.5-2.5s1.121-2.5 2.5-2.5zM8 0c-3.309 0-6 2.658-6 6 0 3.5 3.001 7.080 5.188 9.597 0.008 0.010 0.359 0.402 0.793 0.402 0.001 0 0.037 0 0.039 0 0.434 0 0.785-0.393 0.793-0.402 2.188-2.517 5.189-6.096 5.189-9.597 0-3.342-2.691-6-6.001-6zM8.059 14.941c-0.011 0.010-0.041 0.032-0.067 0.049-0.005-0.014-0.042-0.043-0.064-0.066-1.832-2.108-4.926-5.667-4.926-8.924 0-2.757 2.244-5 5-5 2.758 0 5.001 2.244 5.001 5.001 0 3.256-3.094 6.815-4.942 8.941z"></path>
</svg>
