<?xml version="1.0" encoding="iso-8859-1"?>
<!-- Generator: Adobe Illustrator 19.0.0, SVG Export Plug-In . SVG Version: 6.00 Build 0)  -->
<svg version="1.1" id="Layer_1" xmlns="http://www.w3.org/2000/svg" xmlns:xlink="http://www.w3.org/1999/xlink" x="0px" y="0px"
	 viewBox="0 0 512 512" style="enable-background:new 0 0 512 512;" xml:space="preserve">
<path style="fill:#72BEDE;" d="M354.648,82.686h-220.73c-68.328,0-123.718,55.391-123.718,123.718v220.73
	c0,24.682,20.009,44.691,44.691,44.691h220.73c68.328,0,123.718-55.391,123.718-123.718v-220.73
	C399.339,102.695,379.33,82.686,354.648,82.686z"/>
<path style="fill:#FFAD61;" d="M305.976,82.686h-99.192V40.175h70.635c15.772,0,28.558,12.786,28.558,28.558V82.686z"/>
<circle style="fill:#F2F2F2;" cx="205.31" cy="276.715" r="138.434"/>
<g>
	<path style="fill:#534741;" d="M354.648,72.487h-38.472v-3.754c0-21.37-17.387-38.757-38.757-38.757h-70.635
		c-5.633,0-10.199,4.567-10.199,10.199v32.312h-62.667C60.075,72.487,0,132.563,0,206.404v220.731
		c0,30.266,24.624,54.889,54.89,54.889h220.73c73.842,0,133.918-60.074,133.918-133.917V127.376
		C409.538,97.111,384.914,72.487,354.648,72.487z M216.983,50.375h60.435c10.123,0,18.359,8.236,18.359,18.359v3.754h-78.794V50.375
		z M354.648,92.886c19.018,0,34.492,15.473,34.492,34.491v220.731c0,62.594-50.925,113.518-113.519,113.518H54.89
		c-19.018,0-34.492-15.472-34.492-34.491V206.404c0-62.594,50.925-113.518,113.519-113.518
		C133.918,92.886,354.648,92.886,354.648,92.886z"/>
	<path style="fill:#534741;" d="M501.801,100.828c-5.632,0-10.199,4.567-10.199,10.199v35.582h-12.691
		c-5.632,0-10.199,4.567-10.199,10.199s4.567,10.199,10.199,10.199h22.89c5.632,0,10.199-4.567,10.199-10.199v-45.781
		C512,105.395,507.433,100.828,501.801,100.828z"/>
	<path style="fill:#534741;" d="M442.939,146.609h-5.45c-5.632,0-10.199,4.567-10.199,10.199s4.567,10.199,10.199,10.199h5.45
		c5.632,0,10.199-4.567,10.199-10.199S448.572,146.609,442.939,146.609z"/>
	<path style="fill:#534741;" d="M205.314,128.078c-81.956,0-148.632,66.676-148.632,148.632s66.676,148.632,148.632,148.632
		s148.632-66.676,148.632-148.632S287.27,128.078,205.314,128.078z M205.314,404.945c-70.709,0-128.234-57.526-128.234-128.234
		s57.526-128.234,128.234-128.234s128.234,57.526,128.234,128.234S276.022,404.945,205.314,404.945z"/>
	<path style="fill:#534741;" d="M203.741,260.523h-17.268l2.717-37.64h44.818c4.268,0,6.402-4.462,6.402-9.118
		c0-4.462-2.134-9.119-6.402-9.119h-57.624c-2.911,0-4.268,2.523-4.656,6.791l-4.462,52.774c-0.194,1.359-0.388,3.298-0.388,4.656
		c0,4.851,1.94,7.955,8.732,7.955h28.132c14.357,0,23.089,7.955,23.089,24.446v3.686c0,16.686-8.732,24.447-23.283,24.447
		c-12.611,0-22.7-6.402-22.7-17.462c0-4.656-1.94-8.148-10.477-8.148c-6.208,0-10.089,2.134-10.089,9.507
		c0,18.043,15.522,34.342,43.655,34.342c24.058,0,43.461-11.641,43.461-42.686v-3.686
		C247.396,271.388,228.382,260.523,203.741,260.523z"/>
</g>
<g>
</g>
<g>
</g>
<g>
</g>
<g>
</g>
<g>
</g>
<g>
</g>
<g>
</g>
<g>
</g>
<g>
</g>
<g>
</g>
<g>
</g>
<g>
</g>
<g>
</g>
<g>
</g>
<g>
</g>
</svg>
