<svg xmlns="http://www.w3.org/2000/svg" viewBox="0 0 512 512"><path d="M354.648 82.686h-220.73C65.59 82.686 10.2 138.077 10.2 206.404v220.73c0 24.682 20.009 44.691 44.691 44.691h220.73c68.328 0 123.718-55.391 123.718-123.718v-220.73c0-24.682-20.009-44.691-44.691-44.691z" fill="#72bede"/><path d="M305.976 82.686h-99.192V40.175h70.635c15.772 0 28.558 12.786 28.558 28.558v13.953z" fill="#ffad61"/><circle cx="205.31" cy="276.715" r="138.434" fill="#f2f2f2"/><g fill="#534741"><path d="M354.648 72.487h-38.472v-3.754c0-21.37-17.387-38.757-38.757-38.757h-70.635c-5.633 0-10.199 4.567-10.199 10.199v32.312h-62.667C60.075 72.487 0 132.563 0 206.404v220.731c0 30.266 24.624 54.889 54.89 54.889h220.73c73.842 0 133.918-60.074 133.918-133.917V127.376c0-30.265-24.624-54.889-54.89-54.889zM216.983 50.375h60.435c10.123 0 18.359 8.236 18.359 18.359v3.754h-78.794V50.375zm137.665 42.511c19.018 0 34.492 15.473 34.492 34.491v220.731c0 62.594-50.925 113.518-113.519 113.518H54.89c-19.018 0-34.492-15.472-34.492-34.491V206.404c0-62.594 50.925-113.518 113.519-113.518h220.731zm147.153 7.942c-5.632 0-10.199 4.567-10.199 10.199v35.582h-12.691c-5.632 0-10.199 4.567-10.199 10.199s4.567 10.199 10.199 10.199h22.89c5.632 0 10.199-4.567 10.199-10.199v-45.781c0-5.632-4.567-10.199-10.199-10.199zm-58.862 45.781h-5.45c-5.632 0-10.199 4.567-10.199 10.199s4.567 10.199 10.199 10.199h5.45c5.632 0 10.199-4.567 10.199-10.199s-4.566-10.199-10.199-10.199z"/><path d="M205.314 128.078c-81.956 0-148.632 66.676-148.632 148.632s66.676 148.632 148.632 148.632 148.632-66.676 148.632-148.632-66.676-148.632-148.632-148.632zm0 276.867c-70.709 0-128.234-57.526-128.234-128.234s57.526-128.234 128.234-128.234 128.234 57.526 128.234 128.234-57.526 128.234-128.234 128.234z"/><path d="M203.741 260.523h-17.268l2.717-37.64h44.818c4.268 0 6.402-4.462 6.402-9.118 0-4.462-2.134-9.119-6.402-9.119h-57.624c-2.911 0-4.268 2.523-4.656 6.791l-4.462 52.774c-.194 1.359-.388 3.298-.388 4.656 0 4.851 1.94 7.955 8.732 7.955h28.132c14.357 0 23.089 7.955 23.089 24.446v3.686c0 16.686-8.732 24.447-23.283 24.447-12.611 0-22.7-6.402-22.7-17.462 0-4.656-1.94-8.148-10.477-8.148-6.208 0-10.089 2.134-10.089 9.507 0 18.043 15.522 34.342 43.655 34.342 24.058 0 43.461-11.641 43.461-42.686v-3.686c-.002-29.88-19.016-40.745-43.657-40.745z"/></g></svg>