<svg xmlns="http://www.w3.org/2000/svg" width="16" height="16" viewBox="0 0 16 16"><title>phone</title><path d="M12 0H4a1.5 1.5 0 0 0-1.5 1.5v13A1.5 1.5 0 0 0 4 16h8a1.5 1.5 0 0 0 1.5-1.5v-13A1.5 1.5 0 0 0 12 0zm.5 14.5c0 .275-.225.5-.5.5H4a.5.5 0 0 1-.5-.5v-1.002h9V14.5zm0-1.502h-9V3h9v9.998zm0-10.498h-9v-1A.5.5 0 0 1 4 1h8a.5.5 0 0 1 .5.5v1zM9 1.75a.25.25 0 0 1-.25.25h-1.5a.25.25 0 1 1 0-.5h1.5a.25.25 0 0 1 .25.25zm-.5 12.498c0 .137-.113.25-.25.25h-.5a.25.25 0 1 1 0-.5h.5a.25.25 0 0 1 .25.25z"/></svg>