<svg xmlns="http://www.w3.org/2000/svg" viewBox="0 0 512 512"><path fill="#72bede" d="M62.508 311.771l-24.813 60.072 60.072-24.812 240.289-240.289-35.26-35.26z"/><path d="M378.628 49.82l-48.745 48.744-18.909-18.909 48.745-48.745zM10.199 481.09H501.8V144.274L10.199 481.09zm425.109-66.49H224.083l211.225-144.719V414.6z" fill="#ffad61"/><g fill="#534741"><path d="M37.697 382.042c1.311 0 2.632-.252 3.891-.773l60.072-24.813a10.215 10.215 0 0 0 3.319-2.214l240.289-240.289c3.983-3.983 3.983-10.441 0-14.425l-.963-.963 41.533-41.534c3.983-3.983 3.983-10.441 0-14.425l-18.909-18.91a10.2 10.2 0 0 0-14.424 0L310.971 65.23l-.962-.962a10.2 10.2 0 0 0-14.424 0l-8.459 8.459-.719-.719c-5.912-5.913-13.773-9.169-22.134-9.169s-16.223 3.256-22.135 9.168l-58.208 58.208c-3.983 3.983-3.983 10.441 0 14.425 1.992 1.991 4.602 2.987 7.212 2.987s5.22-.996 7.212-2.987l58.208-58.208a10.833 10.833 0 0 1 7.712-3.194 10.84 10.84 0 0 1 7.712 3.194l.719.719-217.41 217.408a10.2 10.2 0 0 0-2.214 3.319L28.268 367.95a10.198 10.198 0 0 0 9.429 14.092zm322.02-336.707l4.486 4.486-34.321 34.321-4.486-4.486 34.321-34.321zm-36.085 61.408L91.994 338.38l-35.498 14.662 14.662-35.498L302.796 85.907l20.836 20.836zm182.923 28.508a10.195 10.195 0 0 0-10.519.61L4.435 472.678A10.2 10.2 0 0 0 10.2 491.29h491.601c5.632 0 10.199-4.567 10.199-10.199V144.274a10.203 10.203 0 0 0-5.445-9.023zm-14.954 335.641h-46.093v-9.421c0-5.632-4.567-10.199-10.199-10.199s-10.199 4.567-10.199 10.199v9.421h-83.88v-9.421c0-5.632-4.567-10.199-10.199-10.199s-10.199 4.567-10.199 10.199v9.421h-83.88v-9.421c0-5.632-4.567-10.199-10.199-10.199s-10.199 4.567-10.199 10.199v9.421h-83.88v-9.421c0-5.632-4.567-10.199-10.199-10.199s-10.199 4.567-10.199 10.199v9.421H43.13L491.6 163.625v307.267z"/><path d="M224.083 424.798h211.225c5.632 0 10.199-4.567 10.199-10.199V269.881a10.198 10.198 0 0 0-15.963-8.413L218.319 406.186a10.198 10.198 0 1 0 5.764 18.612zm201.025-135.566V404.4H257.014l168.094-115.168zm48.134-10.926c5.632 0 10.199-4.567 10.199-10.199v-60.175c0-5.632-4.567-10.199-10.199-10.199s-10.199 4.567-10.199 10.199v60.175c0 5.633 4.566 10.199 10.199 10.199zm0 37.737c5.632 0 10.199-4.567 10.199-10.199v-8.159c0-5.632-4.567-10.199-10.199-10.199s-10.199 4.567-10.199 10.199v8.159c0 5.633 4.566 10.199 10.199 10.199z"/></g></svg>