<svg xmlns="http://www.w3.org/2000/svg" width="20" height="20" viewBox="0 0 20 20"><title>twitter-with-circle</title><path fill="#e1e1e1" d="M10 .4C4.698.4.4 4.698.4 10s4.298 9.6 9.6 9.6 9.6-4.298 9.6-9.6S15.302.4 10 .4zm3.905 7.864c.004.082.005.164.005.244 0 2.5-1.901 5.381-5.379 5.381a5.335 5.335 0 0 1-2.898-.85c.147.018.298.025.451.025.886 0 1.701-.301 2.348-.809a1.895 1.895 0 0 1-1.766-1.312 1.9 1.9 0 0 0 .853-.033 1.892 1.892 0 0 1-1.517-1.854v-.023c.255.141.547.227.857.237a1.89 1.89 0 0 1-.585-2.526 5.376 5.376 0 0 0 3.897 1.977 1.891 1.891 0 0 1 3.222-1.725 3.797 3.797 0 0 0 1.2-.459 1.9 1.9 0 0 1-.831 1.047 3.799 3.799 0 0 0 1.086-.299 3.834 3.834 0 0 1-.943.979z"/></svg>