<svg xmlns="http://www.w3.org/2000/svg" width="24" height="24" viewBox="0 0 24 24"><title>atom</title><path fill="#fe504f" d="M12 8.999a3.001 3.001 0 0 0 0 6 3.001 3.001 0 0 0 0-6zm9.231.366a2.447 2.447 0 0 1-.869-.493c-.404.744-.902 1.507-1.439 2.272a34.772 34.772 0 0 0-2.851-3.219 34.616 34.616 0 0 0-3.226-2.854c2.577-1.816 5.054-2.909 6.817-2.909.716 0 1.264.185 1.628.549.396.396.571 1.018.54 1.806.057-.004.11-.018.168-.018.288 0 .562.059.819.148.062-1.121-.204-2.027-.82-2.644-.559-.559-1.344-.842-2.335-.842-2.043 0-4.812 1.219-7.662 3.277C9.151 2.38 6.382 1.16 4.339 1.16c-.212 0-.411.02-.604.046.273.264.479.59.61.955 1.763.002 4.238 1.095 6.813 2.91A34.568 34.568 0 0 0 7.93 7.927a34.665 34.665 0 0 0-2.856 3.234c-.855-1.211-1.56-2.412-2.065-3.553a10.702 10.702 0 0 1-.712-2.14c-.099.013-.195.031-.297.031a2.49 2.49 0 0 1-.736-.123c.134.796.405 1.678.831 2.638.567 1.281 1.365 2.632 2.345 3.988-.979 1.354-1.775 2.705-2.343 3.985-1.209 2.727-1.241 4.861-.091 6.011.559.559 1.344.842 2.335.842 3.02 0 7.626-2.656 11.735-6.767a34.216 34.216 0 0 0 2.859-3.243c2.77 3.914 3.564 7.25 2.355 8.459-.364.364-.912.549-1.628.549-.943 0-2.095-.318-3.354-.887-.133.32-.33.604-.575.842 1.458.675 2.804 1.045 3.929 1.045.991 0 1.776-.283 2.335-.842 1.738-1.738.641-5.731-2.449-10.011.635-.881 1.215-1.761 1.683-2.62zM4.341 21.84c-.716 0-1.264-.185-1.628-.549-.825-.825-.717-2.61.298-4.898.505-1.14 1.209-2.339 2.062-3.55a33.993 33.993 0 0 0 6.1 6.076C8.59 20.743 6.106 21.84 4.341 21.84zm11.028-6.474a33.118 33.118 0 0 1-3.364 2.942 33.3 33.3 0 0 1-6.314-6.306 33.267 33.267 0 0 1 2.946-3.368 33.184 33.184 0 0 1 3.365-2.944 33.25 33.25 0 0 1 3.363 2.942 33.868 33.868 0 0 1 2.952 3.36 32.866 32.866 0 0 1-2.948 3.374zM22 5.999a1 1 0 1 0 0 2 1 1 0 1 0 0-2zm-8 13a1 1 0 1 0 0 2 1 1 0 1 0 0-2zm-12-15a1 1 0 1 0 0-2 1 1 0 1 0 0 2z"/></svg>