<svg id="Layer_1" xmlns="http://www.w3.org/2000/svg" width="1200" height="438" viewBox="0 0 1200 438"><style>.st0{fill:#fff}</style><path class="st0" d="M0 405.8c42.4-14.5 84.7-29.5 127.4-43.2 22.8-7.3 43.3-18.9 64.3-29.8 35.1-18.2 70.1-36.7 105-55.1 2.3-1.2 4.2-1.4 6.7-.7 47.6 13.4 95.2 26.8 142.9 40 2.3.6 5.2.5 7.4-.3 47.8-16.6 95.5-33.3 143.3-50.1 2.2-.8 4.4-1.8 6.5-2.9 47.7-25.5 95.5-51.1 143.2-76.7 2.4-1.3 4.4-1.3 6.9-.3 47.5 19.1 95.1 38.1 142.6 57.2 2.7 1.1 4.7 1 7.3-.3 47.6-24.6 95.3-49.1 143-73.8 2.2-1.1 4.2-2.7 5.9-4.5 48.5-54.3 97-108.7 145.5-163.1l2.1-2.1v438H0v-32.3z"/></svg>