<?xml version="1.0" encoding="utf-8"?>
<!-- Generator: Adobe Illustrator 19.1.0, SVG Export Plug-In . SVG Version: 6.00 Build 0)  -->
<svg version="1.1" id="Layer_1" xmlns="http://www.w3.org/2000/svg" xmlns:xlink="http://www.w3.org/1999/xlink" x="0px" y="0px"
	 width="1200px" height="438px" viewBox="0 0 1200 438" style="enable-background:new 0 0 1200 438;" xml:space="preserve">
<style type="text/css">
	.st0{fill:#FFFFFF;}
</style>
<g>
	<g>
		<path class="st0" d="M0,405.8c42.4-14.5,84.7-29.5,127.4-43.2c22.8-7.3,43.3-18.9,64.3-29.8c35.1-18.2,70.1-36.7,105-55.1
			c2.3-1.2,4.2-1.4,6.7-0.7c47.6,13.4,95.2,26.8,142.9,40c2.3,0.6,5.2,0.5,7.4-0.3c47.8-16.6,95.5-33.3,143.3-50.1
			c2.2-0.8,4.4-1.8,6.5-2.9c47.7-25.5,95.5-51.1,143.2-76.7c2.4-1.3,4.4-1.3,6.9-0.3c47.5,19.1,95.1,38.1,142.6,57.2
			c2.7,1.1,4.7,1,7.3-0.3c47.6-24.6,95.3-49.1,143-73.8c2.2-1.1,4.2-2.7,5.9-4.5c48.5-54.3,97-108.7,145.5-163.1
			c0.7-0.7,1.4-1.4,2.1-2.1c0,146,0,291.9,0,438c-400,0-800,0-1200,0C0,427.2,0,416.5,0,405.8z"/>
	</g>
</g>
</svg>
