<svg xmlns="http://www.w3.org/2000/svg" width="24" height="24" viewBox="0 0 24 24"><title>bullhorn</title><path fill="#fe504f" d="M7.74 17L20 21V3L7.74 7H4c-1.654 0-3 1.346-3 3v4c0 1.654 1.346 3 3 3h.427c-.001.025-.003.047-.003.072-.001.639.065 1.514.366 2.41.162.443.364.895.641 1.293.138.199.271.396.435.559.157.168.301.338.465.459.312.271.602.463.816.572.214.119.335.189.335.189l.037.021a1.675 1.675 0 0 0 2.479-1.28 1.68 1.68 0 0 0-1.479-1.854s-.058-.004-.157-.016c-.109 0-.254-.023-.427-.076-.097-.014-.18-.066-.283-.105-.107-.035-.204-.105-.314-.174-.221-.135-.436-.342-.649-.576-.377-.443-.673-1.012-.868-1.494H7.74zM17 5.721l1-.334v13.227l-1-.303V5.721zM9 8.398l7-2.342V18.01l-7-2.408V8.398zM4 15c-.552 0-1-.449-1-1v-4c0-.551.448-1 1-1h4v6H4zm17-6h1v6h-1z"/></svg>