<!-- Generated by IcoMoon.io -->
<svg version="1.1" xmlns="http://www.w3.org/2000/svg" width="24" height="24" viewBox="0 0 24 24">
<title>bullhorn</title>
<path fill="#fe504f" d="M7.74 17l12.26 4v-18l-12.26 4h-3.74c-1.654 0-3 1.346-3 3v4c0 1.654 1.346 3 3 3h0.427c-0.001 0.025-0.003 0.047-0.003 0.072-0.001 0.639 0.065 1.514 0.366 2.41 0.162 0.443 0.364 0.895 0.641 1.293 0.138 0.199 0.271 0.396 0.435 0.559 0.157 0.168 0.301 0.338 0.465 0.459 0.312 0.271 0.602 0.463 0.816 0.572 0.214 0.119 0.335 0.189 0.335 0.189l0.037 0.021c0.188 0.104 0.399 0.174 0.627 0.199 0.92 0.104 1.749-0.559 1.852-1.479s-0.56-1.748-1.479-1.854c0 0-0.058-0.004-0.157-0.016-0.109 0-0.254-0.023-0.427-0.076-0.097-0.014-0.18-0.066-0.283-0.105-0.107-0.035-0.204-0.105-0.314-0.174-0.221-0.135-0.436-0.342-0.649-0.576-0.377-0.443-0.673-1.012-0.868-1.494h1.919zM17 5.721l1-0.334v13.227l-1-0.303v-12.59zM9 8.398l7-2.342v11.954l-7-2.408v-7.204zM4 15c-0.552 0-1-0.449-1-1v-4c0-0.551 0.448-1 1-1h4v6h-4zM21 9h1v6h-1z"></path>
</svg>
