<svg xmlns="http://www.w3.org/2000/svg" width="24" height="24" viewBox="0 0 24 24"><title>chart</title><path fill="#fe504f" d="M3.916 3.647C1.627 5.293.129 7.972.129 11a9 9 0 0 0 .574 3.145L9.189 11 3.916 3.647zm-2.348 7.101a7.055 7.055 0 0 1 1.971-5.027l4.197 4.659-5.951 1.985a7.068 7.068 0 0 1-.217-1.617zM13.312 1.5c-2.528 0-4.97.911-6.878 2.566l.025.028-.399.349 6.374 7.311L3.16 14.7l.136.427-.01.003c.028.093.065.181.097.271l.08.253.009-.003a10.445 10.445 0 0 0 9.84 6.85c5.79 0 10.5-4.711 10.5-10.5S19.102 1.5 13.312 1.5zm7.792 7.114l-6.328 2.317 4.131-5.315a8.541 8.541 0 0 1 2.197 2.998zM8.117 5.281A8.5 8.5 0 0 1 13.312 3.5c1.784 0 3.439.555 4.808 1.498l-4.83 6.215-5.173-5.932zm-2.719 9.758l7.275-2.312-1.343 7.515a8.41 8.41 0 0 1-5.932-5.203zm7.914 5.461c-.339 0-.667-.041-.997-.08l1.438-8.049 7.696-2.818c.233.776.362 1.597.362 2.447.001 4.688-3.813 8.5-8.499 8.5z"/></svg>