<!-- Generated by IcoMoon.io -->
<svg version="1.1" xmlns="http://www.w3.org/2000/svg" width="24" height="24" viewBox="0 0 24 24">
<title>graph</title>
<path fill="#fe504f" d="M22.998 22.002h-1.998v-1.002h-1.002v1.002h-1.995v-1.002h-1.002v1.002h-1.998v-1.002h-1.002v1.002h-1.998v-1.002h-1.002v1.002h-1.998v-1.002h-1.002v1.002h-4.401l5.27-3.167 2.608-7.622 3.874 6.809 7.507-12.508-1.714-1.030-5.747 9.576-4.376-7.691-3.809 11.128-5.215 3.134v-20.631h-1.998v24h24v-3h-1.002zM22.998 0h1.002v1.002h-1.002zM19.998 0h1.002v1.002h-1.002zM17.001 0h1.002v1.002h-1.002zM14.001 0h1.002v1.002h-1.002zM11.001 0h1.002v1.002h-1.002zM8.001 0h1.002v1.002h-1.002zM5.001 0h1.002v1.002h-1.002zM2.001 0h1.002v1.002h-1.002zM22.998 3h1.002v1.002h-1.002zM19.998 3h1.002v1.002h-1.002zM17.001 3h1.002v1.002h-1.002zM14.001 3h1.002v1.002h-1.002zM11.001 3h1.002v1.002h-1.002zM8.001 3h1.002v1.002h-1.002zM5.001 3h1.002v1.002h-1.002zM2.001 3h1.002v1.002h-1.002zM22.998 5.997h1.002v1.002h-1.002zM17.001 5.997h1.002v1.002h-1.002zM14.001 5.997h1.002v1.002h-1.002zM8.001 5.997h1.002v1.002h-1.002zM5.001 5.997h1.002v1.002h-1.002zM2.001 5.997h1.002v1.002h-1.002zM22.998 8.997h1.002v1.002h-1.002zM14.001 8.997h1.002v1.002h-1.002zM8.001 8.997h1.002v1.002h-1.002zM5.001 8.997h1.002v1.002h-1.002zM2.001 8.997h1.002v1.002h-1.002zM22.998 11.999h1.002v1.002h-1.002zM19.998 11.999h1.002v1.002h-1.002zM5.001 11.999h1.002v1.002h-1.002zM2.001 11.999h1.002v1.002h-1.002zM22.998 14.999h1.002v1.002h-1.002zM19.998 14.999h1.002v1.002h-1.002zM11.001 14.999h1.002v1.002h-1.002zM5.001 14.999h1.002v1.002h-1.002zM2.001 14.999h1.002v1.002h-1.002zM22.998 17.996h1.002v1.002h-1.002zM19.998 17.996h1.002v1.002h-1.002zM17.001 17.996h1.002v1.002h-1.002zM11.001 17.996h1.002v1.002h-1.002zM2.001 17.996h1.002v1.002h-1.002z"></path>
</svg>
