<svg xmlns="http://www.w3.org/2000/svg" width="24" height="24" viewBox="0 0 24 24"><title>graph</title><path fill="#fe504f" d="M22.998 22.002H21V21h-1.002v1.002h-1.995V21h-1.002v1.002h-1.998V21h-1.002v1.002h-1.998V21h-1.002v1.002H9.003V21H8.001v1.002H3.6l5.27-3.167 2.608-7.622 3.874 6.809 7.507-12.508-1.714-1.03-5.747 9.576-4.376-7.691-3.809 11.128-5.215 3.134V0H0v24h24v-3h-1.002zm0-22.002H24v1.002h-1.002zm-3 0H21v1.002h-1.002zm-2.997 0h1.002v1.002h-1.002zm-3 0h1.002v1.002h-1.002zm-3 0h1.002v1.002h-1.002zm-3 0h1.002v1.002H8.001zm-3 0h1.002v1.002H5.001zm-3 0h1.002v1.002H2.001zm20.997 3H24v1.002h-1.002zm-3 0H21v1.002h-1.002zm-2.997 0h1.002v1.002h-1.002zm-3 0h1.002v1.002h-1.002zm-3 0h1.002v1.002h-1.002zm-3 0h1.002v1.002H8.001zm-3 0h1.002v1.002H5.001zm-3 0h1.002v1.002H2.001zm20.997 2.997H24v1.002h-1.002zm-5.997 0h1.002v1.002h-1.002zm-3 0h1.002v1.002h-1.002zm-6 0h1.002v1.002H8.001zm-3 0h1.002v1.002H5.001zm-3 0h1.002v1.002H2.001zm20.997 3H24v1.002h-1.002zm-8.997 0h1.002v1.002h-1.002zm-6 0h1.002v1.002H8.001zm-3 0h1.002v1.002H5.001zm-3 0h1.002v1.002H2.001zm20.997 3.002H24v1.002h-1.002zm-3 0H21v1.002h-1.002zm-14.997 0h1.002v1.002H5.001zm-3 0h1.002v1.002H2.001zm20.997 3H24v1.002h-1.002zm-3 0H21v1.002h-1.002zm-8.997 0h1.002v1.002h-1.002zm-6 0h1.002v1.002H5.001zm-3 0h1.002v1.002H2.001zm20.997 2.997H24v1.002h-1.002zm-3 0H21v1.002h-1.002zm-2.997 0h1.002v1.002h-1.002zm-6 0h1.002v1.002h-1.002zm-9 0h1.002v1.002H2.001z"/></svg>