<svg xmlns="http://www.w3.org/2000/svg" width="17" height="20" viewBox="0 0 17 20"><title>linkedin</title><path fill="#fe504f" d="M3.895 6.975v11.06H.212V6.975h3.683zm.234-3.415c.011 1.06-.792 1.908-2.076 1.908h-.022C.792 5.468 0 4.62 0 3.56c0-1.083.826-1.908 2.076-1.908 1.261 0 2.042.826 2.054 1.908zm13.014 8.136v6.339h-3.672V12.12c0-1.484-.536-2.5-1.864-2.5-1.016 0-1.618.681-1.886 1.339-.089.246-.123.569-.123.904v6.172H5.926c.045-10.022 0-11.06 0-11.06h3.672v1.607h-.022c.48-.759 1.35-1.864 3.337-1.864 2.422 0 4.23 1.585 4.23 4.978z"/></svg>