<?xml version="1.0" encoding="utf-8"?>
<!-- Generator: Adobe Illustrator 19.1.0, SVG Export Plug-In . SVG Version: 6.00 Build 0)  -->
<svg version="1.1" id="Layer_1" xmlns="http://www.w3.org/2000/svg" xmlns:xlink="http://www.w3.org/1999/xlink" x="0px" y="0px"
	 viewBox="0 0 150 30" style="enable-background:new 0 0 150 30;" xml:space="preserve">
<style type="text/css">
	.st0{fill:#F05353;}
</style>
<g>
	<path class="st0" d="M23.7,19.3c0,2.3-1,4.2-2.9,5.6c-1.9,1.4-4.6,2.1-7.9,2.1c-1.9,0-3.6-0.2-5-0.5c-1.4-0.3-2.8-0.8-4-1.3v-5.6
		h0.7c1.2,1,2.6,1.8,4.2,2.3c1.5,0.5,3,0.8,4.4,0.8c0.4,0,0.8,0,1.4-0.1s1.1-0.2,1.5-0.3c0.5-0.2,0.8-0.4,1.1-0.7s0.4-0.7,0.4-1.2
		c0-0.5-0.2-1-0.6-1.3c-0.4-0.4-1.1-0.7-1.9-0.9c-0.9-0.2-1.8-0.4-2.8-0.6c-1-0.2-1.9-0.4-2.7-0.7c-2-0.6-3.4-1.5-4.2-2.6
		c-0.9-1.1-1.3-2.4-1.3-4.1c0-2.2,1-3.9,2.9-5.3c1.9-1.4,4.4-2.1,7.5-2.1c1.5,0,3,0.1,4.5,0.4c1.5,0.3,2.8,0.7,3.9,1.1v5.4h-0.6
		C21.2,9.1,20,8.5,18.7,8c-1.4-0.5-2.7-0.8-4.2-0.8c-0.5,0-1,0-1.5,0.1c-0.5,0.1-1,0.2-1.4,0.4c-0.4,0.2-0.8,0.4-1,0.7
		c-0.3,0.3-0.4,0.7-0.4,1.1c0,0.6,0.2,1.1,0.7,1.4s1.4,0.6,2.7,0.9c0.9,0.2,1.7,0.3,2.5,0.5c0.8,0.2,1.6,0.4,2.5,0.7
		c1.8,0.6,3.1,1.4,3.9,2.4C23.2,16.4,23.7,17.7,23.7,19.3z"/>
	<path class="st0" d="M48.2,26.6h-7.4l-7-9.3L32.5,19v7.6h-6V3.4h6v10.5l8.3-10.5h7l-9.1,10.8L48.2,26.6z"/>
	<path class="st0" d="M72.5,15c0,3.7-1.1,6.7-3.2,8.8s-5.1,3.3-8.8,3.3c-3.7,0-6.7-1.1-8.8-3.3s-3.2-5.1-3.2-8.8
		c0-3.7,1.1-6.7,3.2-8.9s5.1-3.3,8.8-3.3c3.7,0,6.7,1.1,8.8,3.3C71.5,8.3,72.5,11.3,72.5,15z M64.6,20.9c0.6-0.7,1-1.5,1.3-2.5
		c0.3-1,0.4-2.1,0.4-3.4c0-1.4-0.2-2.6-0.5-3.6c-0.3-1-0.7-1.8-1.3-2.4C64,8.4,63.4,8,62.7,7.7c-0.7-0.3-1.4-0.4-2.2-0.4
		c-0.8,0-1.5,0.1-2.1,0.4c-0.7,0.3-1.3,0.7-1.9,1.3c-0.5,0.6-0.9,1.4-1.3,2.4c-0.3,1-0.5,2.2-0.5,3.6c0,1.4,0.2,2.6,0.5,3.5
		c0.3,1,0.7,1.8,1.3,2.4c0.5,0.6,1.1,1.1,1.8,1.4c0.7,0.3,1.4,0.4,2.2,0.4c0.8,0,1.5-0.1,2.2-0.4C63.4,22,64,21.5,64.6,20.9z"/>
	<path class="st0" d="M97.5,26.6h-7.4l-7-9.3L81.8,19v7.6h-6V3.4h6v10.5l8.3-10.5h7L88,14.1L97.5,26.6z"/>
	<path class="st0" d="M121.8,15c0,3.7-1.1,6.7-3.2,8.8s-5.1,3.3-8.8,3.3c-3.7,0-6.7-1.1-8.8-3.3s-3.2-5.1-3.2-8.8
		c0-3.7,1.1-6.7,3.2-8.9s5.1-3.3,8.8-3.3c3.7,0,6.7,1.1,8.8,3.3C120.8,8.3,121.8,11.3,121.8,15z M113.9,20.9c0.6-0.7,1-1.5,1.3-2.5
		c0.3-1,0.4-2.1,0.4-3.4c0-1.4-0.2-2.6-0.5-3.6c-0.3-1-0.7-1.8-1.3-2.4c-0.5-0.6-1.1-1.1-1.8-1.4c-0.7-0.3-1.4-0.4-2.2-0.4
		c-0.8,0-1.5,0.1-2.1,0.4c-0.7,0.3-1.3,0.7-1.9,1.3c-0.5,0.6-0.9,1.4-1.3,2.4c-0.3,1-0.5,2.2-0.5,3.6c0,1.4,0.2,2.6,0.5,3.5
		c0.3,1,0.7,1.8,1.3,2.4c0.5,0.6,1.1,1.1,1.8,1.4c0.7,0.3,1.4,0.4,2.2,0.4c0.8,0,1.5-0.1,2.2-0.4C112.8,22,113.4,21.5,113.9,20.9z"
		/>
	<path class="st0" d="M146.2,3.4l-8.5,23.3H131l-8.5-23.3h6.3l5.6,16.3l5.6-16.3H146.2z"/>
</g>
</svg>
