<svg id="Layer_1" xmlns="http://www.w3.org/2000/svg" viewBox="0 0 150 30"><style>.st0{fill:#f05353}</style><path class="st0" d="M23.7 19.3c0 2.3-1 4.2-2.9 5.6-1.9 1.4-4.6 2.1-7.9 2.1-1.9 0-3.6-.2-5-.5s-2.8-.8-4-1.3v-5.6h.7c1.2 1 2.6 1.8 4.2 2.3 1.5.5 3 .8 4.4.8.4 0 .8 0 1.4-.1s1.1-.2 1.5-.3c.5-.2.8-.4 1.1-.7s.4-.7.4-1.2-.2-1-.6-1.3c-.4-.4-1.1-.7-1.9-.9-.9-.2-1.8-.4-2.8-.6-1-.2-1.9-.4-2.7-.7-2-.6-3.4-1.5-4.2-2.6-.9-1.1-1.3-2.4-1.3-4.1 0-2.2 1-3.9 2.9-5.3s4.4-2.1 7.5-2.1c1.5 0 3 .1 4.5.4 1.5.3 2.8.7 3.9 1.1v5.4h-.6C21.2 9.1 20 8.5 18.7 8c-1.4-.5-2.7-.8-4.2-.8-.5 0-1 0-1.5.1s-1 .2-1.4.4c-.4.2-.8.4-1 .7-.3.3-.4.7-.4 1.1 0 .6.2 1.1.7 1.4s1.4.6 2.7.9c.9.2 1.7.3 2.5.5s1.6.4 2.5.7c1.8.6 3.1 1.4 3.9 2.4.7 1 1.2 2.3 1.2 3.9zM48.2 26.6h-7.4l-7-9.3-1.3 1.7v7.6h-6V3.4h6v10.5l8.3-10.5h7l-9.1 10.8 9.5 12.4zM72.5 15c0 3.7-1.1 6.7-3.2 8.8s-5.1 3.3-8.8 3.3c-3.7 0-6.7-1.1-8.8-3.3s-3.2-5.1-3.2-8.8c0-3.7 1.1-6.7 3.2-8.9s5.1-3.3 8.8-3.3c3.7 0 6.7 1.1 8.8 3.3 2.2 2.2 3.2 5.2 3.2 8.9zm-7.9 5.9c.6-.7 1-1.5 1.3-2.5.3-1 .4-2.1.4-3.4 0-1.4-.2-2.6-.5-3.6s-.7-1.8-1.3-2.4c-.5-.6-1.1-1-1.8-1.3-.7-.3-1.4-.4-2.2-.4-.8 0-1.5.1-2.1.4-.7.3-1.3.7-1.9 1.3-.5.6-.9 1.4-1.3 2.4-.3 1-.5 2.2-.5 3.6s.2 2.6.5 3.5c.3 1 .7 1.8 1.3 2.4.5.6 1.1 1.1 1.8 1.4.7.3 1.4.4 2.2.4.8 0 1.5-.1 2.2-.4.7-.3 1.3-.8 1.9-1.4zM97.5 26.6h-7.4l-7-9.3-1.3 1.7v7.6h-6V3.4h6v10.5l8.3-10.5h7L88 14.1l9.5 12.5zM121.8 15c0 3.7-1.1 6.7-3.2 8.8s-5.1 3.3-8.8 3.3c-3.7 0-6.7-1.1-8.8-3.3s-3.2-5.1-3.2-8.8c0-3.7 1.1-6.7 3.2-8.9s5.1-3.3 8.8-3.3c3.7 0 6.7 1.1 8.8 3.3 2.2 2.2 3.2 5.2 3.2 8.9zm-7.9 5.9c.6-.7 1-1.5 1.3-2.5.3-1 .4-2.1.4-3.4 0-1.4-.2-2.6-.5-3.6s-.7-1.8-1.3-2.4c-.5-.6-1.1-1.1-1.8-1.4-.7-.3-1.4-.4-2.2-.4-.8 0-1.5.1-2.1.4-.7.3-1.3.7-1.9 1.3-.5.6-.9 1.4-1.3 2.4-.3 1-.5 2.2-.5 3.6s.2 2.6.5 3.5c.3 1 .7 1.8 1.3 2.4.5.6 1.1 1.1 1.8 1.4.7.3 1.4.4 2.2.4.8 0 1.5-.1 2.2-.4.8-.2 1.4-.7 1.9-1.3zM146.2 3.4l-8.5 23.3H131l-8.5-23.3h6.3l5.6 16.3L140 3.4h6.2z"/></svg>