<svg xmlns="http://www.w3.org/2000/svg" width="19" height="20" viewBox="0 0 19 20"><title>twitter</title><path fill="#fe504f" d="M18.08 4.554a7.768 7.768 0 0 1-1.808 1.864c.011.156.011.313.011.469 0 4.766-3.627 10.257-10.257 10.257-2.042 0-3.94-.592-5.536-1.618.29.033.569.045.871.045a7.217 7.217 0 0 0 4.475-1.54 3.61 3.61 0 0 1-3.371-2.5 4.6 4.6 0 0 0 .681.056c.324 0 .647-.045.949-.123a3.606 3.606 0 0 1-2.891-3.538v-.045c.48.268 1.038.435 1.629.458a3.601 3.601 0 0 1-1.607-3.002c0-.67.179-1.283.491-1.819A10.248 10.248 0 0 0 9.15 7.29a4.057 4.057 0 0 1-.089-.826 3.603 3.603 0 0 1 3.605-3.605c1.038 0 1.975.435 2.634 1.138a7.089 7.089 0 0 0 2.288-.871 3.598 3.598 0 0 1-1.585 1.987 7.226 7.226 0 0 0 2.076-.558z"/></svg>