<svg xmlns="http://www.w3.org/2000/svg" width="17" height="20" viewBox="0 0 17 20"><title>youtube</title><path fill="#fe504f" d="M10.837 13.884v2.355c0 .502-.145.748-.435.748-.167 0-.335-.078-.502-.246v-3.359c.167-.167.335-.246.502-.246.29 0 .435.257.435.748zm3.772.011v.513h-1.004v-.513c0-.502.167-.759.502-.759s.502.257.502.759zM3.828 11.462h1.194v-1.049H1.54v1.049h1.172v6.35h1.116v-6.35zm3.214 6.351h.993V12.3h-.993v4.219c-.223.313-.435.469-.636.469-.134 0-.212-.078-.234-.234-.011-.033-.011-.156-.011-.391V12.3h-.993v4.364c0 .391.033.647.089.815.089.279.324.413.647.413.357 0 .737-.223 1.138-.681v.603zm4.788-1.652v-2.199c0-.513-.022-.882-.1-1.105-.123-.413-.402-.625-.792-.625-.368 0-.714.201-1.038.603v-2.422h-.993v7.4H9.9v-.536c.335.413.681.614 1.038.614.391 0 .67-.212.792-.614.078-.234.1-.603.1-1.116zm3.773-.112v-.145h-1.016c0 .402-.011.625-.022.681-.056.268-.201.402-.446.402-.346 0-.513-.257-.513-.77v-.971h1.998v-1.15c0-.592-.1-1.016-.301-1.295-.29-.379-.681-.569-1.183-.569-.513 0-.904.19-1.194.569-.212.279-.313.703-.313 1.295v1.931c0 .592.112 1.027.324 1.295.29.379.681.569 1.205.569s.938-.201 1.205-.592c.123-.179.212-.379.234-.603.022-.1.022-.324.022-.647zM8.817 5.859V3.515c0-.513-.145-.77-.48-.77-.324 0-.48.257-.48.77v2.344c0 .513.156.781.48.781.335 0 .48-.268.48-.781zm8.025 8.382c0 1.283-.011 2.656-.29 3.906-.212.882-.926 1.529-1.786 1.618-2.054.234-4.129.234-6.194.234s-4.141 0-6.194-.234c-.859-.089-1.585-.737-1.786-1.618-.29-1.25-.29-2.623-.29-3.906 0-1.295.011-2.656.29-3.906.212-.882.926-1.529 1.797-1.629 2.042-.223 4.118-.223 6.183-.223s4.141 0 6.194.223a2.1 2.1 0 0 1 1.786 1.629c.29 1.25.29 2.612.29 3.906zM5.703 0h1.138l-1.35 4.453v3.025H4.375V4.453c-.1-.547-.324-1.328-.681-2.366C3.448 1.395 3.203.692 2.969 0h1.183l.792 2.935zm4.13 3.717V5.67c0 .592-.1 1.038-.313 1.317-.279.379-.67.569-1.183.569-.502 0-.893-.19-1.172-.569-.212-.29-.313-.725-.313-1.317V3.717c0-.592.1-1.027.313-1.306.279-.379.67-.569 1.172-.569.513 0 .904.19 1.183.569.212.279.313.714.313 1.306zm3.738-1.809v5.569h-1.016v-.614c-.402.469-.781.692-1.15.692-.324 0-.558-.134-.658-.413-.056-.167-.089-.435-.089-.837V1.908h1.016v4.096c0 .234 0 .368.011.391.022.156.1.246.234.246.201 0 .413-.156.636-.48V1.909h1.016z"/></svg>