<!-- Generated by IcoMoon.io -->
<svg version="1.1" xmlns="http://www.w3.org/2000/svg" width="17" height="20" viewBox="0 0 17 20">
<title>youtube</title>
<path fill="#fe504f" d="M10.837 13.884v2.355c0 0.502-0.145 0.748-0.435 0.748-0.167 0-0.335-0.078-0.502-0.246v-3.359c0.167-0.167 0.335-0.246 0.502-0.246 0.29 0 0.435 0.257 0.435 0.748zM14.609 13.895v0.513h-1.004v-0.513c0-0.502 0.167-0.759 0.502-0.759s0.502 0.257 0.502 0.759zM3.828 11.462h1.194v-1.049h-3.482v1.049h1.172v6.35h1.116v-6.35zM7.042 17.813h0.993v-5.513h-0.993v4.219c-0.223 0.313-0.435 0.469-0.636 0.469-0.134 0-0.212-0.078-0.234-0.234-0.011-0.033-0.011-0.156-0.011-0.391v-4.063h-0.993v4.364c0 0.391 0.033 0.647 0.089 0.815 0.089 0.279 0.324 0.413 0.647 0.413 0.357 0 0.737-0.223 1.138-0.681v0.603zM11.83 16.161v-2.199c0-0.513-0.022-0.882-0.1-1.105-0.123-0.413-0.402-0.625-0.792-0.625-0.368 0-0.714 0.201-1.038 0.603v-2.422h-0.993v7.4h0.993v-0.536c0.335 0.413 0.681 0.614 1.038 0.614 0.391 0 0.67-0.212 0.792-0.614 0.078-0.234 0.1-0.603 0.1-1.116zM15.603 16.049v-0.145h-1.016c0 0.402-0.011 0.625-0.022 0.681-0.056 0.268-0.201 0.402-0.446 0.402-0.346 0-0.513-0.257-0.513-0.77v-0.971h1.998v-1.15c0-0.592-0.1-1.016-0.301-1.295-0.29-0.379-0.681-0.569-1.183-0.569-0.513 0-0.904 0.19-1.194 0.569-0.212 0.279-0.313 0.703-0.313 1.295v1.931c0 0.592 0.112 1.027 0.324 1.295 0.29 0.379 0.681 0.569 1.205 0.569s0.938-0.201 1.205-0.592c0.123-0.179 0.212-0.379 0.234-0.603 0.022-0.1 0.022-0.324 0.022-0.647zM8.817 5.859v-2.344c0-0.513-0.145-0.77-0.48-0.77-0.324 0-0.48 0.257-0.48 0.77v2.344c0 0.513 0.156 0.781 0.48 0.781 0.335 0 0.48-0.268 0.48-0.781zM16.842 14.241c0 1.283-0.011 2.656-0.29 3.906-0.212 0.882-0.926 1.529-1.786 1.618-2.054 0.234-4.129 0.234-6.194 0.234s-4.141 0-6.194-0.234c-0.859-0.089-1.585-0.737-1.786-1.618-0.29-1.25-0.29-2.623-0.29-3.906v0c0-1.295 0.011-2.656 0.29-3.906 0.212-0.882 0.926-1.529 1.797-1.629 2.042-0.223 4.118-0.223 6.183-0.223s4.141 0 6.194 0.223c0.859 0.1 1.585 0.748 1.786 1.629 0.29 1.25 0.29 2.612 0.29 3.906zM5.703 0h1.138l-1.35 4.453v3.025h-1.116v-3.025c-0.1-0.547-0.324-1.328-0.681-2.366-0.246-0.692-0.491-1.395-0.725-2.087h1.183l0.792 2.935zM9.833 3.717v1.953c0 0.592-0.1 1.038-0.313 1.317-0.279 0.379-0.67 0.569-1.183 0.569-0.502 0-0.893-0.19-1.172-0.569-0.212-0.29-0.313-0.725-0.313-1.317v-1.953c0-0.592 0.1-1.027 0.313-1.306 0.279-0.379 0.67-0.569 1.172-0.569 0.513 0 0.904 0.19 1.183 0.569 0.212 0.279 0.313 0.714 0.313 1.306zM13.571 1.908v5.569h-1.016v-0.614c-0.402 0.469-0.781 0.692-1.15 0.692-0.324 0-0.558-0.134-0.658-0.413-0.056-0.167-0.089-0.435-0.089-0.837v-4.397h1.016v4.096c0 0.234 0 0.368 0.011 0.391 0.022 0.156 0.1 0.246 0.234 0.246 0.201 0 0.413-0.156 0.636-0.48v-4.252h1.016z"></path>
</svg>
