<svg xmlns="http://www.w3.org/2000/svg" xmlns:xlink="http://www.w3.org/1999/xlink" width="351" height="24" viewBox="0 0 351 24"><svg width="24" height="24" viewBox="0 0 24 24"><path fill="#101010" d="M0 1.5v15h24v-15H0zM22.5 15h-21V3h21v12zm-6.75 3h-7.5l-.75 3L6 22.5h12L16.5 21z"/></svg><svg width="24" height="24" viewBox="0 0 24 24" x="54"><path fill="#101010" d="M4.5 12c0-.285.017-.567.048-.844L.213 9.747C.074 10.477.001 11.23.001 12c0 3.451 1.457 6.561 3.789 8.75l2.679-3.687A7.471 7.471 0 0 1 4.502 12zm15 0a7.474 7.474 0 0 1-1.967 5.063l2.679 3.687A11.965 11.965 0 0 0 24.001 12c0-.77-.073-1.523-.212-2.253l-4.335 1.409c.031.277.048.559.048.844zm-6-7.35a7.508 7.508 0 0 1 5.026 3.652l4.335-1.409C21.145 3.25 17.652.61 13.499.092v4.557zM5.474 8.302A7.505 7.505 0 0 1 10.5 4.65V.093c-4.153.518-7.646 3.158-9.362 6.8l4.335 1.409zm9.633 10.526c-.947.431-1.999.672-3.107.672s-2.16-.241-3.107-.672l-2.679 3.687C7.93 23.461 9.902 24 11.999 24s4.07-.539 5.785-1.485l-2.679-3.687z"/></svg><svg width="24" height="24" viewBox="0 0 24 24" x="108"><path fill="#101010" d="M.001 12.038H0l.001.005c.003.091.013.18.031.266l.016.135.017.142.028.192c.02.135.042.284.068.444l.102.489c.017.087.042.176.065.267l.074.281c.013.048.024.097.04.146l.047.148.097.304.025.078.029.078.059.157.121.322.141.327.072.166c.024.056.053.11.08.166l.166.336c.058.112.122.223.184.336l.094.169c.031.056.068.111.102.167l.209.336c.296.443.625.88.989 1.296.368.412.767.803 1.188 1.163.426.355.873.677 1.33.964.459.282.929.523 1.392.73l.349.142c.058.023.114.048.172.068l.173.061c.057.02.227.081.339.117l.335.099c.055.016.109.033.164.047l.164.04.319.077.311.06.151.029.074.014.074.01.288.04.139.019c.046.006.091.009.136.013l.262.023c.085.007.166.016.247.017l.016.001a1.5 1.5 0 0 0 1.499 1.473l.038-.001v.001l.005-.001c.091-.003.18-.013.266-.031l.135-.016.142-.017.192-.028c.135-.02.284-.042.444-.068l.489-.102c.087-.017.176-.042.267-.065l.281-.074c.048-.013.097-.024.145-.04l.148-.047.304-.097.078-.025.078-.029.157-.059.322-.121.327-.141.166-.072c.056-.024.11-.053.166-.08l.336-.166c.112-.058.223-.122.336-.184l.169-.094c.056-.031.111-.068.167-.102l.336-.209c.443-.296.88-.625 1.296-.989.412-.368.803-.767 1.163-1.188.355-.426.677-.873.964-1.33.282-.459.523-.929.73-1.392l.142-.349c.023-.058.048-.114.068-.172l.061-.173c.02-.057.081-.227.117-.339l.099-.335c.016-.055.034-.109.047-.164l.04-.164.077-.319.06-.311.029-.151.014-.074.01-.074.04-.288.019-.139c.006-.046.009-.091.013-.136l.023-.262c.007-.085.016-.167.017-.247l.001-.037a1.5 1.5 0 0 0 1.494-1.5l-.001-.038h.001l-.001-.005a1.547 1.547 0 0 0-.031-.266l-.016-.135-.017-.142-.028-.192c-.02-.135-.042-.284-.068-.444a84.335 84.335 0 0 1-.102-.489c-.017-.087-.042-.176-.065-.267l-.074-.281c-.013-.048-.024-.097-.04-.146l-.047-.148-.097-.304-.025-.078-.029-.078-.059-.157-.121-.322-.141-.327-.072-.166c-.024-.056-.053-.11-.08-.166l-.166-.336c-.058-.112-.122-.223-.184-.336l-.094-.169c-.031-.056-.068-.111-.102-.167l-.209-.336a12.59 12.59 0 0 0-.989-1.296 12.425 12.425 0 0 0-1.188-1.163 12.291 12.291 0 0 0-1.33-.964 12.071 12.071 0 0 0-1.392-.73l-.349-.142c-.058-.023-.114-.048-.172-.068l-.173-.061c-.057-.02-.227-.081-.339-.117a38.091 38.091 0 0 0-.335-.099c-.055-.016-.109-.033-.164-.047l-.164-.04-.319-.077a58.84 58.84 0 0 1-.311-.06l-.151-.029-.074-.014-.074-.01-.288-.04-.139-.019c-.046-.006-.091-.009-.136-.013l-.262-.023c-.085-.007-.167-.016-.247-.017l-.059-.002A1.499 1.499 0 0 0 11.975 0l-.038.001V0l-.005.001c-.091.003-.18.013-.266.031l-.135.016-.142.017-.192.028c-.135.02-.284.042-.444.068l-.489.102c-.087.017-.176.042-.267.065l-.281.074c-.048.013-.097.024-.146.04l-.148.047-.304.097-.078.025-.078.029-.157.059-.322.121-.327.141-.166.072c-.056.024-.11.053-.166.08l-.336.166c-.112.058-.223.122-.336.184l-.169.094c-.056.031-.111.068-.167.102l-.336.209c-.443.296-.88.625-1.296.989-.412.368-.803.767-1.163 1.188-.355.426-.677.873-.964 1.33-.282.459-.523.929-.73 1.392l-.142.349c-.023.058-.048.114-.068.172l-.061.173c-.02.057-.081.227-.117.339l-.099.335c-.016.055-.034.109-.047.164l-.04.164-.077.319-.06.311-.029.151-.014.074-.01.074-.04.288-.019.139c-.006.046-.009.091-.013.136l-.023.262c-.007.085-.016.167-.017.247l-.001.038a1.5 1.5 0 0 0-1.451 1.499l.001.038zm1.722-1.521l.003-.014c.015-.076.038-.153.06-.233l.067-.245c.012-.042.022-.084.036-.127l.042-.128.088-.265.022-.068.026-.067.053-.137.109-.28.126-.283.064-.144c.021-.048.048-.095.072-.144l.148-.291c.052-.097.109-.193.164-.29l.084-.147c.028-.049.061-.096.091-.145l.186-.291c.263-.382.554-.759.875-1.117.325-.354.676-.689 1.045-.997a10.77 10.77 0 0 1 1.164-.821c.401-.239.811-.442 1.213-.615l.303-.118c.05-.019.099-.04.149-.057l.15-.05c.05-.017.196-.068.294-.097a27 27 0 0 1 .29-.081c.048-.013.094-.028.142-.039l.142-.032.275-.063.269-.047.13-.023.064-.011.064-.008.249-.031.12-.015c.04-.005.079-.006.117-.01s.152-.011.225-.016c.073-.005.143-.012.212-.012l.384-.009.3.011.127.004a17.026 17.026 0 0 1 .276.018c.076.012.154.018.234.018l.033-.001h.005a1.5 1.5 0 0 0 1.443-1.26l.038.008c.076.015.153.038.233.06l.245.067c.042.012.084.022.127.036l.128.042.265.088.068.022.067.026.137.053.28.109.283.126.144.064c.048.021.095.048.144.072l.291.148c.097.052.193.109.29.164l.147.084c.049.028.096.061.145.091l.291.186c.382.263.759.554 1.116.875.354.325.689.676.997 1.045.303.374.578.766.821 1.164.239.401.442.811.615 1.213l.118.303c.019.05.04.099.057.149l.05.15c.017.05.068.197.097.294a27 27 0 0 1 .081.29c.013.048.028.094.039.142l.032.142.063.275.047.269.023.13.011.064.008.064.031.249.015.12c.005.04.006.079.01.117s.011.152.016.225c.005.073.012.143.012.212l.009.384-.011.3-.004.127a17.026 17.026 0 0 1-.018.276 1.498 1.498 0 0 0-.018.234l.001.033v.005H21a1.5 1.5 0 0 0 1.235 1.438l-.005.021c-.015.076-.038.153-.06.233l-.068.245c-.012.042-.022.084-.036.127l-.042.128-.088.265-.022.068-.026.067-.053.137-.109.28-.126.283-.064.144c-.021.048-.048.095-.072.144l-.148.291c-.052.097-.109.193-.164.29l-.084.147c-.028.049-.061.096-.091.145l-.186.291a11.11 11.11 0 0 1-.875 1.117c-.325.354-.676.689-1.045.997a10.77 10.77 0 0 1-1.164.821c-.401.239-.811.442-1.213.615l-.303.118c-.05.019-.099.04-.149.057l-.15.05c-.05.017-.196.068-.294.097a27 27 0 0 1-.29.081c-.048.013-.094.028-.142.039l-.142.032-.275.063-.269.047-.13.023a1.426 1.426 0 0 1-.064.011l-.064.008-.249.031-.12.015c-.04.005-.079.006-.117.01s-.152.011-.225.016c-.073.005-.143.012-.212.012l-.384.009-.3-.011-.127-.004a17.026 17.026 0 0 1-.276-.018 1.498 1.498 0 0 0-.234-.018l-.033.001h-.005a1.5 1.5 0 0 0-1.441 1.251c-.075-.015-.151-.038-.229-.059l-.245-.067c-.042-.012-.084-.022-.127-.036l-.128-.042-.265-.088-.068-.022-.067-.026-.137-.053-.28-.109-.283-.126-.144-.064c-.048-.021-.095-.048-.144-.072l-.291-.148c-.097-.052-.193-.109-.29-.164l-.147-.084c-.049-.028-.096-.061-.145-.091a65.385 65.385 0 0 1-.291-.186 10.988 10.988 0 0 1-1.116-.875 10.936 10.936 0 0 1-.997-1.045 10.77 10.77 0 0 1-.821-1.164 10.402 10.402 0 0 1-.615-1.213l-.118-.303c-.019-.05-.04-.099-.057-.149l-.05-.15c-.017-.05-.068-.196-.097-.294a27 27 0 0 1-.081-.29c-.013-.048-.028-.094-.039-.142l-.032-.142-.063-.275-.047-.269-.023-.13a1.426 1.426 0 0 1-.011-.064l-.008-.064-.031-.248-.015-.12c-.005-.04-.006-.079-.01-.117s-.011-.152-.016-.225c-.005-.073-.012-.143-.012-.212a116.46 116.46 0 0 0-.009-.384l.011-.3.004-.127a17.026 17.026 0 0 1 .018-.276c.012-.076.018-.155.018-.234L3 11.968v-.005h-.001a1.5 1.5 0 0 0-1.276-1.445z"/></svg><svg width="24" height="24" viewBox="0 0 24 24" x="162"><path fill="#101010" d="M22.5 0L12 3 1.5 0s-.105 1.212 0 3L12 6.283 22.5 3c.105-1.788 0-3 0-3zM1.692 4.573C2.254 10.449 4.352 20.328 12 24c7.648-3.672 9.746-13.552 10.308-19.427L12 8.449 1.692 4.573z"/></svg><svg width="24" height="24" viewBox="0 0 24 24" x="216"><path fill="#101010" d="M9 0L0 12h9L3 24 24 9H12l9-9z"/></svg><svg width="27" height="24" viewBox="0 0 27 24" x="270"><path fill="#101010" d="M5.25 3H.75a.752.752 0 0 0-.75.75v16.5c0 .413.338.75.75.75h4.5c.412 0 .75-.337.75-.75V3.75A.753.753 0 0 0 5.25 3zM4.5 7.5h-3V6h3v1.5zM12.75 3h-4.5a.752.752 0 0 0-.75.75v16.5c0 .413.337.75.75.75h4.5c.413 0 .75-.337.75-.75V3.75a.752.752 0 0 0-.75-.75zM12 7.5H9V6h3v1.5z"/><path fill="#101010" d="M17.932 4.16l-4.019 2.025a.752.752 0 0 0-.332 1.007l6.749 13.396a.752.752 0 0 0 1.007.332l4.019-2.025a.752.752 0 0 0 .332-1.007L18.939 4.492a.752.752 0 0 0-1.007-.332z"/><path fill="#101010" d="M21.75 20.25a.75.75 0 1 1-1.5 0 .75.75 0 0 1 1.5 0z"/></svg></svg>