<svg xmlns="http://www.w3.org/2000/svg" width="41" height="32" viewBox="0 0 41 32"><path fill="#FFF" d="M2.125 12.179h1.589L2.91 10.25zm11.089 9.392l1.321-1.411-1.25-1.411h-2.911v.875h2.536v.982h-2.536v.964h2.839zm2.822-1.392l1.768 1.964v-3.875zm5.143-.84q0-.589-.714-.589h-1.5v1.232h1.482q.732 0 .732-.643zm5.16-.071q0-.518-.75-.518h-1.464v1.089h1.446q.768 0 .768-.571zm-4.964-8.322q0-.518-.75-.518h-1.464v1.071h1.446q.768 0 .768-.554zm8.196 1.233h1.589l-.786-1.929zM12.482 9.411v4.839h-1.179v-3.786L9.624 14.25H8.606l-1.679-3.786v3.786H4.57l-.446-1.071H1.713l-.446 1.071H.017l2.071-4.839h1.714L5.766 14V9.411h1.893l1.518 3.286 1.375-3.286h1.929zm9.929 9.928q0 .357-.098.625t-.25.446-.402.295-.464.179-.563.08-.563.018-.58-.009-.527-.009v1.625h-2.25l-1.429-1.607-1.482 1.607H9.232V17.75h4.643l1.429 1.589 1.464-1.589h3.696q1.946 0 1.946 1.589zm-5.197-6.089v1h-3.875V9.411h3.875v1.018H14.5v.875h2.643v.982H14.5v.964h2.714zm23.929 9.982v4.089q0 .982-.688 1.688t-1.67.705H2.356q-.982 0-1.67-.705t-.688-1.688V15.214H1.98l.446-1.089h.982l.446 1.089h3.893v-.821l.339.821h2.018l.357-.839v.839h9.661v-1.768l.179-.018q.179 0 .179.25v1.536h4.982v-.411q.411.214.982.321t.938.116 1.125-.009.92-.018l.446-1.089h1l.446 1.089h4.054v-1.036l.607 1.036h3.25v-6.75h-3.214v.786l-.446-.786h-3.304v.786l-.411-.786h-4.446q-1.232 0-1.946.393v-.393h-3.071v.393q-.429-.393-1.304-.393H9.874l-.768 1.732-.768-1.732H4.802v.786l-.393-.786H1.391l-1.393 3.196V4.677q0-.982.688-1.688t1.67-.705h36.429q.982 0 1.67.705t.688 1.688v12.107H39q-.911 0-1.446.393v-.393h-3.161q-.982 0-1.393.393v-.393h-5.643v.393q-.554-.393-1.554-.393h-3.732v.393q-.411-.393-1.625-.393h-4.179l-.964 1.036-.893-1.036H8.178v6.75h6.125l.982-1.054.929 1.054h3.768v-1.589h.375q1.054 0 1.607-.232v1.821h3.107v-1.768h.143q.143 0 .179.036t.036.179v1.554h9.446q1.018 0 1.571-.429v.429h3q1.071 0 1.696-.304zm-13.536-4.178q0 .411-.214.768t-.607.518q.446.161.607.464t.161.821v.964h-1.161v-.804q0-.589-.214-.777t-.821-.188h-1.232v1.768h-1.161v-4.839h2.75q.857 0 1.375.268t.518 1.036zm-4.946-8.34q0 .429-.223.786t-.598.518q.464.161.616.455t.152.83v.946h-1.161q0-.161.009-.473t0-.446-.054-.33-.152-.286-.313-.152-.527-.063h-1.25v1.75h-1.143V9.41l2.732.018q.875 0 1.393.259t.518 1.027zm9.446 10.875v1H28.25V17.75h3.857v1h-2.696v.875h2.643v.982h-2.643v.964zM24.5 9.411v4.839h-1.179V9.411H24.5zm12.375 11.643q0 1.536-1.821 1.536h-2.25v-1.036h2.25q.607 0 .607-.446 0-.286-.304-.375t-.741-.089-.884-.063-.75-.402-.304-.982q0-.696.464-1.071t1.179-.375h2.321v1.018h-2.125q-.643 0-.643.446 0 .286.313.366t.75.071.875.045.75.384.313.973zm4.268-.893v1.804q-.429.625-1.571.625H37.34v-1.036h2.232q.589 0 .589-.446 0-.232-.223-.339t-.554-.098-.714-.036-.714-.143-.554-.429-.223-.866q0-.696.473-1.071t1.188-.375h2.304v1.018h-2.107q-.643 0-.643.446 0 .357.518.393t1.223.089 1.009.464zM38.196 9.429v4.821h-1.643l-2.179-3.625v3.625h-2.357l-.464-1.071H29.16l-.446 1.071h-1.339q-2.304 0-2.304-2.375 0-2.464 2.375-2.464h1.125v1.054q-.125 0-.5-.018t-.509-.009-.411.036-.384.116-.259.241-.205.411-.054.598q0 .679.241 1.036t.884.357h.518l1.643-3.804h1.732L33.213 14V9.429h1.768l2.036 3.357V9.429h1.179z"/></svg>