<?xml version="1.0" encoding="utf-8"?>
<!-- Generator: Adobe Illustrator 19.0.0, SVG Export Plug-In . SVG Version: 6.00 Build 0)  -->
<svg version="1.0" id="Layer_1" xmlns="http://www.w3.org/2000/svg" xmlns:xlink="http://www.w3.org/1999/xlink" x="0px" y="0px"
	 width="232.5px" height="42.4px" viewBox="0 0 232.5 42.4" enable-background="new 0 0 232.5 42.4" xml:space="preserve">
<g id="decoration_3_1_">
	
		<rect x="114.4" y="9.1" transform="matrix(-0.7071 0.7071 -0.7071 -0.7071 206.5479 -63.3793)" fill="none" stroke="#FFFFFF" stroke-miterlimit="10" width="4" height="4"/>
	
		<rect x="112.1" y="26.8" transform="matrix(-0.7071 0.7071 -0.7071 -0.7071 220.7137 -29.2612)" fill="none" stroke="#FFFFFF" stroke-miterlimit="10" width="8.6" height="8.6"/>
	<g>
		<path fill="#FFFFFF" d="M232.2,22.4c-4,0.1-8.1,0.2-12.1,0.2L208,22.7h-0.2l-0.1-0.1l-2.4-2.4h0.7l-6.6,6.6l-0.4,0.4l-0.4-0.4
			l-4.2-4.2h0.7l-2,2v-0.7l1.9,1.9h-0.7l3.8-3.8v0.7l-4-4h0.7l-3.8,3.8l-0.1,0.1h-0.2h-42.9l0.4-0.1l-6.2,6.2l-0.4,0.4l-0.4-0.4
			l-18.1-18.1l-9-9c-0.6-0.6-1.6-0.6-2.2,0l-2.3,2.3l-4.5,4.5V7.7l20.5,20.5h-0.7l5.8-5.8v0.7l-5.7-5.7h0.7l-3.4,3.4v-0.7l11,11
			h-0.7l11.6-11.6v0.7l-8.4-8.4h0.7l-2.8,2.8v-0.7l5.6,5.6l0.3,0.4l-0.4,0.4l-11.3,11.3l-5.6,5.6l-2.8,2.8l-1.4,1.4
			c-0.2,0.2-0.5,0.5-0.9,0.7s-0.8,0.3-1.2,0.3s-0.8-0.1-1.2-0.3c-0.2-0.1-0.4-0.2-0.5-0.4l-0.4-0.4l-1.4-1.4l-2.8-2.8l-5.6-5.6
			L92.8,20.2l-0.4-0.4l0.3-0.4l5.6-5.6v0.7l-2.8-2.8h0.7l-8.4,8.4v-0.7L99.4,31h-0.7l11-11v0.7l-3.4-3.4h0.7l-5.7,5.7v-0.7l5.8,5.8
			h-0.7l20.5-20.5v0.7l-4.5-4.5l-2.3-2.3c-0.6-0.6-1.6-0.6-2.2,0l-9,9L90.8,28.6L90.4,29L90,28.6l-6.2-6.2l0.4,0.1H41.6h-0.2
			l-0.1-0.1l-3.8-3.8h0.7l-4,4v-0.7l3.8,3.8h-0.7l1.9-1.9v0.7l-2-2h0.7l-4.2,4.3l-0.4,0.4l-0.4-0.4l-6.6-6.6H27l-2.3,2.3l-0.1,0.1
			h-0.2l-12.1-0.1c-4,0-8.1-0.1-12.1-0.2C0.1,22.3,0,22.2,0,22c0-0.1,0.1-0.2,0.2-0.2c4-0.1,8.1-0.2,12.1-0.2l12.1-0.1L24,21.6
			l2.4-2.4l0.4-0.4l0.4,0.4l6.6,6.6h-0.7l4.2-4.2l0.4-0.4l0.4,0.4l2,2l0.4,0.4l-0.4,0.4l-1.9,1.9l-0.4,0.4l-0.4-0.4l-3.8-3.8
			l-0.5-0.2l0.4-0.4l4-4l0.4-0.4l0.4,0.4l3.8,3.8l-0.4-0.1h42.9h0.2l0.1,0.1l6.2,6.2h-0.7l18.1-18.1l9-9c0.4-0.5,1.1-0.8,1.8-0.8
			s1.3,0.3,1.8,0.7l2.3,2.3l4.5,4.5l0.4,0.4l-0.4,0.4l-20.5,20.5l-0.4,0.4l-0.4-0.4l-5.8-5.8l-0.4-0.4l0.4-0.4l5.7-5.7l0.4-0.4
			l0.4,0.4l3.4,3.4l0.4,0.4l-0.4,0.4l-11,11l-0.4,0.4l-0.4-0.4L87.3,20.1l-0.4-0.4l0.4-0.4l8.4-8.4l0.4-0.4l0.4,0.4l2.8,2.8l0.4,0.4
			l-0.3,0.4l-5.6,5.6v-0.7l11.3,11.3l5.6,5.6l2.8,2.8l1.4,1.4l0.3,0.3c0.1,0.1,0.2,0.2,0.3,0.2c0.2,0.1,0.5,0.2,0.7,0.2
			s0.5-0.1,0.7-0.2c0.2-0.1,0.4-0.3,0.6-0.6l1.4-1.4l2.8-2.8l5.6-5.6l11.4-11.1v0.7l-5.6-5.6l-0.3-0.4l0.4-0.4L136,11l0.4-0.4
			l0.4,0.4l8.4,8.4l0.4,0.4l-0.4,0.4l-11.6,11.6l-0.4,0.4l-0.4-0.4l-11-11l-0.4-0.4l0.4-0.4l3.4-3.4l0.4-0.4l0.4,0.4l5.7,5.7
			l0.4,0.4l-0.4,0.4l-5.8,5.8l-0.4,0.4l-0.4-0.4L104.6,8.4L104.2,8l0.4-0.4l4.5-4.5l2.3-2.3c0.5-0.5,1.1-0.8,1.8-0.7
			c0.7,0,1.3,0.3,1.8,0.8l9,9L142.1,28h-0.7l6.2-6.2l0.1-0.1h0.2h42.9l-0.4,0.1l3.8-3.8l0.4-0.4L195,18l4,4l0.4,0.4l-0.4,0.4
			l-3.8,3.8l-0.4,0.4l-0.4-0.4l-1.9-1.9l-0.4-0.4l0.4-0.4l2-2l0.4-0.4l0.4,0.4l4.2,4.2h-0.8l6.6-6.6l0.4-0.4l0.4,0.4l2.4,2.4
			l-0.4-0.1l12.1,0.1c4,0,8.1,0.1,12.1,0.2c0.1,0,0.2,0.1,0.2,0.3C232.5,22.3,232.3,22.4,232.2,22.4z"/>
	</g>
</g>
</svg>
