<svg version="1" xmlns="http://www.w3.org/2000/svg" width="200.1" height="18.2" viewBox="0 0 200.1 18.2"><path fill="#FFF" d="M48.1 12.6L0 12.1l48.1-.5c.3 0 .5.2.5.5s-.2.5-.5.5zM152 11.6l48.1.5-48.1.5c-.3 0-.5-.2-.5-.5 0-.2.2-.5.5-.5z"/><path fill="none" stroke="#FFF" stroke-linecap="round" stroke-miterlimit="10" d="M48.1 12.1h28.3c.3 0 .7-.1.9-.4L81 8c.5-.5 1.3-.5 1.8 0l9.4 9.4c.5.5 1.3.5 1.8 0l4.7-4.7c.5-.5.5-1.3 0-1.8l-3-3c-.5-.5-1.3-.5-1.8 0l-2.8 2.8c-.5.5-.5 1.3 0 1.8l.8.8c.5.5 1.3.5 1.8 0l.9-.9c.5-.5.5-1.3 0-1.8l-3-3-2.1-2.1c-.5-.5-1.3-.5-1.8 0L84 9.2l-2.1 2.1c-.5.5-.5 1.3 0 1.8l.5.4c.5.5 1.3.5 1.8 0L93 4.7 96.8.9c.5-.5 1.3-.5 1.8 0l3.4 3.4c.5.5.5 1.3 0 1.8l-2.1 2.1-2.1-2.1c-.5-.5-.5-1.3 0-1.8l3.4-3.4c.5-.5 1.3-.5 1.8 0l3.8 3.8 8.8 8.8c.5.5 1.3.5 1.8 0l.5-.4c.5-.5.5-1.3 0-1.8l-2.1-2.1-3.7-3.7c-.5-.5-1.3-.5-1.8 0l-2.1 2.1-3 3c-.5.5-.5 1.3 0 1.8l.9.9c.5.5 1.3.5 1.8 0l.8-.8c.5-.5.5-1.3 0-1.8l-2.8-2.8c-.5-.5-1.3-.5-1.8 0l-3 3c-.5.5-.5 1.3 0 1.8l4.7 4.7c.5.5 1.3.5 1.8 0L117 8c.5-.5 1.3-.5 1.8 0l3.7 3.7c.2.2.6.4.9.4h28.3"/></svg>