<svg version="1" xmlns="http://www.w3.org/2000/svg" width="232.5" height="42.4" viewBox="0 0 232.5 42.4"><path fill="none" stroke="#FFF" stroke-miterlimit="10" d="M119.221 11.078l-2.828 2.829-2.829-2.829 2.829-2.828zM122.498 31.054l-6.082 6.081-6.08-6.08 6.08-6.082z" stroke-width=".99999"/><path fill="#FFF" d="M232.2 22.4c-4 .1-8.1.2-12.1.2l-12.1.1h-.2l-.1-.1-2.4-2.4h.7l-6.6 6.6-.4.4-.4-.4-4.2-4.2h.7l-2 2v-.7l1.9 1.9h-.7l3.8-3.8v.7l-4-4h.7l-3.8 3.8-.1.1h-43.1l.4-.1-6.2 6.2-.4.4-.4-.4-18.1-18.1-9-9c-.6-.6-1.6-.6-2.2 0l-2.3 2.3-4.5 4.5v-.7l20.5 20.5h-.7l5.8-5.8v.7l-5.7-5.7h.7l-3.4 3.4v-.7l11 11h-.7l11.6-11.6v.7l-8.4-8.4h.7l-2.8 2.8v-.7l5.6 5.6.3.4-.4.4-11.3 11.3-5.6 5.6-2.8 2.8-1.4 1.4c-.2.2-.5.5-.9.7s-.8.3-1.2.3-.8-.1-1.2-.3c-.2-.1-.4-.2-.5-.4l-.4-.4-1.4-1.4-2.8-2.8-5.6-5.6-11.3-11.3-.4-.4.3-.4 5.6-5.6v.7l-2.8-2.8h.7l-8.4 8.4v-.7L99.4 31h-.7l11-11v.7l-3.4-3.4h.7l-5.7 5.7v-.7l5.8 5.8h-.7l20.5-20.5v.7l-4.5-4.5-2.3-2.3c-.6-.6-1.6-.6-2.2 0l-9 9-18.1 18.1-.4.4-.4-.4-6.2-6.2.4.1H41.4l-.1-.1-3.8-3.8h.7l-4 4v-.7l3.8 3.8h-.7l1.9-1.9v.7l-2-2h.7l-4.2 4.3-.4.4-.4-.4-6.6-6.6h.7l-2.3 2.3-.1.1h-.2l-12.1-.1c-4 0-8.1-.1-12.1-.2-.1 0-.2-.1-.2-.3 0-.1.1-.2.2-.2 4-.1 8.1-.2 12.1-.2l12.1-.1-.4.1 2.4-2.4.4-.4.4.4 6.6 6.6h-.7l4.2-4.2.4-.4.4.4 2 2 .4.4-.4.4-1.9 1.9-.4.4-.4-.4-3.8-3.8-.5-.2.4-.4 4-4 .4-.4.4.4 3.8 3.8-.4-.1h43.1l.1.1 6.2 6.2h-.7l18.1-18.1 9-9c.4-.5 1.1-.8 1.8-.8s1.3.3 1.8.7l2.3 2.3 4.5 4.5.4.4-.4.4-20.5 20.5-.4.4-.4-.4-5.8-5.8-.4-.4.4-.4 5.7-5.7.4-.4.4.4 3.4 3.4.4.4-.4.4-11 11-.4.4-.4-.4-11.6-11.6-.4-.4.4-.4 8.4-8.4.4-.4.4.4 2.8 2.8.4.4-.3.4-5.6 5.6v-.7l11.3 11.3 5.6 5.6 2.8 2.8 1.4 1.4.3.3c.1.1.2.2.3.2.2.1.5.2.7.2s.5-.1.7-.2c.2-.1.4-.3.6-.6l1.4-1.4 2.8-2.8 5.6-5.6 11.4-11.1v.7l-5.6-5.6-.3-.4.4-.4L136 11l.4-.4.4.4 8.4 8.4.4.4-.4.4-11.6 11.6-.4.4-.4-.4-11-11-.4-.4.4-.4 3.4-3.4.4-.4.4.4 5.7 5.7.4.4-.4.4-5.8 5.8-.4.4-.4-.4-20.5-20.5-.4-.4.4-.4 4.5-4.5 2.3-2.3c.5-.5 1.1-.8 1.8-.7.7 0 1.3.3 1.8.8l9 9L142.1 28h-.7l6.2-6.2.1-.1h43.1l-.4.1 3.8-3.8.4-.4.4.4 4 4 .4.4-.4.4-3.8 3.8-.4.4-.4-.4-1.9-1.9-.4-.4.4-.4 2-2 .4-.4.4.4 4.2 4.2h-.8l6.6-6.6.4-.4.4.4 2.4 2.4-.4-.1 12.1.1c4 0 8.1.1 12.1.2.1 0 .2.1.2.3 0-.1-.2 0-.3 0z"/></svg>