<?xml version="1.0" encoding="utf-8"?>
<!-- Generator: Adobe Illustrator 19.0.0, SVG Export Plug-In . SVG Version: 6.00 Build 0)  -->
<svg version="1.0" id="Layer_1" xmlns="http://www.w3.org/2000/svg" xmlns:xlink="http://www.w3.org/1999/xlink" x="0px" y="0px"
	 width="200.1px" height="18.2px" viewBox="0 0 200.1 18.2" enable-background="new 0 0 200.1 18.2" xml:space="preserve">
<g id="decoration_4_3_">
	<g>
		<path fill="#FFFFFF" d="M48.1,12.6L0,12.1l48.1-0.5c0.3,0,0.5,0.2,0.5,0.5S48.4,12.6,48.1,12.6L48.1,12.6z"/>
	</g>
	<g>
		<path fill="#FFFFFF" d="M152,11.6l48.1,0.5L152,12.6c-0.3,0-0.5-0.2-0.5-0.5C151.5,11.9,151.7,11.6,152,11.6L152,11.6z"/>
	</g>
	<path fill="none" stroke="#FFFFFF" stroke-linecap="round" stroke-miterlimit="10" d="M48.1,12.1h28.3c0.3,0,0.7-0.1,0.9-0.4L81,8
		c0.5-0.5,1.3-0.5,1.8,0l9.4,9.4c0.5,0.5,1.3,0.5,1.8,0l4.7-4.7c0.5-0.5,0.5-1.3,0-1.8l-3-3c-0.5-0.5-1.3-0.5-1.8,0l-2.8,2.8
		c-0.5,0.5-0.5,1.3,0,1.8l0.8,0.8c0.5,0.5,1.3,0.5,1.8,0l0.9-0.9c0.5-0.5,0.5-1.3,0-1.8l-3-3l-2.1-2.1C89,5,88.2,5,87.7,5.5L84,9.2
		l-2.1,2.1c-0.5,0.5-0.5,1.3,0,1.8l0.5,0.4c0.5,0.5,1.3,0.5,1.8,0L93,4.7l3.8-3.8c0.5-0.5,1.3-0.5,1.8,0l3.4,3.4
		c0.5,0.5,0.5,1.3,0,1.8l-2.1,2.1l-2.1-2.1c-0.5-0.5-0.5-1.3,0-1.8l3.4-3.4c0.5-0.5,1.3-0.5,1.8,0l3.8,3.8l8.8,8.8
		c0.5,0.5,1.3,0.5,1.8,0l0.5-0.4c0.5-0.5,0.5-1.3,0-1.8l-2.1-2.1l-3.7-3.7c-0.5-0.5-1.3-0.5-1.8,0l-2.1,2.1l-3,3
		c-0.5,0.5-0.5,1.3,0,1.8l0.9,0.9c0.5,0.5,1.3,0.5,1.8,0l0.8-0.8c0.5-0.5,0.5-1.3,0-1.8l-2.8-2.8c-0.5-0.5-1.3-0.5-1.8,0l-3,3
		c-0.5,0.5-0.5,1.3,0,1.8l4.7,4.7c0.5,0.5,1.3,0.5,1.8,0L117,8c0.5-0.5,1.3-0.5,1.8,0l3.7,3.7c0.2,0.2,0.6,0.4,0.9,0.4h28.3"/>
</g>
</svg>
