<svg version="1" xmlns="http://www.w3.org/2000/svg" width="260" height="23.3" viewBox="0 0 260 23.3"><path fill="#FFF" d="M62.5 15.9L0 15.4l62.5-.5c.3 0 .5.2.5.5 0 .1-.2.5-.5.5zM197.5 14.9l62.5.5-62.5.5c-.3 0-.5-.2-.5-.5s.2-.5.5-.5z"/><path fill="none" stroke="#FFF" stroke-linecap="round" stroke-miterlimit="10" d="M62.5 15.4h36.8c.4 0 .9-.2 1.2-.5l4.8-4.8c.6-.6 1.7-.6 2.3 0l12.3 12.3c.6.6 1.7.6 2.3 0l6.1-6.1c.6-.6.6-1.7 0-2.3l-3.9-3.9c-.6-.6-1.7-.6-2.3 0l-3.7 3.7c-.6.6-.6 1.7 0 2.3l1.1 1.1c.6.6 1.7.6 2.3 0L123 16c.6-.6.6-1.7 0-2.3l-3.9-3.9-2.7-2.8c-.6-.6-1.7-.6-2.3 0l-4.8 4.8-2.7 2.7c-.6.6-.6 1.7 0 2.3l.6.6c.6.6 1.7.6 2.3 0L121 5.9l5-5c.6-.6 1.7-.6 2.3 0l4.5 4.5c.6.6.6 1.7 0 2.3l-2.7 2.7-2.7-2.7c-.6-.6-.6-1.7 0-2.3l4.5-4.5c.6-.6 1.7-.6 2.3 0l5 5 11.5 11.5c.6.6 1.7.6 2.3 0l.6-.6c.7-.6.7-1.7 0-2.3l-2.7-2.7-4.8-4.8c-.6-.6-1.7-.6-2.3 0l-2.7 2.7-3.9 3.9c-.6.6-.6 1.7 0 2.3l1.2 1.2c.6.6 1.7.6 2.3 0l1.1-1.1c.6-.6.6-1.7 0-2.3l-3.7-3.7c-.6-.6-1.7-.6-2.3 0l-3.9 3.9c-.6.6-.6 1.7 0 2.3l6.1 6.1c.6.6 1.7.6 2.3 0L152.5 10c.6-.6 1.7-.6 2.3 0l4.8 4.8c.3.3.7.5 1.2.5h36.8"/></svg>