<svg xmlns="http://www.w3.org/2000/svg" width="15" height="16" viewBox="0 0 15 16"><path fill="#FFF" d="M6.563 7.107q0 .321.286.629t.692.607.808.656.688.929.286 1.268q0 .804-.429 1.545-.643 1.089-1.884 1.603t-2.661.513q-1.179 0-2.201-.371T.617 13.258q-.33-.536-.33-1.17 0-.723.397-1.339t1.058-1.027q1.17-.732 3.607-.893-.286-.375-.424-.661t-.138-.652q0-.321.188-.759-.411.036-.607.036-1.321 0-2.228-.862t-.906-2.183q0-.732.321-1.42t.884-1.17Q3.127.569 4.068.283T6.01-.003h3.732L8.51.783H7.34q.661.563 1 1.188T8.679 3.4q0 .643-.219 1.156t-.527.83-.621.58-.531.549-.219.589zM5.259 6.25q.339 0 .696-.147t.589-.388q.473-.509.473-1.42 0-.518-.152-1.116t-.433-1.156-.754-.924T4.633.733q-.375 0-.737.174t-.585.469q-.42.527-.42 1.429 0 .411.089.871t.281.92.464.826.67.598.862.232zm.018 7.795q.518 0 .996-.116t.884-.348.652-.652.246-.973q0-.223-.063-.438t-.129-.375-.241-.371-.263-.313-.344-.308-.326-.259-.371-.268-.326-.232q-.143-.018-.429-.018-.473 0-.938.063t-.96.223-.866.411-.612.665-.241.942q0 .625.313 1.103t.817.741 1.063.393 1.138.129zm7.232-7.822h1.902v.964h-1.902v1.955h-.938V7.187H9.678v-.964h1.893V4.285h.938v1.938z"/></svg>