<?xml version="1.0" encoding="utf-8"?>
<!-- Generator: Adobe Illustrator 19.0.1, SVG Export Plug-In . SVG Version: 6.00 Build 0)  -->
<svg version="1.1" id="Layer_1" xmlns="http://www.w3.org/2000/svg" xmlns:xlink="http://www.w3.org/1999/xlink" x="0px" y="0px"
	 width="160px" height="100px" viewBox="0 0 160 100" style="enable-background:new 0 0 160 100;" xml:space="preserve">
<style type="text/css">
	.st0{fill:none;}
	.st1{fill:#FFFFFF;}
	.st2{fill:none;stroke:#FFFFFF;stroke-width:0.6362;stroke-linecap:round;stroke-linejoin:round;stroke-miterlimit:10;}
	.st3{fill:#FFFFFF;stroke:#FFFFFF;stroke-width:0.2137;stroke-miterlimit:10;}
</style>
<path class="st0" d="M80,3C36.9,3,2,23.9,2,49.8s34.9,46.9,78,46.9s78-21,78-46.9S123.1,3,80,3"/>
<g>
	<path class="st1" d="M49.8,74.2L49.6,75l-1-0.2L48,81.5l0,0l2.4-4.4l0.4,5l0,0l2.2-6.4l-1-0.2l0.2-0.8l2.3,0.5L54.3,76h-0.5
		L51,84.1L50.3,84L50,79.8l-2,3.7l-0.7-0.2l0.8-8.6l-0.5-0.1l0.2-0.8L49.8,74.2z"/>
	<path class="st1" d="M54.7,79.9c0.3-2.3,1.6-4.6,3.7-4.3c2.1,0.3,2.7,2.9,2.3,5.2c-0.3,2.3-1.6,4.6-3.7,4.3
		C54.9,84.8,54.3,82.2,54.7,79.9z M59.9,80.7c0.3-1.7,0-4-1.6-4.2s-2.5,1.8-2.8,3.6c-0.3,1.7,0,4,1.6,4.2
		C58.8,84.5,59.7,82.5,59.9,80.7z"/>
	<path class="st1" d="M68.6,86.3l-1.4-0.1l-1.9-4.4L64,81.6l-0.3,3.3l1.2,0.1l-0.1,0.9l-3-0.3l0.1-0.9l1,0.1l0.7-7.4l-1-0.3l0.1-0.8
		c0.4,0.1,0.7,0.3,1.2,0.3c0.6,0.1,1.3-0.1,2,0c1.3,0.1,2.4,0.9,2.2,2.6c-0.1,1.3-0.9,2.1-1.9,2.3l1.6,3.7l0.9,0.1L68.6,86.3z
		 M64.1,80.8l0.7,0.1c1.6,0.2,2.3-0.5,2.4-1.5c0.1-1.2-0.5-1.7-1.4-1.8c-0.4,0-0.9,0-1.3,0L64.1,80.8z"/>
	<path class="st1" d="M71.1,78.2l-1-0.3l0.1-0.7c0.4,0.1,0.8,0.2,1.2,0.2c0.5,0,1-0.1,1.6-0.1c1.9,0.1,3.3,1.6,3.2,4.8
		c-0.2,3.4-1.6,4.5-3.3,4.4c-0.6,0-1.1-0.2-1.7-0.1l-1.3,0.1l-0.1-0.9l1.1-0.1L71.1,78.2z M71.6,85.6l1.3,0.1
		c1.4,0.1,2.4-0.8,2.5-3.4c0.1-3.1-1.3-4.2-2.5-4.1L72,78.3L71.6,85.6z"/>
	<path class="st1" d="M79.9,85.8h1.9v0.9H78v-0.9h1.1L79,78.3l-1-0.1v-0.7c0.4,0.1,0.9,0.2,1.3,0.2c0.7,0,1.5-0.2,2.2-0.2
		c1.2,0,2.3,0.7,2.3,2.4c0,1.7-0.9,2.9-2.8,2.9h-1.1V85.8z M79.9,81.9H81c1.4,0,2-0.7,2-2c0-1.2-0.7-1.7-1.6-1.7
		c-0.5,0-1,0.1-1.5,0.2V81.9z"/>
	<path class="st1" d="M92.4,86.3L91,86.4l-2.5-4.1l-1.2,0.1l0.2,3.3l1.2-0.1v0.9l-3.1,0.1v-0.9h1l-0.3-7.4l-1.1-0.1v-0.8
		c0.4,0.1,0.7,0.1,1.2,0.1c0.7,0,1.3-0.2,2-0.3c1.3-0.1,2.5,0.6,2.5,2.3c0.1,1.3-0.5,2.2-1.5,2.6l2.1,3.4h0.9L92.4,86.3z M87.2,81.6
		h0.7c1.6,0,2.2-0.8,2.2-1.8c-0.1-1.2-0.8-1.6-1.7-1.6c-0.4,0-0.9,0.1-1.3,0.2L87.2,81.6z"/>
	<path class="st1" d="M93.6,86.3l-0.1-0.9l1.3-0.1L94,77.8l-1.3,0.1L92.6,77l6-0.6l0.3,2.7l-0.8,0.1v-0.4C98,77.6,98,77.4,97,77.5
		l-2.1,0.2l0.3,2.9l1.7-0.2l-0.1-1.3l0.8-0.1l0.3,3.6l-0.8,0.1L97,81.3l-1.7,0.2l0.4,3.7l2.4-0.2c1-0.1,1-0.2,0.9-1.9v-0.3l0.8-0.1
		l0.3,3L93.6,86.3z"/>
	<path class="st1" d="M104.9,85.1c-0.7,0.1-1.2,0-1.9-0.3v0.6h-0.8l-0.1-1.6c0-0.5-0.2-0.9-0.3-1.3l0.7-0.3l0.2,0.7
		c0.3,1.1,0.9,1.5,2,1.4c0.7-0.1,1.6-0.7,1.4-1.9c-0.4-2.7-4.3-0.6-4.8-3.9c-0.2-1.6,0.9-2.7,2.1-2.8c0.5-0.1,1,0,1.5,0.2v-0.6
		l0.8,0.1l0.1,1.5c0,0.5,0.2,0.9,0.3,1.3l-0.8,0.3c-0.1-0.4-0.2-1-0.4-1.4c-0.3-0.5-0.9-0.6-1.4-0.5c-0.7,0.1-1.6,0.6-1.4,1.8
		c0.4,2.5,4.2,0.5,4.8,3.9C107.3,83.7,106.3,84.9,104.9,85.1z"/>
	<path class="st1" d="M112.8,83.7c-0.7,0.1-1.2,0.1-1.9-0.2l0.1,0.6h-0.8l-0.2-1.6c-0.1-0.5-0.2-0.9-0.4-1.3l0.7-0.3l0.2,0.7
		c0.3,1,1,1.5,2.1,1.2c0.7-0.2,1.5-0.8,1.3-2c-0.6-2.7-4.3-0.3-5-3.6c-0.3-1.6,0.8-2.7,2-3c0.4-0.1,1-0.1,1.5,0.1v-0.6h0.8l0.2,1.5
		c0.1,0.5,0.2,0.9,0.4,1.3l-0.7,0.3c-0.1-0.4-0.2-1-0.5-1.4c-0.3-0.5-0.9-0.5-1.5-0.4c-0.7,0.1-1.6,0.7-1.3,1.9
		c0.5,2.4,4.3,0.2,5,3.6C115.1,82.2,114.2,83.4,112.8,83.7z"/>
</g>
<path class="st0" d="M158,49.8C158,23.9,123.1,3,80,3"/>
<path class="st0" d="M80,3C36.9,3,2,23.9,2,49.8s34.9,46.9,78,46.9"/>
<g>
	<path class="st2" d="M118.1,78c3.5-1,6.8-2.1,9.9-3.3c3-1.2,5.7-2.5,8.1-4"/>
	<path class="st2" d="M25.8,70.1c2.4,1.5,5.1,2.8,8.1,4.1s6.3,2.4,9.8,3.4"/>
</g>
<g>
	<path class="st3" d="M55.9,25.5l1.7,12.2L57,37.8L56.3,32c-0.1-0.6-0.1-1.1-0.1-1.4c-0.4,1.7-1.6,2.6-3.1,2.8
		c-2,0.3-3.8-0.9-4.1-3.2c-0.3-2.6,1.2-4.2,3.3-4.4c1.5-0.2,2.8,0.5,3.5,1.8c-0.1-0.3-0.2-0.8-0.3-1.4l-0.1-0.7H55.9z M55.8,28.8
		c-0.2-1.7-1.8-2.9-3.6-2.6c-1.9,0.3-3.1,1.8-2.8,3.9c0.3,2,1.9,3.2,3.7,2.9c1.7-0.2,3-1.9,2.7-3.5L55.8,28.8z"/>
	<path class="st3" d="M65.9,30.6c-0.7,1-1.3,1.6-2.2,1.6c-1.3,0.1-2.2-0.9-2.3-2.1l-0.4-5h0.5l0.4,4.8c0.1,1.2,0.8,2,1.9,1.9
		c1.5-0.1,2.8-2.5,3.9-7.5l0.5,0.1c-0.1,0.7-0.1,1.7,0,2.9l0.3,4.4H68l-0.3-3.6c-0.1-1-0.1-1.7,0-2.3C67.1,28,66.4,29.7,65.9,30.6z"
		/>
	<path class="st3" d="M79.7,24.1l0.1,7.2h-0.5v-0.7c0-0.6,0-1.1,0.1-1.4c-0.6,1.7-1.9,2.4-3.4,2.4c-2,0-3.6-1.4-3.7-3.6
		c0-2.6,1.7-4,3.8-4c1.5,0,2.8,0.9,3.3,2.2c-0.1-0.3-0.1-0.8-0.1-1.4v-0.7L79.7,24.1z M79.3,27.4c0-1.7-1.5-3.1-3.3-3
		c-1.9,0-3.3,1.4-3.2,3.5c0,2,1.5,3.4,3.3,3.3c1.7,0,3.2-1.6,3.1-3.2L79.3,27.4z"/>
	<path class="st3" d="M84.8,31.4l0.5-23.9h0.5l-0.5,23.9H84.8z"/>
	<path class="st3" d="M90.3,31.5l0.4-7.2h0.5l-0.4,7.2H90.3z M91,22.3c-0.2,0-0.4-0.2-0.4-0.4s0.2-0.4,0.4-0.4
		c0.2,0,0.4,0.2,0.4,0.4C91.4,22.2,91.2,22.3,91,22.3z"/>
	<path class="st3" d="M97,32l0.5-6.7l-2.4-0.2v-0.4l2.4,0.2l0.3-3.8h0.5L98,24.9l2.4,0.2v0.4L98,25.4L97.5,32H97z"/>
	<path class="st3" d="M103.3,25.3l0.6,0.1l1.9,7l3.6-6.3l0.5,0.1l-4,6.8c-0.9,1.5-2.3,3.4-3.7,4.9l-0.4-0.3c1.3-1.5,3-3.5,3.7-4.7
		L103.3,25.3z"/>
</g>
<g>
	<path class="st3" d="M64.9,11.7c0.3,0,0.7,0,0.9,0.1V12c-0.3-0.1-0.6-0.1-0.9-0.1c-1.2,0.1-2.2,1.1-2,3.2l0.3,3.7l1-0.1v0.2l-1,0.1
		l0.2,2.1c0.1,1.6-0.3,2.4-1,2.9l-0.1-0.1c0.7-0.6,1-1.3,0.9-2.7L63.1,19l-1,0.1v-0.2l1-0.1l-0.3-3.6C62.6,13.1,63.5,11.8,64.9,11.7
		z"/>
	<path class="st3" d="M65.8,17.8c-0.1,0-0.2-0.1-0.2-0.2s0.1-0.2,0.2-0.2s0.2,0.1,0.2,0.2C66,17.7,65.9,17.7,65.8,17.8z M66,21.5
		l-0.2-2.9H66l0.2,2.9H66z"/>
	<path class="st3" d="M69.1,18.9c0.3-0.4,0.6-0.6,0.9-0.6c0.5,0,0.9,0.4,0.9,0.9l0.1,2.1h-0.2l-0.1-2c0-0.5-0.3-0.8-0.8-0.8
		c-0.6,0-1.2,1-1.7,3H68c0.1-0.3,0.1-0.7,0-1.2l-0.1-1.8h0.2l0.1,1.5c0,0.4,0,0.7,0,0.9C68.6,20,68.9,19.3,69.1,18.9z"/>
	<path class="st3" d="M72.6,19.8c0-1.1,0.6-1.6,1.5-1.6s1.4,0.7,1.4,1.3v0.2l-2.6,0.1c0,0.9,0.6,1.4,1.4,1.4c0.5,0,0.8-0.2,1.1-0.6
		l0.1,0.1c-0.3,0.4-0.7,0.6-1.2,0.6C73.3,21.3,72.7,20.7,72.6,19.8z M72.9,19.5h2.4c0-0.7-0.5-1.2-1.1-1.2
		C73.4,18.3,72.9,18.8,72.9,19.5z"/>
	<path class="st3" d="M77.8,19.8C77.3,19.7,77,19.4,77,19c0-0.5,0.4-0.9,0.9-0.9c0.3,0,0.6,0.1,0.8,0.3l-0.1,0.1
		c-0.2-0.2-0.4-0.3-0.6-0.3c-0.4,0-0.7,0.3-0.7,0.7c0,0.4,0.2,0.6,0.7,0.7s0.8,0.4,0.8,0.8c0,0.5-0.4,0.7-0.9,0.7
		c-0.3,0-0.6-0.1-0.9-0.3l0.1-0.1c0.3,0.2,0.5,0.3,0.8,0.3c0.4,0,0.7-0.2,0.7-0.6C78.5,20.1,78.3,20,77.8,19.8z"/>
	<path class="st3" d="M81,21.1v-2.7h-1v-0.2h1v-1.5h0.2v1.5h1v0.2h-1v2.7H81z"/>
</g>
<g>
	<path class="st1" d="M22.6,41.3v0.5l-1.9,0.5V63h6.9c0-0.8,0.1-1.6,0.3-2.2c0.2-0.6,0.5-1.1,0.7-1.6c0.3-0.5,0.7-0.9,1.1-1.2h1v5.8
		H13.4v-0.5l1.9-0.5V42.3l-1.9-0.5v-0.5H22.6z"/>
	<path class="st1" d="M36.7,63.4v0.5h-6v-0.5l2.6-1L42.2,41h1l9.2,21.9l1.6,0.5v0.5h-3.9c-1.2,0-2.1-0.3-2.8-0.8s-1.2-1.2-1.5-1.9
		l-1.6-3.9h-7.7l-2.1,5.1L36.7,63.4z M36.8,56.4h7L40.3,48L36.8,56.4z"/>
	<path class="st1" d="M83.4,41.3v0.5l-1.9,0.5v20.6l1.9,0.5v0.5h-9.2v-0.5l1.9-0.5V45.3l-7.6,18.8h-1l-9.8-18.8v17.1l2.6,1v0.5h-6.1
		v-0.5l2.6-1V42.3l-1.9-0.5v-0.5h4c0.6,0,1.1,0.1,1.6,0.2c0.5,0.1,0.8,0.3,1.2,0.6c0.3,0.2,0.6,0.5,0.9,0.9c0.2,0.3,0.5,0.7,0.7,1.1
		l7,13.4l5.4-13.4c0.2-0.5,0.4-0.8,0.6-1.2c0.2-0.3,0.5-0.6,0.8-0.9c0.3-0.2,0.7-0.4,1.2-0.5s1.1-0.2,1.7-0.2
		C80,41.3,83.4,41.3,83.4,41.3z"/>
	<path class="st1" d="M97.7,52.1c1.5,0.1,2.9,0.3,4.1,0.7c0.5,0.2,1,0.4,1.5,0.7s0.9,0.6,1.3,1s0.7,0.9,0.9,1.4s0.4,1.1,0.4,1.8
		c0,0.9-0.2,1.7-0.5,2.4c-0.3,0.8-0.9,1.4-1.7,1.9c-0.8,0.5-1.8,1-3.1,1.3s-2.8,0.5-4.7,0.5h-9.3v-0.5l1.9-0.5V42.3l-1.9-0.5v-0.5
		h8.7c1.7,0,3.2,0.2,4.4,0.5c1.2,0.3,2.2,0.7,2.9,1.2s1.3,1.1,1.6,1.8c0.3,0.7,0.5,1.4,0.5,2.2c0,0.6-0.1,1.2-0.3,1.7
		c-0.2,0.5-0.5,0.9-0.8,1.3c-0.3,0.4-0.7,0.6-1.1,0.9c-0.4,0.2-0.9,0.4-1.3,0.6C100.2,51.9,99,52.1,97.7,52.1L97.7,52.1z M93.8,51.6
		h1.4c0.5,0,1-0.1,1.5-0.3s0.9-0.5,1.3-1c0.4-0.4,0.7-0.9,0.9-1.5s0.3-1.2,0.3-1.9s-0.1-1.4-0.3-2c-0.2-0.6-0.5-1.1-0.9-1.5
		s-0.8-0.7-1.3-1c-0.5-0.2-1-0.4-1.5-0.4h-1.4V51.6z M93.8,52.4V63h2.1c1.3,0,2.4-0.5,3.2-1.4c0.9-0.9,1.3-2.2,1.3-3.9
		s-0.4-3-1.3-3.9s-1.9-1.4-3.2-1.4C95.9,52.4,93.8,52.4,93.8,52.4z"/>
	<path class="st1" d="M116.7,41.3c3.9,0,6.8,1,8.8,3s3.1,4.7,3.1,8.3s-1,6.3-3.1,8.3c-2,2-5,3-8.8,3h-8.2v-0.5l1.9-0.5V42.3
		l-1.9-0.5v-0.5H116.7z M115.7,42.1V63h1c0.9,0,1.8-0.2,2.5-0.5c0.8-0.4,1.4-0.9,2-1.8c0.5-0.8,1-1.9,1.3-3.2s0.5-3,0.5-5
		s-0.2-3.6-0.5-5c-0.3-1.3-0.7-2.4-1.3-3.2s-1.2-1.4-2-1.8c-0.8-0.4-1.6-0.5-2.5-0.5L115.7,42.1L115.7,42.1z"/>
	<path class="st1" d="M134.2,63.4v0.5h-6v-0.5l2.6-1l8.8-21.4h1l9.2,21.9l1.6,0.5v0.5h-3.9c-1.2,0-2.1-0.3-2.8-0.8s-1.2-1.2-1.5-1.9
		l-1.6-3.9h-7.7l-2.1,5.1L134.2,63.4z M134.3,56.4h7l-3.5-8.5L134.3,56.4z"/>
</g>
</svg>
