<svg id="Layer_1" xmlns="http://www.w3.org/2000/svg" width="160" height="100" viewBox="0 0 160 100"><style>.st0{fill:none}.st1{fill:#fff}.st2,.st3{stroke:#fff;stroke-miterlimit:10}.st2{stroke-linecap:round;stroke-linejoin:round;fill:none;stroke-width:.6362}.st3{fill:#fff;stroke-width:.2137}</style><path class="st0" d="M80 3C36.9 3 2 23.9 2 49.8s34.9 46.9 78 46.9 78-21 78-46.9S123.1 3 80 3"/><path class="st1" d="M49.8 74.2l-.2.8-1-.2-.6 6.7 2.4-4.4.4 5 2.2-6.4-1-.2.2-.8 2.3.5-.2.8h-.5L51 84.1l-.7-.1-.3-4.2-2 3.7-.7-.2.8-8.6-.5-.1.2-.8 2 .4zM54.7 79.9c.3-2.3 1.6-4.6 3.7-4.3 2.1.3 2.7 2.9 2.3 5.2-.3 2.3-1.6 4.6-3.7 4.3-2.1-.3-2.7-2.9-2.3-5.2zm5.2.8c.3-1.7 0-4-1.6-4.2s-2.5 1.8-2.8 3.6c-.3 1.7 0 4 1.6 4.2 1.7.2 2.6-1.8 2.8-3.6zM68.6 86.3l-1.4-.1-1.9-4.4-1.3-.2-.3 3.3 1.2.1-.1.9-3-.3.1-.9 1 .1.7-7.4-1-.3.1-.8c.4.1.7.3 1.2.3.6.1 1.3-.1 2 0 1.3.1 2.4.9 2.2 2.6-.1 1.3-.9 2.1-1.9 2.3l1.6 3.7.9.1-.1 1zm-4.5-5.5l.7.1c1.6.2 2.3-.5 2.4-1.5.1-1.2-.5-1.7-1.4-1.8h-1.3l-.4 3.2zM71.1 78.2l-1-.3.1-.7c.4.1.8.2 1.2.2.5 0 1-.1 1.6-.1 1.9.1 3.3 1.6 3.2 4.8-.2 3.4-1.6 4.5-3.3 4.4-.6 0-1.1-.2-1.7-.1l-1.3.1-.1-.9 1.1-.1.2-7.3zm.5 7.4l1.3.1c1.4.1 2.4-.8 2.5-3.4.1-3.1-1.3-4.2-2.5-4.1l-.9.1-.4 7.3zM79.9 85.8h1.9v.9H78v-.9h1.1l-.1-7.5-1-.1v-.7c.4.1.9.2 1.3.2.7 0 1.5-.2 2.2-.2 1.2 0 2.3.7 2.3 2.4s-.9 2.9-2.8 2.9h-1.1v3zm0-3.9H81c1.4 0 2-.7 2-2 0-1.2-.7-1.7-1.6-1.7-.5 0-1 .1-1.5.2v3.5zM92.4 86.3l-1.4.1-2.5-4.1-1.2.1.2 3.3 1.2-.1v.9l-3.1.1v-.9h1l-.3-7.4-1.1-.1v-.8c.4.1.7.1 1.2.1.7 0 1.3-.2 2-.3 1.3-.1 2.5.6 2.5 2.3.1 1.3-.5 2.2-1.5 2.6l2.1 3.4h.9v.8zm-5.2-4.7h.7c1.6 0 2.2-.8 2.2-1.8-.1-1.2-.8-1.6-1.7-1.6-.4 0-.9.1-1.3.2l.1 3.2zM93.6 86.3l-.1-.9 1.3-.1-.8-7.5-1.3.1-.1-.9 6-.6.3 2.7-.8.1v-.4c-.1-1.2-.1-1.4-1.1-1.3l-2.1.2.3 2.9 1.7-.2-.1-1.3.8-.1.3 3.6-.8.1-.1-1.4-1.7.2.4 3.7 2.4-.2c1-.1 1-.2.9-1.9v-.3l.8-.1.3 3-6.5.6zM104.9 85.1c-.7.1-1.2 0-1.9-.3v.6h-.8l-.1-1.6c0-.5-.2-.9-.3-1.3l.7-.3.2.7c.3 1.1.9 1.5 2 1.4.7-.1 1.6-.7 1.4-1.9-.4-2.7-4.3-.6-4.8-3.9-.2-1.6.9-2.7 2.1-2.8.5-.1 1 0 1.5.2v-.6l.8.1.1 1.5c0 .5.2.9.3 1.3l-.8.3c-.1-.4-.2-1-.4-1.4-.3-.5-.9-.6-1.4-.5-.7.1-1.6.6-1.4 1.8.4 2.5 4.2.5 4.8 3.9.4 1.4-.6 2.6-2 2.8zM112.8 83.7c-.7.1-1.2.1-1.9-.2l.1.6h-.8l-.2-1.6c-.1-.5-.2-.9-.4-1.3l.7-.3.2.7c.3 1 1 1.5 2.1 1.2.7-.2 1.5-.8 1.3-2-.6-2.7-4.3-.3-5-3.6-.3-1.6.8-2.7 2-3 .4-.1 1-.1 1.5.1v-.6h.8l.2 1.5c.1.5.2.9.4 1.3l-.7.3c-.1-.4-.2-1-.5-1.4-.3-.5-.9-.5-1.5-.4-.7.1-1.6.7-1.3 1.9.5 2.4 4.3.2 5 3.6.3 1.7-.6 2.9-2 3.2z"/><path class="st0" d="M158 49.8C158 23.9 123.1 3 80 3M80 3C36.9 3 2 23.9 2 49.8s34.9 46.9 78 46.9"/><g><path class="st2" d="M118.1 78c3.5-1 6.8-2.1 9.9-3.3 3-1.2 5.7-2.5 8.1-4M25.8 70.1c2.4 1.5 5.1 2.8 8.1 4.1s6.3 2.4 9.8 3.4"/></g><g><path class="st3" d="M55.9 25.5l1.7 12.2-.6.1-.7-5.8c-.1-.6-.1-1.1-.1-1.4-.4 1.7-1.6 2.6-3.1 2.8-2 .3-3.8-.9-4.1-3.2-.3-2.6 1.2-4.2 3.3-4.4 1.5-.2 2.8.5 3.5 1.8-.1-.3-.2-.8-.3-1.4l-.1-.7h.5zm-.1 3.3c-.2-1.7-1.8-2.9-3.6-2.6-1.9.3-3.1 1.8-2.8 3.9.3 2 1.9 3.2 3.7 2.9 1.7-.2 3-1.9 2.7-3.5v-.7zM65.9 30.6c-.7 1-1.3 1.6-2.2 1.6-1.3.1-2.2-.9-2.3-2.1l-.4-5h.5l.4 4.8c.1 1.2.8 2 1.9 1.9 1.5-.1 2.8-2.5 3.9-7.5l.5.1c-.1.7-.1 1.7 0 2.9l.3 4.4H68l-.3-3.6c-.1-1-.1-1.7 0-2.3-.6 2.2-1.3 3.9-1.8 4.8zM79.7 24.1l.1 7.2h-.5v-.7c0-.6 0-1.1.1-1.4-.6 1.7-1.9 2.4-3.4 2.4-2 0-3.6-1.4-3.7-3.6 0-2.6 1.7-4 3.8-4 1.5 0 2.8.9 3.3 2.2-.1-.3-.1-.8-.1-1.4v-.7h.4zm-.4 3.3c0-1.7-1.5-3.1-3.3-3-1.9 0-3.3 1.4-3.2 3.5 0 2 1.5 3.4 3.3 3.3 1.7 0 3.2-1.6 3.1-3.2l.1-.6zM84.8 31.4l.5-23.9h.5l-.5 23.9h-.5zM90.3 31.5l.4-7.2h.5l-.4 7.2h-.5zm.7-9.2c-.2 0-.4-.2-.4-.4s.2-.4.4-.4.4.2.4.4c0 .3-.2.4-.4.4zM97 32l.5-6.7-2.4-.2v-.4l2.4.2.3-3.8h.5l-.3 3.8 2.4.2v.4l-2.4-.1-.5 6.6H97zM103.3 25.3l.6.1 1.9 7 3.6-6.3.5.1-4 6.8c-.9 1.5-2.3 3.4-3.7 4.9l-.4-.3c1.3-1.5 3-3.5 3.7-4.7l-2.2-7.6z"/></g><g><path class="st3" d="M64.9 11.7c.3 0 .7 0 .9.1v.2c-.3-.1-.6-.1-.9-.1-1.2.1-2.2 1.1-2 3.2l.3 3.7 1-.1v.2l-1 .1.2 2.1c.1 1.6-.3 2.4-1 2.9l-.1-.1c.7-.6 1-1.3.9-2.7l-.1-2.2-1 .1v-.2l1-.1-.3-3.6c-.2-2.1.7-3.4 2.1-3.5zM65.8 17.8c-.1 0-.2-.1-.2-.2s.1-.2.2-.2.2.1.2.2-.1.1-.2.2zm.2 3.7l-.2-2.9h.2l.2 2.9H66zM69.1 18.9c.3-.4.6-.6.9-.6.5 0 .9.4.9.9l.1 2.1h-.2l-.1-2c0-.5-.3-.8-.8-.8-.6 0-1.2 1-1.7 3H68c.1-.3.1-.7 0-1.2l-.1-1.8h.2l.1 1.5v.9c.4-.9.7-1.6.9-2zM72.6 19.8c0-1.1.6-1.6 1.5-1.6s1.4.7 1.4 1.3v.2l-2.6.1c0 .9.6 1.4 1.4 1.4.5 0 .8-.2 1.1-.6l.1.1c-.3.4-.7.6-1.2.6-1 0-1.6-.6-1.7-1.5zm.3-.3h2.4c0-.7-.5-1.2-1.1-1.2-.8 0-1.3.5-1.3 1.2zM77.8 19.8c-.5-.1-.8-.4-.8-.8 0-.5.4-.9.9-.9.3 0 .6.1.8.3l-.1.1c-.2-.2-.4-.3-.6-.3-.4 0-.7.3-.7.7 0 .4.2.6.7.7s.8.4.8.8c0 .5-.4.7-.9.7-.3 0-.6-.1-.9-.3l.1-.1c.3.2.5.3.8.3.4 0 .7-.2.7-.6-.1-.3-.3-.4-.8-.6zM81 21.1v-2.7h-1v-.2h1v-1.5h.2v1.5h1v.2h-1v2.7H81z"/></g><g><path class="st1" d="M22.6 41.3v.5l-1.9.5V63h6.9c0-.8.1-1.6.3-2.2.2-.6.5-1.1.7-1.6.3-.5.7-.9 1.1-1.2h1v5.8H13.4v-.5l1.9-.5V42.3l-1.9-.5v-.5h9.2zM36.7 63.4v.5h-6v-.5l2.6-1L42.2 41h1l9.2 21.9 1.6.5v.5h-3.9c-1.2 0-2.1-.3-2.8-.8s-1.2-1.2-1.5-1.9l-1.6-3.9h-7.7l-2.1 5.1 2.3 1zm.1-7h7L40.3 48l-3.5 8.4zM83.4 41.3v.5l-1.9.5v20.6l1.9.5v.5h-9.2v-.5l1.9-.5V45.3l-7.6 18.8h-1l-9.8-18.8v17.1l2.6 1v.5h-6.1v-.5l2.6-1V42.3l-1.9-.5v-.5h4c.6 0 1.1.1 1.6.2s.8.3 1.2.6c.3.2.6.5.9.9.2.3.5.7.7 1.1l7 13.4 5.4-13.4c.2-.5.4-.8.6-1.2.2-.3.5-.6.8-.9.3-.2.7-.4 1.2-.5s1.1-.2 1.7-.2h3.4zM97.7 52.1c1.5.1 2.9.3 4.1.7.5.2 1 .4 1.5.7s.9.6 1.3 1 .7.9.9 1.4.4 1.1.4 1.8c0 .9-.2 1.7-.5 2.4-.3.8-.9 1.4-1.7 1.9-.8.5-1.8 1-3.1 1.3s-2.8.5-4.7.5h-9.3v-.5l1.9-.5V42.3l-1.9-.5v-.5h8.7c1.7 0 3.2.2 4.4.5 1.2.3 2.2.7 2.9 1.2s1.3 1.1 1.6 1.8c.3.7.5 1.4.5 2.2 0 .6-.1 1.2-.3 1.7-.2.5-.5.9-.8 1.3-.3.4-.7.6-1.1.9-.4.2-.9.4-1.3.6-1 .4-2.2.6-3.5.6zm-3.9-.5h1.4c.5 0 1-.1 1.5-.3s.9-.5 1.3-1c.4-.4.7-.9.9-1.5s.3-1.2.3-1.9-.1-1.4-.3-2c-.2-.6-.5-1.1-.9-1.5s-.8-.7-1.3-1c-.5-.2-1-.4-1.5-.4h-1.4v9.6zm0 .8V63h2.1c1.3 0 2.4-.5 3.2-1.4.9-.9 1.3-2.2 1.3-3.9s-.4-3-1.3-3.9-1.9-1.4-3.2-1.4h-2.1zM116.7 41.3c3.9 0 6.8 1 8.8 3s3.1 4.7 3.1 8.3-1 6.3-3.1 8.3c-2 2-5 3-8.8 3h-8.2v-.5l1.9-.5V42.3l-1.9-.5v-.5h8.2zm-1 .8V63h1c.9 0 1.8-.2 2.5-.5.8-.4 1.4-.9 2-1.8.5-.8 1-1.9 1.3-3.2s.5-3 .5-5-.2-3.6-.5-5c-.3-1.3-.7-2.4-1.3-3.2s-1.2-1.4-2-1.8c-.8-.4-1.6-.5-2.5-.5l-1 .1zM134.2 63.4v.5h-6v-.5l2.6-1 8.8-21.4h1l9.2 21.9 1.6.5v.5h-3.9c-1.2 0-2.1-.3-2.8-.8s-1.2-1.2-1.5-1.9l-1.6-3.9h-7.7l-2.1 5.1 2.4 1zm.1-7h7l-3.5-8.5-3.5 8.5z"/></g></svg>