<?xml version="1.0" encoding="utf-8"?>
<!-- Generated by IcoMoon.io -->
<!DOCTYPE svg PUBLIC "-//W3C//DTD SVG 1.1//EN" "http://www.w3.org/Graphics/SVG/1.1/DTD/svg11.dtd">
<svg version="1.1" xmlns="http://www.w3.org/2000/svg" xmlns:xlink="http://www.w3.org/1999/xlink" width="41" height="32" viewBox="0 0 41 32">
<path fill="#FFFFFF" d="M11.982 16.661h-0.232q-0.839 0-0.839 0.571 0 0.393 0.357 0.393 0.304 0 0.5-0.268t0.214-0.696zM19.036 16.018h1.107v-0.054q0.018-0.071 0.009-0.116t-0.018-0.125-0.036-0.143-0.080-0.116-0.134-0.089-0.205-0.036q-0.5 0-0.643 0.679zM28.679 16.661h-0.214q-0.857 0-0.857 0.571 0 0.393 0.357 0.393 0.304 0 0.5-0.268t0.214-0.696zM34.375 16.196q0-0.732-0.536-0.732-0.339 0-0.554 0.357t-0.214 0.911q0 0.75 0.5 0.75 0.357 0 0.58-0.357t0.223-0.929zM8.571 13.679h1.554l-0.786 4.679h-1l0.571-3.589-1.268 3.589h-0.696l-0.071-3.571-0.607 3.571h-0.946l0.786-4.679h1.446l0.036 2.911zM13.089 15.589q0 0.107-0.071 0.75-0.286 1.804-0.304 2.018h-0.839l0.018-0.393q-0.357 0.464-1.036 0.464-0.411 0-0.67-0.286t-0.259-0.75q0-0.696 0.464-1.080t1.304-0.384q0.25 0 0.411 0.018 0-0.054 0.009-0.098t0.018-0.080 0.009-0.054q0-0.357-0.643-0.357-0.518 0-1.054 0.179 0-0.071 0.125-0.857 0.679-0.196 1.196-0.196 1.321 0 1.321 1.107zM15.875 14.554l-0.143 0.875q-0.393-0.054-0.732-0.054-0.482 0-0.482 0.304 0 0.143 0.080 0.214t0.384 0.196q0.714 0.339 0.714 1.071 0 1.286-1.554 1.268-0.607 0-1.036-0.107 0-0.036 0.125-0.875 0.518 0.143 0.911 0.143 0.571 0 0.571-0.339 0-0.125-0.080-0.205t-0.384-0.223q-0.768-0.357-0.768-1.054 0-1.286 1.5-1.286 0.536 0 0.893 0.071zM17.446 14.554h0.5l-0.125 0.929h-0.518q-0.036 0.304-0.116 0.723t-0.125 0.688-0.045 0.321q0 0.286 0.339 0.286 0.143 0 0.286-0.036l-0.143 0.839q-0.375 0.125-0.714 0.125-0.768 0-0.804-0.839 0-0.214 0.143-1 0.054-0.357 0.446-2.607h0.982zM21.071 15.857q0 0.411-0.125 0.929h-1.982q-0.054 0.393 0.179 0.589t0.679 0.196q0.536 0 1.036-0.25l-0.161 0.964q-0.536 0.143-1.018 0.143-1.696 0-1.696-1.696 0-0.982 0.491-1.616t1.241-0.634q0.625 0 0.991 0.375t0.366 1zM23.554 14.536q-0.232 0.411-0.393 1.107-0.393-0.036-0.554 0.429t-0.446 2.286h-1l0.054-0.25q0.393-2.321 0.518-3.554h0.911l-0.054 0.589q0.25-0.375 0.455-0.527t0.509-0.080zM26.893 13.804l-0.161 1.018q-0.5-0.25-0.893-0.25-0.554 0-0.911 0.491t-0.357 1.259q0 0.536 0.241 0.839t0.688 0.304q0.375 0 0.857-0.232l-0.179 1.054q-0.5 0.143-0.893 0.143-0.804 0-1.277-0.545t-0.473-1.473q0-1.25 0.634-2.045t1.634-0.795q0.464 0 1.089 0.232zM29.786 15.589q0 0.321-0.071 0.75-0.232 1.411-0.304 2.018h-0.821l0.018-0.393q-0.357 0.464-1.054 0.464-0.411 0-0.661-0.286t-0.25-0.75q0-0.696 0.455-1.080t1.295-0.384q0.268 0 0.411 0.018 0.036-0.125 0.036-0.232 0-0.357-0.643-0.357-0.518 0-1.054 0.179 0-0.071 0.143-0.857 0.679-0.196 1.196-0.196 1.304 0 1.304 1.107zM32.304 14.536q-0.25 0.429-0.375 1.107-0.411-0.036-0.563 0.411t-0.455 2.304h-1l0.054-0.25q0.339-1.857 0.518-3.554h0.929q0 0.196-0.071 0.589 0.268-0.375 0.473-0.527t0.491-0.080zM34.821 13.679h1l-0.768 4.679h-0.946l0.054-0.339q-0.411 0.411-0.929 0.411-0.554 0-0.884-0.429t-0.33-1.143q0-0.946 0.491-1.643t1.152-0.696q0.554 0 0.946 0.518zM36.804 16q0-2.643-1.295-4.875t-3.536-3.536-4.884-1.304q-3.232 0-5.857 1.964 2.268 2.071 3.054 5.071h-0.893q-0.786-2.679-2.821-4.518-2.036 1.839-2.821 4.518h-0.893q0.786-3 3.054-5.071-2.625-1.964-5.857-1.964-2.643 0-4.884 1.304t-3.536 3.536-1.295 4.875 1.295 4.875 3.536 3.536 4.884 1.304q3.232 0 5.857-1.964-2.143-1.982-2.946-4.714h0.893q0.821 2.464 2.714 4.161 1.893-1.696 2.714-4.161h0.893q-0.804 2.732-2.946 4.714 2.625 1.964 5.857 1.964 2.643 0 4.884-1.304t3.536-3.536 1.295-4.875zM41.143 4.571v22.857q0 0.929-0.679 1.607t-1.607 0.679h-36.571q-0.929 0-1.607-0.679t-0.679-1.607v-22.857q0-0.929 0.679-1.607t1.607-0.679h36.571q0.929 0 1.607 0.679t0.679 1.607z"></path>
</svg>
