<svg xmlns="http://www.w3.org/2000/svg" width="41" height="32" viewBox="0 0 41 32"><path fill="#FFF" d="M11.982 16.661h-.232q-.839 0-.839.571 0 .393.357.393.304 0 .5-.268t.214-.696zm7.054-.643h1.107v-.054q.018-.071.009-.116t-.018-.125-.036-.143-.08-.116-.134-.089-.205-.036q-.5 0-.643.679zm9.643.643h-.214q-.857 0-.857.571 0 .393.357.393.304 0 .5-.268t.214-.696zm5.696-.465q0-.732-.536-.732-.339 0-.554.357t-.214.911q0 .75.5.75.357 0 .58-.357t.223-.929zM8.571 13.679h1.554l-.786 4.679h-1l.571-3.589-1.268 3.589h-.696l-.071-3.571-.607 3.571h-.946l.786-4.679h1.446l.036 2.911zm4.518 1.91q0 .107-.071.75-.286 1.804-.304 2.018h-.839l.018-.393q-.357.464-1.036.464-.411 0-.67-.286t-.259-.75q0-.696.464-1.08t1.304-.384q.25 0 .411.018 0-.054.009-.098t.018-.08.009-.054q0-.357-.643-.357-.518 0-1.054.179 0-.071.125-.857.679-.196 1.196-.196 1.321 0 1.321 1.107zm2.786-1.035l-.143.875q-.393-.054-.732-.054-.482 0-.482.304 0 .143.08.214t.384.196q.714.339.714 1.071 0 1.286-1.554 1.268-.607 0-1.036-.107 0-.036.125-.875.518.143.911.143.571 0 .571-.339 0-.125-.08-.205t-.384-.223q-.768-.357-.768-1.054 0-1.286 1.5-1.286.536 0 .893.071zm1.571 0h.5l-.125.929h-.518q-.036.304-.116.723t-.125.688-.045.321q0 .286.339.286.143 0 .286-.036l-.143.839q-.375.125-.714.125-.768 0-.804-.839 0-.214.143-1 .054-.357.446-2.607h.982zm3.625 1.303q0 .411-.125.929h-1.982q-.054.393.179.589t.679.196q.536 0 1.036-.25l-.161.964q-.536.143-1.018.143-1.696 0-1.696-1.696 0-.982.491-1.616t1.241-.634q.625 0 .991.375t.366 1zm2.483-1.321q-.232.411-.393 1.107-.393-.036-.554.429t-.446 2.286h-1l.054-.25q.393-2.321.518-3.554h.911l-.054.589q.25-.375.455-.527t.509-.08zm3.339-.732l-.161 1.018q-.5-.25-.893-.25-.554 0-.911.491t-.357 1.259q0 .536.241.839t.688.304q.375 0 .857-.232l-.179 1.054q-.5.143-.893.143-.804 0-1.277-.545t-.473-1.473q0-1.25.634-2.045t1.634-.795q.464 0 1.089.232zm2.893 1.785q0 .321-.071.75-.232 1.411-.304 2.018h-.821l.018-.393q-.357.464-1.054.464-.411 0-.661-.286t-.25-.75q0-.696.455-1.08t1.295-.384q.268 0 .411.018.036-.125.036-.232 0-.357-.643-.357-.518 0-1.054.179 0-.071.143-.857.679-.196 1.196-.196 1.304 0 1.304 1.107zm2.518-1.053q-.25.429-.375 1.107-.411-.036-.563.411t-.455 2.304h-1l.054-.25q.339-1.857.518-3.554h.929q0 .196-.071.589.268-.375.473-.527t.491-.08zm2.517-.857h1l-.768 4.679h-.946l.054-.339q-.411.411-.929.411-.554 0-.884-.429t-.33-1.143q0-.946.491-1.643t1.152-.696q.554 0 .946.518zM36.804 16q0-2.643-1.295-4.875t-3.536-3.536-4.884-1.304q-3.232 0-5.857 1.964 2.268 2.071 3.054 5.071h-.893q-.786-2.679-2.821-4.518-2.036 1.839-2.821 4.518h-.893q.786-3 3.054-5.071-2.625-1.964-5.857-1.964-2.643 0-4.884 1.304t-3.536 3.536T4.34 16t1.295 4.875 3.536 3.536 4.884 1.304q3.232 0 5.857-1.964-2.143-1.982-2.946-4.714h.893q.821 2.464 2.714 4.161 1.893-1.696 2.714-4.161h.893q-.804 2.732-2.946 4.714 2.625 1.964 5.857 1.964 2.643 0 4.884-1.304t3.536-3.536T36.806 16zm4.339-11.429v22.857q0 .929-.679 1.607t-1.607.679H2.286q-.929 0-1.607-.679T0 27.428V4.571q0-.929.679-1.607t1.607-.679h36.571q.929 0 1.607.679t.679 1.607z"/></svg>