<?xml version="1.0" encoding="utf-8"?>
<!-- Generated by IcoMoon.io -->
<!DOCTYPE svg PUBLIC "-//W3C//DTD SVG 1.1//EN" "http://www.w3.org/Graphics/SVG/1.1/DTD/svg11.dtd">
<svg version="1.1" xmlns="http://www.w3.org/2000/svg" xmlns:xlink="http://www.w3.org/1999/xlink" width="41" height="32" viewBox="0 0 41 32">
<path fill="#FFFFFF" d="M5.75 15.125h-0.268q-0.339 0-0.339-0.321 0-0.5 0.339-1.518 0.089-0.268 0.268-0.348t0.5-0.080q1.375 0 1.375 0.875 0 0.732-0.545 1.063t-1.33 0.33zM11.857 18q-0.839 0-0.839-0.518 0-1.107 2.196-1.107l0.054 0.054q-0.089 1.571-1.411 1.571zM25.679 15.161h-0.268q-0.339 0-0.339-0.339 0-0.5 0.339-1.518 0.089-0.268 0.259-0.339t0.509-0.071q1.375 0 1.375 0.875 0 0.732-0.545 1.063t-1.33 0.33zM31.786 18.018q-0.839 0-0.839-0.536 0-1.107 2.196-1.107l0.054 0.054q-0.089 1.589-1.411 1.589zM6.661 11.464h-2.286q-0.143 0-0.259 0.071t-0.152 0.134-0.125 0.223q-0.054 0.125-0.804 3.393t-0.75 3.429q0 0.125 0.098 0.223t0.241 0.098h1.107q0.446 0 0.58-0.616l0.268-1.232t0.58-0.616q0.839 0 1.563-0.134t1.438-0.438 1.134-0.938 0.42-1.509q0-0.643-0.259-1.089t-0.732-0.652-0.955-0.277-1.107-0.071zM12.839 13.179q-0.679 0-1.321 0.107-0.036 0-0.152 0.018t-0.161 0.027l-0.134 0.027t-0.134 0.036-0.116 0.054-0.116 0.071-0.089 0.089-0.080 0.125-0.071 0.161q-0.161 0.518-0.161 0.696t0.161 0.179q0.089 0 0.384-0.089t0.348-0.107q0.536-0.143 1.036-0.143 1.321 0 1.321 0.643 0 0.196-0.179 0.25-0.143 0.036-0.321 0.054t-0.384 0.027-0.313 0.027q-0.679 0.071-1.152 0.179t-1.009 0.348-0.813 0.696-0.277 1.116q0 0.679 0.464 1.063t1.143 0.384q0.429 0 0.813-0.116t0.589-0.232 0.688-0.42q-0.054 0.125-0.054 0.268t0.098 0.241 0.223 0.098h1q0.018-0.018 0.125-0.063t0.134-0.063 0.089-0.063 0.089-0.098 0.045-0.143l0.804-3.464q0.071-0.232 0.071-0.536 0-1.446-2.589-1.446zM22.268 13.268h-1.321q-0.393 0-0.696 0.411-0.089 0.125-0.527 0.911t-0.83 1.455-0.464 0.688l-0.089-0.071q0-1.375-0.482-2.964-0.018-0.089-0.063-0.152t-0.107-0.116-0.116-0.089-0.152-0.054-0.152-0.027-0.17-0.018-0.161-0.009h-0.33q-0.679 0-0.679 0.375l0.018 0.089q0.089 0.946 0.446 2.696t0.446 2.554q0.036 0.286 0.036 0.429 0 0.339-0.545 1.098t-0.545 1.045q0 0.232 0.714 0.232 1.089 0 1.357-0.446l4.375-7.411q0.179-0.357 0.179-0.464 0-0.161-0.143-0.161zM26.589 11.5h-2.304q-0.321 0-0.518 0.411-0.107 0.232-0.83 3.42t-0.723 3.402q0 0.357 0.768 0.357h0.455t0.17-0.018 0.152-0.036 0.152-0.054 0.116-0.080 0.098-0.107 0.054-0.152l0.375-1.625q0.036-0.179 0.188-0.304t0.348-0.125q0.839 0 1.563-0.125t1.438-0.438 1.134-0.938 0.42-1.5q0-0.643-0.259-1.089t-0.732-0.652-0.955-0.277-1.107-0.071zM32.768 13.179q-0.464 0-1.321 0.107-0.679 0.107-0.857 0.286-0.125 0.143-0.196 0.339-0.143 0.429-0.143 0.696 0 0.179 0.143 0.179 0.018 0 0.732-0.214 0.536-0.143 1.036-0.143 1.321 0 1.321 0.643 0 0.214-0.179 0.25-0.071 0.018-1.018 0.125-0.679 0.071-1.152 0.179t-1.009 0.348-0.813 0.696-0.277 1.116 0.464 1.045 1.143 0.384q0.429 0 0.804-0.107t0.607-0.232 0.679-0.429q-0.054 0.268-0.054 0.286 0 0.089 0.036 0.152t0.116 0.098 0.143 0.063 0.188 0.036 0.17 0.009h0.313q0.75 0 0.857-0.446l0.804-3.464q0.054-0.268 0.054-0.554 0-1.446-2.589-1.446zM38.518 11.554h-0.982q-0.446 0-0.589 0.714-0.179 0.786-0.652 2.982t-0.759 3.393v0.089q0 0.286 0.286 0.321h1.036q0.179 0 0.33-0.116t0.188-0.295l1.482-6.679h-0.018l0.018-0.089q0-0.125-0.098-0.223t-0.241-0.098zM41.143 4.571v22.857q0 0.929-0.679 1.607t-1.607 0.679h-36.571q-0.929 0-1.607-0.679t-0.679-1.607v-22.857q0-0.929 0.679-1.607t1.607-0.679h36.571q0.929 0 1.607 0.679t0.679 1.607z"></path>
</svg>
