<svg xmlns="http://www.w3.org/2000/svg" width="41" height="32" viewBox="0 0 41 32"><path fill="#FFF" d="M5.75 15.125h-.268q-.339 0-.339-.321 0-.5.339-1.518.089-.268.268-.348t.5-.08q1.375 0 1.375.875 0 .732-.545 1.063t-1.33.33zM11.857 18q-.839 0-.839-.518 0-1.107 2.196-1.107l.054.054Q13.179 18 11.857 18zm13.822-2.839h-.268q-.339 0-.339-.339 0-.5.339-1.518.089-.268.259-.339t.509-.071q1.375 0 1.375.875 0 .732-.545 1.063t-1.33.33zm6.107 2.857q-.839 0-.839-.536 0-1.107 2.196-1.107l.054.054q-.089 1.589-1.411 1.589zM6.661 11.464H4.375q-.143 0-.259.071t-.152.134-.125.223q-.054.125-.804 3.393t-.75 3.429q0 .125.098.223t.241.098h1.107q.446 0 .58-.616l.268-1.232.58-.616q.839 0 1.563-.134t1.438-.438 1.134-.938.42-1.509q0-.643-.259-1.089t-.732-.652-.955-.277-1.107-.071zm6.178 1.715q-.679 0-1.321.107-.036 0-.152.018t-.161.027l-.134.027-.134.036-.116.054-.116.071-.089.089-.08.125-.071.161q-.161.518-.161.696t.161.179q.089 0 .384-.089t.348-.107q.536-.143 1.036-.143 1.321 0 1.321.643 0 .196-.179.25-.143.036-.321.054t-.384.027-.313.027q-.679.071-1.152.179t-1.009.348-.813.696-.277 1.116q0 .679.464 1.063t1.143.384q.429 0 .813-.116t.589-.232.688-.42q-.054.125-.054.268t.098.241.223.098h1q.018-.018.125-.063t.134-.063.089-.063.089-.098.045-.143l.804-3.464q.071-.232.071-.536 0-1.446-2.589-1.446zm9.429.089h-1.321q-.393 0-.696.411-.089.125-.527.911t-.83 1.455-.464.688l-.089-.071q0-1.375-.482-2.964-.018-.089-.063-.152t-.107-.116-.116-.089-.152-.054-.152-.027-.17-.018-.161-.009h-.33q-.679 0-.679.375l.018.089q.089.946.446 2.696t.446 2.554q.036.286.036.429 0 .339-.545 1.098t-.545 1.045q0 .232.714.232 1.089 0 1.357-.446l4.375-7.411q.179-.357.179-.464 0-.161-.143-.161zm4.321-1.768h-2.304q-.321 0-.518.411-.107.232-.83 3.42t-.723 3.402q0 .357.768.357h.455l.17-.018.152-.036.152-.054.116-.08.098-.107.054-.152.375-1.625q.036-.179.188-.304t.348-.125q.839 0 1.563-.125t1.438-.438 1.134-.938.42-1.5q0-.643-.259-1.089t-.732-.652-.955-.277-1.107-.071zm6.179 1.679q-.464 0-1.321.107-.679.107-.857.286-.125.143-.196.339-.143.429-.143.696 0 .179.143.179.018 0 .732-.214.536-.143 1.036-.143 1.321 0 1.321.643 0 .214-.179.25-.071.018-1.018.125-.679.071-1.152.179t-1.009.348-.813.696-.277 1.116.464 1.045 1.143.384q.429 0 .804-.107t.607-.232.679-.429q-.054.268-.054.286 0 .089.036.152t.116.098.143.063.188.036.17.009h.313q.75 0 .857-.446l.804-3.464q.054-.268.054-.554 0-1.446-2.589-1.446zm5.75-1.625h-.982q-.446 0-.589.714-.179.786-.652 2.982t-.759 3.393v.089q0 .286.286.321h1.036q.179 0 .33-.116t.188-.295l1.482-6.679h-.018l.018-.089q0-.125-.098-.223t-.241-.098zm2.625-6.983v22.857q0 .929-.679 1.607t-1.607.679H2.286q-.929 0-1.607-.679T0 27.428V4.571q0-.929.679-1.607t1.607-.679h36.571q.929 0 1.607.679t.679 1.607z"/></svg>