<svg xmlns="http://www.w3.org/2000/svg" width="15" height="16" viewBox="0 0 15 16"><path fill="#FFF" d="M14.464 3.643q-.598.875-1.446 1.491.009.125.009.375 0 1.161-.339 2.317t-1.031 2.219-1.647 1.879-2.304 1.304-2.884.487q-2.42 0-4.429-1.295.313.036.696.036 2.009 0 3.58-1.232-.938-.018-1.679-.576T1.972 9.224q.295.045.545.045.384 0 .759-.098-1-.205-1.656-.996T.964 6.34v-.036q.607.339 1.304.366-.589-.393-.938-1.027T.982 4.268q0-.786.393-1.455 1.08 1.33 2.629 2.129t3.317.888q-.071-.339-.071-.661 0-1.196.844-2.04t2.04-.844q1.25 0 2.107.911.973-.188 1.83-.696-.33 1.027-1.268 1.589.83-.089 1.661-.446z"/></svg>