<svg xmlns="http://www.w3.org/2000/svg" width="41" height="32" viewBox="0 0 41 32"><path fill="#FFF" d="M35.268 17.679h-2.464q.25-.661 1.179-3.196l.054-.161q.071-.179.179-.464t.161-.464l.214.982zM9.482 16.518L8.446 11.25q-.196-.964-1.339-.964H2.321l-.036.232q5.554 1.411 7.196 6zm3.197-6.232l-2.893 7.821-.304-1.589q-.464-1.25-1.518-2.313t-2.339-1.58l2.411 9.107h3.125l4.661-11.446h-3.143zm2.482 11.464h2.964l1.857-11.464h-2.964zm13.714-11.179q-1.232-.482-2.661-.482-2.196 0-3.589 1.054t-1.411 2.732q-.018 1.821 2.589 3.107.857.411 1.196.732t.339.696q0 .536-.536.821t-1.232.286q-1.536 0-2.786-.589l-.393-.196-.411 2.571q1.321.607 3.304.607 2.321.018 3.723-1.054t1.438-2.857q0-1.893-2.5-3.107-.875-.446-1.268-.75t-.393-.679q0-.393.438-.688t1.259-.295q1.25-.018 2.214.429l.268.143zm7.589-.285h-2.286q-1.161 0-1.554.964l-4.393 10.5h3.107l.625-1.714h3.786q.089.393.357 1.714h2.75zm4.679-5.715v22.857q0 .929-.679 1.607t-1.607.679H2.286q-.929 0-1.607-.679T0 27.428V4.571q0-.929.679-1.607t1.607-.679h36.571q.929 0 1.607.679t.679 1.607z"/></svg>