<?xml version="1.0" encoding="utf-8"?>
<!-- Generated by IcoMoon.io -->
<!DOCTYPE svg PUBLIC "-//W3C//DTD SVG 1.1//EN" "http://www.w3.org/Graphics/SVG/1.1/DTD/svg11.dtd">
<svg version="1.1" xmlns="http://www.w3.org/2000/svg" xmlns:xlink="http://www.w3.org/1999/xlink" width="16" height="16" viewBox="0 0 16 16">
<path fill="#FFFFFF" d="M8.67 11.107v1.884q0 0.598-0.348 0.598-0.205 0-0.402-0.196v-2.688q0.196-0.196 0.402-0.196 0.348 0 0.348 0.598zM11.688 11.116v0.411h-0.804v-0.411q0-0.607 0.402-0.607t0.402 0.607zM3.063 9.17h0.955v-0.839h-2.786v0.839h0.938v5.080h0.893v-5.080zM5.634 14.25h0.795v-4.411h-0.795v3.375q-0.268 0.375-0.509 0.375-0.161 0-0.188-0.188-0.009-0.027-0.009-0.313v-3.25h-0.795v3.491q0 0.438 0.071 0.652 0.107 0.33 0.518 0.33 0.429 0 0.911-0.545v0.482zM9.464 12.929v-1.759q0-0.652-0.080-0.884-0.152-0.5-0.634-0.5-0.446 0-0.83 0.482v-1.938h-0.795v5.92h0.795v-0.429q0.402 0.491 0.83 0.491 0.482 0 0.634-0.491 0.080-0.241 0.080-0.893zM12.482 12.839v-0.116h-0.813q0 0.455-0.018 0.545-0.063 0.321-0.357 0.321-0.411 0-0.411-0.616v-0.777h1.598v-0.92q0-0.705-0.241-1.036-0.348-0.455-0.946-0.455-0.607 0-0.955 0.455-0.25 0.33-0.25 1.036v1.545q0 0.705 0.259 1.036 0.348 0.455 0.964 0.455 0.643 0 0.964-0.473 0.161-0.241 0.188-0.482 0.018-0.080 0.018-0.518zM7.054 4.688v-1.875q0-0.616-0.384-0.616t-0.384 0.616v1.875q0 0.625 0.384 0.625t0.384-0.625zM13.473 11.393q0 2.089-0.232 3.125-0.125 0.527-0.518 0.884t-0.911 0.411q-1.643 0.188-4.955 0.188t-4.955-0.188q-0.518-0.054-0.915-0.411t-0.513-0.884q-0.232-1-0.232-3.125 0-2.089 0.232-3.125 0.125-0.527 0.518-0.884t0.92-0.42q1.634-0.179 4.946-0.179t4.955 0.179q0.518 0.063 0.915 0.42t0.513 0.884q0.232 1 0.232 3.125zM4.563 0h0.911l-1.080 3.563v2.42h-0.893v-2.42q-0.125-0.661-0.545-1.893-0.33-0.92-0.58-1.67h0.946l0.634 2.348zM7.866 2.973v1.563q0 0.723-0.25 1.054-0.33 0.455-0.946 0.455-0.598 0-0.938-0.455-0.25-0.339-0.25-1.054v-1.563q0-0.714 0.25-1.045 0.339-0.455 0.938-0.455 0.616 0 0.946 0.455 0.25 0.33 0.25 1.045zM10.857 1.527v4.455h-0.813v-0.491q-0.473 0.554-0.92 0.554-0.411 0-0.527-0.33-0.071-0.214-0.071-0.67v-3.518h0.813v3.277q0 0.295 0.009 0.313 0.027 0.196 0.188 0.196 0.241 0 0.509-0.384v-3.402h0.813z"></path>
</svg>
