<svg xmlns="http://www.w3.org/2000/svg" width="16" height="16" viewBox="0 0 16 16"><path fill="#FFF" d="M8.67 11.107v1.884q0 .598-.348.598-.205 0-.402-.196v-2.688q.196-.196.402-.196.348 0 .348.598zm3.018.009v.411h-.804v-.411q0-.607.402-.607t.402.607zM3.063 9.17h.955v-.839H1.232v.839h.938v5.08h.893V9.17zm2.571 5.08h.795V9.839h-.795v3.375q-.268.375-.509.375-.161 0-.188-.188-.009-.027-.009-.313v-3.25h-.795v3.491q0 .438.071.652.107.33.518.33.429 0 .911-.545v.482zm3.83-1.321V11.17q0-.652-.08-.884-.152-.5-.634-.5-.446 0-.83.482V8.33h-.795v5.92h.795v-.429q.402.491.83.491.482 0 .634-.491.08-.241.08-.893zm3.018-.09v-.116h-.813q0 .455-.018.545-.063.321-.357.321-.411 0-.411-.616v-.777h1.598v-.92q0-.705-.241-1.036-.348-.455-.946-.455-.607 0-.955.455-.25.33-.25 1.036v1.545q0 .705.259 1.036.348.455.964.455.643 0 .964-.473.161-.241.188-.482.018-.08.018-.518zM7.054 4.688V2.813q0-.616-.384-.616t-.384.616v1.875q0 .625.384.625t.384-.625zm6.419 6.705q0 2.089-.232 3.125-.125.527-.518.884t-.911.411q-1.643.188-4.955.188t-4.955-.188q-.518-.054-.915-.411t-.513-.884q-.232-1-.232-3.125 0-2.089.232-3.125.125-.527.518-.884t.92-.42q1.634-.179 4.946-.179t4.955.179q.518.063.915.42t.513.884q.232 1 .232 3.125zM4.563 0h.911l-1.08 3.563v2.42h-.893v-2.42q-.125-.661-.545-1.893-.33-.92-.58-1.67h.946l.634 2.348zm3.303 2.973v1.563q0 .723-.25 1.054-.33.455-.946.455-.598 0-.938-.455-.25-.339-.25-1.054V2.973q0-.714.25-1.045.339-.455.938-.455.616 0 .946.455.25.33.25 1.045zm2.991-1.446v4.455h-.813v-.491q-.473.554-.92.554-.411 0-.527-.33-.071-.214-.071-.67V1.527h.813v3.277q0 .295.009.313.027.196.188.196.241 0 .509-.384V1.527h.813z"/></svg>