<?xml version="1.0" encoding="utf-8"?>
<!-- Generated by IcoMoon.io -->
<!DOCTYPE svg PUBLIC "-//W3C//DTD SVG 1.1//EN" "http://www.w3.org/Graphics/SVG/1.1/DTD/svg11.dtd">
<svg version="1.1" xmlns="http://www.w3.org/2000/svg" xmlns:xlink="http://www.w3.org/1999/xlink" width="41" height="32" viewBox="0 0 41 32">
<path fill="#FFFFFF" d="M2.125 12.179h1.589l-0.804-1.929zM13.214 21.571l1.321-1.411-1.25-1.411h-2.911v0.875h2.536v0.982h-2.536v0.964h2.839zM16.036 20.179l1.768 1.964v-3.875zM21.179 19.339q0-0.589-0.714-0.589h-1.5v1.232h1.482q0.732 0 0.732-0.643zM26.339 19.268q0-0.518-0.75-0.518h-1.464v1.089h1.446q0.768 0 0.768-0.571zM21.375 10.946q0-0.518-0.75-0.518h-1.464v1.071h1.446q0.768 0 0.768-0.554zM29.571 12.179h1.589l-0.786-1.929zM12.482 9.411v4.839h-1.179v-3.786l-1.679 3.786h-1.018l-1.679-3.786v3.786h-2.357l-0.446-1.071h-2.411l-0.446 1.071h-1.25l2.071-4.839h1.714l1.964 4.589v-4.589h1.893l1.518 3.286 1.375-3.286h1.929zM22.411 19.339q0 0.357-0.098 0.625t-0.25 0.446-0.402 0.295-0.464 0.179-0.563 0.080-0.563 0.018-0.58-0.009-0.527-0.009v1.625h-2.25l-1.429-1.607-1.482 1.607h-4.571v-4.839h4.643l1.429 1.589 1.464-1.589h3.696q1.946 0 1.946 1.589zM17.214 13.25v1h-3.875v-4.839h3.875v1.018h-2.714v0.875h2.643v0.982h-2.643v0.964h2.714zM41.143 23.232v4.089q0 0.982-0.688 1.688t-1.67 0.705h-36.429q-0.982 0-1.67-0.705t-0.688-1.688v-12.107h1.982l0.446-1.089h0.982l0.446 1.089h3.893v-0.821l0.339 0.821h2.018l0.357-0.839v0.839h9.661v-1.768l0.179-0.018q0.179 0 0.179 0.25v1.536h4.982v-0.411q0.411 0.214 0.982 0.321t0.938 0.116 1.125-0.009 0.92-0.018l0.446-1.089h1l0.446 1.089h4.054v-1.036l0.607 1.036h3.25v-6.75h-3.214v0.786l-0.446-0.786h-3.304v0.786l-0.411-0.786h-4.446q-1.232 0-1.946 0.393v-0.393h-3.071v0.393q-0.429-0.393-1.304-0.393h-11.214l-0.768 1.732-0.768-1.732h-3.536v0.786l-0.393-0.786h-3.018l-1.393 3.196v-6.982q0-0.982 0.688-1.688t1.67-0.705h36.429q0.982 0 1.67 0.705t0.688 1.688v12.107h-2.143q-0.911 0-1.446 0.393v-0.393h-3.161q-0.982 0-1.393 0.393v-0.393h-5.643v0.393q-0.554-0.393-1.554-0.393h-3.732v0.393q-0.411-0.393-1.625-0.393h-4.179l-0.964 1.036-0.893-1.036h-6.232v6.75h6.125l0.982-1.054 0.929 1.054h3.768v-1.589h0.375q1.054 0 1.607-0.232v1.821h3.107v-1.768h0.143q0.143 0 0.179 0.036t0.036 0.179v1.554h9.446q1.018 0 1.571-0.429v0.429h3q1.071 0 1.696-0.304zM27.607 19.054q0 0.411-0.214 0.768t-0.607 0.518q0.446 0.161 0.607 0.464t0.161 0.821v0.964h-1.161v-0.804q0-0.589-0.214-0.777t-0.821-0.188h-1.232v1.768h-1.161v-4.839h2.75q0.857 0 1.375 0.268t0.518 1.036zM22.661 10.714q0 0.429-0.223 0.786t-0.598 0.518q0.464 0.161 0.616 0.455t0.152 0.83v0.946h-1.161q0-0.161 0.009-0.473t0-0.446-0.054-0.33-0.152-0.286-0.313-0.152-0.527-0.063h-1.25v1.75h-1.143v-4.839l2.732 0.018q0.875 0 1.393 0.259t0.518 1.027zM32.107 21.589v1h-3.857v-4.839h3.857v1h-2.696v0.875h2.643v0.982h-2.643v0.964zM24.5 9.411v4.839h-1.179v-4.839h1.179zM36.875 21.054q0 1.536-1.821 1.536h-2.25v-1.036h2.25q0.607 0 0.607-0.446 0-0.286-0.304-0.375t-0.741-0.089-0.884-0.063-0.75-0.402-0.304-0.982q0-0.696 0.464-1.071t1.179-0.375h2.321v1.018h-2.125q-0.643 0-0.643 0.446 0 0.286 0.313 0.366t0.75 0.071 0.875 0.045 0.75 0.384 0.313 0.973zM41.143 20.161v1.804q-0.429 0.625-1.571 0.625h-2.232v-1.036h2.232q0.589 0 0.589-0.446 0-0.232-0.223-0.339t-0.554-0.098-0.714-0.036-0.714-0.143-0.554-0.429-0.223-0.866q0-0.696 0.473-1.071t1.188-0.375h2.304v1.018h-2.107q-0.643 0-0.643 0.446 0 0.357 0.518 0.393t1.223 0.089 1.009 0.464zM38.196 9.429v4.821h-1.643l-2.179-3.625v3.625h-2.357l-0.464-1.071h-2.393l-0.446 1.071h-1.339q-2.304 0-2.304-2.375 0-2.464 2.375-2.464h1.125v1.054q-0.125 0-0.5-0.018t-0.509-0.009-0.411 0.036-0.384 0.116-0.259 0.241-0.205 0.411-0.054 0.598q0 0.679 0.241 1.036t0.884 0.357h0.518l1.643-3.804h1.732l1.946 4.571v-4.571h1.768l2.036 3.357v-3.357h1.179z"></path>
</svg>
