<?xml version="1.0" encoding="utf-8"?>
<!-- Generator: Adobe Illustrator 19.0.0, SVG Export Plug-In . SVG Version: 6.00 Build 0)  -->
<svg version="1.0" id="Layer_1" xmlns="http://www.w3.org/2000/svg" xmlns:xlink="http://www.w3.org/1999/xlink" x="0px" y="0px"
	 width="260px" height="23.3px" viewBox="0 0 260 23.3" enable-background="new 0 0 260 23.3" xml:space="preserve">
<g id="decoration_4_1_">
	<g>
		<path fill="#C9992D" d="M62.5,15.9L0,15.4l62.5-0.5c0.3,0,0.5,0.2,0.5,0.5C63,15.6,62.8,15.9,62.5,15.9L62.5,15.9z"/>
	</g>
	<g>
		<path fill="#C9992D" d="M197.5,14.9l62.5,0.5l-62.5,0.5c-0.3,0-0.5-0.2-0.5-0.5S197.2,14.9,197.5,14.9L197.5,14.9z"/>
	</g>
	<path fill="none" stroke="#C9992D" stroke-linecap="round" stroke-miterlimit="10" d="M62.5,15.4h36.8c0.4,0,0.9-0.2,1.2-0.5
		l4.8-4.8c0.6-0.6,1.7-0.6,2.3,0l12.3,12.3c0.6,0.6,1.7,0.6,2.3,0l6.1-6.1c0.6-0.6,0.6-1.7,0-2.3l-3.9-3.9c-0.6-0.6-1.7-0.6-2.3,0
		l-3.7,3.7c-0.6,0.6-0.6,1.7,0,2.3l1.1,1.1c0.6,0.6,1.7,0.6,2.3,0L123,16c0.6-0.6,0.6-1.7,0-2.3l-3.9-3.9l-2.7-2.7
		c-0.6-0.6-1.7-0.6-2.3,0l-4.8,4.8l-2.7,2.7c-0.6,0.6-0.6,1.7,0,2.3l0.6,0.6c0.6,0.6,1.7,0.6,2.3,0L121,5.9l5-5
		c0.6-0.6,1.7-0.6,2.3,0l4.5,4.5c0.6,0.6,0.6,1.7,0,2.3l-2.7,2.7l-2.7-2.7c-0.6-0.6-0.6-1.7,0-2.3l4.5-4.5c0.6-0.6,1.7-0.6,2.3,0
		l5,5l11.5,11.5c0.6,0.6,1.7,0.6,2.3,0l0.6-0.6c0.7-0.6,0.7-1.7,0-2.3l-2.7-2.7l-4.8-4.8c-0.6-0.6-1.7-0.6-2.3,0l-2.7,2.7l-3.9,3.9
		c-0.6,0.6-0.6,1.7,0,2.3l1.2,1.2c0.6,0.6,1.7,0.6,2.3,0l1.1-1.1c0.6-0.6,0.6-1.7,0-2.3l-3.7-3.7c-0.6-0.6-1.7-0.6-2.3,0l-3.9,3.9
		c-0.6,0.6-0.6,1.7,0,2.3l6.1,6.1c0.6,0.6,1.7,0.6,2.3,0l12.2-12.3c0.6-0.6,1.7-0.6,2.3,0l4.8,4.8c0.3,0.3,0.7,0.5,1.2,0.5h36.8"/>
</g>
</svg>
