<?xml version="1.0" encoding="utf-8"?>
<!-- Generated by IcoMoon.io -->
<!DOCTYPE svg PUBLIC "-//W3C//DTD SVG 1.1//EN" "http://www.w3.org/Graphics/SVG/1.1/DTD/svg11.dtd">
<svg version="1.1" xmlns="http://www.w3.org/2000/svg" xmlns:xlink="http://www.w3.org/1999/xlink" width="15" height="16" viewBox="0 0 15 16">
<path fill="#FFFFFF" d="M6.563 7.107q0 0.321 0.286 0.629t0.692 0.607 0.808 0.656 0.688 0.929 0.286 1.268q0 0.804-0.429 1.545-0.643 1.089-1.884 1.603t-2.661 0.513q-1.179 0-2.201-0.371t-1.531-1.228q-0.33-0.536-0.33-1.17 0-0.723 0.397-1.339t1.058-1.027q1.17-0.732 3.607-0.893-0.286-0.375-0.424-0.661t-0.138-0.652q0-0.321 0.188-0.759-0.411 0.036-0.607 0.036-1.321 0-2.228-0.862t-0.906-2.183q0-0.732 0.321-1.42t0.884-1.17q0.688-0.589 1.629-0.875t1.942-0.286h3.732l-1.232 0.786h-1.17q0.661 0.563 1 1.188t0.339 1.429q0 0.643-0.219 1.156t-0.527 0.83-0.621 0.58-0.531 0.549-0.219 0.589zM5.259 6.25q0.339 0 0.696-0.147t0.589-0.388q0.473-0.509 0.473-1.42 0-0.518-0.152-1.116t-0.433-1.156-0.754-0.924-1.045-0.366q-0.375 0-0.737 0.174t-0.585 0.469q-0.42 0.527-0.42 1.429 0 0.411 0.089 0.871t0.281 0.92 0.464 0.826 0.67 0.598 0.862 0.232zM5.277 14.045q0.518 0 0.996-0.116t0.884-0.348 0.652-0.652 0.246-0.973q0-0.223-0.063-0.438t-0.129-0.375-0.241-0.371-0.263-0.313-0.344-0.308-0.326-0.259-0.371-0.268-0.326-0.232q-0.143-0.018-0.429-0.018-0.473 0-0.938 0.063t-0.96 0.223-0.866 0.411-0.612 0.665-0.241 0.942q0 0.625 0.313 1.103t0.817 0.741 1.063 0.393 1.138 0.129zM12.509 6.223h1.902v0.964h-1.902v1.955h-0.938v-1.955h-1.893v-0.964h1.893v-1.938h0.938v1.938z"></path>
</svg>
