<?xml version="1.0" encoding="utf-8"?>
<!-- Generated by IcoMoon.io -->
<!DOCTYPE svg PUBLIC "-//W3C//DTD SVG 1.1//EN" "http://www.w3.org/Graphics/SVG/1.1/DTD/svg11.dtd">
<svg version="1.1" xmlns="http://www.w3.org/2000/svg" xmlns:xlink="http://www.w3.org/1999/xlink" width="41" height="32" viewBox="0 0 41 32">
<path fill="#FFFFFF" d="M35.268 17.679h-2.464q0.25-0.661 1.179-3.196l0.054-0.161q0.071-0.179 0.179-0.464t0.161-0.464l0.214 0.982zM9.482 16.518l-1.036-5.268q-0.196-0.964-1.339-0.964h-4.786l-0.036 0.232q5.554 1.411 7.196 6zM12.679 10.286l-2.893 7.821-0.304-1.589q-0.464-1.25-1.518-2.313t-2.339-1.58l2.411 9.107h3.125l4.661-11.446h-3.143zM15.161 21.75h2.964l1.857-11.464h-2.964zM28.875 10.571q-1.232-0.482-2.661-0.482-2.196 0-3.589 1.054t-1.411 2.732q-0.018 1.821 2.589 3.107 0.857 0.411 1.196 0.732t0.339 0.696q0 0.536-0.536 0.821t-1.232 0.286q-1.536 0-2.786-0.589l-0.393-0.196-0.411 2.571q1.321 0.607 3.304 0.607 2.321 0.018 3.723-1.054t1.438-2.857q0-1.893-2.5-3.107-0.875-0.446-1.268-0.75t-0.393-0.679q0-0.393 0.438-0.688t1.259-0.295q1.25-0.018 2.214 0.429l0.268 0.143zM36.464 10.286h-2.286q-1.161 0-1.554 0.964l-4.393 10.5h3.107l0.625-1.714h3.786q0.089 0.393 0.357 1.714h2.75zM41.143 4.571v22.857q0 0.929-0.679 1.607t-1.607 0.679h-36.571q-0.929 0-1.607-0.679t-0.679-1.607v-22.857q0-0.929 0.679-1.607t1.607-0.679h36.571q0.929 0 1.607 0.679t0.679 1.607z"></path>
</svg>
