<svg width="33" height="33" viewBox="0 0 33 33" fill="none" xmlns="http://www.w3.org/2000/svg">
<path fill-rule="evenodd" clip-rule="evenodd" d="M1.74475 0.983647C1.562 1.0168 1.39212 1.10026 1.25417 1.22461C1.11622 1.34896 1.01566 1.50925 0.963779 1.68758C0.911901 1.86591 0.910758 2.05519 0.960479 2.23414C1.0102 2.41309 1.10882 2.57464 1.24526 2.70064L15.5119 16.9673L1.24526 31.234C1.15092 31.3262 1.07568 31.4361 1.02383 31.5574C0.97198 31.6787 0.94454 31.8091 0.943071 31.941C0.941603 32.0729 0.966134 32.2038 1.01527 32.3263C1.06441 32.4487 1.13718 32.5603 1.22944 32.6546C1.3217 32.7489 1.43163 32.8241 1.55296 32.8759C1.67429 32.9277 1.80464 32.9552 1.93657 32.9566C2.06849 32.958 2.1994 32.9335 2.32183 32.8843C2.44425 32.8351 2.55579 32.7623 2.65007 32.67L16.948 18.4034L31.2146 32.67C31.3089 32.7623 31.4205 32.8351 31.5429 32.8843C31.6653 32.9335 31.7962 32.958 31.9281 32.9566C32.0601 32.9552 32.1904 32.9277 32.3117 32.8759C32.4331 32.8241 32.543 32.7489 32.6353 32.6546C32.7275 32.5603 32.8003 32.4487 32.8494 32.3263C32.8986 32.2038 32.9231 32.0729 32.9216 31.941C32.9202 31.8091 32.8927 31.6787 32.8409 31.5574C32.789 31.4361 32.7138 31.3262 32.6195 31.234L18.3528 16.9673L32.6195 2.70064C32.764 2.5609 32.863 2.3808 32.9035 2.1839C32.944 1.987 32.9242 1.78244 32.8467 1.59697C32.7691 1.41151 32.6374 1.2538 32.4688 1.14437C32.3001 1.03495 32.1024 0.97892 31.9014 0.983647C31.6449 0.985658 31.399 1.08626 31.2146 1.26461L16.948 15.5313L2.65007 1.26461C2.55497 1.17255 2.44252 1.10029 2.31926 1.05206C2.196 1.00383 2.06438 0.980582 1.93206 0.983647C1.86976 0.977782 1.80704 0.977782 1.74475 0.983647V0.983647Z" fill="#333333"/>
</svg>
