<svg width="149" height="43" viewBox="0 0 149 43" fill="none" xmlns="http://www.w3.org/2000/svg">
<path d="M13.262 42.64C8.31267 42.64 4.32333 42.0427 1.294 40.848V37.712C4.79267 38.992 8.69667 39.632 13.006 39.632C17.102 39.632 20.1527 38.992 22.158 37.712C24.1633 36.432 25.166 34.3627 25.166 31.504C25.166 29.7547 24.7607 28.3253 23.95 27.216C23.182 26.1067 21.9233 25.1893 20.174 24.464C18.4673 23.696 16.0567 22.9707 12.942 22.288C8.29133 21.264 5.006 19.8987 3.086 18.192C1.20867 16.4853 0.27 14.16 0.27 11.216C0.27 7.76 1.50733 5.05066 3.982 3.088C6.45667 1.12533 10.1473 0.143997 15.054 0.143997C17.1873 0.143997 19.2567 0.314664 21.262 0.655998C23.31 0.954664 24.9313 1.296 26.126 1.68V4.816C23.054 3.74933 19.598 3.216 15.758 3.216C11.79 3.216 8.782 3.856 6.734 5.136C4.72867 6.416 3.726 8.44267 3.726 11.216C3.726 12.7947 4.06733 14.0747 4.75 15.056C5.47533 16.0373 6.64867 16.8907 8.27 17.616C9.89133 18.2987 12.2807 19.0027 15.438 19.728C20.3447 20.88 23.758 22.3733 25.678 24.208C27.6407 26.0427 28.622 28.4747 28.622 31.504C28.622 35.1733 27.3207 37.9467 24.718 39.824C22.1153 41.7013 18.2967 42.64 13.262 42.64ZM119.488 0.783997H135.872C140.224 0.783997 143.488 1.936 145.664 4.24C147.882 6.544 148.992 9.68 148.992 13.648C148.992 17.5307 147.797 20.6027 145.408 22.864C143.018 25.0827 139.754 26.192 135.616 26.192H123.008V42H119.488V0.783997ZM135.296 23.376C138.581 23.376 141.098 22.5227 142.848 20.816C144.597 19.0667 145.472 16.6773 145.472 13.648C145.472 10.4053 144.64 7.93066 142.976 6.224C141.312 4.51733 138.858 3.664 135.616 3.664H123.008V23.376H135.296Z" fill="#9E1950"/>
<path d="M54.141 42.64C47.869 42.64 43.2183 40.8693 40.189 37.328C37.1597 33.7867 35.645 28.5387 35.645 21.584C35.645 14.2027 37.1383 8.784 40.125 5.328C43.1117 1.872 47.7837 0.143997 54.141 0.143997C60.4983 0.143997 65.1703 1.872 68.157 5.328C71.1437 8.784 72.637 14.2027 72.637 21.584C72.637 28.5387 71.1223 33.7867 68.093 37.328C65.0637 40.8693 60.413 42.64 54.141 42.64ZM54.141 39.632C59.2183 39.632 62.973 38.1813 65.405 35.28C67.8797 32.336 69.117 27.7707 69.117 21.584C69.117 17.104 68.5623 13.52 67.453 10.832C66.3863 8.144 64.765 6.20267 62.589 5.008C60.413 3.81333 57.597 3.216 54.141 3.216C50.685 3.216 47.8477 3.81333 45.629 5.008C43.453 6.20267 41.8103 8.144 40.701 10.832C39.6343 13.52 39.101 17.104 39.101 21.584C39.101 27.7707 40.317 32.336 42.749 35.28C45.2237 38.1813 49.021 39.632 54.141 39.632ZM91.136 0.783997H95.616L111.168 42H107.584L103.04 29.968H83.712L79.168 42H75.52L91.136 0.783997ZM102.208 27.088L93.312 3.6L84.48 27.088H102.208Z" fill="#AB728A"/>
</svg>
