<svg width="162" height="197" viewBox="0 0 162 197" version="1.1" xmlns="http://www.w3.org/2000/svg" xmlns:xlink="http://www.w3.org/1999/xlink">
<title>logo</title>
<desc>Created using Figma</desc>
<g id="Canvas" transform="translate(-170 -141)">
<g id="logo">
<g id="logo">
<g id="B">
<use xlink:href="#path0_fill" transform="translate(170.526 141.614)"/>
</g>
<g id="mask">
<use xlink:href="#path1_fill" transform="translate(214.912 157.895)"/>
</g>
<g id="bolt">
<g id="Vector">
<use xlink:href="#path2_fill" transform="translate(210.526 197.368)" fill="#FFFFFF"/>
</g>
</g>
</g>
</g>
</g>
<defs>
<path id="path0_fill" d="M 160.737 138.632C 160.737 176.947 136.947 196.105 89.3684 196.105L 0 196.105L 0 0L 88.1053 0C 111.684 0 129.053 4.21053 140.211 12.6316C 151.579 21.0526 157.263 34 157.263 51.4737C 157.263 68.9474 149.895 82.421 135.158 91.8947L 135.158 93.1579C 152.211 100.947 160.737 116.105 160.737 138.632ZM 76.4211 156.947C 82.1053 156.947 85.8947 155.789 87.7895 153.474C 89.6842 150.947 90.6316 145.789 90.6316 138C 90.6316 130.211 89.5789 124.737 87.4737 121.579C 85.5789 118.211 81.8947 116.526 76.4211 116.526L 67.2632 116.526L 67.2632 156.947L 76.4211 156.947ZM 76.7368 81.7895C 80.5263 81.7895 83.2631 80.5263 84.9474 78C 86.8421 75.4737 87.7895 71.1579 87.7895 65.0526C 87.7895 58.7368 86.8421 54.2105 84.9474 51.4737C 83.2631 48.7368 80.421 47.3684 76.4211 47.3684L 67.2632 47.3684L 67.2632 81.7895L 76.7368 81.7895Z"/>
<path id="path1_fill" d="M 0 0L 65.7895 0L 65.7895 149.123L 0 149.123L 0 0Z"/>
<path id="path2_fill" d="M 71.3353 0L 42.6998 42.6998L 71.3353 42.6998L 0 114.035L 21.54 64.1131L 0 64.1131L 21.54 0L 71.3353 0Z"/>
</defs>
</svg>
