<!-- Generated by IcoMoon.io -->
<svg version="1.1" xmlns="http://www.w3.org/2000/svg" width="24" height="24" viewBox="0 0 24 24">
<title>chart</title>
<path fill="#fe504f" d="M3.916 3.647c-2.289 1.646-3.787 4.325-3.787 7.353 0 1.107 0.209 2.163 0.574 3.145l8.486-3.145-5.273-7.353zM1.568 10.748c-0.036-1.876 0.677-3.682 1.971-5.027l4.197 4.659-5.951 1.985c-0.134-0.526-0.207-1.068-0.217-1.617zM13.312 1.5c-2.528 0-4.97 0.911-6.878 2.566l0.025 0.028-0.399 0.349 6.374 7.311-9.274 2.946 0.136 0.427-0.010 0.003c0.028 0.093 0.065 0.181 0.097 0.271l0.080 0.253 0.009-0.003c1.521 4.117 5.404 6.85 9.84 6.85 5.79 0 10.5-4.711 10.5-10.5s-4.71-10.501-10.5-10.501zM21.104 8.614l-6.328 2.317 4.131-5.315c0.935 0.822 1.693 1.841 2.197 2.998zM8.117 5.281c1.485-1.147 3.308-1.781 5.195-1.781 1.784 0 3.439 0.555 4.808 1.498l-4.83 6.215-5.173-5.932zM5.398 15.039l7.275-2.312-1.343 7.515c-2.697-0.64-4.918-2.553-5.932-5.203zM13.312 20.5c-0.339 0-0.667-0.041-0.997-0.080l1.438-8.049 7.696-2.818c0.233 0.776 0.362 1.597 0.362 2.447 0.001 4.688-3.813 8.5-8.499 8.5z"></path>
</svg>
