<!-- Generated by IcoMoon.io -->
<svg version="1.1" xmlns="http://www.w3.org/2000/svg" width="17" height="20" viewBox="0 0 17 20">
<title>linkedin</title>
<path fill="#fe504f" d="M3.895 6.975v11.060h-3.683v-11.060h3.683zM4.129 3.56c0.011 1.060-0.792 1.908-2.076 1.908v0h-0.022c-1.239 0-2.031-0.848-2.031-1.908 0-1.083 0.826-1.908 2.076-1.908 1.261 0 2.042 0.826 2.054 1.908zM17.143 11.696v6.339h-3.672v-5.915c0-1.484-0.536-2.5-1.864-2.5-1.016 0-1.618 0.681-1.886 1.339-0.089 0.246-0.123 0.569-0.123 0.904v6.172h-3.672c0.045-10.022 0-11.060 0-11.060h3.672v1.607h-0.022c0.48-0.759 1.35-1.864 3.337-1.864 2.422 0 4.23 1.585 4.23 4.978z"></path>
</svg>
