<?xml version="1.0" encoding="utf-8"?>
<!-- Generator: Adobe Illustrator 15.0.0, SVG Export Plug-In . SVG Version: 6.00 Build 0)  -->
<!DOCTYPE svg PUBLIC "-//W3C//DTD SVG 1.1//EN" "http://www.w3.org/Graphics/SVG/1.1/DTD/svg11.dtd">
<svg version="1.1" id="Layer_1" xmlns="http://www.w3.org/2000/svg" xmlns:xlink="http://www.w3.org/1999/xlink" x="0px" y="0px"
	 width="270px" height="210px" viewBox="0 0 270 210" enable-background="new 0 0 270 210" xml:space="preserve">
<path id="cat" fill="#010101" d="M264.985,102.36l0.19-0.956c-21.392-4.281-43.341-4.319-56.614-3.767
	c2.171-7.856,2.832-16.903,2.832-26.989c0-14.464-5.43-26.033-14.252-34.839c1.538-4.977,3.607-16.024-2.059-30.177
	c0,0-9.977-3.167-32.556,11.94c-8.834-2.21-18.253-3.303-27.674-3.303c-10.375,0-20.851,1.321-30.619,3.999
	C80.938,2.381,70.649,5.633,70.649,5.633c-6.713,16.786-2.562,29.215-1.302,32.305c-7.888,8.517-12.706,19.387-12.706,32.711
	c0,10.061,1.143,19.088,3.941,26.932c-13.398-0.489-34.547-0.298-55.172,3.824l0.19,0.949c20.746-4.15,42.032-4.293,55.344-3.791
	c0.619,1.625,1.302,3.201,2.076,4.722c-13.163,0.422-35.639,2.099-57.179,8.174l0.267,0.937c21.708-6.119,44.379-7.758,57.418-8.155
	c7.863,14.659,23.369,24.128,50.955,27.097c-3.913,2.63-7.907,7.101-9.526,14.672c-5.332,2.56-22.223,8.783-32.363-8.65
	c0,0-5.671-10.369-16.532-11.183c0,0-10.534-0.154-0.727,6.558c0,0,7.043,3.335,11.908,15.81c0,0,6.348,21.282,36.954,14.454v21.994
	c0,0-0.645,7.773-7.774,10.365c0,0-4.214,2.922,0.328,4.534c0,0,19.761,1.626,19.761-14.568v-23.989c0,0-0.785-9.501,3.89-12.811
	v39.385c0,0-0.324,9.386-5.183,12.955c0,0-3.239,5.824,3.89,4.211c0,0,13.604-1.943,14.255-17.814l0.304-39.866h3.271l0.311,39.866
	c0.645,15.871,14.253,17.814,14.253,17.814c7.132,1.613,3.893-4.211,3.893-4.211c-4.859-3.569-5.188-12.955-5.188-12.955V148.86
	c4.674,3.64,3.887,12.474,3.887,12.474v23.989c0,16.194,19.765,14.568,19.765,14.568c4.534-1.612,0.331-4.534,0.331-4.534
	c-7.134-2.592-7.774-10.365-7.774-10.365v-31.426c0-12.264-5.163-18.754-10.213-22.178c29.419-2.908,43.544-12.41,50.047-27.167
	c12.88,0.35,36.075,1.924,58.253,8.181l0.267-0.938c-22.063-6.224-45.093-7.831-58.112-8.206c0.621-1.489,1.155-3.045,1.639-4.639
	c13.204-0.547,35.261-0.541,56.734,3.747L264.985,102.36z"/>
<path id="face" fill="#F4CBB3" d="M182.623,69.967c6.338,5.741,10.048,12.667,10.048,20.143c0,34.871-26.002,35.813-58.066,35.813
	c-32.07,0-58.059-4.826-58.059-35.813c0-7.421,3.655-14.309,9.914-20.025c10.438-9.529,28.101-4.48,48.145-4.48
	C154.563,65.597,172.169,60.497,182.623,69.967L182.623,69.967z"/>
<path id="eyes" fill="#FFFFFF" d="M115.294,91.884c0,9.606-5.411,17.39-12.076,17.39c-6.666,0-12.083-7.784-12.083-17.39
	s5.411-17.386,12.083-17.386C109.893,74.498,115.294,82.278,115.294,91.884z M180.12,91.884c0,9.606-5.411,17.39-12.079,17.39
	c-6.675,0-12.08-7.784-12.08-17.39s5.405-17.386,12.08-17.386C174.709,74.498,180.12,82.278,180.12,91.884z"/>
<g>
	<path id="pupils" fill="#AE5D52" d="M111.426,92.097c0,6.398-3.61,11.591-8.053,11.591c-4.446,0-8.051-5.192-8.051-11.591
		c0-6.405,3.605-11.594,8.051-11.594C107.81,80.509,111.426,85.692,111.426,92.097L111.426,92.097z M176.234,92.097
		c0,6.398-3.607,11.591-8.054,11.591c-4.439,0-8.054-5.192-8.054-11.591c0-6.405,3.614-11.594,8.054-11.594
		C172.627,80.503,176.234,85.692,176.234,92.097L176.234,92.097z"/>
	<circle id="nose" fill="#AE5D52" cx="134.792" cy="107.323" r="3.025"/>
	<path id="mouth" fill="#AE5D52" d="M127.743,114.965c-0.181-0.508,0.086-1.061,0.594-1.236c0.505-0.175,1.057,0.093,1.235,0.592
		c0.781,2.194,2.861,3.668,5.183,3.668s4.405-1.478,5.182-3.668c0.179-0.505,0.73-0.767,1.239-0.592
		c0.507,0.176,0.775,0.733,0.596,1.236c-1.054,2.973-3.877,4.963-7.017,4.963S128.797,117.942,127.743,114.965L127.743,114.965z"/>
</g>
<path id="octo" fill="#C4E5D9" d="M60.757,128.778c0,0.807-0.943,1.455-2.108,1.455c-1.162,0-2.105-0.654-2.105-1.455
	c0-0.807,0.943-1.464,2.105-1.464C59.814,127.321,60.757,127.972,60.757,128.778L60.757,128.778z M66.591,132.024
	c0,0.8-0.943,1.46-2.108,1.46c-1.163,0-2.106-0.66-2.106-1.46c0-0.813,0.95-1.461,2.106-1.461
	C65.641,130.563,66.591,131.211,66.591,132.024L66.591,132.024z M70.154,136.24c0,0.801-0.949,1.448-2.105,1.448
	c-1.159,0-2.109-0.647-2.109-1.448c0-0.812,0.943-1.466,2.109-1.466C69.211,134.774,70.154,135.429,70.154,136.24L70.154,136.24z
	 M73.393,141.093c0,0.813-0.949,1.468-2.105,1.468c-1.159,0-2.108-0.654-2.108-1.468c0-0.8,0.943-1.461,2.108-1.461
	C72.45,139.632,73.393,140.293,73.393,141.093L73.393,141.093z M76.958,145.634c0,0.807-0.943,1.455-2.108,1.455
	c-1.166,0-2.109-0.648-2.109-1.455s0.95-1.46,2.109-1.46C76.006,144.174,76.958,144.827,76.958,145.634L76.958,145.634z
	 M81.821,149.516c0,0.812-0.95,1.46-2.105,1.46c-1.159,0-2.108-0.647-2.108-1.46c0-0.801,0.943-1.468,2.108-1.468
	C80.877,148.048,81.821,148.715,81.821,149.516L81.821,149.516z M88.626,152.113c0,0.807-0.949,1.453-2.109,1.453
	c-1.155,0-2.108-0.646-2.108-1.453s0.947-1.468,2.108-1.468C87.683,150.646,88.626,151.307,88.626,152.113L88.626,152.113z
	 M95.403,152.113c0,0.807-0.944,1.453-2.108,1.453c-1.163,0-2.109-0.646-2.109-1.453s0.953-1.468,2.109-1.468
	C94.453,150.646,95.403,151.307,95.403,152.113L95.403,152.113z M102.268,150.988c0,0.8-0.949,1.461-2.105,1.461
	c-1.159,0-2.108-0.661-2.108-1.461c0-0.808,0.943-1.46,2.108-1.46C101.325,149.528,102.268,150.175,102.268,150.988L102.268,150.988
	z"/>
<path id="drop" fill="#9EDAF1" d="M53.025,133.104l-2.109,7.335c0,0-0.546,2.648,1.953,3.119c2.607-0.051,2.392-2.49,2.21-3.277
	L53.025,133.104z"/>
</svg>
