<svg width="100" height="97" viewBox="0 0 100 97" fill="none" xmlns="http://www.w3.org/2000/svg">
<path d="M-7.45058e-06 0L14.5163 36.2009H-7.45058e-06L36.1624 96.679L25.243 54.3551H36.1624L25.243 0H-7.45058e-06Z" fill="white"/>
<path d="M95.3649 54.6669C92.2748 50.5771 88.0033 47.5779 82.5502 45.6693C86.64 43.579 89.7755 40.7616 91.9567 37.2171C94.2288 33.5817 95.3649 29.4919 95.3649 24.9477C95.3649 17.3135 92.1839 11.2696 85.822 6.81632C79.4601 2.2721 70.1899 0 58.0115 0H31.8368L35.9266 19.4947H54.467C63.5554 19.4947 68.0996 22.5393 68.0996 28.6285C68.0996 34.8087 63.5554 37.8987 54.467 37.8987H39.4834L42.6199 54.6669H62.1771C71.6291 54.6669 72.7347 59.8018 72.7347 66.2546C72.7347 72.7074 68.0087 75.9338 58.5568 75.9338H38.1919L42.6199 95.4284H60.738C73.4618 95.4284 83.1864 93.1563 89.9118 88.6121C96.6373 84.0679 100 77.6151 100 69.2538C100 63.5281 98.4549 58.6658 95.3649 54.6669Z" fill="#232323"/>
</svg>
