<?xml version="1.0" standalone="no"?>
<!DOCTYPE svg PUBLIC "-//W3C//DTD SVG 20010904//EN"
 "http://www.w3.org/TR/2001/REC-SVG-20010904/DTD/svg10.dtd">
<svg version="1.0" xmlns="http://www.w3.org/2000/svg"
 width="700.000000pt" height="700.000000pt" viewBox="0 0 700.000000 700.000000"
 preserveAspectRatio="xMidYMid meet">
<metadata>
Created by potrace 1.11, written by Peter Selinger 2001-2013
</metadata>
<g transform="translate(0.000000,700.000000) scale(0.100000,-0.100000)"
fill="#000000" stroke="none">
<path d="M2630 5788 c0 -2 43 -208 95 -456 52 -249 95 -455 95 -457 0 -3 207
-5 459 -5 597 0 705 -11 858 -85 159 -78 238 -245 204 -429 -32 -170 -137
-272 -340 -329 -71 -20 -104 -21 -544 -25 l-469 -3 5 -22 c3 -12 35 -182 72
-377 36 -195 68 -365 70 -377 l5 -23 489 0 c505 0 602 -6 696 -41 151 -56 216
-164 238 -391 30 -320 -85 -481 -394 -550 -88 -20 -130 -21 -667 -25 -529 -4
-572 -6 -568 -21 3 -9 48 -208 101 -442 53 -234 98 -433 101 -442 5 -17 41
-18 562 -18 678 0 819 11 1127 85 479 117 827 375 956 709 67 173 73 211 73
446 0 203 -1 220 -27 315 -33 118 -108 276 -171 360 -139 184 -348 340 -559
420 l-58 22 65 38 c344 201 536 540 536 947 0 303 -97 537 -304 736 -229 220
-518 345 -951 414 -134 21 -175 22 -947 25 -445 3 -808 3 -808 1z"/>
</g>
</svg>
