<svg width="80" height="98" viewBox="0 0 80 98" version="1.1" xmlns="http://www.w3.org/2000/svg" xmlns:xlink="http://www.w3.org/1999/xlink">
<title>logo</title>
<desc>Created using Figma</desc>
<g id="Canvas">
<g id="logo">
<g id="logo">
<g id="B">
<use xlink:href="#path0_fill" transform="translate(-2.84217e-14 0)"/>
</g>
<g id="mask">
<use xlink:href="#path1_fill" transform="translate(22.0912 8.10303)"/>
</g>
<g id="bolt">
<g id="Vector">
<use xlink:href="#path2_fill" transform="translate(19.9083 27.7494)" fill="#FFCA02"/>
</g>
</g>
</g>
</g>
</g>
<defs>
<path id="path0_fill" d="M 80 68.998C 80 88.0681 68.1598 97.6031 44.4794 97.6031L 0 97.6031L 0 0L 43.8507 0C 55.5861 0 64.2305 2.09561 69.7839 6.28684C 75.442 10.4781 78.2711 16.9221 78.2711 25.6189C 78.2711 34.3156 74.6038 41.0216 67.2691 45.7367L 67.2691 46.3654C 75.7564 50.2423 80 57.7865 80 68.998ZM 38.0354 78.1139C 40.8644 78.1139 42.7505 77.5376 43.6935 76.3851C 44.6365 75.1277 45.108 72.5606 45.108 68.6837C 45.108 64.8068 44.5841 62.0825 43.5363 60.5108C 42.5933 58.8343 40.7597 57.9961 38.0354 57.9961L 33.4774 57.9961L 33.4774 78.1139L 38.0354 78.1139ZM 38.1925 40.7073C 40.0786 40.7073 41.4407 40.0786 42.279 38.8212C 43.222 37.5638 43.6935 35.4158 43.6935 32.3772C 43.6935 29.2338 43.222 26.981 42.279 25.6189C 41.4407 24.2567 40.0262 23.5756 38.0354 23.5756L 33.4774 23.5756L 33.4774 40.7073L 38.1925 40.7073Z"/>
<path id="path1_fill" d="M 0 0L 32.7439 0L 32.7439 74.2196L 0 74.2196L 0 0Z"/>
<path id="path2_fill" d="M 35.5041 0L 21.252 21.252L 35.5041 21.252L 0 56.7562L 10.7206 31.9096L 0 31.9096L 10.7206 0L 35.5041 0Z"/>
</defs>
</svg>
