<?xml version="1.0" encoding="utf-8"?>
<!-- Generated by IcoMoon.io -->
<!DOCTYPE svg PUBLIC "-//W3C//DTD SVG 1.1//EN" "http://www.w3.org/Graphics/SVG/1.1/DTD/svg11.dtd">
<svg version="1.1" xmlns="http://www.w3.org/2000/svg" xmlns:xlink="http://www.w3.org/1999/xlink" width="100" height="40" viewBox="0 0 100 40">
<path fill="#000000" d="M27.4 26.2c0 1.2-0.2 2.1-0.7 3-0.5 0.8-1.1 1.5-2 2-0.8 0.5-1.8 0.9-2.9 1.2s-2.3 0.4-3.5 0.4h-12.7v-25.6h14.8c0.9 0 1.7 0.2 2.4 0.6s1.3 0.9 1.8 1.5c0.5 0.6 0.9 1.3 1.2 2.1s0.4 1.6 0.4 2.4c0 1.2-0.3 2.3-0.9 3.4s-1.5 1.9-2.8 2.5c1.5 0.4 2.6 1.2 3.5 2.2s1.4 2.5 1.4 4.3zM12.6 13.1v3.9h4.8c0.5 0 0.9-0.1 1.3-0.4s0.6-0.8 0.6-1.6c0-0.7-0.2-1.2-0.5-1.5s-0.7-0.5-1.2-0.5h-5zM20.2 24.7c0-0.6-0.2-1.1-0.5-1.6-0.3-0.4-0.8-0.6-1.3-0.6h-5.8v4.3h5.5c0.6 0 1.1-0.2 1.5-0.5 0.4-0.4 0.6-0.9 0.6-1.6z"></path>
<path fill="#000000" d="M27.5 32.7l9.5-25.5h5.7l9.5 25.6h-7.4l-1.5-5h-6.8l-1.5 5h-7.5zM39.9 14.5l-2.4 8.5h4.6l-2.2-8.5z"></path>
<path fill="#000000" d="M69.4 15.5c-0.7-0.4-1.5-0.8-2.2-1.2-0.6-0.3-1.4-0.6-2.2-0.8s-1.6-0.4-2.4-0.4c-0.6 0-1.1 0.1-1.5 0.3s-0.6 0.5-0.6 1c0 0.3 0.1 0.6 0.3 0.8s0.5 0.4 0.9 0.6c0.4 0.2 0.9 0.4 1.5 0.5 0.6 0.2 1.3 0.4 2 0.6 1.2 0.4 2.2 0.8 3.2 1.2s1.8 0.9 2.4 1.5c0.7 0.6 1.2 1.3 1.5 2.1 0.4 0.8 0.5 1.9 0.5 3.1 0 1.5-0.3 2.8-0.8 3.9-0.6 1-1.3 1.9-2.2 2.5s-2 1.1-3.1 1.3-2.3 0.4-3.5 0.4c-0.9 0-1.9-0.1-2.9-0.2s-2-0.3-2.9-0.6c-1-0.3-1.9-0.6-2.8-0.9-0.9-0.4-1.7-0.8-2.5-1.2l3-6.2c0.8 0.5 1.7 1 2.6 1.4 0.8 0.4 1.6 0.7 2.6 1s2 0.4 3 0.4c0.8 0 1.3-0.1 1.6-0.3s0.5-0.5 0.5-0.8c0-0.4-0.2-0.7-0.5-0.9s-0.7-0.5-1.2-0.7c-0.5-0.2-1.1-0.4-1.8-0.6s-1.4-0.4-2.2-0.7c-1.1-0.4-2.1-0.8-2.9-1.2s-1.5-0.9-2-1.5c-0.5-0.6-0.9-1.2-1.2-1.9s-0.4-1.5-0.4-2.5c0-1.4 0.3-2.7 0.8-3.7 0.5-1.1 1.2-2 2.1-2.7s1.9-1.3 3-1.6 2.3-0.6 3.6-0.6c0.9 0 1.8 0.1 2.7 0.3s1.7 0.4 2.6 0.7c0.8 0.3 1.6 0.6 2.3 0.9s1.4 0.6 1.9 0.9l-2.8 5.8z"></path>
<path fill="#000000" d="M94.4 26.6v6.1h-18.2v-25.5h17.8v6.1h-10.8v3.6h9.3v5.7h-9.3v4h11.2z"></path>
</svg>
