<?xml version="1.0" encoding="iso-8859-1"?>
<!-- Generator: Adobe Illustrator 19.0.0, SVG Export Plug-In . SVG Version: 6.00 Build 0)  -->
<svg version="1.1" id="Capa_1" xmlns="http://www.w3.org/2000/svg" xmlns:xlink="http://www.w3.org/1999/xlink" x="0px" y="0px"
	 viewBox="0 0 470 470" style="enable-background:new 0 0 470 470;" xml:space="preserve">
<g>
	<path style="fill:#F2484B;" d="M260.667,271.339C272.459,262.992,279.5,249.407,279.5,235s-7.041-27.992-18.833-36.339
		c-3.232-2.288-4.099-6.664-2.078-9.999c-4.958-2.529-10.37-4.291-16.089-5.117v102.908c5.719-0.826,11.131-2.588,16.089-5.117
		C256.568,278.003,257.435,273.627,260.667,271.339z"/>
	<path style="fill:#FF6E1D;" d="M263.02,337.494c46.061-12.607,78.23-54.754,78.23-102.494c0-47.739-32.169-89.886-78.23-102.493
		c-3.916-1.072-6.245-5.057-5.306-8.977c-4.962-1.01-10.042-1.688-15.214-2.027v62.042c5.719,0.826,11.131,2.588,16.089,5.117
		c0.093-0.153,0.184-0.308,0.289-0.456c2.392-3.381,7.074-4.182,10.455-1.789C285.092,197.573,294.5,215.734,294.5,235
		s-9.408,37.427-25.167,48.582c-1.315,0.931-2.829,1.379-4.327,1.379c-2.351,0-4.666-1.102-6.128-3.167
		c-0.105-0.148-0.196-0.303-0.289-0.456c-4.958,2.529-10.37,4.291-16.089,5.117v62.042c5.172-0.338,10.252-1.017,15.214-2.027
		C256.775,342.55,259.104,338.566,263.02,337.494z"/>
	<path style="fill:#6DA8D6;" d="M113.817,227.5c0.697-43.956,7.513-85.862,19.643-121.818c-17.341-8.312-33.702-18.78-48.685-31.247
		C43.567,113.013,17.172,167.218,15.142,227.5H113.817z"/>
	<path style="fill:#6DA8D6;" d="M138.634,91.527c2.849-7.212,5.923-14.145,9.224-20.748c10.611-21.223,22.981-38.005,36.533-49.895
		c-32.827,7.758-62.833,22.891-88.172,43.545C109.358,75.122,123.594,84.195,138.634,91.527z"/>
	<path style="fill:#6DA8D6;" d="M227.5,454.439v-98.048c-25.988,0.884-51.407,6.337-75.16,15.969
		c2.755,7.018,5.733,13.75,8.935,20.152C179.576,429.114,202.856,450.775,227.5,454.439z"/>
	<path style="fill:#6DA8D6;" d="M84.775,395.565c14.982-12.467,31.343-22.935,48.685-31.247
		c-12.13-35.956-18.945-77.862-19.643-121.818H15.142C17.172,302.782,43.567,356.987,84.775,395.565z"/>
	<path style="fill:#6DA8D6;" d="M227.5,341.384V242.5h-98.681c0.683,41.839,7.066,81.627,18.414,115.745
		C172.61,348.026,199.755,342.267,227.5,341.384z"/>
	<path style="fill:#6DA8D6;" d="M161.275,77.487c-3.201,6.402-6.18,13.135-8.935,20.152c23.753,9.632,49.172,15.085,75.16,15.969
		V15.561C202.856,19.225,179.576,40.886,161.275,77.487z"/>
	<path style="fill:#6DA8D6;" d="M147.858,399.221c-3.302-6.603-6.376-13.535-9.224-20.748
		c-15.039,7.332-29.276,16.405-42.414,27.097c25.339,20.655,55.344,35.788,88.172,43.545
		C170.84,437.226,158.47,420.443,147.858,399.221z"/>
	<path style="fill:#6DA8D6;" d="M227.5,227.5v-98.884c-27.745-0.883-54.89-6.643-80.268-16.861
		c-11.348,34.117-17.731,73.906-18.414,115.745H227.5z"/>
	<path style="fill:#FFCC75;" d="M263.865,422.812C355.727,408.754,425,328.012,425,235S355.727,61.246,263.865,47.188
		c-4.041-0.618-6.826-4.356-6.295-8.391c-4.971-0.568-9.996-0.95-15.07-1.141v83.847c5.172,0.338,10.252,1.017,15.214,2.027
		c0.019-0.079,0.031-0.158,0.052-0.237c1.094-3.995,5.219-6.351,9.214-5.254c52.561,14.387,89.27,62.483,89.27,116.961
		c0,54.479-36.709,102.575-89.27,116.961c-0.663,0.181-1.329,0.268-1.984,0.268c-3.296,0-6.317-2.189-7.229-5.522
		c-0.022-0.079-0.033-0.159-0.052-0.238c-4.962,1.01-10.042,1.688-15.214,2.027v83.847c5.074-0.19,10.1-0.573,15.07-1.141
		C257.039,427.168,259.824,423.43,263.865,422.812z"/>
	<path style="fill:#185F8D;" d="M242.5,15.142v22.515c5.074,0.19,10.1,0.573,15.07,1.141c0.007-0.053,0.008-0.105,0.016-0.158
		c0.627-4.094,4.451-6.909,8.548-6.279c47.882,7.328,91.85,31.667,123.802,68.536C422.22,138.147,440,185.773,440,235
		s-17.78,96.853-50.063,134.104c-31.952,36.868-75.919,61.208-123.802,68.536c-0.385,0.059-0.767,0.087-1.144,0.087
		c-3.641,0-6.836-2.656-7.404-6.366c-0.008-0.053-0.009-0.105-0.016-0.158c-4.971,0.568-9.996,0.95-15.07,1.141v22.515
		C360.348,450.889,455,353.797,455,235S360.348,19.111,242.5,15.142z"/>
	<path style="fill:#082947;" d="M401.17,68.83C356.785,24.444,297.771,0,235,0S113.215,24.444,68.83,68.83
		C24.444,113.215,0,172.229,0,235s24.444,121.785,68.83,166.17C113.215,445.556,172.229,470,235,470s121.785-24.444,166.17-68.83
		C445.556,356.785,470,297.771,470,235S445.556,113.215,401.17,68.83z M227.5,113.608c-25.988-0.884-51.407-6.337-75.16-15.969
		c2.755-7.018,5.733-13.75,8.935-20.152c18.301-36.601,41.581-58.262,66.225-61.927V113.608z M227.5,128.616V227.5h-98.681
		c0.683-41.839,7.066-81.627,18.414-115.745C172.61,121.974,199.755,127.733,227.5,128.616z M227.5,242.5v98.884
		c-27.745,0.883-54.89,6.643-80.268,16.861c-11.348-34.117-17.731-73.906-18.414-115.745H227.5z M227.5,356.392v98.048
		c-24.644-3.665-47.924-25.326-66.225-61.927c-3.201-6.402-6.18-13.135-8.935-20.152C176.093,362.729,201.512,357.275,227.5,356.392
		z M147.858,70.779c-3.302,6.603-6.376,13.535-9.224,20.748c-15.039-7.332-29.276-16.405-42.414-27.097
		c25.339-20.655,55.344-35.788,88.172-43.545C170.84,32.774,158.47,49.557,147.858,70.779z M84.775,74.435
		c14.982,12.467,31.343,22.935,48.685,31.247c-12.13,35.956-18.945,77.862-19.643,121.818H15.142
		C17.172,167.218,43.567,113.013,84.775,74.435z M113.817,242.5c0.697,43.956,7.513,85.862,19.643,121.818
		c-17.341,8.312-33.702,18.78-48.685,31.247C43.567,356.987,17.172,302.782,15.142,242.5H113.817z M138.634,378.473
		c2.849,7.212,5.923,14.145,9.224,20.748c10.611,21.223,22.981,38.005,36.533,49.895c-32.827-7.758-62.833-22.891-88.172-43.545
		C109.358,394.878,123.594,385.805,138.634,378.473z M242.5,454.858V15.142C360.348,19.111,455,116.203,455,235
		S360.348,450.889,242.5,454.858z"/>
	<path style="fill:#082947;" d="M263.865,47.188C355.727,61.246,425,141.988,425,235s-69.273,173.754-161.135,187.812
		c-4.041,0.618-6.826,4.356-6.295,8.391c0.007,0.053,0.008,0.105,0.016,0.158c0.568,3.71,3.763,6.366,7.404,6.366
		c0.377,0,0.759-0.028,1.144-0.087c47.882-7.328,91.85-31.667,123.802-68.536C422.22,331.853,440,284.227,440,235
		s-17.78-96.853-50.063-134.104c-31.952-36.868-75.919-61.208-123.802-68.536c-4.098-0.63-7.921,2.185-8.548,6.279
		c-0.008,0.053-0.009,0.105-0.016,0.158C257.039,42.832,259.824,46.57,263.865,47.188z"/>
	<path style="fill:#082947;" d="M263.02,132.507c46.061,12.607,78.23,54.754,78.23,102.493c0,47.739-32.169,89.886-78.23,102.494
		c-3.916,1.072-6.245,5.056-5.306,8.976c0.019,0.079,0.031,0.159,0.052,0.238c0.912,3.333,3.934,5.522,7.229,5.522
		c0.655,0,1.322-0.087,1.984-0.268c52.561-14.387,89.27-62.483,89.27-116.961c0-54.478-36.709-102.574-89.27-116.961
		c-3.995-1.097-8.12,1.259-9.214,5.254c-0.022,0.079-0.033,0.158-0.052,0.237C256.775,127.45,259.104,131.435,263.02,132.507z"/>
	<path style="fill:#082947;" d="M260.667,198.661C272.459,207.008,279.5,220.593,279.5,235s-7.041,27.992-18.833,36.339
		c-3.232,2.288-4.099,6.664-2.078,9.999c0.093,0.153,0.184,0.308,0.289,0.456c1.462,2.065,3.777,3.167,6.128,3.167
		c1.498,0,3.011-0.448,4.327-1.379C285.092,272.427,294.5,254.266,294.5,235s-9.408-37.427-25.167-48.582
		c-3.381-2.393-8.063-1.593-10.455,1.789c-0.105,0.148-0.196,0.303-0.289,0.456C256.568,191.997,257.435,196.373,260.667,198.661z"
		/>
</g>
<g>
</g>
<g>
</g>
<g>
</g>
<g>
</g>
<g>
</g>
<g>
</g>
<g>
</g>
<g>
</g>
<g>
</g>
<g>
</g>
<g>
</g>
<g>
</g>
<g>
</g>
<g>
</g>
<g>
</g>
</svg>
