<?xml version="1.0" encoding="utf-8"?>
<!-- Generated by IcoMoon.io -->
<!DOCTYPE svg PUBLIC "-//W3C//DTD SVG 1.1//EN" "http://www.w3.org/Graphics/SVG/1.1/DTD/svg11.dtd">
<svg version="1.1" xmlns="http://www.w3.org/2000/svg" xmlns:xlink="http://www.w3.org/1999/xlink" width="351" height="24" viewBox="0 0 351 24">
<svg id="icon-display" width="24" height="24" viewBox="0 0 24 24" x="0" y="0">
<path fill="#101010" d="M0 1.5v15h24v-15h-24zM22.5 15h-21v-12h21v12zM15.75 18h-7.5l-0.75 3-1.5 1.5h12l-1.5-1.5z"></path>
</svg>
<svg id="icon-spinner4" width="24" height="24" viewBox="0 0 24 24" x="54" y="0">
<path fill="#101010" d="M4.5 12c0-0.285 0.017-0.567 0.048-0.844l-4.335-1.409c-0.139 0.73-0.212 1.483-0.212 2.253 0 3.451 1.457 6.561 3.789 8.75l2.679-3.687c-1.222-1.334-1.967-3.112-1.967-5.063zM19.5 12c0 1.952-0.746 3.729-1.967 5.063l2.679 3.687c2.332-2.189 3.789-5.299 3.789-8.75 0-0.77-0.073-1.523-0.212-2.253l-4.335 1.409c0.031 0.277 0.048 0.559 0.048 0.844zM13.5 4.65c2.155 0.437 3.974 1.799 5.026 3.652l4.335-1.409c-1.716-3.643-5.209-6.283-9.362-6.801v4.557zM5.474 8.302c1.052-1.854 2.871-3.215 5.026-3.652v-4.557c-4.153 0.518-7.646 3.158-9.362 6.8l4.335 1.409zM15.107 18.828c-0.947 0.431-1.999 0.672-3.107 0.672s-2.16-0.241-3.107-0.672l-2.679 3.687c1.716 0.946 3.688 1.485 5.785 1.485s4.070-0.539 5.785-1.485l-2.679-3.687z"></path>
</svg>
<svg id="icon-spinner10" width="24" height="24" viewBox="0 0 24 24" x="108" y="0">
<path fill="#101010" d="M0.001 12.038l-0.001 0c0 0 0 0.002 0.001 0.005 0.003 0.091 0.013 0.18 0.031 0.266 0.005 0.041 0.010 0.086 0.016 0.135 0.005 0.044 0.011 0.092 0.017 0.142 0.009 0.060 0.018 0.124 0.028 0.192 0.020 0.135 0.042 0.284 0.068 0.444 0.032 0.151 0.066 0.314 0.102 0.489 0.017 0.087 0.042 0.176 0.065 0.267s0.049 0.185 0.074 0.281c0.013 0.048 0.024 0.097 0.040 0.146s0.031 0.098 0.047 0.148 0.064 0.201 0.097 0.304c0.008 0.026 0.017 0.052 0.025 0.078 0.010 0.026 0.019 0.052 0.029 0.078 0.019 0.052 0.039 0.104 0.059 0.157 0.040 0.105 0.080 0.213 0.121 0.322 0.046 0.107 0.093 0.216 0.141 0.327 0.024 0.055 0.048 0.11 0.072 0.166s0.053 0.11 0.080 0.166c0.054 0.11 0.11 0.223 0.166 0.336 0.058 0.112 0.122 0.223 0.184 0.336 0.031 0.056 0.063 0.113 0.094 0.169s0.068 0.111 0.102 0.167c0.069 0.111 0.139 0.223 0.209 0.336 0.296 0.443 0.625 0.88 0.989 1.296 0.368 0.412 0.767 0.803 1.188 1.163 0.426 0.355 0.873 0.677 1.33 0.964 0.459 0.282 0.929 0.523 1.392 0.73 0.117 0.048 0.234 0.095 0.349 0.142 0.058 0.023 0.114 0.048 0.172 0.068s0.116 0.041 0.173 0.061 0.227 0.081 0.339 0.117c0.113 0.034 0.225 0.067 0.335 0.099 0.055 0.016 0.109 0.033 0.164 0.047s0.11 0.027 0.164 0.040 0.214 0.052 0.319 0.077c0.105 0.020 0.209 0.040 0.311 0.060 0.051 0.010 0.101 0.019 0.151 0.029 0.025 0.005 0.050 0.009 0.074 0.014 0.025 0.003 0.050 0.007 0.074 0.010 0.098 0.014 0.194 0.027 0.288 0.040 0.047 0.006 0.093 0.013 0.139 0.019s0.091 0.009 0.136 0.013 0.177 0.016 0.262 0.023c0.085 0.007 0.166 0.016 0.247 0.017 0.005 0 0.011 0 0.016 0.001 0.014 0.816 0.68 1.473 1.499 1.473 0.013 0 0.025-0.001 0.038-0.001v0.001c0 0 0.002-0 0.005-0.001 0.091-0.003 0.18-0.013 0.266-0.031 0.041-0.005 0.086-0.010 0.135-0.016 0.044-0.005 0.092-0.011 0.142-0.017 0.060-0.009 0.124-0.018 0.192-0.028 0.135-0.020 0.284-0.042 0.444-0.068 0.151-0.032 0.314-0.066 0.489-0.102 0.087-0.017 0.176-0.042 0.267-0.065s0.185-0.049 0.281-0.074c0.048-0.013 0.097-0.024 0.145-0.040s0.098-0.031 0.148-0.047 0.201-0.064 0.304-0.097c0.026-0.008 0.052-0.017 0.078-0.025 0.026-0.010 0.052-0.019 0.078-0.029 0.052-0.019 0.104-0.039 0.157-0.059 0.105-0.040 0.213-0.080 0.322-0.121 0.107-0.046 0.216-0.093 0.327-0.141 0.055-0.024 0.11-0.048 0.166-0.072s0.11-0.053 0.166-0.080c0.11-0.054 0.223-0.11 0.336-0.166 0.112-0.058 0.223-0.122 0.336-0.184 0.056-0.031 0.113-0.063 0.169-0.094s0.111-0.068 0.167-0.102c0.111-0.069 0.223-0.139 0.336-0.209 0.443-0.296 0.88-0.625 1.296-0.989 0.412-0.368 0.803-0.767 1.163-1.188 0.355-0.426 0.677-0.873 0.964-1.33 0.282-0.459 0.523-0.929 0.73-1.392 0.048-0.117 0.095-0.234 0.142-0.349 0.023-0.058 0.048-0.114 0.068-0.172s0.041-0.116 0.061-0.173 0.081-0.227 0.117-0.339c0.034-0.113 0.067-0.225 0.099-0.335 0.016-0.055 0.034-0.109 0.047-0.164s0.027-0.11 0.040-0.164 0.052-0.214 0.077-0.319c0.020-0.106 0.040-0.209 0.060-0.311 0.010-0.051 0.019-0.101 0.029-0.151 0.005-0.025 0.009-0.050 0.014-0.074 0.003-0.025 0.007-0.050 0.010-0.074 0.014-0.098 0.027-0.194 0.040-0.288 0.007-0.047 0.013-0.093 0.019-0.139s0.009-0.091 0.013-0.136 0.016-0.177 0.023-0.262c0.007-0.085 0.016-0.167 0.017-0.247 0-0.013 0.001-0.024 0.001-0.037 0.826-0.003 1.494-0.674 1.494-1.5 0-0.013-0.001-0.025-0.001-0.038h0.001c0 0-0-0.002-0.001-0.005-0.003-0.091-0.013-0.18-0.031-0.266-0.005-0.041-0.010-0.086-0.016-0.135-0.005-0.044-0.011-0.092-0.017-0.142-0.009-0.060-0.018-0.124-0.028-0.192-0.020-0.135-0.042-0.284-0.068-0.444-0.032-0.151-0.066-0.314-0.102-0.489-0.017-0.087-0.042-0.176-0.065-0.267s-0.049-0.185-0.074-0.281c-0.013-0.048-0.024-0.097-0.040-0.146s-0.031-0.098-0.047-0.148-0.064-0.201-0.097-0.304c-0.008-0.026-0.017-0.052-0.025-0.078-0.010-0.026-0.019-0.052-0.029-0.078-0.019-0.052-0.039-0.104-0.059-0.157-0.040-0.105-0.080-0.213-0.121-0.322-0.046-0.107-0.093-0.216-0.141-0.327-0.024-0.055-0.048-0.11-0.072-0.166s-0.053-0.11-0.080-0.166c-0.054-0.11-0.11-0.223-0.166-0.336-0.058-0.112-0.122-0.223-0.184-0.336-0.031-0.056-0.063-0.113-0.094-0.169s-0.068-0.111-0.102-0.167c-0.069-0.111-0.139-0.223-0.209-0.336-0.296-0.443-0.625-0.88-0.989-1.296-0.368-0.412-0.767-0.803-1.188-1.163-0.426-0.355-0.873-0.677-1.33-0.964-0.459-0.282-0.929-0.523-1.392-0.73-0.117-0.048-0.234-0.095-0.349-0.142-0.058-0.023-0.114-0.048-0.172-0.068s-0.116-0.041-0.173-0.061-0.227-0.081-0.339-0.117c-0.113-0.034-0.225-0.067-0.335-0.099-0.055-0.016-0.109-0.033-0.164-0.047s-0.11-0.027-0.164-0.040-0.214-0.052-0.319-0.077c-0.105-0.020-0.209-0.040-0.311-0.060-0.051-0.010-0.101-0.019-0.151-0.029-0.025-0.005-0.050-0.009-0.074-0.014-0.025-0.003-0.050-0.007-0.074-0.010-0.098-0.014-0.194-0.027-0.288-0.040-0.047-0.006-0.093-0.013-0.139-0.019s-0.091-0.009-0.136-0.013-0.177-0.016-0.262-0.023c-0.085-0.007-0.167-0.016-0.247-0.017-0.020-0.001-0.039-0.001-0.059-0.002-0.015-0.815-0.68-1.471-1.499-1.471-0.013 0-0.025 0.001-0.038 0.001l-0-0.001c0 0-0.002 0-0.005 0.001-0.091 0.003-0.18 0.013-0.266 0.031-0.041 0.005-0.086 0.010-0.135 0.016-0.044 0.005-0.092 0.011-0.142 0.017-0.060 0.009-0.124 0.018-0.192 0.028-0.135 0.020-0.284 0.042-0.444 0.068-0.151 0.032-0.314 0.066-0.489 0.102-0.087 0.017-0.176 0.042-0.267 0.065s-0.185 0.049-0.281 0.074c-0.048 0.013-0.097 0.024-0.146 0.040s-0.098 0.031-0.148 0.047-0.201 0.064-0.304 0.097c-0.026 0.008-0.052 0.017-0.078 0.025-0.026 0.010-0.052 0.019-0.078 0.029-0.052 0.019-0.104 0.039-0.157 0.059-0.105 0.040-0.213 0.080-0.322 0.121-0.107 0.046-0.216 0.093-0.327 0.141-0.055 0.024-0.11 0.048-0.166 0.072s-0.11 0.053-0.166 0.080c-0.11 0.054-0.223 0.11-0.336 0.166-0.112 0.058-0.223 0.122-0.336 0.184-0.056 0.031-0.113 0.063-0.169 0.094s-0.111 0.068-0.167 0.102c-0.111 0.069-0.223 0.139-0.336 0.209-0.443 0.296-0.88 0.625-1.296 0.989-0.412 0.368-0.803 0.767-1.163 1.188-0.355 0.426-0.677 0.873-0.964 1.33-0.282 0.459-0.523 0.929-0.73 1.392-0.048 0.117-0.095 0.234-0.142 0.349-0.023 0.058-0.048 0.114-0.068 0.172s-0.041 0.116-0.061 0.173-0.081 0.227-0.117 0.339c-0.034 0.113-0.067 0.225-0.099 0.335-0.016 0.055-0.034 0.109-0.047 0.164s-0.027 0.11-0.040 0.164-0.052 0.214-0.077 0.319c-0.020 0.106-0.040 0.209-0.060 0.311-0.010 0.051-0.019 0.101-0.029 0.151-0.005 0.025-0.009 0.050-0.014 0.074-0.003 0.025-0.007 0.050-0.010 0.074-0.014 0.098-0.027 0.194-0.040 0.288-0.007 0.047-0.013 0.093-0.019 0.139s-0.009 0.091-0.013 0.136-0.016 0.177-0.023 0.262c-0.007 0.085-0.016 0.167-0.017 0.247-0 0.013-0.001 0.025-0.001 0.038-0.806 0.026-1.451 0.687-1.451 1.499 0 0.013 0.001 0.025 0.001 0.038zM1.723 10.517c0.001-0.005 0.002-0.009 0.003-0.014 0.015-0.076 0.038-0.153 0.060-0.233s0.044-0.161 0.067-0.245c0.012-0.042 0.022-0.084 0.036-0.127s0.028-0.085 0.042-0.128 0.058-0.175 0.088-0.265c0.007-0.022 0.015-0.045 0.022-0.068 0.009-0.022 0.017-0.045 0.026-0.067 0.017-0.045 0.035-0.091 0.053-0.137 0.036-0.091 0.072-0.185 0.109-0.28 0.041-0.093 0.084-0.187 0.126-0.283 0.021-0.048 0.043-0.096 0.064-0.144s0.048-0.095 0.072-0.144c0.049-0.096 0.098-0.193 0.148-0.291 0.052-0.097 0.109-0.193 0.164-0.29 0.028-0.049 0.056-0.098 0.084-0.147s0.061-0.096 0.091-0.145c0.061-0.096 0.123-0.193 0.186-0.291 0.263-0.382 0.554-0.759 0.875-1.117 0.325-0.354 0.676-0.689 1.045-0.997 0.374-0.303 0.766-0.578 1.164-0.821 0.401-0.239 0.811-0.442 1.213-0.615 0.102-0.040 0.203-0.079 0.303-0.118 0.050-0.019 0.099-0.040 0.149-0.057s0.1-0.033 0.15-0.050 0.196-0.068 0.294-0.097c0.098-0.028 0.195-0.055 0.29-0.081 0.048-0.013 0.094-0.028 0.142-0.039s0.095-0.021 0.142-0.032 0.185-0.042 0.275-0.063c0.091-0.016 0.181-0.032 0.269-0.047 0.044-0.008 0.087-0.015 0.13-0.023 0.021-0.004 0.043-0.008 0.064-0.011 0.021-0.003 0.043-0.005 0.064-0.008 0.085-0.011 0.168-0.021 0.249-0.031 0.040-0.005 0.080-0.010 0.12-0.015s0.079-0.006 0.117-0.010 0.152-0.011 0.225-0.016c0.073-0.005 0.143-0.012 0.212-0.012 0.137-0.003 0.265-0.006 0.384-0.009 0.109 0.004 0.21 0.008 0.3 0.011 0.045 0.001 0.087 0.003 0.127 0.004 0.050 0.003 0.096 0.006 0.14 0.009 0.050 0.003 0.095 0.006 0.136 0.009 0.076 0.012 0.154 0.018 0.234 0.018 0.011 0 0.022-0.001 0.033-0.001 0.003 0 0.005 0 0.005 0v-0c0.73-0.018 1.33-0.557 1.443-1.26 0.013 0.003 0.025 0.006 0.038 0.008 0.076 0.015 0.153 0.038 0.233 0.060s0.161 0.044 0.245 0.067c0.042 0.012 0.084 0.022 0.127 0.036s0.085 0.028 0.128 0.042 0.175 0.058 0.265 0.088c0.023 0.007 0.045 0.015 0.068 0.022 0.022 0.009 0.045 0.017 0.067 0.026 0.045 0.017 0.091 0.035 0.137 0.053 0.091 0.036 0.185 0.072 0.28 0.109 0.093 0.041 0.187 0.084 0.283 0.126 0.048 0.021 0.096 0.043 0.144 0.064s0.095 0.048 0.144 0.072c0.096 0.049 0.193 0.098 0.291 0.148 0.097 0.052 0.193 0.109 0.29 0.164 0.049 0.028 0.098 0.056 0.147 0.084s0.096 0.061 0.145 0.091c0.096 0.061 0.193 0.123 0.291 0.186 0.382 0.263 0.759 0.554 1.116 0.875 0.354 0.325 0.689 0.676 0.997 1.045 0.303 0.374 0.578 0.766 0.821 1.164 0.239 0.401 0.442 0.811 0.615 1.213 0.040 0.102 0.079 0.203 0.118 0.303 0.019 0.050 0.040 0.099 0.057 0.149s0.033 0.1 0.050 0.15 0.068 0.197 0.097 0.294c0.028 0.098 0.055 0.195 0.081 0.29 0.013 0.048 0.028 0.094 0.039 0.142s0.021 0.095 0.032 0.142 0.042 0.185 0.063 0.275c0.016 0.091 0.032 0.181 0.047 0.269 0.008 0.044 0.015 0.087 0.023 0.13 0.004 0.021 0.008 0.043 0.011 0.064 0.003 0.021 0.005 0.043 0.008 0.064 0.010 0.085 0.021 0.168 0.031 0.249 0.005 0.040 0.010 0.080 0.015 0.12s0.006 0.079 0.010 0.117 0.011 0.152 0.016 0.225c0.005 0.073 0.012 0.143 0.012 0.212 0.003 0.137 0.006 0.265 0.009 0.384-0.004 0.109-0.008 0.21-0.011 0.3-0.001 0.045-0.003 0.087-0.004 0.127-0.003 0.050-0.006 0.096-0.009 0.14-0.003 0.050-0.006 0.095-0.009 0.136-0.012 0.076-0.018 0.154-0.018 0.234 0 0.011 0.001 0.022 0.001 0.033-0 0.003-0 0.005-0 0.005h0.001c0.018 0.721 0.545 1.316 1.235 1.438-0.002 0.007-0.003 0.014-0.005 0.021-0.015 0.076-0.038 0.153-0.060 0.233s-0.044 0.161-0.068 0.245c-0.012 0.042-0.022 0.084-0.036 0.127s-0.028 0.085-0.042 0.128-0.058 0.175-0.088 0.265c-0.007 0.022-0.015 0.045-0.022 0.068-0.009 0.022-0.017 0.045-0.026 0.067-0.017 0.045-0.035 0.091-0.053 0.137-0.036 0.091-0.072 0.185-0.109 0.28-0.041 0.093-0.084 0.187-0.126 0.283-0.021 0.048-0.043 0.096-0.064 0.144s-0.048 0.095-0.072 0.144c-0.049 0.096-0.098 0.193-0.148 0.291-0.052 0.097-0.109 0.193-0.164 0.29-0.028 0.049-0.056 0.098-0.084 0.147s-0.061 0.096-0.091 0.145c-0.061 0.096-0.123 0.193-0.186 0.291-0.263 0.382-0.554 0.759-0.875 1.117-0.325 0.354-0.676 0.689-1.045 0.997-0.374 0.303-0.766 0.578-1.164 0.821-0.401 0.239-0.811 0.442-1.213 0.615-0.102 0.040-0.203 0.079-0.303 0.118-0.050 0.019-0.099 0.040-0.149 0.057s-0.1 0.033-0.15 0.050-0.196 0.068-0.294 0.097c-0.098 0.028-0.195 0.055-0.29 0.081-0.048 0.013-0.094 0.028-0.142 0.039s-0.095 0.021-0.142 0.032-0.185 0.042-0.275 0.063c-0.091 0.016-0.181 0.032-0.269 0.047-0.044 0.008-0.087 0.015-0.13 0.023-0.021 0.004-0.043 0.008-0.064 0.011-0.021 0.003-0.043 0.005-0.064 0.008-0.085 0.010-0.168 0.021-0.249 0.031-0.040 0.005-0.080 0.010-0.12 0.015s-0.079 0.006-0.117 0.010-0.152 0.011-0.225 0.016c-0.073 0.005-0.143 0.012-0.212 0.012-0.137 0.003-0.265 0.006-0.384 0.009-0.109-0.004-0.21-0.008-0.3-0.011-0.045-0.001-0.087-0.003-0.127-0.004-0.050-0.003-0.096-0.006-0.14-0.009-0.050-0.003-0.095-0.006-0.136-0.009-0.076-0.012-0.154-0.018-0.234-0.018-0.011 0-0.022 0.001-0.033 0.001-0.003-0-0.005-0-0.005-0v0c-0.727 0.018-1.325 0.553-1.441 1.251-0.075-0.015-0.151-0.038-0.229-0.059s-0.161-0.044-0.245-0.067c-0.042-0.012-0.084-0.022-0.127-0.036s-0.085-0.028-0.128-0.042-0.175-0.058-0.265-0.088c-0.022-0.007-0.045-0.015-0.068-0.022-0.022-0.009-0.045-0.017-0.067-0.026-0.045-0.017-0.091-0.035-0.137-0.053-0.091-0.036-0.185-0.072-0.28-0.109-0.093-0.041-0.187-0.084-0.283-0.126-0.048-0.021-0.096-0.043-0.144-0.064s-0.095-0.048-0.144-0.072c-0.096-0.049-0.193-0.098-0.291-0.148-0.097-0.052-0.193-0.109-0.29-0.164-0.049-0.028-0.098-0.056-0.147-0.084s-0.096-0.061-0.145-0.091c-0.096-0.061-0.193-0.123-0.291-0.186-0.382-0.263-0.759-0.554-1.116-0.875-0.354-0.325-0.689-0.676-0.997-1.045-0.303-0.374-0.578-0.766-0.821-1.164-0.239-0.401-0.442-0.811-0.615-1.213-0.040-0.102-0.079-0.203-0.118-0.303-0.019-0.050-0.040-0.099-0.057-0.149s-0.033-0.1-0.050-0.15-0.068-0.196-0.097-0.294c-0.028-0.098-0.055-0.195-0.081-0.29-0.013-0.048-0.028-0.094-0.039-0.142s-0.021-0.095-0.032-0.142-0.042-0.185-0.063-0.275c-0.016-0.091-0.032-0.181-0.047-0.269-0.008-0.044-0.015-0.087-0.023-0.13-0.004-0.021-0.008-0.043-0.011-0.064-0.003-0.021-0.005-0.043-0.008-0.064-0.010-0.085-0.021-0.168-0.031-0.248-0.005-0.040-0.010-0.080-0.015-0.12s-0.006-0.079-0.010-0.117-0.011-0.152-0.016-0.225c-0.005-0.073-0.012-0.143-0.012-0.212-0.003-0.137-0.006-0.265-0.009-0.384 0.004-0.109 0.008-0.21 0.011-0.3 0.001-0.045 0.003-0.087 0.004-0.127 0.003-0.050 0.006-0.096 0.009-0.14 0.003-0.050 0.006-0.095 0.009-0.136 0.012-0.076 0.018-0.155 0.018-0.234 0-0.011-0.001-0.022-0.001-0.033 0-0.003 0-0.005 0-0.005h-0.001c-0.018-0.735-0.566-1.34-1.276-1.445z"></path>
</svg>
<svg id="icon-shield" width="24" height="24" viewBox="0 0 24 24" x="162" y="0">
<path fill="#101010" d="M22.5 0l-10.5 3-10.5-3c0 0-0.105 1.212 0 3l10.5 3.283 10.5-3.283c0.105-1.788 0-3 0-3zM1.692 4.573c0.562 5.876 2.66 15.755 10.308 19.427 7.648-3.672 9.746-13.552 10.308-19.427l-10.308 3.876-10.308-3.876z"></path>
</svg>
<svg id="icon-power" width="24" height="24" viewBox="0 0 24 24" x="216" y="0">
<path fill="#101010" d="M9 0l-9 12h9l-6 12 21-15h-12l9-9z"></path>
</svg>
<svg id="icon-books" width="27" height="24" viewBox="0 0 27 24" x="270" y="0">
<path fill="#101010" d="M5.25 3h-4.5c-0.413 0-0.75 0.338-0.75 0.75v16.5c0 0.413 0.338 0.75 0.75 0.75h4.5c0.412 0 0.75-0.337 0.75-0.75v-16.5c0-0.412-0.338-0.75-0.75-0.75zM4.5 7.5h-3v-1.5h3v1.5z"></path>
<path fill="#101010" d="M12.75 3h-4.5c-0.413 0-0.75 0.338-0.75 0.75v16.5c0 0.413 0.337 0.75 0.75 0.75h4.5c0.413 0 0.75-0.337 0.75-0.75v-16.5c0-0.412-0.337-0.75-0.75-0.75zM12 7.5h-3v-1.5h3v1.5z"></path>
<path fill="#101010" d="M17.932 4.16l-4.019 2.025c-0.368 0.186-0.518 0.639-0.332 1.007l6.749 13.396c0.186 0.368 0.639 0.518 1.007 0.332l4.019-2.025c0.368-0.186 0.518-0.639 0.332-1.007l-6.749-13.396c-0.186-0.368-0.639-0.518-1.007-0.332z"></path>
<path fill="#101010" d="M21.75 20.25c0 0.414-0.336 0.75-0.75 0.75s-0.75-0.336-0.75-0.75c0-0.414 0.336-0.75 0.75-0.75s0.75 0.336 0.75 0.75z"></path>
</svg>
</svg>
