<svg width="440" height="340" viewBox="0 0 440 340" fill="none" xmlns="http://www.w3.org/2000/svg">
<rect width="440" height="340" rx="10" fill="#0029FF"/>
<path d="M366.86 165.471C368.739 165.104 370.066 164.724 370.842 164.329C371.618 163.934 372.061 163.39 372.17 162.699C372.337 161.996 372.272 160.881 371.975 159.355L363.715 116.999C363.418 115.472 363.059 114.415 362.64 113.826C362.267 113.168 361.647 112.801 360.78 112.726C359.912 112.652 358.539 112.798 356.66 113.164L356.094 110.258L403.557 101.003L406.253 114.828L402.643 115.532C401.296 112.687 399.951 110.633 398.608 109.372C397.312 108.04 395.791 107.27 394.044 107.063C392.356 106.843 390.103 107.008 387.285 107.558L381.209 108.743C380.035 108.972 379.23 109.372 378.793 109.945C378.403 110.448 378.317 111.257 378.535 112.372L382.347 131.921L392.826 129.878C394.411 129.569 395.574 129.128 396.316 128.557C397.046 127.927 397.508 127.015 397.702 125.819C397.895 124.623 397.915 122.852 397.763 120.506L400.668 119.939L404.601 140.104L401.695 140.671C401.002 138.368 400.312 136.705 399.625 135.682C398.985 134.588 398.214 133.915 397.312 133.665C396.41 133.414 395.167 133.443 393.582 133.752L383.103 135.796L386.88 155.168C387.235 156.988 387.634 158.251 388.076 158.957C388.566 159.593 389.426 159.943 390.658 160.008C391.948 160.061 394.031 159.807 396.908 159.246C399.96 158.651 402.422 157.836 404.292 156.801C406.22 155.754 407.688 154.219 408.695 152.194C409.702 150.17 410.213 147.48 410.229 144.125L413.84 143.421L415.771 158.95L367.427 168.377L366.86 165.471Z" fill="white"/>
<path d="M381.729 272.161L385.282 271.209C386.201 273.254 387.677 275.18 389.71 276.989C391.8 278.782 394.202 280.12 396.916 281.002C399.671 281.812 402.436 281.845 405.209 281.102C408.213 280.297 410.596 278.792 412.358 276.586C414.12 274.38 414.568 271.659 413.701 268.424C413.051 265.998 411.744 264.242 409.782 263.158C407.877 262.059 405.189 261.386 401.718 261.139L394.984 260.622C389.493 260.235 385.171 259.009 382.017 256.944C378.921 254.864 376.777 251.599 375.585 247.15C374.609 243.511 374.603 240.138 375.567 237.031C376.515 233.867 378.268 231.168 380.828 228.934C383.445 226.685 386.689 225.041 390.56 224.004C392.928 223.369 395.602 223.179 398.581 223.434C398.827 223.43 399.393 223.464 400.28 223.536C401.208 223.535 402.077 223.426 402.886 223.209C403.695 222.992 404.205 222.701 404.416 222.335C404.685 221.953 404.837 221.479 404.871 220.912L407.731 220.146L412.568 234.733L409.015 235.685C407.08 231.931 404.467 229.225 401.175 227.569C397.867 225.854 394.422 225.477 390.84 226.437C387.836 227.242 385.539 228.724 383.951 230.884C382.362 233.043 381.908 235.394 382.59 237.936C383.085 239.785 384.052 241.197 385.49 242.174C386.971 243.078 388.358 243.635 389.653 243.845C391.006 244.04 392.917 244.24 395.387 244.445L403.842 245.152C413.418 245.992 419.281 250.427 421.433 258.457C422.578 262.733 422.564 266.607 421.389 270.079C420.199 273.494 418.237 276.342 415.504 278.622C412.756 280.845 409.678 282.413 406.269 283.326C403.496 284.069 400.106 284.358 396.099 284.194C395.794 284.213 395.178 284.224 394.25 284.225C393.306 284.168 392.545 284.217 391.967 284.372C390.696 284.712 389.969 285.465 389.785 286.628L386.925 287.395L381.729 272.161Z" fill="white"/>
<path d="M298.166 257.027C299.977 256.407 301.24 255.848 301.954 255.35C302.669 254.853 303.033 254.254 303.046 253.554C303.116 252.835 302.899 251.739 302.395 250.268L288.411 209.443C287.907 207.972 287.407 206.973 286.91 206.448C286.452 205.846 285.787 205.568 284.917 205.613C284.048 205.658 282.708 205.991 280.897 206.611L279.938 203.81L325.686 188.14L330.25 201.465L326.77 202.657C325.046 200.023 323.432 198.174 321.929 197.108C320.464 195.966 318.851 195.412 317.092 195.445C315.39 195.46 313.181 195.932 310.465 196.862L304.609 198.868C303.477 199.256 302.734 199.763 302.38 200.39C302.063 200.941 302.088 201.755 302.457 202.83L308.911 221.672L319.011 218.212C320.539 217.689 321.631 217.094 322.288 216.426C322.925 215.702 323.257 214.735 323.285 213.524C323.313 212.313 323.09 210.556 322.617 208.252L325.418 207.293L332.076 226.729L329.275 227.689C328.273 225.503 327.362 223.95 326.541 223.03C325.757 222.034 324.902 221.474 323.974 221.349C323.046 221.224 321.818 221.424 320.29 221.947L310.19 225.407L316.586 244.079C317.187 245.833 317.755 247.03 318.29 247.668C318.862 248.231 319.762 248.46 320.991 248.355C322.276 248.231 324.305 247.694 327.078 246.745C330.02 245.737 332.346 244.592 334.057 243.311C335.824 242.01 337.068 240.288 337.788 238.145C338.508 236.001 338.646 233.267 338.202 229.942L341.682 228.75L345.723 243.867L299.126 259.828L298.166 257.027Z" fill="white"/>
<path d="M203.724 169.398L206.91 171.238C206.114 173.334 205.795 175.74 205.954 178.456C206.164 181.201 206.917 183.846 208.211 186.389C209.587 188.91 211.518 190.888 214.005 192.324C216.698 193.879 219.448 194.499 222.253 194.185C225.059 193.872 227.299 192.264 228.974 189.364C230.23 187.188 230.548 185.023 229.927 182.869C229.357 180.745 227.932 178.368 225.652 175.739L221.257 170.612C217.647 166.456 215.458 162.533 214.688 158.842C213.97 155.182 214.762 151.357 217.065 147.369C218.949 144.105 221.33 141.716 224.208 140.2C227.115 138.633 230.264 137.965 233.653 138.195C237.094 138.455 240.55 139.587 244.021 141.591C246.144 142.817 248.169 144.573 250.095 146.859C250.273 147.03 250.649 147.455 251.225 148.133C251.882 148.788 252.573 149.326 253.299 149.744C254.024 150.163 254.591 150.318 254.999 150.208C255.459 150.129 255.902 149.901 256.326 149.524L258.89 151.004L251.997 164.739L248.811 162.9C250.098 158.877 250.162 155.116 249.006 151.617C247.879 148.066 245.71 145.363 242.499 143.509C239.805 141.954 237.133 141.378 234.483 141.782C231.833 142.186 229.85 143.527 228.534 145.806C227.577 147.464 227.261 149.146 227.588 150.854C227.996 152.54 228.583 153.915 229.35 154.979C230.168 156.073 231.378 157.566 232.98 159.458L238.459 165.937C244.636 173.301 245.646 180.583 241.489 187.783C239.276 191.616 236.526 194.345 233.24 195.97C229.984 197.543 226.583 198.17 223.038 197.85C219.524 197.478 216.238 196.41 213.182 194.646C210.696 193.21 208.094 191.018 205.377 188.068C205.148 187.866 204.705 187.438 204.047 186.782C203.42 186.074 202.847 185.571 202.329 185.272C201.19 184.614 200.144 184.632 199.191 185.325L196.627 183.845L203.724 169.398Z" fill="white"/>
<path d="M272.765 70.1089L272.678 70.0857L262.345 108.649C261.896 110.325 261.868 111.587 262.26 112.435C262.725 113.24 263.795 113.868 265.471 114.317L267.811 114.944L267.044 117.803L250.752 113.438L251.519 110.578L253.512 111.112C254.898 111.484 256.002 111.408 256.823 110.885C257.718 110.32 258.374 109.257 258.792 107.697L270.054 65.6673C270.457 64.1652 270.599 63.0577 270.48 62.3448C270.419 61.6473 269.986 61.067 269.182 60.6037C268.435 60.1559 267.116 59.6476 265.225 59.079L265.991 56.2192L286.443 61.6993L301.614 109.419L301.874 109.488L310.907 75.7777C311.65 73.0046 310.548 71.2233 307.602 70.4338L305.175 69.7837L305.941 66.9239L321.973 71.2197L321.207 74.0794L319.561 73.6383C316.903 72.9262 315.203 73.9567 314.46 76.7298L300.853 127.513L290.8 124.819L272.765 70.1089Z" fill="white"/>
<path d="M122.881 217.252L122.796 217.279L134.885 255.329C135.41 256.982 136.067 258.06 136.854 258.563C137.68 258.991 138.92 258.942 140.573 258.417L142.882 257.683L143.778 260.505L127.703 265.612L126.807 262.791L128.773 262.166C130.141 261.731 131.03 261.072 131.44 260.189C131.889 259.23 131.868 257.982 131.379 256.443L118.203 214.973C117.732 213.491 117.255 212.481 116.771 211.945C116.343 211.39 115.666 211.135 114.739 211.179C113.868 211.204 112.483 211.487 110.584 212.028L109.688 209.206L129.867 202.795L168.372 234.805L168.629 234.723L158.061 201.462C157.191 198.726 155.303 197.819 152.396 198.743L150.002 199.504L149.105 196.682L164.924 191.656L165.82 194.478L164.196 194.994C161.573 195.827 160.697 197.612 161.566 200.348L177.486 250.454L167.568 253.605L122.881 217.252Z" fill="white"/>
<path d="M134.652 142.435C125.235 139.911 118.637 135.419 114.857 128.957C111.135 122.511 110.551 114.521 113.106 104.989C115.66 95.456 120.16 88.8288 126.607 85.107C133.111 81.4007 141.071 80.8092 150.488 83.3325C159.905 85.8558 166.475 90.3406 170.197 96.7869C173.976 103.249 174.589 111.246 172.034 120.778C169.48 130.311 164.951 136.931 158.447 140.637C152.001 144.359 144.069 144.958 134.652 142.435ZM135.418 139.575C140.502 140.937 144.628 139.751 147.796 136.018C151.037 132.242 153.888 125.762 156.349 116.576C158.748 107.621 159.41 100.646 158.333 95.6515C157.33 90.6147 154.459 87.4616 149.722 86.1922C144.638 84.83 140.475 86.0367 137.235 89.8124C134.067 93.5458 131.253 100.006 128.791 109.191C126.33 118.377 125.53 125.408 126.391 130.283C127.325 135.115 130.334 138.213 135.418 139.575Z" fill="white"/>
<path d="M31.4594 165.485H31.3696V205.332C31.3696 207.063 31.6689 208.287 32.2675 209.004C32.926 209.66 34.1233 209.989 35.8594 209.989H38.2838V212.943H21.4023V209.989H23.4676C24.9043 209.989 25.9519 209.63 26.6104 208.914C27.3288 208.138 27.688 206.944 27.688 205.332V161.903C27.688 160.351 27.5383 159.246 27.239 158.59C26.9995 157.933 26.4308 157.485 25.5329 157.246C24.6948 157.008 23.288 156.858 21.3125 156.799V153.844H42.5042L69.5326 195.93H69.802V161.097C69.802 158.231 68.2755 156.799 65.2224 156.799H62.7082V153.844H79.3203V156.799H77.6142C74.8605 156.799 73.4836 158.231 73.4836 161.097V213.57H63.0673L31.4594 165.485Z" fill="white"/>
<path d="M331.742 313.098C333.004 309.47 334.248 305.211 336.859 301.965C338.042 300.494 343.073 306.395 343.731 306.921C346.434 309.08 350.808 312.473 354.529 308.139C356.829 305.459 357.2 301.466 357.955 298.426" stroke="#B4E4FF" stroke-width="8" stroke-linecap="round" stroke-linejoin="round"/>
<rect x="14.7812" y="40.0354" width="25.6334" height="48.0627" rx="12.8167" transform="rotate(-30 14.7812 40.0354)" fill="#FFB186"/>
<rect x="71.8041" y="257.719" width="24.0625" height="61.875" rx="12.0312" transform="rotate(60 71.8041 257.719)" fill="#FFCC00"/>
<rect x="199.719" y="39.2854" width="25.6334" height="25.6334" rx="12.8167" transform="rotate(-30 199.719 39.2854)" fill="#FF8D86"/>
<rect x="212.125" y="275.004" width="25.6334" height="51.2669" rx="12.8167" transform="rotate(-30 212.125 275.004)" fill="#FFF386"/>
<path d="M353.991 32.9989L386.934 43.7109L361.186 66.8845L353.991 32.9989Z" fill="#FBCBFF"/>
</svg>
