<?xml version="1.0" encoding="iso-8859-1"?>
<!-- Generator: Adobe Illustrator 19.0.0, SVG Export Plug-In . SVG Version: 6.00 Build 0)  -->
<svg version="1.1" id="Capa_1" xmlns="http://www.w3.org/2000/svg" xmlns:xlink="http://www.w3.org/1999/xlink" x="0px" y="0px"
	 viewBox="0 0 469.999 469.999" style="enable-background:new 0 0 469.999 469.999;" xml:space="preserve">
<g>
	<path style="fill:#98D9D5;" d="M234.886,163.812l149.391,0l-177.825-34.415l-37.254,34.416h34.953c4.141,0,7.499,3.356,7.5,7.498
		h15.735C227.387,167.168,230.744,163.812,234.886,163.812z"/>
	<path style="fill:#C1E8E6;" d="M384.276,178.811l-149.39,0c-4.142,0-7.5-3.357-7.5-7.5c0-0.002-15.735-0.002-15.735-0.002
		c0,4.145-3.358,7.502-7.5,7.502h-34.953l37.254,34.416L384.276,178.811z"/>
	<polygon style="fill:#FFFFFF;" points="210.096,227.8 185.548,313.66 416.441,187.864 	"/>
	<polygon style="fill:#FFFFFF;" points="416.442,154.758 185.548,28.962 210.096,114.823 	"/>
	<path style="fill:#082947;" d="M469.935,172.273c0.008-0.06,0.018-0.119,0.024-0.179c0.002-0.022,0.003-0.046,0.005-0.069
		c0.009-0.097,0.011-0.193,0.017-0.291c0.007-0.131,0.018-0.263,0.018-0.395c0-0.19-0.011-0.321-0.018-0.453
		c-0.006-0.097-0.007-0.193-0.017-0.291c-0.002-0.023-0.003-0.046-0.005-0.069c-0.006-0.06-0.016-0.119-0.024-0.179
		c-0.008-0.058-0.019-0.114-0.028-0.171c-0.006-0.042-0.013-0.083-0.02-0.124c-0.01-0.056-0.013-0.111-0.024-0.167
		c-0.011-0.051-0.015-0.078-0.02-0.103c-0.025-0.119-0.06-0.235-0.09-0.352c-0.016-0.063-0.031-0.127-0.049-0.19
		c-0.011-0.038-0.018-0.077-0.03-0.114c-0.007-0.021-0.012-0.043-0.019-0.065c-0.018-0.058-0.043-0.114-0.063-0.171
		c-0.033-0.097-0.069-0.193-0.106-0.289c-0.024-0.061-0.043-0.125-0.068-0.186c-0.054-0.128-0.117-0.25-0.178-0.375
		c-0.048-0.099-0.091-0.202-0.143-0.298c-0.031-0.056-0.067-0.109-0.099-0.165c-0.042-0.073-0.079-0.132-0.115-0.191
		c-0.135-0.219-0.28-0.43-0.435-0.633c-0.032-0.042-0.061-0.084-0.093-0.125c-0.174-0.217-0.357-0.426-0.553-0.622
		c-0.018-0.018-0.039-0.035-0.057-0.053c-0.039-0.038-0.082-0.073-0.122-0.111c-0.185-0.174-0.38-0.338-0.583-0.493
		c-0.059-0.045-0.118-0.089-0.178-0.133c-0.182-0.13-0.371-0.252-0.565-0.367c-0.078-0.046-0.153-0.097-0.232-0.14
		C466.024,164.69,177.004,7.226,177.004,7.226c-2.654-1.446-5.917-1.156-8.276,0.731c-2.359,1.89-3.354,5.01-2.523,7.916
		l29.466,103.062l-50.733,46.868c-0.033,0.03-0.061,0.065-0.093,0.096c-0.106,0.102-0.208,0.208-0.308,0.316
		c-0.07,0.076-0.141,0.15-0.208,0.229c-0.1,0.117-0.193,0.238-0.285,0.361c-0.057,0.076-0.116,0.149-0.169,0.227
		c-0.097,0.14-0.186,0.285-0.274,0.432c-0.039,0.066-0.082,0.129-0.119,0.196c-0.096,0.172-0.182,0.35-0.265,0.53
		c-0.021,0.046-0.046,0.09-0.066,0.137c-0.091,0.21-0.172,0.425-0.244,0.645c-0.007,0.02-0.015,0.039-0.022,0.059
		c-0.077,0.24-0.142,0.485-0.194,0.734c-0.053,0.253-0.094,0.506-0.12,0.763c-0.027,0.261-0.041,0.521-0.041,0.784
		s0.014,0.523,0.041,0.779c0.028,0.263,0.068,0.516,0.12,0.765c0.053,0.252,0.119,0.498,0.195,0.738
		c0.006,0.02,0.015,0.04,0.022,0.06c0.072,0.219,0.152,0.435,0.243,0.644c0.02,0.047,0.045,0.092,0.067,0.138
		c0.083,0.18,0.169,0.357,0.265,0.529c0.037,0.067,0.08,0.13,0.119,0.196c0.088,0.147,0.177,0.292,0.275,0.432
		c0.054,0.077,0.112,0.15,0.169,0.226c0.093,0.123,0.186,0.245,0.286,0.362c0.067,0.079,0.138,0.153,0.208,0.229
		c0.1,0.108,0.202,0.214,0.308,0.316c0.032,0.031,0.06,0.065,0.093,0.096l50.733,46.868L166.205,326.75
		c-0.831,2.906,0.164,6.026,2.523,7.916c1.359,1.089,3.019,1.646,4.689,1.646c1.229,0,2.462-0.301,3.587-0.914l289.018-157.465
		c0.073-0.039,0.101-0.058,0.13-0.074c0.09-0.05,0.176-0.106,0.264-0.16c0.105-0.064,0.212-0.126,0.313-0.195
		c0.048-0.033,0.093-0.07,0.141-0.104c0.058-0.042,0.114-0.084,0.17-0.127c0.137-0.104,0.27-0.213,0.399-0.326
		c0.09-0.079,0.182-0.156,0.268-0.239c0.025-0.023,0.037-0.038,0.05-0.051c0.059-0.058,0.113-0.119,0.17-0.179
		c0.104-0.109,0.207-0.22,0.305-0.335c0.017-0.02,0.036-0.038,0.052-0.058c0.021-0.026,0.039-0.054,0.06-0.08
		c0.03-0.037,0.058-0.074,0.087-0.112c0.076-0.098,0.149-0.197,0.22-0.298c0.049-0.07,0.096-0.142,0.143-0.214
		c0.05-0.077,0.102-0.153,0.149-0.232c0.037-0.065,0.054-0.1,0.073-0.133c0.046-0.082,0.092-0.163,0.135-0.247
		c0.061-0.117,0.118-0.237,0.173-0.358c0.043-0.095,0.087-0.19,0.126-0.287c0.045-0.111,0.084-0.225,0.124-0.338
		c0.006-0.017,0.012-0.032,0.018-0.049c0.02-0.059,0.046-0.116,0.064-0.176c0.011-0.036,0.019-0.073,0.03-0.109
		c0.01-0.035,0.021-0.071,0.031-0.106c0.012-0.043,0.02-0.088,0.032-0.132c0.005-0.018,0.009-0.037,0.013-0.055
		c0.027-0.106,0.059-0.211,0.082-0.319c0.005-0.025,0.008-0.05,0.013-0.075c0.018-0.084,0.021-0.14,0.03-0.195
		c0.007-0.042,0.014-0.083,0.02-0.124C469.916,172.387,469.927,172.33,469.935,172.273z M204.151,178.812c4.142,0,7.5-3.357,7.5-7.5
		c-0.001-4.144-3.359-7.5-7.5-7.5h-34.953l37.254-34.416l177.825,34.415l-149.391,0c-4.141,0-7.499,3.356-7.5,7.498
		c0,4.145,3.358,7.502,7.5,7.502l149.39,0l-177.824,34.416l-37.254-34.416H204.151z M416.442,154.758l-206.345-39.935
		l-24.548-85.861L416.442,154.758z M210.096,227.8l206.345-39.936L185.548,313.66L210.096,227.8z"/>
	<path style="fill:#6DA8D6;" d="M21.888,362.792c-1.543-4.491-2.847-9.124-3.875-13.77c-0.896-4.045-4.908-6.596-8.943-5.702
		c-4.044,0.896-6.597,4.899-5.702,8.944c1.15,5.195,2.609,10.378,4.335,15.402c1.069,3.11,3.978,5.064,7.092,5.064
		c0.808,0,1.631-0.132,2.438-0.409C21.15,370.977,23.234,366.709,21.888,362.792z"/>
	<path style="fill:#6DA8D6;" d="M7.501,328.056c4.124,0,7.478-3.333,7.499-7.462c0.024-4.805,0.289-9.644,0.788-14.383
		c0.433-4.12-2.555-7.811-6.674-8.244c-4.111-0.44-7.81,2.555-8.244,6.674c-0.551,5.234-0.843,10.576-0.87,15.877
		C-0.02,324.66,3.32,328.035,7.501,328.056z"/>
	<path style="fill:#6DA8D6;" d="M12.252,282.935c0.756,0.24,1.521,0.354,2.274,0.354c3.179,0,6.131-2.038,7.146-5.229
		c1.453-4.569,3.153-9.104,5.054-13.478c1.65-3.8-0.091-8.218-3.89-9.868c-3.798-1.649-8.217,0.092-9.868,3.89
		c-2.103,4.841-3.984,9.857-5.591,14.911C6.122,277.462,8.305,281.68,12.252,282.935z"/>
	<path style="fill:#6DA8D6;" d="M48.868,217.554c-3.135-2.709-7.872-2.36-10.578,0.773c-3.457,4.002-6.748,8.224-9.782,12.548
		c-2.379,3.391-1.56,8.067,1.831,10.447c1.311,0.919,2.813,1.361,4.302,1.361c2.361,0,4.686-1.113,6.146-3.193
		c2.747-3.914,5.726-7.735,8.855-11.358C52.349,224.997,52.003,220.261,48.868,217.554z"/>
	<path style="fill:#6DA8D6;" d="M74.427,187.407c-4.483,2.791-8.878,5.845-13.063,9.077c-3.278,2.531-3.883,7.241-1.352,10.52
		c1.478,1.914,3.697,2.916,5.941,2.916c1.601,0,3.214-0.51,4.579-1.564c3.787-2.925,7.765-5.688,11.822-8.214
		c3.516-2.189,4.592-6.814,2.403-10.331C82.568,186.294,77.943,185.218,74.427,187.407z"/>
	<path style="fill:#6DA8D6;" d="M113.504,445.602c-4.626-1.079-9.247-2.437-13.732-4.035c-3.903-1.387-8.192,0.646-9.582,4.549
		c-1.39,3.901,0.646,8.191,4.548,9.582c5.017,1.787,10.185,3.305,15.359,4.512c0.573,0.134,1.146,0.198,1.71,0.198
		c3.407,0,6.49-2.338,7.298-5.799C120.045,450.575,117.537,446.542,113.504,445.602z"/>
	<path style="fill:#6DA8D6;" d="M74.104,429.004c-4.014-2.561-7.924-5.374-11.622-8.361c-3.222-2.605-7.943-2.104-10.547,1.119
		c-2.604,3.222-2.102,7.943,1.12,10.547c4.131,3.339,8.499,6.481,12.983,9.342c1.25,0.797,2.646,1.178,4.026,1.178
		c2.476,0,4.9-1.226,6.33-3.468C78.621,435.868,77.596,431.232,74.104,429.004z"/>
	<path style="fill:#6DA8D6;" d="M34.155,388.599c-2.186-3.517-6.81-4.598-10.329-2.409c-3.518,2.187-4.596,6.812-2.409,10.329
		c2.804,4.51,5.895,8.912,9.189,13.085c1.48,1.876,3.675,2.854,5.892,2.854c1.627,0,3.266-0.526,4.642-1.613
		c3.251-2.566,3.807-7.282,1.24-10.533C39.432,396.575,36.665,392.635,34.155,388.599z"/>
	<path style="fill:#6DA8D6;" d="M156.064,447.893c-4.43,0.526-8.952,0.794-13.44,0.794c-4.142,0-7.5,3.357-7.5,7.5
		s3.358,7.5,7.5,7.5c5.078,0,10.196-0.303,15.212-0.899c4.113-0.489,7.051-4.22,6.562-8.333
		C163.908,450.341,160.18,447.403,156.064,447.893z"/>
	<path style="fill:#6DA8D6;" d="M196.34,435.042c-4.137,2.256-8.458,4.269-12.842,5.982c-3.858,1.508-5.763,5.858-4.255,9.716
		c1.158,2.961,3.989,4.771,6.987,4.771c0.908,0,1.832-0.166,2.729-0.517c4.972-1.943,9.871-4.226,14.562-6.783
		c3.637-1.983,4.978-6.538,2.995-10.175S199.978,433.06,196.34,435.042z"/>
	<path style="fill:#6DA8D6;" d="M239.781,407.363c-3.183-2.649-7.911-2.22-10.563,0.964c-3.025,3.633-6.31,7.108-9.764,10.333
		c-3.028,2.826-3.191,7.572-0.365,10.601c1.477,1.582,3.478,2.382,5.484,2.382c1.833,0,3.67-0.668,5.116-2.018
		c3.911-3.65,7.63-7.586,11.055-11.698C243.396,414.743,242.964,410.015,239.781,407.363z"/>
	<path style="fill:#6DA8D6;" d="M259.19,366.413c-3.937-1.286-8.17,0.87-9.454,4.808c-1.462,4.49-3.229,8.932-5.25,13.202
		c-1.772,3.744-0.174,8.216,3.57,9.988c1.036,0.49,2.128,0.723,3.204,0.723c2.809,0,5.502-1.586,6.784-4.293
		c2.293-4.844,4.296-9.882,5.955-14.974C265.281,371.929,263.129,367.695,259.19,366.413z"/>
	<path style="fill:#6DA8D6;" d="M118.151,168.671c-5.116,1.318-10.227,2.918-15.191,4.754c-3.885,1.437-5.87,5.75-4.434,9.635
		c1.12,3.028,3.986,4.901,7.036,4.901c0.864,0,1.743-0.15,2.6-0.468c4.488-1.659,9.109-3.105,13.733-4.297
		c4.011-1.034,6.424-5.124,5.391-9.135C126.252,170.051,122.165,167.634,118.151,168.671z"/>
</g>
<g>
</g>
<g>
</g>
<g>
</g>
<g>
</g>
<g>
</g>
<g>
</g>
<g>
</g>
<g>
</g>
<g>
</g>
<g>
</g>
<g>
</g>
<g>
</g>
<g>
</g>
<g>
</g>
<g>
</g>
</svg>
