<?xml version="1.0" standalone="no"?>
<!DOCTYPE svg PUBLIC "-//W3C//DTD SVG 20010904//EN"
 "http://www.w3.org/TR/2001/REC-SVG-20010904/DTD/svg10.dtd">
<svg version="1.0" xmlns="http://www.w3.org/2000/svg"
 width="700.000000pt" height="700.000000pt" viewBox="0 0 700.000000 700.000000"
 preserveAspectRatio="xMidYMid meet">
<metadata>
Created by potrace 1.11, written by Peter Selinger 2001-2013
</metadata>
<g transform="translate(0.000000,700.000000) scale(0.100000,-0.100000)"
fill="#000000" stroke="none">
<path d="M1960 3495 l0 -1876 993 4 c1048 3 1054 4 1257 51 346 81 586 251
715 506 89 175 128 415 106 655 -15 170 -39 266 -100 390 -72 146 -170 247
-323 334 -32 18 -58 38 -58 45 0 7 26 31 58 54 149 104 268 270 322 447 67
222 47 536 -49 741 -109 234 -329 391 -656 470 -214 51 -283 54 -1312 54
l-953 0 0 -1875z m2130 810 c0 -3 -122 -186 -271 -408 l-270 -402 270 -5 271
-5 -680 -680 c-375 -374 -677 -669 -672 -655 6 14 98 229 205 478 l195 452
-204 0 c-112 0 -204 3 -204 7 0 5 377 1133 405 1211 3 9 108 12 480 12 261 0
475 -2 475 -5z"/>
</g>
</svg>
