<svg viewBox="0 0 250 150" xmlns="http://www.w3.org/2000/svg" fill-rule="evenodd" clip-rule="evenodd" stroke-linejoin="round" stroke-miterlimit="1.414"><path d="M39.73 6.049c2.621 0 5.413.796 8.371 2.391 1.407.566 2.675 1.489 3.806 2.768 1.449 1.49 2.404 2.76 2.864 3.807h.25c11.456-3.502 18.065-5.254 19.825-5.254a46.19 46.19 0 0 1 5.603-.598c3.272 0 6.262.439 8.966 1.32v.127c0 .106-.168.221-.503.345l-4.532-.722c-6.818 0-14.455 2.108-22.909 6.325l-5.004 2.264v.251c.776 2.81 1.165 5.32 1.165 7.522 0 2.728-.586 5.517-1.763 8.37-.147 0-.345.515-.598 1.543l-2.863 5.476c-1.219 2.12-3.536 5.024-6.954 8.716 1.574 1.26 2.81 3.494 3.712 6.703 2.077.106 6.22 1.457 12.43 4.06.628.462.943.734.943.817 0 .126-.115.25-.345.377-3.4-1.51-6.66-2.264-9.786-2.264-1.448.083-2.412.126-2.896.126l-.095.22v.473c0 1.469-.2 3.02-.597 4.656 5.2-.23 7.94-.345 8.211-.345 3.504.021 8.884.86 16.144 2.518 4.889 1.427 9.106 3.052 12.65 4.877 2.265 1.448 3.576 2.36 3.933 2.737v.504c0 .147-.082.22-.25.22h-.095c-.21 0-1.164-.556-2.863-1.668-4.532-2.076-7.522-3.116-8.967-3.116-2.601-.861-7.301-1.292-14.098-1.292l-1.887.095c-.083 0-.127-.033-.127-.095l-.598.095c-.797 0-2.433.042-4.91.126l-.22.127c-.083 0-.127-.041-.127-.127-1.575.168-5.077.41-10.51.723-.796.944-2.79 2.498-5.979 4.657-1.887 1.173-4.31 2.045-7.269 2.612a21.122 21.122 0 0 1-5.003.598c-1.909-.315-2.864-.714-2.864-1.197 0-.147.115-.22.345-.22.169 0 .809.155 1.92.471h.944c1.931 0 4.95-.713 9.061-2.14 1.363-.652 3.598-2.13 6.702-4.438v-.22h-.126c-1.28 0-2.518.073-3.713.22a.962.962 0 0 1-.345-.094c-.23 0-1.029.032-2.39.094-11.728-.21-17.897-.64-18.504-1.291l-.127-.251c.02-.168.106-.251.251-.251h3.211c2.601 0 11.317-1.268 26.15-3.806.314-1.03.598-2.183.848-3.462v-1.071a.83.83 0 0 1 .127-.472c-.083-.167-.127-.294-.127-.377-4.72.713-11.086 1.793-19.1 3.24l-6.703.693a38.126 38.126 0 0 0-2.612-.094h-.85a.921.921 0 0 1-.472-.127c-.148.084-.262.127-.345.127-1.698-.106-3.934-.787-6.702-2.046-1.51-.608-2.539-1.48-3.084-2.613-.567-1.11-.85-1.836-.85-2.17v-.693c0-1.993 1.268-4.101 3.807-6.324 1.53-1.449 4.405-2.926 8.622-4.438 3.02-.861 5.96-1.292 8.81-1.292 4.406 0 8.035.755 10.887 2.265.546.316 1.017.472 1.416.472 4.511-5.811 7.814-11.181 9.913-16.11 1.51-3.946 2.265-7.25 2.265-9.914l-.127-.472c.083-.148.127-.346.127-.599v-.25c-7.867 2.308-12.64 3.461-14.318 3.461-6.314 0-10.73-1.668-13.249-5.003-.651-.693-.975-2.047-.975-4.061 0-1.132.721-2.612 2.17-4.438 3.167-2.789 7.457-4.184 12.87-4.184l.012.01zm-13.846 9.095v.222c0 .901.722 1.899 2.17 2.99 1.07.713 2.978 1.07 5.727 1.07h.471c.272 0 .472.041.598.127 2.917 0 8.802-1.27 17.654-3.807-.587-2.142-1.898-3.976-3.934-5.509-2.181-1.657-4.372-2.57-6.575-2.736 0-.106-.956-.221-2.863-.345-2.518 0-5.256.598-8.213 1.793-2.895 1.595-4.49 3.305-4.783 5.13-.168.504-.25.861-.25 1.07l-.002-.005zm23.034 2.864v.126h.251c1.993-.439 2.99-.766 2.99-.976h-.127c-1.931.566-2.969.85-3.117.85h.003zm-2.014.471v.127h.346c.88-.105 1.32-.262 1.32-.472h-.126c-.776.23-1.291.345-1.542.345h.002zm5.128-.126l-1.07.251v.221h.127c.439-.23.755-.346.944-.346v-.126zm-2.863.849l-2.99.723h-.345a.921.921 0 0 1-.127.472h.251c2.309-.714 3.536-1.07 3.683-1.07V19.2l-.472.002zm-11.58 2.391c-1.846-.082-2.8-.126-2.863-.126h-.345v.126a64.29 64.29 0 0 0 5.255.221h.817c.168.021.25.107.25.251-.082.148-.126.263-.126.346h.127c.881-.147 2.464-.505 4.75-1.07v-.127c0-.106-.2-.304-.598-.598-2.203.651-4.626.976-7.268.976l.001.001zm16.71 8.121h-.126c0 .483-.43 1.311-1.292 2.485a36.157 36.157 0 0 0-1.447 4.783l-2.014 3.335v.127c2.308-2.685 3.618-5.034 3.933-7.047.316-.985.63-2.183.944-3.589l.002-.094zm.723 3.46h-.251c-.062.398-.336.996-.817 1.792.083.147.127.263.127.346h.345c0-.378.2-1.092.599-2.14l-.003.001zm-3.712.598h-.095c0 .418-1.123 2.57-3.367 6.451l-1.542 2.265v.095h.251c0-.42.356-.776 1.07-1.071 1.887-3.146 3.158-5.172 3.807-6.074-.399 0-.6-.042-.6-.126l.473-1.448.003-.092zm-3.807 12.65h.127c2.202-2.686 3.827-5.078 4.876-7.174 0-.127.083-.283.251-.472h-.127c-.545.397-1.341 1.668-2.391 3.807-1.53 1.972-2.444 3.252-2.736 3.839zM8.828 56.934c0 2.453 1.468 4.163 4.405 5.13.818.147 1.899.22 3.241.22 4.68-.315 10.52-2.936 17.527-7.867 2.33-2.034 4.04-3.63 5.13-4.782.567-.336.85-.735.85-1.197-3.377-1.595-6.797-2.391-10.258-2.391-5.14 0-9.399.881-12.777 2.642-1.763.504-3.839 1.93-6.23 4.279-1.05 1.238-1.678 2.558-1.888 3.966zm26.15-1.575h.093c1.932-1.197 3.966-2.707 6.105-4.532v-.221h-.251c-2.875 2.035-4.857 3.619-5.948 4.75v.003zm-4.186 5.036v.127h.221l9.693-2.99c1.908-.336 3.179-.504 3.806-.504h2.519l.817.127v-.127c0-1.575-1.111-3.356-3.336-5.35h-.125c-3.043 2.728-6.42 5.108-10.133 7.145-1.908 1.05-3.063 1.575-3.462 1.575v-.003zm.944-2.645v.251h.127c1.784-.964 2.822-1.604 3.116-1.919-.336 0-.504-.116-.504-.346h-.094a7.13 7.13 0 0 0-1.793 1.543c-.357.315-.64.471-.85.471h-.002zm-.944.598v.127h.127c.148-.082.262-.127.345-.127v-.126h-.126c-.147.083-.262.126-.346.126zm1.416 3.117h.127l.723-.127.22.127c2.602-.587 3.996-.943 4.185-1.07 0-.525 1.51-1.05 4.532-1.575v-.094l-.599-.127c-.25 0-3.231.87-8.937 2.613-.168.02-.251.106-.251.25v.003zm12.084-1.92l-.85.127h-.722c-.148.02-.221.106-.221.25l.817-.125h.723c.168 0 .25-.084.25-.251h.003zm12.051 8.59l-.598.127h-1.92v.126c.588 0 1.03.042 1.322.127.315-.082.586-.127.817-.127.418.083.66.127.722.127.083 0 .126-.041.126-.127l.6.127h4.876v-.127c-1.574-.082-2.759-.126-3.556-.126H57.63c-.063 0-.095-.042-.095-.126-.082 0-.127.041-.127.126l-.47-.126-.472.126c-.084 0-.127-.042-.127-.126h.004zM51.31 69.71h.126c1.678 0 3.63-.126 5.853-.377v-.127h-5.13c-.419 0-.702.169-.85.504zm-11.078 0v.095h.944c.65 0 1.52-.074 2.612-.22v-.128h-.221c-1.972.169-3.084.251-3.335.251v.002zm21.08-30.524c.106.021.157.053.157.094l.41-.031.315.031c1.28.107 2.56.703 3.839 1.794.398.566.651.86.755.88.776-.482 1.552-.733 2.329-.754.02-.168.985-.283 2.896-.345 1.3.127 2.527.775 3.682 1.951.693.818.955 2.12.788 3.902.062.021.094.115.094.283-.148 1.469-1.07 3.232-2.77 5.287-.88 1.196-1.331 2.002-1.352 2.423l-.033.095c-.041.525.263.849.912.976h.062c1.657.147 3.902-1.751 6.735-5.697l.439-.282c.272.02.472.167.599.438l-.032.157c-.272.86-1.375 2.297-3.305 4.311-1.386 1.551-3.02 2.244-4.91 2.077-2.182-.693-3.252-1.27-3.21-1.732-.42-.734-.6-1.468-.535-2.202l.094-.944 1.764-4.343c.25-.672.41-1.363.471-2.076-.02-.714-.23-1.3-.628-1.764-.714-.734-1.636-1.152-2.769-1.258-.25.062-.578.2-.975.41-.021.189.062.44.25.754l-.062.723c-.126 1.259-.66 2.36-1.604 3.305-2.916 2.14-4.427 3.828-4.532 5.066-.062 0-.095.033-.095.095-.041.483.127 1.09.504 1.824.02.107.033.21.033.316-.106.23-.304.336-.599.315l-.315-.032c-1.763-1.616-2.592-2.998-2.486-4.155-.062-.483-.126-.734-.189-.754.189-2.12 1.174-4.016 2.958-5.697 1.006-1.091 1.53-1.867 1.575-2.33.082-.88-.369-1.594-1.354-2.14-.796-.23-1.196-.43-1.196-.598l.032-.094c0-.19.418-.283 1.258-.283v.004zm3.052 4.028l-.156-.033v.157a3.531 3.531 0 0 1-.85 2.076c-.02.251-.556 1.133-1.604 2.642h.095l2.013-1.762-.032-.599c.315-1.028.493-1.857.534-2.485v.004zm9.504 1.637h-.094c-.02.209-.295.566-.817 1.07-.106.21-.251.608-.44 1.196l-.033.41.723-.44.063.033c.083 0 .167.189.25.566-1.008 1.574-1.53 2.57-1.574 2.99.168-.147.619-.934 1.353-2.36l.189-.061h.189v.534h.094c.399-.903.608-1.457.629-1.669l-.44.377c-.148-.083-.21-.262-.19-.534l.128-1.259-.03-.853zm-13.34 3.178c.168 0 .566-.483 1.196-1.448.714-.816 1.153-1.217 1.322-1.196 0-.063-.012-.148-.032-.251l.22-1.039h-.094c-1.28 1.133-1.94 1.908-1.982 2.33-.02.188-.23.722-.628 1.604h-.003zm2.076.566c.062 0 .324-.221.787-.66h-.157c-.398.23-.608.45-.628.66h-.002zm10.226 2.704l.156.095.818-1.132.032-.094-.157-.033c-.315-.021-.598.368-.849 1.164zm37.979-41.817h.157c.083.02.168.114.25.282-.02.126-1.237 1.248-3.65 3.368-2.497 2.748-4.615 6.095-6.356 10.037-.756 1.574-2.372 5.39-4.846 11.456-1.72 4.236-3.294 7.447-4.72 9.629h.156c3.146-1.341 6.22-2.255 9.22-2.736l.44.127.22.032.882-.032.346.534-.033.25c-.02.19-1.206.398-3.556.628-.651.21-.976.345-.976.41v.094c1.343.42 2.215 1.05 2.613 1.888.44.796.629 1.574.567 2.33-.127 1.3-.861 2.883-2.204 4.75-1.07 1.28-1.645 2.35-1.73 3.21.127.44.368.681.723.724l.627.062c1.343-.19 2.854-1.395 4.532-3.618 1.133-1.846 1.867-2.906 2.204-3.18l.282.033c.272.02.452.147.534.377v.157c-.651 1.846-2.276 4.027-4.877 6.546a6.173 6.173 0 0 1-3.84.943c-.795-.082-1.741-.923-2.83-2.518-.168-.397-.242-1.028-.221-1.887 0-.062.021-.094.063-.094l-.033-.377a37.891 37.891 0 0 1 1.698-4.061c.127-.188.2-.41.221-.66l.095-1.354c.083-.816-.525-1.363-1.825-1.636-1.49-.127-2.716.126-3.683.755-.965.398-2.392 1.616-4.278 3.65-3.377 3.043-5.792 4.782-7.24 5.225-.398.356-.808.525-1.226.504l-.189-.032c-.083 0-.177-.116-.283-.346v-.062c.504-.356 1.71-1.604 3.618-3.745 2.875-3.67 4.742-6.44 5.603-8.306 1.341-2.728 3.03-6.44 5.065-11.14 2.265-4.679 4.122-8.035 5.57-10.07 1.448-2.264 3.441-4.562 5.98-6.891.062-.23 1.521-1.468 4.373-3.712 1.03-.629 1.743-1.103 2.14-1.416 0-.082.137-.127.41-.127l.007-.001zM96.302 27.258v.189h.095c.02-.127.2-.472.534-1.038-.127-.02-.337.262-.63.849zm-6.575 13.248l.156.032c1.26-2.285 2.214-4.184 2.863-5.696.25-.147.902-1.542 1.951-4.184.19-.21.295-.43.316-.661l-.345-.032c-.378.398-.923 1.489-1.636 3.273-.673 1.386-1.773 3.806-3.305 7.268zm3.114-1.133v.095h.094c1.32-2.978 2.202-5.107 2.642-6.387-.25.19-.87 1.416-1.857 3.683-.19.439-.484 1.312-.882 2.612l.003-.003zm-.693-.88l-.157-.033a74.846 74.846 0 0 1-3.777 6.576v.062h.094l2.707-4.217c.315-.188.577-.271.787-.25l.062.188v.062c-.02.19-.23.672-.628 1.448v.063l.062.032c.903-1.468 1.386-2.382 1.448-2.737h-.094a.495.495 0 0 1-.345.062l-.316-.032c-.127 0-.177-.062-.156-.188 0-.127.105-.472.315-1.04l-.002.004zm6.106 9.724h-.22c-.021.189-.358 1.111-1.007 2.768l-.032.346.032.817.063.032c.02-.21.513-1.006 1.48-2.391v-.19c-.252.317-.41.473-.473.473-.106-.021-.147-.115-.127-.283.169-.755.264-1.28.284-1.575v.003zm1.038.628l-.157-.094c0 .083-.126.262-.377.534v.094l.534-.377.094.032.22.189h.096l.032-.44-.442.062zm45.15-41.066c5.893 0 12.534 1.69 19.918 5.066 1.719.818 2.695 1.227 2.925 1.227 5.644-3.293 11.6-4.94 17.874-4.94 6.985 0 12.084 1.72 15.295 5.161 1.049 1.029 1.574 2.076 1.574 3.147v.471c0 2.097-2.025 3.703-6.074 4.815-1.257.304-2.707.532-4.352.683.757.226 1.565.627 2.425 1.205.378.397.557.902.534 1.51-.02.105-.083.147-.188.126h-.157c-.734-.775-1.804-1.353-3.211-1.73h-.377c-1.908-.107-3.2.47-3.872 1.73 0 .105-.073.304-.22.598a4.726 4.726 0 0 0 1.008 3.147c.377.902 3.429 1.645 9.158 2.234.218-.375.51-.966.884-1.771-.467-.68-.783-1.642-.949-2.884v-.062c0-.084.021-.116.062-.095l-.032-.19c0-.04.021-.052.063-.031 0-.062-.021-.094-.063-.094.063-1.386.735-2.487 2.014-3.305.762-.353 1.623-.551 2.583-.59.251-.446.501-.888.755-1.33 1.406-2.265 3.167-4.458 5.286-6.576 1.953-1.867 3.483-3.125 4.594-3.777 1.407-.985 2.498-1.595 3.273-1.825.21.106.326.21.346.315l-.033.315a55.229 55.229 0 0 0-3.777 2.802 28.4 28.4 0 0 0-4.404 6.546 141.082 141.082 0 0 0-2.174 4.835c.054.035.104.07.157.103.377.399.557.903.534 1.511-.02.105-.083.147-.189.126h-.156a4.914 4.914 0 0 0-.794-.674 92.758 92.758 0 0 0-1.468 3.758c-.33.839-.6 1.545-.81 2.12 1.431.284 3.284.541 5.558.773.377-.65.985-1.951 1.825-3.9a141.51 141.51 0 0 1 3.494-6.452c1.406-2.265 3.167-4.458 5.287-6.576 1.951-1.867 3.482-3.125 4.593-3.777 1.407-.985 2.498-1.595 3.273-1.825.21.106.325.21.345.315l-.032.315a55.229 55.229 0 0 0-3.776 2.802 28.403 28.403 0 0 0-4.406 6.546c-1.678 3.565-3.043 6.787-4.09 9.66-.652 1.656-1.07 2.8-1.259 3.43l.944.031c.127.02.23.053.315.094.062 0 .095-.032.095-.094 2.264.294 4.51.493 6.734.599l3.084.188c.168-.02.399.012.693.095.041 0 .062-.02.062-.062.02 0 .357.032 1.006.094 1.029.083 2.863.241 5.508.472.251.106.39.21.41.315l-.062.535c0 .25-.484.356-1.449.314h-.062a2.662 2.662 0 0 1-.628-.126l-.315.094c-1.866-.25-3.45-.419-4.75-.504l-1.575-.062a.293.293 0 0 1-.25-.126c-.083.02-.128.052-.128.094l-2.046-.185-.057.498c0 .25-.484.357-1.448.315h-.062a2.718 2.718 0 0 1-.628-.126l-.316.094c-1.867-.251-3.45-.419-4.75-.504l-1.17-.046c-.458 1.15-1.212 2.761-2.262 4.829a50.975 50.975 0 0 1-4.184 6.734c-1.678 3.544-2.56 6.021-2.643 7.428v.377c.062.23.251.452.566.66.622.029 1.465-.488 2.534-1.541-.79-1.07-1.182-2.224-1.182-3.462 0-1.407.586-2.884 1.762-4.438 1.637-1.574 2.938-2.465 3.902-2.674 0-.042.021-.062.062-.062.377.082.566.177.566.283v.062c-.147.21-.766.619-1.857 1.226-1.006 1.301-1.51 2.433-1.51 3.4 0 1.057.308 1.9.923 2.527a79.374 79.374 0 0 0 2.635-3.723h.157c.278.01.485.066.621.165-.331-.628-.499-1.385-.499-2.274.188-1.196.398-1.793.628-1.793.587-1.173 1.637-1.763 3.146-1.763.672 0 1.395.168 2.17.504 1.953 1.217 2.926 3.064 2.926 5.538l-.504 2.329c.02.106.074.157.157.157h.755c.105 0 .2-.02.283-.062.041 0 .062.02.062.062.656-.132 1.21-.229 1.669-.29.184-1.156.748-2.36 1.696-3.612 1.637-1.574 2.937-2.465 3.901-2.674 0-.042.02-.062.062-.062.378.082.567.177.567.283v.062c-.148.21-.767.62-1.857 1.226-1.009 1.301-1.511 2.433-1.511 3.4 0 1.28.451 2.244 1.354 2.895 1.112.735 2.235 1.103 3.367 1.103h.755c1.28-.25 2.286-.578 3.02-.976.483-.315.723-.545.723-.692-2.309-.63-3.86-1.626-4.657-2.99-.483-.693-.723-1.575-.723-2.643.189-1.197.399-1.792.629-1.792.586-1.175 1.636-1.764 3.146-1.764.672 0 1.395.168 2.17.504 1.952 1.218 2.926 3.063 2.926 5.538l-.504 2.33c.02.105.073.156.156.156h.756c.105 0 .2-.02.283-.062.041 0 .062.02.062.062 1.258-.251 2.15-.377 2.674-.377.168.25.251.397.251.439 0 .336-1.017.651-3.052.944l-.345-.032c-.251.02-.39.032-.41.032l-.156-.032a1.18 1.18 0 0 1-.284.032c-.02 0-.083-.012-.188-.032-.168 0-.534.43-1.103 1.291-.672.902-1.059 1.353-1.164 1.353-.652.629-1.49 1.197-2.518 1.698-1.407.547-2.592.818-3.556.818h-.661c-1.53 0-3.043-.64-4.532-1.92-.866-1.086-1.314-2.258-1.35-3.519a22.33 22.33 0 0 1-1.732.309l-.345-.033c-.251.02-.39.033-.41.033l-.156-.033a1.17 1.17 0 0 1-.283.033c-.02 0-.083-.013-.189-.033-.168 0-.534.43-1.103 1.291-.672.903-1.058 1.354-1.164 1.354-.652.628-1.49 1.197-2.519 1.699-1.406.545-2.591.816-3.556.816h-.66c-1.268 0-2.52-.437-3.759-1.314a7.43 7.43 0 0 0-.423.466c-.943.796-1.698 1.29-2.265 1.48-1.55-.063-2.317-.325-2.296-.788-.169 0-.316-.513-.44-1.542.483-2.14.975-3.618 1.48-4.438v-.22h-.063c-.02.061-.672.65-1.951 1.763-2.312 1.864-4.21 3.102-5.7 3.714l-.025.03c-.944.797-1.698 1.291-2.264 1.48-1.551-.062-2.318-.324-2.298-.787-.168 0-.315-.513-.439-1.542.484-2.14.976-3.618 1.48-4.438v-.22h-.062c-.02.061-.672.65-1.952 1.763-2.392 1.93-4.343 3.187-5.853 3.777l-1.165.848h-.25c-.063 0-.083-.032-.063-.094l-.157.094c-.208-.082-.303-.167-.283-.25v-.157c.378-.398 1.154-1.029 2.33-1.887 1.489-1.28 2.612-2.54 3.367-3.777.985-1.28 2.108-3.116 3.368-5.508a107.492 107.492 0 0 0 3.588-7.772c.147-.169.524-1.071 1.133-2.708l-1.006-.062c-.882-.02-1.575-.135-2.077-.345-.041 0-.062.032-.062.094-1.636-.105-3.441-.607-5.413-1.51l-.817-.598c-.693-.672-1.144-1.793-1.354-3.367v-.062c0-.083.021-.115.062-.094l-.032-.19c0-.04.021-.052.062-.031 0-.062-.02-.095-.062-.095.062-1.386.735-2.485 2.014-3.305.138-.064.281-.124.429-.177a77.27 77.27 0 0 1-1.775.02l-.44-.126a.95.95 0 0 1-.472.127c-5.077-.526-9.869-1.531-14.38-3.02-1.552-.608-2.571-.955-3.052-1.038-2.622 3.65-3.934 5.758-3.934 6.325 1.678 1.825 2.801 4.373 3.367 7.646.084.755.127 1.353.127 1.793v.66c0 2.62-.76 5.073-2.279 7.354 1.156-.86 2.597-1.59 4.32-2.194 1.342-.146 2.35-.2 3.02-.156h.063c.126 0 .2-.02.22-.062l.316.094.315.033c1.595.167 2.999.693 4.216 1.574.19 0 .567.25 1.133.754.651-1.07 1.144-1.583 1.48-1.541.189.23.283.44.283.628-.02.147-.336.734-.943 1.763v.062c.377.587.598 1.794.66 3.618-.168 1.805-.986 2.949-2.454 3.43a4.818 4.818 0 0 1-.849.094l-.66-.062c-.19-.02-.463.935-.817 2.864.21.86.534 1.32.975 1.385.986.083 2.035-.557 3.147-1.92a32.861 32.861 0 0 0 3.305-4.122h.062c.315.21.463.451.44.723-.083.754-1.174 2.35-3.274 4.782-.105-.02-.66.41-1.668 1.292-.607.272-1.153.39-1.637.345l-.754-.062c-.042 0-.062-.02-.062-.062l-.127.062c-.944-.083-1.49-.776-1.637-2.077l.062-.597a7.1 7.1 0 0 1 .251-1.48l-.126-.033c-1.428.985-2.403 1.575-2.926 1.764-.02.294-1.238.672-3.65 1.132-.42-.042-.702-.042-.849 0-2.666-.23-4.353-1.448-5.066-3.65-.147-.587-.23-1.386-.251-2.392.09-1.012.345-1.95.764-2.81a26.84 26.84 0 0 1-3.342 2.654c-2.309 1.489-5.192 2.612-8.654 3.367-.106.062-.368.094-.787.094h-.693c-.651 1.699-2.937 4.52-6.86 8.466a73.69 73.69 0 0 1-5.602 5.286c-3.399 2.54-5.245 3.807-5.537 3.807.44.44 3.818 1.457 10.132 3.052 2.285.378 5.968.746 11.045 1.103h1.449c6.23 0 14.442-.672 24.638-2.014a57.67 57.67 0 0 1 3.713-.126l.66-.095c.084 0 .127.033.127.095l.567-.095c7.784 0 14.421 1.312 19.917 3.934 1.932.65 4.323 1.887 7.175 3.712l.126.566v.221h-.345c-2.895-1.973-7.06-3.514-12.493-4.626-2.601-.295-4.205-.44-4.815-.44h-.127c-.062 0-.094-.032-.094-.094l-.25.095h-1.228c-4.048 0-10.792.828-20.233 2.485-5.329.525-9.041.787-11.14.787l-.222.095a1.197 1.197 0 0 0-.47-.095h-.223c-.545 0-.955.033-1.226.095a12.103 12.103 0 0 0-1.48-.095h-.787c-.063 0-.095-.042-.095-.126-.082 0-.127.041-.127.126-6.124-.652-10.393-1.362-12.805-2.14-4.91-1.616-9.147-3.377-12.713-5.287-5.705 3.146-8.936 4.72-9.692 4.72l-.22-.344v-.095c0-.169 1.542-1.144 4.626-2.926 0-.106 1.123-.86 3.367-2.264v-.095c-2.517-1.362-4.541-2.716-6.073-4.06v-.345c.02-.148.094-.22.22-.22.21 0 1.825.934 4.845 2.8 1.029.608 1.772.911 2.235.911h.126c1.071-.545 3.618-2.904 7.646-7.079 2.33-2.728 4.353-5.464 6.075-8.213 0-.127.262-.534.786-1.226v-.127h-1.007c-2.35-.062-5.77-1.186-10.258-3.367-7.573-4.993-11.361-11.412-11.361-19.258 0-3.922 1.206-7.929 3.618-12.022 2.096-3.167 4.794-5.528 8.088-7.08 3.565-1.93 7.542-3.02 11.926-3.272l.003-.003zm68.213 39.146c-.511 1.087-1.361 2.4-2.548 3.934.904.484 1.816.723 2.734.723h.755c1.28-.25 2.285-.578 3.02-.976.483-.315.722-.546.722-.693-2.309-.628-3.86-1.625-4.656-2.99l-.035-.048a.287.287 0 0 1 .005.049l.003.001zM198.53 28.328a145.557 145.557 0 0 1 1.976-3.746c-1.161.188-1.99.745-2.483 1.67 0 .106-.073.304-.22.599a4.767 4.767 0 0 0 .42 2.184c.099-.225.2-.46.307-.707zm3.429 4.438l.428.013c-.133-.029-.267-.062-.403-.095-.01.027-.016.054-.025.082zm2.958 1.353l-.157-.062-.156.062a25.78 25.78 0 0 0-1.983-.188l-.786-.033-.378-.094c-.356 1.133-1.227 3.063-2.612 5.791a50.975 50.975 0 0 1-4.184 6.734c-1.678 3.545-2.56 6.021-2.643 7.428v.377c.062.23.251.452.566.661 1.427.062 4.04-2.737 7.835-8.4h.157c.25.008.444.054.58.137a61.87 61.87 0 0 0 1.494-2.686 107.306 107.306 0 0 0 3.588-7.773c.114-.13.375-.72.775-1.762l-2.096-.192zM144.222 8.788l-4.06.566v.127l1.133-.127h1.792c.127 0 .272.147.44.44a22.423 22.423 0 0 1 1.699-.095c.964 0 2.013.032 3.146.095h.221v-.095c-.882 0-1.625-.263-2.235-.787a13.783 13.783 0 0 0-1.699-.127l-.437.003zm-3.715 1.477l.127.221c-.02.106-.891.398-2.612.881l-2.015 1.133-.692.22v.128h.127c2.243-.755 4.72-1.28 7.426-1.575.084 0 .127.032.127.094.693-.147 1.292-.22 1.793-.22v.126c0-.083.41-.127 1.228-.127v-.094c-1.909 0-3.073-.23-3.494-.693a.972.972 0 0 1 .345-.094v-.25c-.148 0-.221-.033-.221-.095-.882.106-1.596.22-2.14.345h.001zm30.589 5.853v.22c7.888 3.442 14.864 5.161 20.927 5.161 2.285 0 4.73-.45 7.333-1.353.335-.168.89-.911 1.668-2.235v-.471c0-1.805-2.243-3.787-6.734-5.948-1.846-.756-4.249-1.133-7.207-1.133h-1.006c-5.14 0-10.13 1.92-14.978 5.759h-.003zm-23.728-4.184h-.66v.126c.398 0 1.858.189 4.373.567h.221V12.5c-1.616-.377-2.925-.566-3.934-.566zm7.646.693c0 .146.41.294 1.227.439l.127-.221c-.315 0-.766-.074-1.354-.221v.003zm-15.64.439c-.062 0-.094-.042-.094-.126-1.132.02-3.346.734-6.64 2.14-2.539 1.259-4.91 3.105-7.112 5.538-2.391 3.252-3.588 6.25-3.588 9l.126.533c-.082.42-.126.723-.126.912 0 4.95 2.285 9.754 6.859 14.413 3.02 2.686 6.136 4.446 9.347 5.287 2.264.672 4.028 1.005 5.286 1.005H144c1.153-1.321 3.703-6.157 7.646-14.507.965-1.784 2.727-5.35 5.287-10.698.083 0 .755-1.091 2.014-3.273.23-.062.345-.283.345-.66-2.874-2.182-6.21-3.274-10.008-3.274-3.965 0-7.646 1.05-11.045 3.147-1.763 1.677-2.843 2.958-3.241 3.84-.251.293-.849 1.53-1.793 3.711-.23.903-.419 1.354-.566 1.354h-.345c-.147 0-.221-.073-.221-.221v-.251c.168-1.805.985-3.86 2.453-6.168 1.973-2.33 3.893-3.872 5.76-4.627 3.23-1.28 6.262-1.92 9.093-1.92 3.86 0 7.354 1.207 10.48 3.619l3.272-4.154c-5.853-2.56-9.68-3.84-11.485-3.84 0-.167-.86-.356-2.58-.566 0-.062-.041-.094-.127-.094-.083 0-.126.032-.126.094-1.342-.294-3.4-.44-6.17-.44h-1.226c-.607 0-1.29.074-2.045.222l.003.004zm25.082 6.767l-.221-.126c-2.392 2.854-4.343 5.59-5.853 8.212v.094l2.14-3.02 3.934-5.065v-.095zm-3.368 2.232v.221h.221c0-.167.116-.388.345-.66v-.22c-.082 0-.27.22-.566.66zm-.786 1.354h.126c0-.062.147-.294.44-.693v-.22c-.169 0-.357.303-.566.911v.002zm-.095.22h-.251a.967.967 0 0 1-.094.346v.095h.094c0-.107.083-.251.25-.44zm2.928 3.274h-.127c-5.245 10.237-9.073 17.474-11.485 21.714l-1.793 2.801v.22c4.992-1.09 8.707-2.883 11.14-5.38 2.203-1.953 3.482-3.495 3.84-4.627.964-1.362 1.447-3.43 1.447-6.199 0-3.104-1.006-5.947-3.02-8.527l-.002-.002zm-4.187 2.801h-.094l-.22-.094.314-.694v-.094h-.22c0 .169-.379.87-1.134 2.109 0 .504-.22 1.185-.66 2.046v.221c.587 0 1.678-1.646 3.273-4.94-.652.923-1.07 1.407-1.259 1.448v-.002zm1.575-.22h-.221c-2.454 4.321-4.028 7.435-4.721 9.346.083 0 1.73-3.117 4.939-9.347h.003zm-5.066 2.485l-1.575 3.146v.22h.251c0-.335.368-.934 1.102-1.792h.222v.22c.167 0 .398-.524.693-1.574-.272 0-.505-.073-.693-.22zm-1.67 3.588h-.125c0 .042-.033.188-.095.44.147 0 .22-.106.22-.315v-.125zm-2.045 7.867c.84-1.112 2.12-3.514 3.839-7.207v-.094c-2.391 3.84-3.672 6.272-3.839 7.301zm1.353-6.516c.106 0 .262-.23.472-.693v-.095c-.169 0-.325.264-.472.788zm24.073 27.44c6.46 0 12.355 1.239 17.685 3.713l4.595 1.92.126.565-.22.095c-5.77-1.951-10.008-2.925-12.713-2.925h-4.626c-1.259 0-7.826.681-19.7 2.046-1.762.147-3.26.221-4.5.221h-4.248c-5.036 0-10.028-.713-14.98-2.141v-.44c.021-.147.095-.22.222-.22.943.209 3.314.472 7.112.787 4.447 0 12.284-.976 23.506-2.926 1.888-.315 4.468-.545 7.741-.692v-.002zm-3.146 1.26v-.128l-.221.127h-.66c0 .357-.231.534-.694.534v.472c.377 0 1.28-.073 2.707-.22v-.128c-.062 0-.398-.073-1.008-.22v-.221a7.859 7.859 0 0 1 1.92-.221h1.353v-.251h-.127c-.23 0-.345.041-.345.127-.083 0-.189-.042-.316-.127-1.427.082-2.296.168-2.612.25l.003.005zm-5.288 2.234c0-.147-.105-.221-.314-.221-.547 0-1.375.074-2.487.22.148.19.221.379.221.568 2.749-.378 6.346-.788 10.793-1.227v-.127h-.095c-1.258 0-3.966.262-8.118.787zm-7.519.44v.127h.566c1.322 0 2.592-.148 3.807-.44v-.127c-.462.083-1.92.23-4.373.44zm13.815 5.54h-.44v.094h.44v-.094zm-5.948.785v.094c2.37-.148 4.176-.369 5.414-.66v-.127h-.472c-.985.083-2.633.315-4.94.693h-.002zm-13.501.882v.126c1.238.062 2.17.095 2.801.095h2.359c.316 0 .734-.033 1.26-.095.293.04.438.115.438.22 1.449-.23 2.425-.344 2.926-.344l-.44-.44c-4.888.295-8.003.44-9.347.44l.003-.002zm4.5 1.226l-.788-.22h-1.92l.127.22v.251c0 .147-.074.221-.22.221h-1.354c-1.551 0-3.388-.115-5.507-.346 0 .44 2.579.661 7.74.661 6.923 0 12.177-.335 15.766-1.006v-.094h-.472c-.881 0-3.986.263-9.315.787h-.221l-.566-.127v-.22c5.812-.965 10.574-1.448 14.286-1.448v-.126h-1.353c-5.517.377-10.919.86-16.206 1.447h.003zm6.26-28.195l-.378.944c-.147 1.616.43 2.801 1.73 3.556l.41.094c.021 0 .034-.02.034-.062l.377.094.188.033c.21.02.808-.095 1.793-.346l.41.127c.985-.42 2.191-1.248 3.618-2.486-.796-.84-1.311-1.952-1.542-3.335l.032-.25c.062-.673.369-1.175.912-1.51h.126c.084 0 .168.126.251.376-.02.23-.156.693-.41 1.386.19 1.133.63 1.93 1.322 2.391l.283.032c1.03-2.307 1.846-3.965 2.453-4.97.042-.464-.796-1.03-2.517-1.699-2.56-.23-4.68.43-6.357 1.982-1.343.964-2.256 2.181-2.738 3.65l.003-.007zm12.429-2.987c-.903 1.616-1.616 3.105-2.14 4.467h.093c1.092.106 1.879-.493 2.36-1.793l.032-.095-.032-.534.094-.156c-.126-1.112-.262-1.743-.41-1.887l.003-.002zm-15.041 2.232l-.66-.157-.063.755c.21.882.356 1.322.44 1.322.336-1.26.607-2.047.817-2.36l.032-.094c-.062 0-.251.177-.566.534zm1.636-.283l-.126-.033c-.251.714-.399 1.08-.44 1.103.041.21.041.462 0 .755h.095c.041-.693.2-1.268.471-1.73v-.095zm-1.48 3.335v.188c0 .062.062.148.189.251h.062c-.083-.294-.168-.439-.251-.439zM197.71 33.05h-.062c0 .062-.083.272-.251.628l-.032.062h.094c.02-.105.106-.303.25-.598v-.092zm-.345.787l-.062-.032c0 .083-.116.315-.346.693v.062h.095c-.02-.127.094-.345.345-.661l-.032-.062zm.062 2.138c.148.062.21.221.189.472l-.157.221v.062c.295-.356.702-1.185 1.227-2.485l-.156-.062h-.157c-.23.188-.546.787-.944 1.792h-.002zm2.297-1.164l-.063-.032c-.734 1.258-1.32 2.412-1.762 3.46a3.64 3.64 0 0 0-1.038 1.007v.095c.147.02.315.105.504.25.294-.336 1.08-1.908 2.36-4.72v-.06zm-5.759 8.748l.033.41h.156c0-.062.483-.882 1.448-2.453.503-1.112.754-1.69.754-1.732h-.156c-.21-.02-.66.723-1.353 2.236-.062 0-.357.513-.882 1.541v-.002zm9.031-18.155l-.094-.033-1.73 3.59v.061h.062l1.762-3.462v-.156zm11.263 0l-.094-.033-1.73 3.59v.061h.061l1.763-3.462v-.156zm-5.285 7.646h-.062c0 .062-.083.272-.251.628l-.032.062h.094c.02-.105.106-.303.251-.598v-.092zm-.347.787l-.063-.032c0 .083-.115.315-.345.693v.062h.095c-.02-.127.094-.345.345-.661l-.032-.062zm.064 2.138c.148.062.21.221.189.472l-.157.221v.062c.295-.356.702-1.185 1.228-2.485l-.157-.062h-.156c-.23.188-.547.787-.944 1.792h-.003zm2.297-1.164l-.062-.032c-.734 1.258-1.321 2.412-1.763 3.46a3.64 3.64 0 0 0-1.038 1.007v.095c.148.02.315.105.504.25.294-.336 1.08-1.908 2.36-4.72v-.06zm-5.758 8.748l.032.41h.156c0-.062.484-.882 1.448-2.453.504-1.112.755-1.69.755-1.732h-.157c-.21-.02-.66.723-1.353 2.236-.062 0-.357.513-.881 1.541v-.002zm7.55.725c0 .903.544 1.973 1.636 3.211 1.489 1.029 2.736 1.543 3.745 1.543h.156c.902-1.198 1.353-2.383 1.353-3.556 0-1.72-1.006-2.896-3.02-3.524l-1.132-.157c-.964.189-1.584.462-1.857.817-.588.608-.882 1.164-.882 1.669v-.003zm-3.15 7.425l-.976-.566v.156c1.006.734 1.51 1.27 1.51 1.605l-.126.094c-.084 0-.43-.167-1.039-.504l.221.378v.126c0 .084-.052.127-.156.127-.21 0-.524-.156-.944-.472h-.126v.22l-.063.347c1.133.672 2.15 1.049 3.053 1.132.985 0 2.013-.157 3.084-.472v-.126c-.652.126-1.427.188-2.33.188h-.533c-.84 0-1.386-.2-1.637-.598v-.062c0-.106.073-.157.22-.157.756.106 1.134.177 1.134.22.041 0 .062-.02.062-.061l.504.062h.062l.345-.062v-.062c-.692-.21-1.038-.399-1.038-.566l.127-.062h1.037v-.095c-1.09-.148-1.887-.41-2.39-.787v-.003zm21.145-7.425c0 .903.546 1.973 1.637 3.211 1.489 1.029 2.736 1.543 3.745 1.543h.156c.902-1.198 1.354-2.383 1.354-3.556 0-1.72-1.008-2.896-3.02-3.524l-1.132-.157c-.965.189-1.584.462-1.858.817-.587.608-.882 1.164-.882 1.669v-.003zm-3.149 7.425l-.975-.566v.156c1.008.734 1.51 1.27 1.51 1.605l-.127.094c-.082 0-.43-.167-1.037-.504l.22.378v.126c0 .084-.053.127-.157.127-.21 0-.524-.156-.943-.472h-.126v.22l-.063.347c1.132.672 2.15 1.049 3.052 1.132.985 0 2.014-.157 3.084-.472v-.126c-.651.126-1.427.188-2.33.188h-.533c-.84 0-1.386-.2-1.637-.598v-.062c0-.106.075-.157.221-.157.756.106 1.133.177 1.133.22.041 0 .062-.02.062-.061l.504.062h.063l.345-.062v-.062c-.693-.21-1.039-.399-1.039-.566l.127-.062h1.038v-.095c-1.09-.148-1.887-.41-2.392-.787v-.003zm-133.762 54.01H90v-8.572h3.864v1.378h-2.269v2.04H93.7v1.384h-2.105v2.374h2.269v1.396zm5.153-2.363c0 .801-.202 1.415-.607 1.84-.405.427-.987.64-1.75.64-.746 0-1.381-.147-1.905-.44v-1.577c.64.418 1.23.628 1.765.628.305 0 .534-.085.688-.253.154-.168.232-.396.232-.686 0-.285-.092-.546-.276-.783-.183-.236-.487-.499-.909-.788-.367-.254-.645-.498-.835-.73a2.635 2.635 0 0 1-.44-.783 2.991 2.991 0 0 1-.155-1.008c0-.734.205-1.317.613-1.747.408-.43.957-.645 1.644-.645.657 0 1.288.184 1.894.551l-.528 1.278a5.036 5.036 0 0 0-.589-.293 1.692 1.692 0 0 0-.66-.129c-.257 0-.455.085-.595.255-.138.17-.207.402-.207.695 0 .29.082.541.249.756.165.215.456.46.87.733.56.376.949.759 1.17 1.149.22.391.331.837.331 1.337zm3.688 2.363h-1.59v-7.17h-1.64v-1.402h4.871v1.401h-1.641v7.17zm2.116-.804c0-.305.081-.541.243-.71.162-.167.404-.251.724-.251.32 0 .563.083.727.249.165.166.246.403.246.712 0 .305-.084.541-.254.71-.17.167-.41.252-.719.252-.316 0-.557-.085-.72-.256-.165-.17-.247-.405-.247-.706zm9.832.804h-1.571v-5.03c0-.548.027-1.177.081-1.889a7.31 7.31 0 0 1-.301.358c-.174.2-.513.557-1.018 1.073l-.89-.973 2.28-2.11h1.419v8.57zm6.372-4.837c0 3.302-1.104 4.954-3.312 4.954-.367 0-.672-.032-.915-.094v-1.343c.266.087.514.13.745.13.653 0 1.148-.227 1.486-.681.338-.453.525-1.166.56-2.14h-.053a1.66 1.66 0 0 1-.536.724c-.233.175-.51.262-.83.262-.582 0-1.034-.24-1.354-.716-.32-.477-.48-1.132-.48-1.964 0-.915.21-1.64.63-2.175.42-.535.981-.803 1.685-.803.766 0 1.353.33 1.762.99.408.66.612 1.613.612 2.856zm-2.362-2.486c-.235 0-.422.127-.56.381-.139.254-.209.655-.209 1.202 0 .45.061.8.182 1.052.122.252.305.378.551.378.223 0 .417-.127.581-.384a1.59 1.59 0 0 0 .246-.876c0-.508-.073-.927-.217-1.257-.144-.331-.336-.496-.574-.496zm3.887 7.323l2.403-7.147h-2.99v-1.413h4.597v1.079l-2.363 7.48h-1.648zm9.626-4.286c0 1.552-.187 2.673-.56 3.365-.373.692-.974 1.038-1.803 1.038-.828 0-1.424-.348-1.785-1.044-.361-.695-.542-1.815-.542-3.36 0-1.547.19-2.67.569-3.37.379-.7.973-1.05 1.782-1.05.825 0 1.42.342 1.788 1.027.367.683.55 1.815.55 3.394zm-3.096 0c0 1.2.052 2.008.156 2.424.103.416.3.624.589.624.196 0 .347-.09.454-.27.108-.18.185-.477.232-.893.047-.417.07-1.045.07-1.885 0-1.18-.054-1.985-.164-2.416-.11-.43-.306-.645-.592-.645-.289 0-.486.215-.589.643-.104.427-.156 1.233-.156 2.418zm12.523-4.286v5.547c0 1.02-.23 1.798-.692 2.335-.46.538-1.127.807-1.999.807-.852 0-1.5-.267-1.946-.8-.446-.534-.668-1.322-.668-2.366v-5.523h1.582v5.64c0 1.09.362 1.636 1.085 1.636a.882.882 0 0 0 .78-.417c.183-.277.275-.672.275-1.184v-5.675h1.583zm1.19 7.768c0-.305.081-.541.243-.71.163-.167.404-.251.724-.251.321 0 .564.083.727.249.165.166.247.403.247.712 0 .305-.085.541-.256.71-.17.167-.408.252-.718.252-.316 0-.557-.085-.72-.256-.164-.17-.247-.405-.247-.706zm7.252-1.559c0 .801-.202 1.415-.607 1.84-.404.427-.987.64-1.75.64-.746 0-1.381-.147-1.905-.44v-1.577c.641.418 1.23.628 1.765.628.305 0 .534-.085.688-.253.155-.168.232-.396.232-.686 0-.285-.092-.546-.275-.783-.184-.236-.487-.499-.91-.788-.367-.254-.645-.498-.834-.73a2.635 2.635 0 0 1-.44-.783 2.991 2.991 0 0 1-.155-1.008c0-.734.204-1.317.612-1.747.408-.43.957-.645 1.644-.645.657 0 1.289.184 1.894.551l-.527 1.278a5.036 5.036 0 0 0-.59-.293 1.692 1.692 0 0 0-.659-.129c-.258 0-.457.085-.595.255-.14.17-.208.402-.208.695 0 .29.083.541.249.756.166.215.456.46.87.733.56.376.949.759 1.17 1.149.22.391.331.837.331 1.337zm.95 1.559c0-.305.081-.541.243-.71.163-.167.404-.251.724-.251.32 0 .563.083.727.249.165.166.246.403.246.712 0 .305-.084.541-.254.71-.17.167-.41.252-.719.252-.316 0-.556-.085-.72-.256-.165-.17-.247-.405-.247-.706zm7.405.804l-.493-2.164h-2.234l-.492 2.164h-1.595l2.123-8.607h2.163L160 105.72h-1.6zm-.792-3.577l-.457-1.993a47.633 47.633 0 0 1-.185-.912 16.917 16.917 0 0 1-.173-.976c-.05.336-.115.707-.193 1.11a115.83 115.83 0 0 1-.61 2.771h1.618zM27.931 120.098l1.506-3.27 1.457.67 3.7-8.035-1.458-.67 1.48-3.215 7.587 3.493-1.48 3.214-1.458-.671-3.7 8.035 2.336 1.076 2.35-2.79L42.569 119l-2.977 6.465-11.66-5.368zm16.562 7.61c-.726-.29-1.258-.753-1.594-1.39-.322-.6-.337-1.264-.047-1.99.284-.713.747-1.171 1.39-1.372.651-.227 1.352-.191 2.104.109.803.32 1.368.79 1.697 1.408.33.62.357 1.272.082 1.96-.28.7-.761 1.166-1.443 1.396-.677.217-1.398.173-2.162-.132l-.027.011zm5.223 1.885l1.1-3.363 1.506.493 5.393-7.607-1.994-.653 1.1-3.363 9.463 3.1-.491 12.935 1.505.493-1.101 3.363-8.544-2.798 1.101-3.363 1.232.403.121-1.757-3.44-1.127-.962 1.482 1.818.595-1.102 3.363-6.705-2.196zm8.195-5.39l2.502.819.41-5.018-2.912 4.198zm13.187 12.239c-.757-.196-1.343-.588-1.757-1.177-.395-.555-.495-1.21-.3-1.968.193-.744.594-1.256 1.205-1.537.619-.308 1.319-.36 2.102-.158.837.216 1.458.61 1.862 1.182.405.572.515 1.217.33 1.934-.19.73-.608 1.251-1.256 1.566-.644.302-1.364.349-2.161.143l-.025.015zm12.533 2.59l.608-3.486 1.581.276 1.531-8.775-1.58-.276.607-3.486 8.229 1.436-.609 3.485-1.58-.275-1.531 8.775 1.58.276-.608 3.485-8.228-1.435zm11.719 2.083l.336-3.584 1.618.151.827-8.828-1.577-.148.33-3.523 7.353.69 4.091 9.929.555-5.92-1.598-.15.33-3.523 6.37.597-.33 3.523-1.577-.147-1.161 12.392-6.063-.568-3.908-9.23-.488 5.202 1.598.15-.336 3.584-6.37-.597zm21.063-1.785l1.605-.015-.078-8.907-1.605.014-.03-3.539 8.022-.07.031 3.538-1.275.011.032 3.64 2.622-3.663-.032-3.538 6.254-.055.031 3.538-1.378.012-3.155 3.896.002.144c1.083-.01 1.935.167 2.555.532.62.366.935 1.007.943 1.927l.014 1.625a.891.891 0 0 0 .18.542c.118.158.28.236.485.234l1.152-.01.031 3.538-3.682.032c-2.25.02-3.383-.999-3.4-3.056l-.016-1.749c-.003-.343-.116-.678-.338-1.005-.223-.327-.485-.49-.786-.488l-1.46.013.024 2.799 1.604-.014.031 3.538-8.352.074-.03-3.539zm33.537 1.952c-.815.105-1.477.096-1.983-.026s-1.067-.365-1.68-.73l-.23.963-3.224.412-.62-4.857 3.204-.409c.275.532.642.887 1.1 1.063.458.176 1 .224 1.626.144.38-.048.697-.168.949-.36.251-.19.362-.415.329-.674a.805.805 0 0 0-.513-.681c-.3-.128-.71-.227-1.23-.3-1.324-.189-2.425-.436-3.3-.74a5.044 5.044 0 0 1-2.213-1.5c-.601-.697-.98-1.672-1.14-2.924-.124-.965-.026-1.842.296-2.63a4.336 4.336 0 0 1 1.566-1.942c.724-.507 1.609-.828 2.656-.962 1.279-.163 2.345.115 3.197.836l.39-1.004 2.858-.365.607 4.755-3.06.391c-.363-.561-.732-.936-1.109-1.124-.376-.186-.863-.242-1.462-.165-.464.059-.81.186-1.04.381a.77.77 0 0 0-.292.722c.04.313.25.532.633.655.382.125.917.22 1.602.283 1.219.121 2.265.33 3.14.626a4.993 4.993 0 0 1 2.198 1.461c.59.678.962 1.603 1.111 2.772.127.994.035 1.918-.278 2.773a4.718 4.718 0 0 1-1.533 2.125c-.71.561-1.561.904-2.554 1.031zm11.4-2.094l-.753-3.542 1.61-.342-1.834-8.633-1.389.295.15 2.787-2.756.585-1.309-6.157 14.71-3.126 1.309 6.158-2.757.586-.995-2.607-1.43.303 1.835 8.633 1.61-.342.753 3.542-8.754 1.86zm18.522-4.392l-1.045-3.446 1.476-.448-.853-2.815-5.75-4.426-1.083.328-1.026-3.386 8.19-2.484 1.026 3.387-.866.262 2.528 2.028.602-2.977-1.397.424-1.027-3.386 6.122-1.857 1.027 3.386-1.732.525-1.415 6.04 1.01 3.327 1.515-.46 1.045 3.446-8.347 2.532zM195 129.982l-1.311-3.354 1.495-.584-3.22-8.24-1.494.585-1.288-3.297 7.78-3.04 1.288 3.297-1.495.584 3.22 8.24 2.394-.936-.38-3.629 2.377-.928 2.59 6.63L195 129.982zm14.993-5.97l-1.502-3.204 1.75-.82-3.782-8.066-1.75.821-1.503-3.204 12.219-5.73 2.699 5.756-2.329 1.092-2.072-2.142-2.607 1.223 1.11 2.366 2.327-1.092 1.118 2.384-2.328 1.092 1.555 3.315 2.608-1.223-.514-3.372 2.328-1.092 2.892 6.166-12.219 5.73z" fill-rule="nonzero"/></svg>