<svg xmlns="http://www.w3.org/2000/svg" width="12" height="14" viewBox="0 0 12 14"><path fill="#2cc7c1" d="M10.031 7.008q0-.211-.141-.352l-.711-.711q-.141-.141-.352-.141t-.352.141L6.998 7.422V3.5q0-.203-.148-.352T6.498 3h-1q-.203 0-.352.148t-.148.352v3.922L3.521 5.945q-.148-.148-.352-.148t-.352.148l-.711.711q-.141.141-.141.352t.141.352l3.539 3.539q.141.141.352.141t.352-.141L9.888 7.36q.141-.141.141-.352zM12 7q0 1.633-.805 3.012t-2.184 2.184-3.012.805-3.012-.805-2.184-2.184T-.002 7t.805-3.012 2.184-2.184T5.999.999t3.012.805 2.184 2.184T12 7z"/></svg>