<svg xmlns="http://www.w3.org/2000/svg" width="12" height="14" viewBox="0 0 12 14"><path fill="#FFF" d="M10.039 7q0-.211-.141-.352L6.359 3.109q-.141-.141-.352-.141t-.352.141l-.711.711q-.141.141-.141.352t.141.352l1.477 1.477H2.499q-.203 0-.352.148t-.148.352v1q0 .203.148.352t.352.148h3.922L4.944 9.478q-.148.148-.148.352t.148.352l.711.711q.141.141.352.141t.352-.141l3.539-3.539q.141-.141.141-.352zM12 7q0 1.633-.805 3.012t-2.184 2.184-3.012.805-3.012-.805-2.184-2.184T-.002 7t.805-3.012 2.184-2.184T5.999.999t3.012.805 2.184 2.184T12 7z"/></svg>