<?xml version="1.0" encoding="utf-8"?>
<!-- Generated by IcoMoon.io -->
<!DOCTYPE svg PUBLIC "-//W3C//DTD SVG 1.1//EN" "http://www.w3.org/Graphics/SVG/1.1/DTD/svg11.dtd">
<svg version="1.1" xmlns="http://www.w3.org/2000/svg" xmlns:xlink="http://www.w3.org/1999/xlink" width="14" height="16" viewBox="0 0 14 16">
<path fill="#2cc7c1" d="M11.464 6.554q0-0.25-0.161-0.411l-0.813-0.804q-0.17-0.17-0.402-0.17t-0.402 0.17l-3.643 3.634-2.018-2.018q-0.17-0.17-0.402-0.17t-0.402 0.17l-0.813 0.804q-0.161 0.161-0.161 0.411 0 0.241 0.161 0.402l3.232 3.232q0.17 0.17 0.402 0.17 0.241 0 0.411-0.17l4.848-4.848q0.161-0.161 0.161-0.402zM13.714 8q0 1.866-0.92 3.442t-2.496 2.496-3.442 0.92-3.442-0.92-2.496-2.496-0.92-3.442 0.92-3.442 2.496-2.496 3.442-0.92 3.442 0.92 2.496 2.496 0.92 3.442z"></path>
</svg>
