<?xml version="1.0" encoding="utf-8"?>
<!-- Generated by IcoMoon.io -->
<!DOCTYPE svg PUBLIC "-//W3C//DTD SVG 1.1//EN" "http://www.w3.org/Graphics/SVG/1.1/DTD/svg11.dtd">
<svg version="1.1" xmlns="http://www.w3.org/2000/svg" xmlns:xlink="http://www.w3.org/1999/xlink" width="14" height="16" viewBox="0 0 14 16">
<path fill="#FFFFFF" d="M6.402 12.455l4.054-4.054q0.17-0.17 0.17-0.402t-0.17-0.402l-4.054-4.054q-0.17-0.17-0.402-0.17t-0.402 0.17l-0.911 0.911q-0.17 0.17-0.17 0.402t0.17 0.402l2.741 2.741-2.741 2.741q-0.17 0.17-0.17 0.402t0.17 0.402l0.911 0.911q0.17 0.17 0.402 0.17t0.402-0.17zM13.714 8q0 1.866-0.92 3.442t-2.496 2.496-3.442 0.92-3.442-0.92-2.496-2.496-0.92-3.442 0.92-3.442 2.496-2.496 3.442-0.92 3.442 0.92 2.496 2.496 0.92 3.442z"></path>
</svg>
