<?xml version="1.0" encoding="utf-8"?>
<!-- Generator: Adobe Illustrator 19.1.0, SVG Export Plug-In . SVG Version: 6.00 Build 0)  -->
<svg version="1.0" id="Layer_1" xmlns="http://www.w3.org/2000/svg" xmlns:xlink="http://www.w3.org/1999/xlink" x="0px" y="0px"
	 width="160px" height="40px" viewBox="0 0 160 40" enable-background="new 0 0 160 40" xml:space="preserve">
<path fill="#83B641" d="M21.3,7c-0.8-0.4-3.1-0.2-5.8,0.7c-4.8,3.3-8.8,8.1-9.2,15.8c-0.1,0.2-0.5,0-0.6-0.1C4.4,21,3.9,18.3,5,14.5
	c0.2-0.3-0.5-0.7-0.6-0.5c-0.3,0.3-1.2,1.3-1.9,2.4c-3.3,5.7-1.1,12.9,4.5,16.1c5.7,3.2,12.9,1.1,16.1-4.5
	C26.9,21.3,23.4,8.2,21.3,7L21.3,7z"/>
<path fill="#020202" d="M41.7,10.2c-6.8,0-11.6,5.1-11.6,11.9c0,6.9,4.9,11.8,11.9,11.8c3.5,0,6.3-1.1,8.6-3.4
	c0.7-0.7,0.8-1.4,0.8-1.7c0-1.1-0.9-2-2-2c-0.6,0-1,0.3-1.6,0.8c-1.3,1.2-2.9,2.4-5.7,2.4c-3.9,0-6.9-2.9-7.1-6.6h15.2
	c1.6,0,2.5-0.8,2.5-2.4c0-0.4,0-0.8-0.1-1.5C51.6,13.8,47.6,10.2,41.7,10.2L41.7,10.2z M41.7,13.8c3.7,0,6,2.3,6.2,6.1H34.7
	C35.1,16.5,38.1,13.8,41.7,13.8L41.7,13.8z"/>
<path fill="#020202" d="M67,10.2c-3.1,0-6.1,1.8-7.3,4.2v-1.5c0-2.3-1.8-2.5-2.1-2.5c-1.1,0-2.2,0.7-2.2,2.5v18.3
	c0,2.4,2,2.6,2.3,2.6s2.3-0.1,2.3-2.6v-9.8c0-4.3,2.4-7.3,5.9-7.3c3.3,0,5,2.2,5,6.8v10.4c0,2.4,2,2.6,2.3,2.6
	c0.3,0,2.3-0.1,2.3-2.6V19.4C75.5,15,73.3,10.2,67,10.2L67,10.2z"/>
<path fill="#020202" d="M96.5,10.4c-1.1,0-1.9,0.6-2.3,1.9l-6.3,16l-6.3-16c-0.5-1.3-1.3-1.9-2.4-1.9c-1.3,0-2.3,1-2.3,2.2
	c0,0.3,0,0.7,0.3,1.3l7.3,17.3c0.9,2.1,2.3,2.5,3.3,2.5c1,0,2.5-0.4,3.3-2.5l7.4-17.4c0.3-0.6,0.3-1,0.3-1.3
	C98.8,11.4,97.8,10.4,96.5,10.4L96.5,10.4z"/>
<path fill="#020202" d="M110.1,10.2c-3,0-5.7,0.9-7.8,2.3c-0.7,0.5-1,1.1-1,1.8c0,1,0.8,1.9,1.8,1.9c0.4,0,0.9-0.2,1.4-0.5
	c1.8-1.2,3.4-1.7,5.2-1.7c3.4,0,5.4,1.7,5.4,4.8v0.5c-7.7,0-15.6,0.9-15.6,7.6c0,4.8,4.1,7,8.2,7c3.3,0,5.8-1.3,7.5-3.8v1.3
	c0,1.7,1.2,2.4,2.2,2.4c0.2,0,2.1-0.1,2.1-2.4V19.1C119.5,13.5,116,10.2,110.1,10.2L110.1,10.2z M114,22.7h0.9v1.1
	c0,3.9-2.5,6.4-6.3,6.4c-1,0-4.5-0.3-4.5-3.4C104.2,23.1,109.8,22.7,114,22.7z"/>
<path fill="#020202" d="M131.6,14.6c2.1,0,2.1-1.5,2.1-1.9c0-0.9-0.6-2-2.1-2h-4.2V6.6c0-1.9-1.2-2.6-2.3-2.6
	c-0.4,0-2.3,0.1-2.3,2.6v20.1c0,4.6,2.3,7.1,6.6,7.1c1.1,0,2.2-0.2,2.9-0.5c0.9-0.4,1.3-1.1,1.3-1.8c0-1.1-0.8-1.9-1.9-1.9
	c-0.2,0-0.5,0.1-0.9,0.2c-0.4,0.1-0.7,0.2-0.9,0.2c-1.8,0-2.6-1.1-2.6-3.6V14.6H131.6L131.6,14.6z"/>
<path fill="#020202" d="M147,10.2c-7,0-12.2,5-12.2,11.8c0,3.3,1.2,6.4,3.5,8.6c2.2,2.1,5.3,3.3,8.6,3.3c6.9,0,12.2-5.1,12.2-11.9
	C159.1,15.1,154,10.2,147,10.2L147,10.2z M147,30c-4.8,0-7.4-4-7.4-8c0-5.5,3.8-8,7.4-8s7.4,2.5,7.4,8C154.3,27.5,150.5,30,147,30z"
	/>
</svg>
