<svg version="1" xmlns="http://www.w3.org/2000/svg" width="160" height="40" viewBox="0 0 160 40"><g fill="#3D5B9A"><path d="M81.8 19.5c-1.3 0-2.1.4-3.1.9v9.4c.9.1 1.4.1 2.2.1 3 0 3.4-1.4 3.4-3.2v-4.5c0-1.6-.4-2.7-2.5-2.7zM61.9 19c-2.1 0-2.6 1.1-2.6 2.6v.8h5.1v-.8c0-1.5-.4-2.6-2.5-2.6zm-38.5 9.8c0 1.1.5 1.7 1.7 1.7 1.3 0 2-.4 2.9-.9v-2.2h-2.7c-1.4.1-1.9.3-1.9 1.4zm77.8-9.3c-2.1 0-2.8 1.1-2.8 2.6v5.1c0 1.5.7 2.6 2.8 2.6 2.1 0 2.8-1.1 2.8-2.6v-5.1c0-1.5-.8-2.6-2.8-2.6zM13.1 34.6h-6V19.8H4v-5.1h3.1v-3.1c0-4.2 1.7-6.7 6.7-6.7h4.1V10h-2.6c-1.9 0-2.1.7-2.1 2.1v2.6h4.6l-.5 5.1h-4.1l-.1 14.8zm21 0H29l-.2-1.3c-2.3 1.3-4.4 1.5-5.8 1.5-3.8 0-5.7-2.5-5.7-6 0-4.1 2.3-5.6 6.5-5.6H28v-.9c0-2.1-.3-2.6-3.4-2.6h-5.2l.5-5.1h5.7c7 0 8.5 2.2 8.5 7.9v12.1zm17.3-14.4c-3.2-.5-4.1-.7-5.6-.7-2.7 0-3.6.6-3.6 2.9v4.4c0 2.3.9 2.9 3.6 2.9 1.5 0 2.5-.1 5.6-.7v5c-2.8.6-4.6.8-6.2.8-6.6 0-9.1-3.4-9.1-8.5v-3.6c0-5 2.6-8.5 9.1-8.5 1.5 0 3.3.2 6.2.8v5.2zm19.2 6.2H59.4v.4c0 2.3.9 2.9 3.6 2.9 2.5 0 3.9-.1 7.2-.7v5c-3.1.6-4.6.8-7.6.8-6.6 0-9.1-3.4-9.1-8.5v-4.1c0-4.4 2-7.9 8.6-7.9s8.6 3.5 8.6 7.9l-.1 4.2zm19.9.1c0 4.8-1.4 8.4-9.7 8.4-3 0-4.8-.3-8.1-.8V6.5l6.2-1v9.7c1.3-.5 3-.8 4.5-.8 6.2 0 7.2 2.7 7.2 7.2-.1 0-.1 4.9-.1 4.9zm19.6.1c0 4.2-1.7 8.2-8.9 8.2s-9-4-9-8.2v-4c0-4.2 1.7-8.2 9-8.2 7.2 0 8.9 4 8.9 8.2v4zm19.6 0c0 4.2-1.7 8.2-8.9 8.2s-9-4-9-8.2v-4c0-4.2 1.7-8.2 9-8.2 7.2 0 8.9 4 8.9 8.2v4zm20.1 8h-6.7l-5.6-9.4v9.4h-6.2V6.5l6.2-1v18.1l5.6-8.9h6.7l-6.2 9.7 6.2 10.2zm-29-15.1c-2.1 0-2.8 1.1-2.8 2.6v5.1c0 1.5.7 2.6 2.8 2.6 2.1 0 2.8-1.1 2.8-2.6v-5.1c0-1.5-.8-2.6-2.8-2.6zM153.3 31.1c1 0 1.9.9 1.9 1.9s-.9 1.9-1.9 1.9c-1 0-1.9-.9-1.9-1.9s.9-1.9 1.9-1.9zm0 .3c-.9 0-1.5.7-1.5 1.6 0 .9.7 1.6 1.5 1.6.9 0 1.5-.7 1.5-1.6.1-.9-.6-1.6-1.5-1.6zm-.3 2.7h-.3V32c.2 0 .3-.1.6-.1s.5.1.7.2c.1.1.2.3.2.4 0 .3-.2.4-.4.5.2 0 .3.2.3.5.1.3.1.4.2.5h-.3c-.1-.1-.1-.3-.2-.5s-.2-.3-.4-.3h-.4v.9zm0-1.2h.3c.3 0 .5-.1.5-.3 0-.2-.2-.3-.5-.3h-.3v.6z"/></g></svg>