<?xml version="1.0" encoding="utf-8"?>
<!-- Generator: Adobe Illustrator 19.1.0, SVG Export Plug-In . SVG Version: 6.00 Build 0)  -->
<svg version="1.0" id="Layer_1" xmlns="http://www.w3.org/2000/svg" xmlns:xlink="http://www.w3.org/1999/xlink" x="0px" y="0px"
	 width="150px" height="40px" viewBox="0 0 150 40" enable-background="new 0 0 150 40" xml:space="preserve">
<path fill="#828282" d="M65.1,15.6L65.1,15.6l-0.9,3.3L65.1,15.6L65.1,15.6z"/>
<path fill="#828282" d="M69.8,22.6h-1.1H69.8z"/>
<path fill="#828282" d="M69.6,27.5L69.6,27.5h-6.1H69.6L69.6,27.5z"/>
<path fill="#828282" d="M70.8,22.6h-1.1H70.8z"/>
<path fill="#828282" d="M70,27l1.1-4L70,27L70,27L70,27z"/>
<path fill="#828282" d="M92.3,8.6l-2,9.2L92.3,8.6z"/>
<path fill="#828282" d="M87.3,8.6l-1.5,6.9L87.3,8.6L87.3,8.6z"/>
<path fill="#828282" d="M92,8.1h-4.2c-0.2,0-0.5,0.2-0.5,0.5l-1.5,6.9l-1.5,6.9c0,0.2-0.2,0.5-0.5,0.5h-2.6h-0.5c-2.9,0-2.6-2-2-4.8
	c0,0,0,0,0-0.1l0.1-0.3c0,0,0,0,0-0.1l0.1-0.7l0.1-0.8c0-0.2,0.1-0.6,0.1-0.8l0.7-3.3l0.7-3.3c0-0.2-0.1-0.5-0.4-0.5H76
	c-0.2,0-0.5,0.2-0.5,0.5L74.6,13l-0.9,4.4l0,0l-0.1,0.4c-1.1,4.9-0.8,9.4,5,9.7c0.1,0,0.1,0,0.1,0h9.1c0.2,0,0.5-0.2,0.5-0.5l2-9.2
	l2-9.2C92.3,8.4,92.2,8.1,92,8.1L92,8.1z"/>
<path fill="#828282" d="M108.6,22.8c0.2,0,0.4,0.2,0.4,0.5l-0.4,1.9"/>
<path fill="#828282" d="M108.2,27.3l0.4-2L108.2,27.3L108.2,27.3L108.2,27.3z"/>
<path fill="#828282" d="M107.7,27.6L107.7,27.6c-1.3,0-4.9,0-7.7,0C103.4,27.6,107.7,27.6,107.7,27.6L107.7,27.6z"/>
<path fill="#828282" d="M97.4,20.3c0-0.2,0.2-0.6,0.5-0.6h-0.5C97.2,22,97.4,20.3,97.4,20.3L97.4,20.3z"/>
<path fill="#828282" d="M100.4,27.6L100.4,27.6L100.4,27.6z"/>
<path fill="#828282" d="M108.6,22.8c0.2,0,0.4,0.2,0.4,0.5l-0.4,1.9l-0.1,0.4"/>
<path fill="#828282" d="M102.3,27.6L102.3,27.6L102.3,27.6z"/>
<path fill="#828282" d="M101.3,27.6L101.3,27.6L101.3,27.6z"/>
<path fill="#828282" d="M101.1,27.6C100.9,27.6,100.9,27.6,101.1,27.6C100.9,27.6,100.9,27.6,101.1,27.6z"/>
<path fill="#828282" d="M100.7,27.6L100.7,27.6L100.7,27.6z"/>
<path fill="#828282" d="M101.3,27.6c-0.1,0-0.1,0-0.2,0C101.1,27.6,101.2,27.6,101.3,27.6z"/>
<path fill="#828282" d="M102.3,27.6c-0.4,0-0.7,0-1.1,0C101.6,27.6,102,27.6,102.3,27.6z"/>
<path fill="#828282" d="M107.7,27.6L107.7,27.6c-0.9,0-3.1,0-5.4,0C104.6,27.6,106.8,27.6,107.7,27.6z"/>
<path fill="#828282" d="M108.2,27.3l0.4-1.6L108.2,27.3L108.2,27.3L108.2,27.3z"/>
<path fill="#828282" d="M100.9,27.6h-0.2H100.9z"/>
<path fill="#828282" d="M100.2,27.6h-0.4H100.2z"/>
<path fill="#828282" d="M100.6,27.6h-0.2H100.6z"/>
<path fill="#828282" d="M39.3,20.3l0.7-2.9l-0.7,3.3L38.6,24l0.6-2.9C39.1,20.8,39.2,20.5,39.3,20.3L39.3,20.3z"/>
<path fill="#828282" d="M47,8.1h-4.5c-0.2,0-0.5,0.2-0.5,0.5l-0.5,2l-0.5,2c0,0.2,0.1,0.5,0.3,0.5h4.7c0.2,0,0.5-0.2,0.5-0.5l0.5-2
	l0.5-1.9l0,0C47.5,8.4,47.3,8.1,47,8.1L47,8.1z"/>
<path fill="#828282" d="M46.1,14.5L46.1,14.5l-1.4,6.3L46.1,14.5z"/>
<path fill="#828282" d="M32.7,35.2c0,0,2.3,0,3.8,0C35.4,35.2,33.5,35.2,32.7,35.2L32.7,35.2L32.7,35.2z"/>
<path fill="#828282" d="M40.6,14.5l-0.7,2.9L40.6,14.5z"/>
<path fill="#828282" d="M45.8,14.1h-4.7c-0.2,0-0.5,0.2-0.5,0.5l-0.7,2.9l-0.7,2.9c0,0.2-0.1,0.6-0.2,0.8l-0.6,2.9L37.8,27
	c0,0.2-0.1,0.6-0.2,0.8c0,0-0.8,2.6-2.3,2.6c-0.1,0-0.1,0-0.2,0c-0.7,0-1.3,0-1.3,0l0,0c-0.2,0-0.5,0.2-0.5,0.4l-0.5,2l-0.5,2
	c0,0.2,0.1,0.5,0.3,0.5c0.8,0,2.7,0,3.8,0c3.6,0,5.6-2,6.8-7.8l1.4-6.7l1.4-6.3C46.1,14.3,46,14.1,45.8,14.1L45.8,14.1z"/>
<path fill="#828282" d="M111.7,27.4c-0.2,0-0.3-0.2-0.3-0.5l3.5-16.3"/>
<path fill="#828282" d="M116.5,27l1.4-7L116.5,27z"/>
<path fill="#828282" d="M111.3,27.3c0-0.1,0-0.4,0-0.6L113,19l-1.8,8.2c0,0.2,0.1,0.5,0.4,0.5h0.5C111.8,27.4,111.4,27.4,111.3,27.3
	L111.3,27.3z"/>
<path fill="#828282" d="M116.2,27.4c-0.1,0-0.5,0.1-0.7,0.1h0.5c0.2,0,0.5-0.2,0.5-0.5l0.1-0.5C116.6,26.8,116.3,27.3,116.2,27.4
	L116.2,27.4z"/>
<path fill="#828282" d="M117.2,23.5l0.6-3l0,0L117.2,23.5L117.2,23.5z"/>
<path fill="#828282" d="M130.9,11.8l0.2,0.8c0,0.2-0.1,0.5-0.4,0.5"/>
<path fill="#828282" d="M116.6,26.6l0.6-3L116.6,26.6z"/>
<path fill="#828282" d="M130.8,10.9l0.2,0.8L130.8,10.9z"/>
<path fill="#828282" d="M117.9,20.5c0-0.2,0.1-0.6,0.1-0.8l0.7-3.2L118,20L117.9,20.5L117.9,20.5z"/>
<path fill="#828282" d="M114.8,10.4c0,0.2-0.1,0.5-0.1,0.7l-1.6,7.8l1.8-8.2V10.4L114.8,10.4z"/>
<path fill="#828282" d="M131.2,12.6l-0.2-0.8l-0.2-0.8l-0.1-0.5c-0.4-1.5-1.5-2.3-3.9-2.3H123h-3.5h-0.4h-3.6
	c-0.2,0-0.5,0.2-0.5,0.5l0,0l-0.1,0.8l-0.1,0.9v0.2l-1.8,8.2l-1.6,7.7c0,0.2-0.1,0.5,0,0.6c0,0.1,0.5,0.2,0.7,0.2h3.5
	c0.2,0,0.6,0,0.7-0.1c0.1,0,0.4-0.5,0.4-0.7l0.6-3l0.6-3l0,0l0.1-0.5l0.7-3.5l0.7-3.1c0-0.2,0.2-0.5,0.5-0.5h11
	C131,12.9,131.2,12.8,131.2,12.6L131.2,12.6z"/>
<path fill="#828282" d="M145.3,5.3c-0.2,0-0.6,0-0.8,0H141c-0.2,0-0.6,0.1-0.7,0.3l-7.8,11.4c-0.1,0.2-0.2,0.1-0.4-0.1l-0.6-2.6
	c0-0.2-0.2-0.5-0.5-0.5h-5c-0.2,0-0.4,0.2-0.4,0.4l2.2,7.8c0.1,0.2,0.1,0.6,0,0.8l-0.9,3.8c0,0.2,0.1,0.5,0.4,0.5h4.9
	c0.2,0,0.5-0.2,0.6-0.5l0.9-3.8c0-0.2,0.2-0.6,0.4-0.7l12.6-16.8c0.1-0.2,0.1-0.4-0.1-0.4L145.3,5.3L145.3,5.3z"/>
<path fill="#828282" d="M105.6,15.2L105.6,15.2c0,0.2-0.2,0.5-0.5,0.5h-6.3c-0.2,0-0.3-0.1-0.3-0.4l0,0l0,0l0,0c0,0,0,0,0-0.1
	c0.6-1.6,1.9-2.7,4.2-2.7C105.3,12.6,105.7,13.7,105.6,15.2L105.6,15.2z M103.7,7.9c-8.2,0-10,4.9-11.2,9.9
	c-1.1,5.1-0.9,9.8,7.5,9.8h0.4c0,0,0,0,0.1,0h0.2h0.1h0.2h0.1c0.1,0,0.1,0,0.2,0h0.1c0.3,0,0.7,0,1,0l0,0c2.2,0,4.4,0,5.4,0
	c0.2,0,0.5-0.2,0.5-0.5l0.4-1.6l0.1-0.4l0.4-2c0-0.2-0.1-0.5-0.4-0.5h-7.6c-3,0-3.9-0.8-3.6-3.2h12.1l0,0l0,0c0.2,0,0.3-0.1,0.5-0.3
	v-0.1l0,0C111.9,12.5,111.4,7.9,103.7,7.9L103.7,7.9z"/>
<path fill="#828282" d="M65.2,15.2l-0.1,0.4l0,0l-0.9,3.3l-0.9,3.3c-0.1,0.2-0.3,0.3-0.6,0.3h-4.8c-3.6,0-4.6-2.9-3.6-7.1
	c0.9-4.3,2.7-7,6.3-7.4C65.4,7.7,66.4,11.2,65.2,15.2L65.2,15.2z M68.5,22.2c0,0,2.3-5.5,2.8-8.8C72,9.2,69.9,3,61.6,3
	S49.8,9,48.4,15.4c-1.4,6.5,0.5,12.2,8.6,12.1h6.4h6.1c0.2,0,0.5-0.2,0.6-0.5l1.1-4c0.1-0.2-0.1-0.5-0.3-0.5h-1.1h-1.1
	C68.6,22.6,68.5,22.5,68.5,22.2L68.5,22.2L68.5,22.2z"/>
<path fill="#828282" d="M109.3,18.5c0,0.1-0.1,0.2-0.2,0.2c-0.1,0-0.2-0.1-0.2-0.2c0-0.1,0.1-0.2,0.2-0.2
	C109.2,18.3,109.3,18.4,109.3,18.5z"/>
<path fill="#828282" d="M5.6,11.3c-2.2,3.3-2,7.5-0.2,11c0,0.1,0.1,0.1,0.1,0.2c0,0,0,0.1,0.1,0.1v0.1l0.1,0.1
	c0,0.1,0.1,0.2,0.1,0.2L6,23.2c0.1,0.1,0.1,0.2,0.2,0.4c0,0,0,0.1,0.1,0.1c0,0.3,0.1,0.5,0.2,0.6l0,0c0,0,0,0,0,0.1
	c0.1,0.1,0.1,0.2,0.2,0.3l0.1,0.1C7,24.9,7,25.1,7.1,25.1l0.1,0.1c0.1,0.1,0.2,0.2,0.3,0.4l0,0l0,0c0.1,0.1,0.2,0.2,0.4,0.3L8.1,26
	c0.1,0.1,0.2,0.1,0.2,0.2l0.1,0.1c0.1,0.1,0.2,0.2,0.4,0.3l0,0c0,0,0,0,0.1,0c0.1,0.1,0.2,0.2,0.4,0.2L9.4,27
	c0.1,0.1,0.2,0.1,0.2,0.2l0.1,0.1c0.1,0.1,0.2,0.1,0.4,0.2c0,0,0.1,0,0.1,0.1l0,0c0.1,0.1,0.2,0.1,0.4,0.2l0.1,0.1
	c0.1,0.1,0.4,0.2,0.5,0.2c0,0,0.1,0,0.1,0.1c0.1,0.1,0.2,0.1,0.4,0.2c0.1,0,0.1,0.1,0.2,0.1c0.1,0,0.1,0.1,0.2,0.1l0,0h0.1
	c0.1,0.1,0.2,0.1,0.4,0.2c0,0,0,0,0.1,0c0.1,0.1,0.4,0.1,0.5,0.2h0.1c0.1,0,0.4,0.1,0.5,0.1l0,0c0.1,0,0.4,0.1,0.5,0.1h0.1
	c0.1,0,0.4,0.1,0.5,0.1c11,2,14.2-6.6,14.2-6.6c-2.7,3.5-7.5,4.4-12,3.4c-0.1,0-0.4-0.1-0.5-0.1h-0.1c-0.1,0-0.4-0.1-0.5-0.1
	c0,0,0,0-0.1,0s-0.2-0.1-0.5-0.1h-0.1c-0.1-0.1-0.4-0.1-0.5-0.2h-0.1c-0.1-0.1-0.2-0.1-0.3-0.2h-0.1c-0.1,0-0.2-0.1-0.4-0.1
	c-0.1,0-0.1-0.1-0.2-0.1c-0.1-0.1-0.2-0.1-0.4-0.2c0,0-0.1,0-0.1-0.1c-0.1-0.1-0.4-0.2-0.5-0.2c0,0-0.1,0-0.1-0.1
	c-0.1-0.1-0.2-0.1-0.3-0.2c0,0-0.1,0-0.1-0.1c-0.1-0.1-0.2-0.1-0.4-0.2L11.6,24c-0.1-0.1-0.2-0.1-0.2-0.2l-0.1-0.1
	c-0.1-0.1-0.2-0.2-0.4-0.4l0,0c-0.1-0.1-0.2-0.2-0.3-0.3l-0.1-0.1c-0.1-0.1-0.2-0.1-0.2-0.2l-0.1-0.1c-0.1-0.1-0.2-0.2-0.3-0.4l0,0
	c-0.1-0.1-0.2-0.2-0.4-0.3c0,0,0-0.1-0.1-0.1c-0.1-0.1-0.1-0.2-0.2-0.4l-0.1-0.1c-0.1-0.1-0.2-0.2-0.2-0.3c-2.4-3.4-3.4-8.2-1.4-12"
	/>
<path fill="#828282" d="M12.7,8.6c-1.6,2.3-1.5,5.5-0.2,8.1c0.2,0.5,0.5,0.8,0.7,1.2c0.2,0.3,0.5,0.8,0.8,1c0.1,0.1,0.2,0.2,0.4,0.4
	l0.1,0.1c0.1,0.1,0.2,0.2,0.4,0.3l0,0l0,0c0.1,0.1,0.2,0.2,0.5,0.3c0,0,0.1,0,0.1,0.1c0.1,0.1,0.4,0.2,0.5,0.4l0,0
	c0.1,0,0.1,0.1,0.2,0.1c0,0,0.1,0,0.1,0.1c0.1,0.1,0.2,0.1,0.4,0.2l0,0c0.1,0,0.2,0.1,0.4,0.1h0.1c0.1,0,0.1,0.1,0.2,0.1l0,0
	c0.1,0.1,0.2,0.1,0.5,0.2h0.1c0.1,0,0.2,0.1,0.4,0.1h0.1c0.1,0,0.2,0.1,0.3,0.1h0.1c0.1,0,0.4,0.1,0.5,0.1
	c8.5,1.4,10.5-5.1,10.5-5.1c-1.8,2.6-5.1,3.7-8.9,2.8c-0.1,0-0.4-0.1-0.5-0.1h-0.1c-0.1,0-0.2-0.1-0.3-0.1h-0.1
	c-0.1,0-0.2-0.1-0.4-0.1h-0.1C19.3,19,19,19,18.9,18.9c-0.1,0-0.1-0.1-0.2-0.1c0,0-0.1,0-0.1-0.1c-0.1,0-0.2-0.1-0.2-0.1s0,0-0.1,0
	c-0.1-0.1-0.2-0.1-0.4-0.2c0,0-0.1,0-0.1-0.1c-0.1,0-0.1-0.1-0.2-0.1c-0.1-0.1-0.4-0.2-0.5-0.3c0,0-0.1,0-0.1-0.1
	c-1.6-1.3-2.9-3-3.5-4.9c-0.6-2-0.5-4.3,0.6-6.2"/>
<path fill="#828282" d="M18.6,6.5c-0.9,1.4-1,3.1-0.3,4.8s2.2,3,3.8,3.6c0.1,0,0.1,0,0.2,0.1h0.1c0.1,0,0.2,0.1,0.3,0.1
	c4.7,0.9,6-2.5,6.3-2.9c-1.2,1.6-3,2-5.2,1.4c-0.2,0-0.3-0.1-0.6-0.1c-0.2-0.1-0.5-0.1-0.7-0.2c-0.4-0.2-0.8-0.5-1.2-0.7
	c-2.1-1.5-3.4-4.5-2-7"/>
<path fill="#828282" d="M71.4,34.3l-1.4,3h-1.5l0.1-2.8l-1.1,2.8h-1.4v-3l0.1-0.8h1l-0.2,3l1.2-3h1.4l-0.1,3l1.2-3h0.9L71.4,34.3
	L71.4,34.3z"/>
<path fill="#828282" d="M73.8,35.2c0.1-0.6,0.1-0.7-0.2-0.7h-0.5l-0.2,1.4l-0.5,1.5h-0.8l0.7-3.4l0.1-0.5h0.8l0.1,0.2
	c0,0,0.5-0.2,0.9-0.2c0.9,0,0.9,0.7,0.7,1.8L73.8,35.2L73.8,35.2z"/>
<path fill="#828282" d="M76.7,33.1c-0.3,0-0.6-0.1-0.6-0.6c0.1-0.5,0.3-0.6,0.8-0.6c0.4,0,0.6,0.1,0.6,0.6
	C77.3,33,77,33.1,76.7,33.1L76.7,33.1z M76.2,37.4h-0.8l0.1-1.5l0.4-1.4l-0.6-0.1l0.1-0.8H77L76.2,37.4L76.2,37.4z"/>
<path fill="#828282" d="M79.9,34.4l-1.1,0.1L78.5,36c-0.1,0.3-0.1,0.5,0.2,0.5h0.7l-0.1,0.8c0,0-0.7,0.2-0.9,0.2
	c-1.1,0-1.1-0.6-0.9-1.5l0.3-1.4l-0.6-0.1l0.2-0.8h0.6l0.4-0.9h0.8L79,33.7h1L79.9,34.4L79.9,34.4z"/>
<path fill="#828282" d="M82.2,34.4c-0.5,0-0.8,0.2-0.8,0.7l1.4-0.1C82.9,34.7,82.7,34.4,82.2,34.4L82.2,34.4z M81.2,35.8
	c-0.1,0.5,0.1,0.6,0.7,0.6h1.5l-0.1,0.8c0,0-0.9,0.2-1.6,0.2c-1.6,0-1.8-0.9-1.5-2c0.2-1.1,0.6-2,2.2-2c1.5,0,1.6,0.9,1.3,2.3H81.2
	L81.2,35.8z"/>
<path fill="#828282" d="M87.2,37.4h-0.8l0.1-1.5l0.6-2.8L86.5,33l0.2-0.8h1.6L87.2,37.4L87.2,37.4z"/>
<path fill="#828282" d="M90.2,34.4c-0.5,0-0.8,0.2-0.8,0.7l1.4-0.1C90.9,34.7,90.8,34.4,90.2,34.4L90.2,34.4z M89.3,35.8
	c-0.1,0.5,0.1,0.6,0.7,0.6h1.5l-0.1,0.7c0,0-0.9,0.2-1.6,0.2c-1.6,0-1.8-0.9-1.5-2c0.2-1,0.6-2,2.2-2c1.5,0,1.6,0.9,1.3,2.3
	L89.3,35.8L89.3,35.8z"/>
<path fill="#828282" d="M95.7,34.5c0,0-1.1,0-1.4,0c-0.6,0-0.7,0.2-0.7,0.3v0.2l2,0.1c0,0,0,0.7-0.1,1.1c-0.1,0.6-0.7,1.3-1.9,1.3
	c-0.6,0-1.5-0.2-1.5-0.2l0.1-0.7h1.4c0.6,0,0.7-0.1,0.7-0.3V36l-2-0.1c0,0-0.1-0.5,0-1.1c0.1-0.7,0.8-1.3,1.9-1.3
	c0.6,0,1.5,0.2,1.5,0.2V34.5L95.7,34.5z"/>
<path fill="#828282" d="M99.4,34.5c0,0-1.1,0-1.4,0c-0.6,0-0.7,0.2-0.7,0.3v0.2l2,0.1c0,0,0,0.7-0.1,1.1c-0.1,0.6-0.7,1.2-1.9,1.2
	c-0.6,0-1.5-0.2-1.5-0.2l0.1-0.7h1.4c0.6,0,0.7-0.1,0.7-0.3v-0.2l-1.9-0.1c0,0-0.1-0.5,0-1.1c0.1-0.7,0.8-1.3,1.9-1.3
	c0.6,0,1.5,0.2,1.5,0.2L99.4,34.5L99.4,34.5z"/>
<path fill="#828282" d="M100.6,38h-0.7v-0.6c-0.2,0-0.5-0.2-0.3-0.6c0.1-0.5,0.3-0.6,0.8-0.6c0.4,0,0.6,0.1,0.6,0.6L100.6,38
	L100.6,38z"/>
<path fill="#828282" d="M105.6,34.5c-0.6,0-0.8,0.3-0.9,0.9c-0.1,0.6-0.1,0.9,0.5,0.9h0.8l0.5-2h-0.8V34.5z M106.9,36.9l-0.1,0.5
	H106l-0.1-0.2c0,0-0.7,0.3-1.2,0.3c-1.2,0-1.3-0.9-1.1-2c0.2-1,0.7-2,1.9-2c0.5,0,1.1,0.2,1.1,0.2l0.5-1.6h0.8L106.9,36.9
	L106.9,36.9z"/>
<path fill="#828282" d="M110,34.5c-0.7,0-0.9,0.5-1.1,1.1c-0.1,0.6-0.1,1,0.7,1c0.7,0,0.9-0.3,1.1-1C110.9,34.8,110.9,34.5,110,34.5
	L110,34.5z M109.5,37.4c-1.5,0-1.6-0.9-1.5-2c0.2-1.1,0.8-2,2.3-2s1.6,0.9,1.5,2C111.6,36.5,111,37.4,109.5,37.4z"/>
<path fill="#828282" d="M118.2,37.4l0.1-1.5l0.1-0.5c0.1-0.6,0.2-0.9-0.4-0.9h-0.5c0,0.2,0,0.6-0.1,0.9l-0.4,1.9h-0.8l0.1-1.5
	l0.1-0.5c0.1-0.6,0.2-0.9-0.3-0.9h-0.4l-0.6,2.9h-1l0.8-3.8h0.8l0.1,0.2c0,0,0.6-0.2,0.9-0.2c0.3,0,0.6,0.1,0.7,0.3
	c0.2-0.1,0.7-0.3,1.1-0.3c1.2,0,1.2,0.9,0.9,2l-0.4,1.9L118.2,37.4L118.2,37.4z"/>
<path fill="#828282" d="M122.2,34.5c-0.7,0-0.9,0.5-1.1,1.1c-0.1,0.6-0.1,1,0.7,1c0.7,0,0.9-0.3,1-1C123,34.8,123,34.5,122.2,34.5z
	 M121.6,37.4c-1.5,0-1.6-0.9-1.5-2c0.2-1.1,0.8-2,2.3-2s1.6,0.9,1.5,2C123.7,36.5,123.1,37.4,121.6,37.4z"/>
<path fill="#828282" d="M126.5,35.2c0.1-0.6,0.1-0.7-0.2-0.7h-0.5l-0.4,1.4l-0.5,1.5h-0.8l0.7-3.4l0.1-0.5h0.8l0.1,0.2
	c0,0,0.5-0.2,0.9-0.2c0.9,0,0.9,0.7,0.7,1.8L126.5,35.2L126.5,35.2z"/>
<path fill="#828282" d="M129.9,34.4c-0.5,0-0.8,0.2-0.8,0.7l1.4-0.1C130.5,34.7,130.5,34.4,129.9,34.4L129.9,34.4z M128.8,35.8
	c-0.1,0.5,0.1,0.6,0.7,0.6h1.5l-0.1,0.7c0,0-0.9,0.2-1.6,0.2c-1.6,0-1.8-0.9-1.5-2c0.2-1,0.6-2,2.2-2c1.5,0,1.6,0.9,1.3,2.3
	L128.8,35.8L128.8,35.8z"/>
<path fill="#828282" d="M132.1,37.4c-0.4,0-0.6-0.1-0.6-0.6c0.1-0.5,0.4-0.6,0.8-0.6c0.4,0,0.6,0.1,0.6,0.6
	C132.8,37.3,132.6,37.4,132.1,37.4z"/>
</svg>
