<?xml version="1.0" encoding="utf-8"?>
<!-- Generated by IcoMoon.io -->
<!DOCTYPE svg PUBLIC "-//W3C//DTD SVG 1.1//EN" "http://www.w3.org/Graphics/SVG/1.1/DTD/svg11.dtd">
<svg version="1.1" xmlns="http://www.w3.org/2000/svg" xmlns:xlink="http://www.w3.org/1999/xlink" width="16" height="16" viewBox="0 0 16 16">
<path fill="#CCCCCC" d="M12.8 0.8h-9.6c-0.442 0-0.8 0.358-0.8 0.8v12.8c0 0.442 0.358 0.8 0.8 0.8h9.6c0.442 0 0.8-0.358 0.8-0.8v-12.8c0-0.442-0.358-0.8-0.8-0.8zM10.236 9.215c-0.148 0.306-0.298 0.322-0.233 0 0.169-0.831 0.054-2.617-1.203-2.815v3.8c0 0.778-0.358 1.456-1.311 1.762-0.925 0.295-1.959-0.013-2.202-0.677s0.302-1.472 1.214-1.805c0.51-0.186 1.1-0.234 1.498-0.081v-5.4h0.8c0 1.884 3.252 1.471 1.436 5.215z"></path>
</svg>
