<svg xmlns="http://www.w3.org/2000/svg" width="14" height="16" viewBox="0 0 14 16"><path fill="#2cc7c1" d="M11.429 10.652q0-.098-.018-.143-.027-.071-.344-.263t-.79-.442l-.473-.259q-.045-.027-.17-.116t-.223-.134-.188-.045q-.161 0-.42.29t-.509.585-.393.295q-.063 0-.147-.031t-.138-.058-.152-.085-.125-.076q-.884-.491-1.522-1.129T4.688 7.519q-.018-.027-.076-.125t-.085-.152-.058-.138-.031-.147q0-.116.183-.299t.402-.344.402-.353.183-.326q0-.089-.045-.188t-.134-.223-.116-.17Q5.286 5 5.179 4.8t-.223-.406-.237-.424-.223-.362-.147-.161-.143-.018q-.429 0-.902.196-.411.188-.714.844t-.304 1.165q0 .143.022.304t.045.272.08.295.089.263.112.295.098.268q.536 1.464 1.933 2.862t2.862 1.933q.054.018.268.098t.295.112.263.089.295.08.272.045.304.022q.509 0 1.165-.304t.844-.714q.196-.473.196-.902zm2.285-6.938v8.571q0 1.063-.754 1.817t-1.817.754H2.572q-1.063 0-1.817-.754t-.754-1.817V3.714q0-1.063.754-1.817t1.817-.754h8.571q1.063 0 1.817.754t.754 1.817z"/></svg>