<?xml version="1.0" encoding="utf-8"?>
<!-- Generated by IcoMoon.io -->
<!DOCTYPE svg PUBLIC "-//W3C//DTD SVG 1.1//EN" "http://www.w3.org/Graphics/SVG/1.1/DTD/svg11.dtd">
<svg version="1.1" xmlns="http://www.w3.org/2000/svg" xmlns:xlink="http://www.w3.org/1999/xlink" width="14" height="16" viewBox="0 0 14 16">
<path fill="#2cc7c1" d="M10.473 9.491q0-0.446-0.174-0.817t-0.433-0.612-0.652-0.438-0.737-0.304-0.781-0.205l-0.929-0.214q-0.268-0.063-0.393-0.094t-0.313-0.103-0.268-0.143-0.147-0.188-0.067-0.268q0-0.688 1.286-0.688 0.384 0 0.688 0.107t0.482 0.254 0.339 0.299 0.357 0.259 0.429 0.107q0.42 0 0.674-0.286t0.254-0.688q0-0.491-0.5-0.888t-1.268-0.603-1.625-0.205q-0.607 0-1.179 0.138t-1.067 0.42-0.795 0.777-0.299 1.147q0 0.545 0.17 0.951t0.5 0.674 0.714 0.433 0.92 0.29l1.304 0.321q0.804 0.196 1 0.321 0.286 0.179 0.286 0.536 0 0.348-0.357 0.576t-0.938 0.228q-0.455 0-0.817-0.143t-0.58-0.344-0.406-0.402-0.411-0.344-0.482-0.143q-0.446 0-0.674 0.268t-0.228 0.67q0 0.821 1.089 1.406t2.598 0.585q0.652 0 1.25-0.165t1.094-0.478 0.79-0.835 0.295-1.174zM13.714 11.429q0 1.42-1.004 2.424t-2.424 1.004q-1.161 0-2.089-0.714-0.688 0.143-1.339 0.143-1.277 0-2.442-0.496t-2.009-1.339-1.339-2.009-0.496-2.442q0-0.652 0.143-1.339-0.714-0.929-0.714-2.089 0-1.42 1.004-2.424t2.424-1.004q1.161 0 2.089 0.714 0.688-0.143 1.339-0.143 1.277 0 2.442 0.496t2.009 1.339 1.339 2.009 0.496 2.442q0 0.652-0.143 1.339 0.714 0.929 0.714 2.089z"></path>
</svg>
