<svg version="1" xmlns="http://www.w3.org/2000/svg" width="170" height="40" viewBox="0 0 170 40"><path fill="#37465D" d="M152.7 26.1c-2.3 0-4.2 1.8-4.2 4.1 0 2.2 1.9 4.1 4.2 4.1s4.2-1.8 4.2-4.1c0-2.2-1.9-4.1-4.2-4.1zm-22.9 2.4v-24h-2.6S123 6 120 6.4v4.5h1.9c.6 0 .9.3.9.9v16.8c0 .6-.3.9-.9.9-.5 0-1.5.1-1.5.1v4.5h11.9v-4.5s-1.1-.1-1.5-.1c-.6-.1-1-.4-1-1zm24.1-11.9c-.3-5-7.1-5.3-10.7-1.9l-.7-2h-8.2v4.6h1.7c.6 0 .9.3.9.9v10.3c0 .6-.3.9-.9.9-.5 0-1.5.1-1.5.1V34h11.6v-4.5s-.9-.1-1.5-.1-.9-.3-.9-.9v-7c0-1.3.3-3.5 2.6-4 .3 2.1 2.4 2.8 3.4 2.8 2.7 0 4.2-2 4.2-3.7zm-44-4.2c-1.8.1-3.6.8-5 2V4.5h-2.5S98.3 6 95.1 6.4l-.1 4.5h2c.6 0 .9.3.9.9v22.4h5.7l.9-1.8c.2.1 2.8 2.6 7 2.1 5.3-.6 8-4.8 8-11.1.1-3.5-.9-11.3-9.6-11zm-1 16.7c-.9.1-2.7-.1-3.9-2.1v-3-3.4c0-1.5 1.4-2.8 3.5-2.9 2.1-.1 4 1.4 4 5.6 0 5.6-2.4 5.7-3.6 5.8zm-15.4-.6V22c0-2.3 0-4.7-1.5-6.7-1.4-1.8-3.7-3.1-7.3-2.9-2.3.1-4.9 1.2-6.2 3.1l-.3.3-.2-.2c-1.5-2.1-3.7-3.3-7.2-3.2-2.3.1-4.9 1.2-6.2 3.1l-.2-2.8h-8.5v4.6h2c.6 0 .9.3.9.9V28.5c0 .6-.3.9-.9.9-.5 0-1.5.1-1.5.1V34h11.7v-4.5s-.9-.1-1.5-.1-.9-.3-.9-.9v-6.9c0-1.2.9-3.5 4-3.5 2.5 0 3 1.5 3 3.2v7.3c0 .6-.3.9-.9.9-.5 0-1.5.1-1.5.1v4.5h11.6v-4.5s-.9-.1-1.5-.1-.9-.3-.9-.9v-6.9c0-1.2.9-3.5 3.9-3.5 2.5 0 3.1 1.5 3.1 3.2v7.3c0 .6-.3.9-.9.9-.5 0-1.5.1-1.5.1v4.5h11.7v-4.5s-.9-.1-1.5-.1c-.4-.1-.8-.5-.8-1.1zm-41.3 0V12.8h-9.7v4.6h1.9c.6 0 .9.3.9.9v7.2c0 .7-.5 3.3-4 3.4-2.4.1-2.9-1.4-2.9-3.2V12.8H31V26c0 3.3 1.5 8.6 8.6 8.4 2.3-.1 5-1.3 6.4-3l.1 2.6H54v-4.5s-.7-.1-1.1-.1c-.4.1-.7-.3-.7-.9zm-26.5.6c-2.4.1-2.8-1.6-2.8-2.8v-8.5h5.6v-5H23V5.4h-4.4c-.1 0-.2.1-.2.3-.3 2.2-1.4 6.2-5.9 7.8v4.3h3.4v9c0 3.2 2.1 7.9 8.5 7.8 2.1 0 4.6-.9 5.1-1.7L28 28.8c-.5.1-1.5.2-2.3.3z"/></svg>