<svg xmlns="http://www.w3.org/2000/svg" width="32" height="32" viewBox="0 0 32 32"><path fill="#FFF" d="M32 6.076a13.14 13.14 0 0 1-3.771 1.034 6.592 6.592 0 0 0 2.887-3.632 13.151 13.151 0 0 1-4.169 1.593 6.557 6.557 0 0 0-4.792-2.073 6.565 6.565 0 0 0-6.565 6.565c0 .515.058 1.016.17 1.496a18.64 18.64 0 0 1-13.532-6.86A6.536 6.536 0 0 0 1.339 7.5a6.563 6.563 0 0 0 2.921 5.465 6.54 6.54 0 0 1-2.974-.821l-.001.083a6.568 6.568 0 0 0 5.266 6.437 6.578 6.578 0 0 1-2.965.112 6.571 6.571 0 0 0 6.133 4.559 13.172 13.172 0 0 1-8.154 2.81c-.53 0-1.052-.031-1.566-.092a18.579 18.579 0 0 0 10.064 2.95c12.076 0 18.679-10.004 18.679-18.68 0-.285-.006-.568-.019-.849a13.347 13.347 0 0 0 3.276-3.398z"/></svg>