<svg version="1" xmlns="http://www.w3.org/2000/svg" width="150" height="40" viewBox="0 0 150 40"><path fill="#828282" d="M46.1 13.2c-.1-.3-.3-.4-.5-.4h-5.2c-.3 0-.4.2-.5.4l-6.6 20.9c-.1.2 0 .3.1.5s.3.3.4.3h3.6c.3 0 .4-.2.5-.4l4.5-15.3s.1-.3.5-.3.5.4.5.4l2.1 7.3h-2.8c-.3 0-.4.2-.5.4l-.8 2.9c-.1.2 0 .3.1.5s.3.3.4.3h4.8l1.3 4c.1.3.3.4.5.4h3.6c.2 0 .3-.1.4-.3.1-.2.2-.3.1-.5l-6.5-21.1zM61.8 31.5c0-.2-.1-.3-.3-.3-.2-.1-.3-.1-.4-.1-.6.2-1.1.3-1.5.3-.9 0-1.2-.3-1.2-1.1v-7.9h3.2c.3 0 .6-.3.6-.6v-2.5c0-.3-.3-.6-.6-.6h-3.2v-3.8c0-.2-.1-.3-.2-.4s-.3-.2-.4-.2l-3.3.4c-.3 0-.5.3-.5.5v3.4h-1.8c-.3 0-.6.3-.6.6v2.5c0 .3.3.6.6.6H54v8.5c0 2.9 1.5 4.4 4.5 4.4.9 0 2.3-.2 3.2-.5.3-.1.4-.3.3-.6l-.2-2.6zM67.8 12.4h-3.3c-.3 0-.6.3-.6.6v21.3c0 .3.3.6.6.6h3.3c.3 0 .6-.3.6-.6V13c0-.4-.2-.6-.6-.6zM76.4 18.3c-1.7 0-3.7.3-5.2.7-.3.1-.4.3-.4.6l.4 2.4c0 .2.1.3.3.3.1.1.3.1.4.1 1.4-.3 2.8-.4 4-.4 2.4 0 2.7.5 2.7 2.1v1.5h-3.5c-3.4 0-4.8 1.4-4.8 4.6 0 3.2 1.5 4.9 4.4 4.9 1.6 0 3.2-.4 4.5-1.3l.2.5c.1.3.3.4.5.4h2.6c.3 0 .6-.3.6-.6v-9.9c-.1-4.4-1.9-5.9-6.7-5.9zm2.1 10.5v2c-.5.2-1.5.6-2.7.6-1 0-1.4-.3-1.4-1.4 0-1 .2-1.3 1.4-1.3 0 .1 2.7.1 2.7.1zM91.3 24.8c-2.1-.5-2.1-.5-2.1-1.7 0-.8.1-1.1 1.8-1.1 1.2 0 2.8.2 3.9.4.2 0 .3 0 .4-.1.1-.1.2-.3.3-.3l.3-2.5c0-.3-.2-.5-.4-.6-1.3-.3-3-.5-4.4-.5-5 0-6.1 1.9-6.1 4.8 0 3.2.6 4.2 4.4 5.1 2.6.6 2.6 1.1 2.6 1.8 0 1-.1 1.4-1.8 1.4-1.4 0-2.9-.2-4.3-.6-.2 0-.3 0-.4.1-.2.1-.3.3-.3.3l-.4 2.4c-.1.3.1.5.3.6 1.5.5 3.7.9 5.2.9 4.9 0 5.9-2.1 5.9-5.1 0-3.5-.6-4.2-4.9-5.3zM104 24.8c-2.1-.5-2.1-.5-2.1-1.7 0-.8.1-1.1 1.8-1.1 1.2 0 2.8.2 3.9.4.2 0 .3 0 .4-.1.1-.1.2-.3.3-.3l.3-2.5c0-.3-.2-.5-.4-.6-1.3-.3-3-.5-4.4-.5-5 0-6.1 1.9-6.1 4.8 0 3.2.6 4.2 4.4 5.1 2.6.6 2.6 1.1 2.6 1.8 0 1-.1 1.4-1.8 1.4-1.4 0-2.9-.2-4.3-.6-.2 0-.3 0-.4.1-.1 0-.2.2-.2.3l-.4 2.4c-.1.3.1.5.3.6 1.5.5 3.7.9 5.2.9 4.9 0 5.9-2.1 5.9-5.1-.1-3.5-.7-4.2-5-5.3zM114.7 12.4h-3.3c-.3 0-.6.3-.6.6v2.9c0 .3.3.6.6.6h3.3c.3 0 .6-.3.6-.6V13c-.1-.4-.4-.6-.6-.6zM114.7 18.5h-3.3c-.3 0-.6.3-.6.6v15c0 .3.3.6.6.6h3.3c.3 0 .6-.3.6-.6v-15c-.1-.3-.4-.6-.6-.6zM123.2 18.3c-1.7 0-3.7.3-5.2.7-.3.1-.4.3-.4.6l.4 2.4c0 .2.1.3.3.3.1.1.3.1.4.1 1.4-.3 2.8-.4 4-.4 2.4 0 2.7.5 2.7 2.1v1.5h-3.5c-3.4 0-4.8 1.4-4.8 4.6 0 3.2 1.5 4.9 4.4 4.9 1.6 0 3.2-.4 4.5-1.3l.2.5c.1.3.3.4.5.4h2.6c.3 0 .6-.3.6-.6v-9.9c-.1-4.4-1.9-5.9-6.7-5.9zm2.2 10.5v2c-.5.3-1.5.7-2.7.7-1 0-1.4-.3-1.4-1.4 0-1 .2-1.3 1.4-1.3h2.7zM142 18.3c-1.7 0-4.1.6-6.2 1.5l-.3-.9c-.1-.3-.3-.4-.5-.4h-2.5c-.3 0-.6.3-.6.6v15c0 .3.3.6.6.6h3.3c.3 0 .6-.3.6-.6V23.7c1.2-.6 2.8-1.2 3.8-1.2.8 0 1 .3 1 1v10.7c0 .3.3.6.6.6h3.3c.3 0 .6-.3.6-.6V23.1c.1-3.2-1.2-4.8-3.7-4.8zM37.4 5.4c-.2-.2-.3-.3-.6-.3-.1 0-.3 0-.3.1C32 7.7 26.8 9 21.4 9S10.7 7.7 6.2 5.2h-.3c-.3 0-.5.1-.6.3-.3.2-.3.7.1 1 2.2 1.7 4.7 3 7.4 3.9 2.7.9 5.6 1.4 8.5 1.4 2.9 0 5.8-.5 8.5-1.4 2.6-.9 5.1-2.2 7.4-3.9.4-.3.4-.8.2-1.1zM32.2 12.5c-.1-.1-.3-.1-.3-.1h-.3c-1.3.5-2.6.9-3.8 1.2-.3.1-.4.3-.5.4-.9 2.4-3.2 4.7-5.5 7.1-.1.1-.3.2-.4.2-.3 0-.3-.1-.4-.2-2.4-2.4-4.6-4.7-5.5-7.1-.1-.3-.3-.4-.5-.4-1.2-.3-2.6-.7-3.8-1.2h-.3c-.2 0-.3 0-.3.1-.3.2-.3.3-.3.6.2 2 1 3.9 2.4 6.1 1.4 2 3.1 3.8 4.8 5.5 3.2 3.2 6.1 6.2 6.3 9.7 0 .3.3.6.6.6h3.7c.2 0 .3-.1.4-.2.1-.1.2-.3.2-.4-.1-2.3-1-4.7-2.6-7.2-.3-.5-.8-1-1.1-1.5-.2-.2-.1-.4 0-.6l.3-.3c1.7-1.7 3.4-3.5 4.8-5.5 1.5-2.1 2.2-4 2.4-6-.1-.5-.1-.7-.3-.8zM17.3 27.2c-.1-.1-.3-.2-.4-.2-.3 0-.4.2-.5.3-1.5 2.4-2.3 4.5-2.5 6.8 0 .2.1.3.2.4.1.1.3.2.4.2h3.7c.3 0 .6-.3.6-.6.1-1.1.4-2.1 1-3.2.2-.4.1-.8-.1-.9-.5-.8-1.3-1.7-2.4-2.8z"/><path fill="#828282" d="M21.3 14.2c1.1 0 1.8-.1 2.1-.1.3 0 .6.3.6.6 0 .1 0 .2-.1.3-.2.4-.9 1.9-2.1 3.2-.2.2-.3.2-.4.2-.1 0-.3 0-.4-.2-1.3-1.3-2-2.7-2.1-3.2 0-.1-.1-.1-.1-.3 0-.3.3-.6.6-.6.1.1.7.1 1.9.1z"/></svg>