<svg xmlns="http://www.w3.org/2000/svg" width="16" height="16" viewBox="0 0 16 16"><path fill="#2cc7c1" d="M16 6.339v7.089q0 .589-.42 1.009t-1.009.42H1.428q-.589 0-1.009-.42t-.42-1.009V6.339q.393.438.902.777 3.232 2.196 4.438 3.08.509.375.826.585t.844.429.982.219h.018q.455 0 .982-.219t.844-.429.826-.585q1.518-1.098 4.446-3.08.509-.348.893-.777zm0-2.625q0 .705-.438 1.348T14.473 6.16l-4.179 2.902-.379.272q-.29.209-.482.339t-.464.29-.513.241-.446.08h-.018q-.205 0-.446-.08t-.513-.241-.464-.29-.482-.339-.379-.272q-.813-.571-2.339-1.629t-1.83-1.272Q.985 5.786.494 5.13T.003 3.911q0-.696.371-1.161t1.058-.464h13.143q.58 0 1.004.42t.424 1.009z"/></svg>