<svg version="1" xmlns="http://www.w3.org/2000/svg" width="160" height="40" viewBox="0 0 160 40"><path fill="#828282" d="M21.3 7c-.8-.4-3.1-.2-5.8.7-4.8 3.3-8.8 8.1-9.2 15.8-.1.2-.5 0-.6-.1-1.3-2.4-1.8-5.1-.7-8.9.2-.3-.5-.7-.6-.5-.3.3-1.2 1.3-1.9 2.4C-.8 22.1 1.4 29.3 7 32.5c5.7 3.2 12.9 1.1 16.1-4.5 3.8-6.7.3-19.8-1.8-21zM41.7 10.2c-6.8 0-11.6 5.1-11.6 11.9C30.1 29 35 33.9 42 33.9c3.5 0 6.3-1.1 8.6-3.4.7-.7.8-1.4.8-1.7 0-1.1-.9-2-2-2-.6 0-1 .3-1.6.8-1.3 1.2-2.9 2.4-5.7 2.4-3.9 0-6.9-2.9-7.1-6.6h15.2c1.6 0 2.5-.8 2.5-2.4 0-.4 0-.8-.1-1.5-1-5.7-5-9.3-10.9-9.3zm0 3.6c3.7 0 6 2.3 6.2 6.1H34.7c.4-3.4 3.4-6.1 7-6.1zM67 10.2c-3.1 0-6.1 1.8-7.3 4.2v-1.5c0-2.3-1.8-2.5-2.1-2.5-1.1 0-2.2.7-2.2 2.5v18.3c0 2.4 2 2.6 2.3 2.6s2.3-.1 2.3-2.6v-9.8c0-4.3 2.4-7.3 5.9-7.3 3.3 0 5 2.2 5 6.8v10.4c0 2.4 2 2.6 2.3 2.6.3 0 2.3-.1 2.3-2.6V19.4c0-4.4-2.2-9.2-8.5-9.2zM96.5 10.4c-1.1 0-1.9.6-2.3 1.9l-6.3 16-6.3-16c-.5-1.3-1.3-1.9-2.4-1.9-1.3 0-2.3 1-2.3 2.2 0 .3 0 .7.3 1.3l7.3 17.3c.9 2.1 2.3 2.5 3.3 2.5s2.5-.4 3.3-2.5l7.4-17.4c.3-.6.3-1 .3-1.3 0-1.1-1-2.1-2.3-2.1zM110.1 10.2c-3 0-5.7.9-7.8 2.3-.7.5-1 1.1-1 1.8 0 1 .8 1.9 1.8 1.9.4 0 .9-.2 1.4-.5 1.8-1.2 3.4-1.7 5.2-1.7 3.4 0 5.4 1.7 5.4 4.8v.5c-7.7 0-15.6.9-15.6 7.6 0 4.8 4.1 7 8.2 7 3.3 0 5.8-1.3 7.5-3.8v1.3c0 1.7 1.2 2.4 2.2 2.4.2 0 2.1-.1 2.1-2.4V19.1c0-5.6-3.5-8.9-9.4-8.9zm3.9 12.5h.9v1.1c0 3.9-2.5 6.4-6.3 6.4-1 0-4.5-.3-4.5-3.4.1-3.7 5.7-4.1 9.9-4.1zM131.6 14.6c2.1 0 2.1-1.5 2.1-1.9 0-.9-.6-2-2.1-2h-4.2V6.6c0-1.9-1.2-2.6-2.3-2.6-.4 0-2.3.1-2.3 2.6v20.1c0 4.6 2.3 7.1 6.6 7.1 1.1 0 2.2-.2 2.9-.5.9-.4 1.3-1.1 1.3-1.8 0-1.1-.8-1.9-1.9-1.9-.2 0-.5.1-.9.2s-.7.2-.9.2c-1.8 0-2.6-1.1-2.6-3.6V14.6h4.3zM147 10.2c-7 0-12.2 5-12.2 11.8 0 3.3 1.2 6.4 3.5 8.6 2.2 2.1 5.3 3.3 8.6 3.3 6.9 0 12.2-5.1 12.2-11.9 0-6.9-5.1-11.8-12.1-11.8zm0 19.8c-4.8 0-7.4-4-7.4-8 0-5.5 3.8-8 7.4-8s7.4 2.5 7.4 8c-.1 5.5-3.9 8-7.4 8z"/></svg>