<svg version="1" xmlns="http://www.w3.org/2000/svg" width="150" height="40" viewBox="0 0 150 40"><path fill="#131B28" d="M65.1 15.6l-.9 3.3.9-3.3zM69.8 22.6h-1.1 1.1zM69.6 27.5h-6.1 6.1zM70.8 22.6h-1.1 1.1zM70 27l1.1-4-1.1 4zM92.3 8.6l-2 9.2 2-9.2zM87.3 8.6l-1.5 6.9 1.5-6.9z"/><path fill="#131B28" d="M92 8.1h-4.2c-.2 0-.5.2-.5.5l-1.5 6.9-1.5 6.9c0 .2-.2.5-.5.5h-3.1c-2.9 0-2.6-2-2-4.8V18l.1-.3v-.1l.1-.7.1-.8c0-.2.1-.6.1-.8l.7-3.3.7-3.3c0-.2-.1-.5-.4-.5H76c-.2 0-.5.2-.5.5l-.9 4.3-.9 4.4-.1.4c-1.1 4.9-.8 9.4 5 9.7h9.2c.2 0 .5-.2.5-.5l2-9.2 2-9.2c0-.2-.1-.5-.3-.5zM108.6 22.8c.2 0 .4.2.4.5l-.4 1.9M108.2 27.3l.4-2-.4 2zM107.7 27.6H100h7.7zM97.4 20.3c0-.2.2-.6.5-.6h-.5c-.2 2.3 0 .6 0 .6zM100.4 27.6z"/><path fill="#131B28" d="M108.6 22.8c.2 0 .4.2.4.5l-.4 1.9-.1.4M102.3 27.6zM101.3 27.6zM101.1 27.6c-.2 0-.2 0 0 0-.2 0-.2 0 0 0zM100.7 27.6zM101.3 27.6h-.2.2zM102.3 27.6h-1.1 1.1zM107.7 27.6h-5.4 5.4zM108.2 27.3l.4-1.6-.4 1.6zM100.9 27.6h-.2.2zM100.2 27.6h-.4.4zM100.6 27.6h-.2.2zM39.3 20.3l.7-2.9-.7 3.3-.7 3.3.6-2.9c-.1-.3 0-.6.1-.8zM47 8.1h-4.5c-.2 0-.5.2-.5.5l-.5 2-.5 2c0 .2.1.5.3.5H46c.2 0 .5-.2.5-.5l.5-2 .5-1.9c0-.3-.2-.6-.5-.6zM46.1 14.5l-1.4 6.3 1.4-6.3zM32.7 35.2h3.8-3.8zM40.6 14.5l-.7 2.9.7-2.9z"/><path fill="#131B28" d="M45.8 14.1h-4.7c-.2 0-.5.2-.5.5l-.7 2.9-.7 2.9c0 .2-.1.6-.2.8l-.6 2.9-.6 2.9c0 .2-.1.6-.2.8 0 0-.8 2.6-2.3 2.6h-1.5c-.2 0-.5.2-.5.4l-.5 2-.5 2c0 .2.1.5.3.5h3.8c3.6 0 5.6-2 6.8-7.8l1.4-6.7 1.4-6.3c.1-.2 0-.4-.2-.4zM111.7 27.4c-.2 0-.3-.2-.3-.5l3.5-16.3M116.5 27l1.4-7-1.4 7z"/><path fill="#131B28" d="M111.3 27.3v-.6L113 19l-1.8 8.2c0 .2.1.5.4.5h.5c-.3-.3-.7-.3-.8-.4zM116.2 27.4c-.1 0-.5.1-.7.1h.5c.2 0 .5-.2.5-.5l.1-.5c0 .3-.3.8-.4.9zM117.2 23.5l.6-3-.6 3zM130.9 11.8l.2.8c0 .2-.1.5-.4.5M116.6 26.6l.6-3-.6 3zM130.8 10.9l.2.8-.2-.8zM117.9 20.5c0-.2.1-.6.1-.8l.7-3.2-.7 3.5-.1.5zM114.8 10.4c0 .2-.1.5-.1.7l-1.6 7.8 1.8-8.2v-.3h-.1z"/><path fill="#131B28" d="M131.2 12.6l-.2-.8-.2-.8-.1-.5c-.4-1.5-1.5-2.3-3.9-2.3h-11.3c-.2 0-.5.2-.5.5l-.1.8-.1.9v.2l-1.8 8.2-1.6 7.7c0 .2-.1.5 0 .6 0 .1.5.2.7.2h3.5c.2 0 .6 0 .7-.1.1 0 .4-.5.4-.7l.6-3 .6-3 .1-.5.7-3.5.7-3.1c0-.2.2-.5.5-.5h11c.1 0 .3-.1.3-.3z"/><path fill="#131B28" d="M145.3 5.3H141c-.2 0-.6.1-.7.3L132.5 17c-.1.2-.2.1-.4-.1l-.6-2.6c0-.2-.2-.5-.5-.5h-5c-.2 0-.4.2-.4.4l2.2 7.8c.1.2.1.6 0 .8l-.9 3.8c0 .2.1.5.4.5h4.9c.2 0 .5-.2.6-.5l.9-3.8c0-.2.2-.6.4-.7l12.6-16.8c.1-.2.1-.4-.1-.4l-1.3.4zM105.6 15.2c0 .2-.2.5-.5.5h-6.3c-.2 0-.3-.1-.3-.4v-.1c.6-1.6 1.9-2.7 4.2-2.7 2.6.1 3 1.2 2.9 2.7zm-1.9-7.3c-8.2 0-10 4.9-11.2 9.9-1.1 5.1-.9 9.8 7.5 9.8H107.8c.2 0 .5-.2.5-.5l.4-1.6.1-.4.4-2c0-.2-.1-.5-.4-.5h-7.6c-3 0-3.9-.8-3.6-3.2h12.1c.2 0 .3-.1.5-.3V19c1.7-6.5 1.2-11.1-6.5-11.1zM65.2 15.2l-.1.4-.9 3.3-.9 3.3c-.1.2-.3.3-.6.3h-4.8c-3.6 0-4.6-2.9-3.6-7.1.9-4.3 2.7-7 6.3-7.4 4.8-.3 5.8 3.2 4.6 7.2zm3.3 7s2.3-5.5 2.8-8.8C72 9.2 69.9 3 61.6 3S49.8 9 48.4 15.4c-1.4 6.5.5 12.2 8.6 12.1h12.5c.2 0 .5-.2.6-.5l1.1-4c.1-.2-.1-.5-.3-.5h-2.2c-.1.1-.2 0-.2-.3z"/><path fill="#131B28" d="M109.3 18.5c0 .1-.1.2-.2.2s-.2-.1-.2-.2.1-.2.2-.2.2.1.2.2z"/><path fill="#0B6AAE" d="M5.6 11.3c-2.2 3.3-2 7.5-.2 11 0 .1.1.1.1.2 0 0 0 .1.1.1v.1l.1.1c0 .1.1.2.1.2l.2.2c.1.1.1.2.2.4 0 0 0 .1.1.1 0 .3.1.5.2.6v.1c.1.1.1.2.2.3l.1.1c.2.1.2.3.3.3l.1.1c.1.1.2.2.3.4.1.1.2.2.4.3l.2.1c.1.1.2.1.2.2l.1.1c.1.1.2.2.4.3h.1c.1.1.2.2.4.2l.1.2c.1.1.2.1.2.2l.1.1c.1.1.2.1.4.2 0 0 .1 0 .1.1.1.1.2.1.4.2l.1.1c.1.1.4.2.5.2 0 0 .1 0 .1.1.1.1.2.1.4.2.1 0 .1.1.2.1s.1.1.2.1h.1c.1.1.2.1.4.2h.1c.1.1.4.1.5.2h.1c.1 0 .4.1.5.1.1 0 .4.1.5.1h.1c.1 0 .4.1.5.1 11 2 14.2-6.6 14.2-6.6-2.7 3.5-7.5 4.4-12 3.4-.1 0-.4-.1-.5-.1h-.1c-.1 0-.4-.1-.5-.1h-.1c-.1 0-.2-.1-.5-.1h-.1c-.1-.1-.4-.1-.5-.2h-.1c-.1-.1-.2-.1-.3-.2h-.1c-.1 0-.2-.1-.4-.1-.1 0-.1-.1-.2-.1-.1-.1-.2-.1-.4-.2 0 0-.1 0-.1-.1-.1-.1-.4-.2-.5-.2 0 0-.1 0-.1-.1-.1-.1-.2-.1-.3-.2 0 0-.1 0-.1-.1-.1-.1-.2-.1-.4-.2l-.2-.1c-.1-.1-.2-.1-.2-.2l-.1-.1-.4-.4-.3-.3-.1-.1c-.1-.1-.2-.1-.2-.2l-.1-.1c-.1-.1-.2-.2-.3-.4-.1-.1-.2-.2-.4-.3 0 0 0-.1-.1-.1-.1-.1-.1-.2-.2-.4l-.1-.1c-.1-.1-.2-.2-.2-.3-2.4-3.4-3.4-8.2-1.4-12"/><path fill="#0B6AAE" d="M12.7 8.6c-1.6 2.3-1.5 5.5-.2 8.1.2.5.5.8.7 1.2.2.3.5.8.8 1l.4.4.1.1c.1.1.2.2.4.3.1.1.2.2.5.3 0 0 .1 0 .1.1.1.1.4.2.5.4.1 0 .1.1.2.1 0 0 .1 0 .1.1.1.1.2.1.4.2.1 0 .2.1.4.1h.1c.1 0 .1.1.2.1.1.1.2.1.5.2h.1c.1 0 .2.1.4.1h.1c.1 0 .2.1.3.1h.1c.1 0 .4.1.5.1 8.5 1.4 10.5-5.1 10.5-5.1-1.8 2.6-5.1 3.7-8.9 2.8-.1 0-.4-.1-.5-.1h-.1c-.1 0-.2-.1-.3-.1H20c-.1 0-.2-.1-.4-.1h-.1c-.2 0-.5 0-.6-.1-.1 0-.1-.1-.2-.1 0 0-.1 0-.1-.1-.1 0-.2-.1-.2-.1h-.1c-.1-.1-.2-.1-.4-.2 0 0-.1 0-.1-.1-.1 0-.1-.1-.2-.1-.1-.1-.4-.2-.5-.3 0 0-.1 0-.1-.1-1.6-1.3-2.9-3-3.5-4.9-.6-2-.5-4.3.6-6.2"/><path fill="#0B6AAE" d="M18.6 6.5c-.9 1.4-1 3.1-.3 4.8s2.2 3 3.8 3.6c.1 0 .1 0 .2.1h.1c.1 0 .2.1.3.1 4.7.9 6-2.5 6.3-2.9-1.2 1.6-3 2-5.2 1.4-.2 0-.3-.1-.6-.1-.2-.1-.5-.1-.7-.2-.4-.2-.8-.5-1.2-.7-2.1-1.5-3.4-4.5-2-7M71.4 34.3l-1.4 3h-1.5l.1-2.8-1.1 2.8h-1.4v-3l.1-.8h1l-.2 3 1.2-3h1.4l-.1 3 1.2-3h.9l-.2.8zM73.8 35.2c.1-.6.1-.7-.2-.7h-.5l-.2 1.4-.5 1.5h-.8l.7-3.4.1-.5h.8l.1.2s.5-.2.9-.2c.9 0 .9.7.7 1.8l-1.1-.1zM76.7 33.1c-.3 0-.6-.1-.6-.6.1-.5.3-.6.8-.6.4 0 .6.1.6.6-.2.5-.5.6-.8.6zm-.5 4.3h-.8l.1-1.5.4-1.4-.6-.1.1-.8H77l-.8 3.8zM79.9 34.4l-1.1.1-.3 1.5c-.1.3-.1.5.2.5h.7l-.1.8s-.7.2-.9.2c-1.1 0-1.1-.6-.9-1.5l.3-1.4-.6-.1.2-.8h.6l.4-.9h.8l-.2.9h1l-.1.7zM82.2 34.4c-.5 0-.8.2-.8.7l1.4-.1c.1-.3-.1-.6-.6-.6zm-1 1.4c-.1.5.1.6.7.6h1.5l-.1.8s-.9.2-1.6.2c-1.6 0-1.8-.9-1.5-2 .2-1.1.6-2 2.2-2 1.5 0 1.6.9 1.3 2.3h-2.5v.1zM87.2 37.4h-.8l.1-1.5.6-2.8-.6-.1.2-.8h1.6l-1.1 5.2zM90.2 34.4c-.5 0-.8.2-.8.7l1.4-.1c.1-.3 0-.6-.6-.6zm-.9 1.4c-.1.5.1.6.7.6h1.5l-.1.7s-.9.2-1.6.2c-1.6 0-1.8-.9-1.5-2 .2-1 .6-2 2.2-2 1.5 0 1.6.9 1.3 2.3l-2.5.2zM95.7 34.5h-1.4c-.6 0-.7.2-.7.3v.2l2 .1s0 .7-.1 1.1c-.1.6-.7 1.3-1.9 1.3-.6 0-1.5-.2-1.5-.2l.1-.7h1.4c.6 0 .7-.1.7-.3V36l-2-.1s-.1-.5 0-1.1c.1-.7.8-1.3 1.9-1.3.6 0 1.5.2 1.5.2v.8zM99.4 34.5H98c-.6 0-.7.2-.7.3v.2l2 .1s0 .7-.1 1.1c-.1.6-.7 1.2-1.9 1.2-.6 0-1.5-.2-1.5-.2l.1-.7h1.4c.6 0 .7-.1.7-.3V36l-1.9-.1s-.1-.5 0-1.1c.1-.7.8-1.3 1.9-1.3.6 0 1.5.2 1.5.2l-.1.8zM100.6 38h-.7v-.6c-.2 0-.5-.2-.3-.6.1-.5.3-.6.8-.6.4 0 .6.1.6.6l-.4 1.2zM105.6 34.5c-.6 0-.8.3-.9.9-.1.6-.1.9.5.9h.8l.5-2h-.8v.2zm1.3 2.4l-.1.5h-.8l-.1-.2s-.7.3-1.2.3c-1.2 0-1.3-.9-1.1-2 .2-1 .7-2 1.9-2 .5 0 1.1.2 1.1.2l.5-1.6h.8l-1 4.8zM110 34.5c-.7 0-.9.5-1.1 1.1-.1.6-.1 1 .7 1 .7 0 .9-.3 1.1-1 .2-.8.2-1.1-.7-1.1zm-.5 2.9c-1.5 0-1.6-.9-1.5-2 .2-1.1.8-2 2.3-2s1.6.9 1.5 2c-.2 1.1-.8 2-2.3 2zM118.2 37.4l.1-1.5.1-.5c.1-.6.2-.9-.4-.9h-.5c0 .2 0 .6-.1.9l-.4 1.9h-.8l.1-1.5.1-.5c.1-.6.2-.9-.3-.9h-.4l-.6 2.9h-1l.8-3.8h.8l.1.2s.6-.2.9-.2c.3 0 .6.1.7.3.2-.1.7-.3 1.1-.3 1.2 0 1.2.9.9 2l-.4 1.9h-.8zM122.2 34.5c-.7 0-.9.5-1.1 1.1-.1.6-.1 1 .7 1 .7 0 .9-.3 1-1 .2-.8.2-1.1-.6-1.1zm-.6 2.9c-1.5 0-1.6-.9-1.5-2 .2-1.1.8-2 2.3-2s1.6.9 1.5 2c-.2 1.1-.8 2-2.3 2zM126.5 35.2c.1-.6.1-.7-.2-.7h-.5l-.4 1.4-.5 1.5h-.8l.7-3.4.1-.5h.8l.1.2s.5-.2.9-.2c.9 0 .9.7.7 1.8l-.9-.1zM129.9 34.4c-.5 0-.8.2-.8.7l1.4-.1c0-.3 0-.6-.6-.6zm-1.1 1.4c-.1.5.1.6.7.6h1.5l-.1.7s-.9.2-1.6.2c-1.6 0-1.8-.9-1.5-2 .2-1 .6-2 2.2-2 1.5 0 1.6.9 1.3 2.3l-2.5.2zM132.1 37.4c-.4 0-.6-.1-.6-.6.1-.5.4-.6.8-.6s.6.1.6.6c-.1.5-.3.6-.8.6z"/></svg>