<svg xmlns="http://www.w3.org/2000/svg" width="14" height="16" viewBox="0 0 14 16"><path fill="#2cc7c1" d="M10.473 9.491q0-.446-.174-.817t-.433-.612-.652-.438-.737-.304-.781-.205l-.929-.214q-.268-.063-.393-.094t-.313-.103-.268-.143-.147-.188-.067-.268q0-.688 1.286-.688.384 0 .688.107t.482.254.339.299.357.259.429.107q.42 0 .674-.286t.254-.688q0-.491-.5-.888T8.32 3.978t-1.625-.205q-.607 0-1.179.138t-1.067.42-.795.777-.299 1.147q0 .545.17.951t.5.674.714.433.92.29l1.304.321q.804.196 1 .321.286.179.286.536 0 .348-.357.576t-.938.228q-.455 0-.817-.143t-.58-.344-.406-.402-.411-.344-.482-.143q-.446 0-.674.268t-.228.67q0 .821 1.089 1.406t2.598.585q.652 0 1.25-.165t1.094-.478.79-.835.295-1.174zm3.241 1.938q0 1.42-1.004 2.424t-2.424 1.004q-1.161 0-2.089-.714-.688.143-1.339.143-1.277 0-2.442-.496t-2.009-1.339-1.339-2.009T.572 8q0-.652.143-1.339-.714-.929-.714-2.089 0-1.42 1.004-2.424t2.424-1.004q1.161 0 2.089.714.688-.143 1.339-.143 1.277 0 2.442.496t2.009 1.339 1.339 2.009.496 2.442q0 .652-.143 1.339.714.929.714 2.089z"/></svg>