<?xml version="1.0" encoding="UTF-8" standalone="no"?>
<!DOCTYPE svg PUBLIC "-//W3C//DTD SVG 1.1//EN" "http://www.w3.org/Graphics/SVG/1.1/DTD/svg11.dtd">
<svg width="100%" height="100%" viewBox="0 0 250 150" version="1.1" xmlns="http://www.w3.org/2000/svg" xmlns:xlink="http://www.w3.org/1999/xlink" xml:space="preserve" xmlns:serif="http://www.serif.com/" style="fill-rule:evenodd;clip-rule:evenodd;stroke-linejoin:round;stroke-miterlimit:1.41421;">
    <g transform="matrix(0.94,0,0,0.94,7.5,6.03921)">
        <path d="M34.287,0.01C37.076,0.01 40.046,0.857 43.193,2.554C44.689,3.156 46.038,4.138 47.242,5.499C48.783,7.084 49.799,8.435 50.288,9.549L50.555,9.549C62.742,5.823 69.772,3.959 71.645,3.959C73.631,3.624 75.616,3.413 77.605,3.323C81.086,3.323 84.267,3.79 87.144,4.728L87.144,4.863C87.144,4.975 86.965,5.098 86.608,5.23L81.787,4.461C74.534,4.461 66.41,6.704 57.416,11.19L52.093,13.599L52.093,13.866C52.918,16.856 53.332,19.525 53.332,21.868C53.332,24.77 52.708,27.737 51.456,30.773C51.3,30.773 51.089,31.32 50.82,32.414L47.774,38.239C46.478,40.494 44.013,43.584 40.377,47.512C42.051,48.851 43.366,51.229 44.326,54.642C46.535,54.755 50.942,56.192 57.548,58.961C58.217,59.453 58.552,59.742 58.552,59.831C58.552,59.965 58.43,60.097 58.185,60.232C54.569,58.626 51.099,57.823 47.774,57.823C46.234,57.911 45.208,57.957 44.694,57.957L44.593,58.192L44.593,58.694C44.593,60.257 44.38,61.907 43.957,63.648C49.49,63.403 52.404,63.281 52.693,63.281C56.42,63.303 62.144,64.196 69.867,65.959C75.068,67.477 79.554,69.206 83.324,71.148C85.734,72.688 87.129,73.658 87.509,74.059L87.509,74.595C87.509,74.752 87.421,74.83 87.242,74.83L87.142,74.83C86.919,74.83 85.903,74.238 84.096,73.055C79.274,70.847 76.094,69.74 74.556,69.74C71.789,68.824 66.789,68.366 59.559,68.366L57.551,68.467C57.463,68.467 57.416,68.432 57.416,68.366L56.78,68.467C55.932,68.467 54.191,68.511 51.557,68.601L51.322,68.736C51.234,68.736 51.187,68.692 51.187,68.601C49.512,68.78 45.786,69.037 40.007,69.37C39.16,70.374 37.039,72.027 33.646,74.324C31.638,75.572 29.06,76.5 25.913,77.103C24.172,77.526 22.397,77.739 20.59,77.739C18.56,77.404 17.544,76.98 17.544,76.466C17.544,76.309 17.666,76.231 17.911,76.231C18.09,76.231 18.771,76.397 19.953,76.733L20.957,76.733C23.012,76.733 26.224,75.974 30.597,74.456C32.047,73.763 34.424,72.191 37.727,69.735L37.727,69.5L37.593,69.5C36.231,69.5 34.914,69.578 33.643,69.735C33.555,69.735 33.43,69.701 33.276,69.635C33.031,69.635 32.181,69.669 30.732,69.735C18.256,69.512 11.694,69.054 11.048,68.361L10.913,68.094C10.935,67.916 11.026,67.827 11.18,67.827L14.596,67.827C17.363,67.827 26.635,66.478 42.414,63.778C42.749,62.683 43.051,61.456 43.317,60.095L43.317,58.956C43.317,58.756 43.362,58.589 43.452,58.454C43.364,58.276 43.317,58.141 43.317,58.053C38.295,58.812 31.523,59.96 22.997,61.5L15.867,62.237C14.907,62.171 13.981,62.137 13.088,62.137L12.184,62.137C12.005,62.137 11.839,62.093 11.682,62.002C11.525,62.091 11.403,62.137 11.315,62.137C9.508,62.024 7.13,61.3 4.185,59.96C2.578,59.314 1.484,58.386 0.904,57.181C0.301,55.999 0,55.227 0,54.872L0,54.135C0,52.015 1.349,49.772 4.05,47.407C5.678,45.866 8.736,44.294 13.222,42.686C16.435,41.77 19.562,41.312 22.595,41.312C27.282,41.312 31.143,42.115 34.177,43.721C34.757,44.057 35.259,44.223 35.683,44.223C40.482,38.041 43.996,32.328 46.229,27.084C47.835,22.887 48.638,19.373 48.638,16.538L48.503,16.036C48.592,15.879 48.638,15.668 48.638,15.399L48.638,15.132C40.269,17.588 35.191,18.815 33.406,18.815C26.689,18.815 21.991,17.04 19.312,13.492C18.619,12.755 18.274,11.315 18.274,9.172C18.274,7.968 19.042,6.393 20.583,4.451C23.952,1.484 28.516,0 34.275,0L34.287,0.01ZM19.557,9.686L19.557,9.922C19.557,10.881 20.326,11.942 21.866,13.102C23.004,13.861 25.034,14.241 27.958,14.241L28.46,14.241C28.749,14.241 28.962,14.285 29.096,14.376C32.199,14.376 38.46,13.026 47.877,10.326C47.252,8.048 45.857,6.097 43.692,4.466C41.371,2.703 39.04,1.731 36.697,1.555C36.697,1.442 35.68,1.32 33.651,1.188C30.972,1.188 28.06,1.824 24.914,3.095C21.834,4.792 20.137,6.611 19.826,8.553C19.647,9.089 19.559,9.469 19.559,9.691L19.557,9.686ZM44.062,12.733L44.062,12.867L44.329,12.867C46.449,12.4 47.509,12.052 47.509,11.829L47.375,11.829C45.32,12.431 44.216,12.733 44.059,12.733L44.062,12.733ZM41.919,13.234L41.919,13.369L42.287,13.369C43.224,13.257 43.692,13.09 43.692,12.867L43.557,12.867C42.732,13.112 42.184,13.234 41.917,13.234L41.919,13.234ZM47.375,13.1L46.236,13.367L46.236,13.602L46.371,13.602C46.838,13.357 47.174,13.234 47.375,13.234L47.375,13.1ZM44.329,14.003L41.148,14.772L40.781,14.772C40.781,14.951 40.737,15.117 40.646,15.274L40.913,15.274C43.369,14.515 44.674,14.136 44.831,14.136L44.831,14.001L44.329,14.003ZM32.01,16.547C30.046,16.459 29.03,16.413 28.964,16.413L28.597,16.413L28.597,16.547C30.516,16.704 32.38,16.782 34.187,16.782L35.056,16.782C35.235,16.804 35.323,16.895 35.323,17.049C35.235,17.206 35.188,17.328 35.188,17.417L35.323,17.417C36.261,17.26 37.945,16.88 40.377,16.278L40.377,16.143C40.377,16.031 40.164,15.82 39.74,15.507C37.397,16.2 34.819,16.545 32.008,16.545L32.01,16.547ZM49.786,25.186L49.652,25.186C49.652,25.7 49.194,26.581 48.278,27.83C47.61,29.615 47.096,31.312 46.738,32.918L44.596,36.466L44.596,36.601C47.051,33.744 48.445,31.246 48.78,29.104C49.116,28.056 49.449,26.782 49.784,25.286L49.786,25.186ZM50.555,28.866L50.288,28.866C50.222,29.29 49.931,29.926 49.419,30.773C49.507,30.93 49.554,31.053 49.554,31.141L49.921,31.141C49.921,30.739 50.134,29.98 50.558,28.864L50.555,28.866ZM46.606,29.503L46.505,29.503C46.505,29.948 45.311,32.238 42.923,36.366L41.283,38.775L41.283,38.876L41.55,38.876C41.55,38.43 41.929,38.051 42.688,37.737C44.696,34.39 46.048,32.235 46.738,31.275C46.314,31.275 46.101,31.231 46.101,31.141L46.603,29.601L46.606,29.503ZM42.556,42.96L42.691,42.96C45.034,40.103 46.763,37.558 47.879,35.328C47.879,35.193 47.967,35.027 48.146,34.826L48.011,34.826C47.431,35.249 46.584,36.601 45.467,38.876C43.839,40.974 42.867,42.336 42.556,42.96ZM1.413,54.143C1.413,56.753 2.975,58.572 6.099,59.6C6.969,59.757 8.119,59.835 9.547,59.835C14.525,59.5 20.739,56.711 28.193,51.466C30.671,49.302 32.49,47.605 33.651,46.378C34.253,46.021 34.554,45.597 34.554,45.105C30.962,43.408 27.323,42.561 23.641,42.561C18.173,42.561 13.643,43.499 10.049,45.372C8.173,45.908 5.965,47.426 3.421,49.924C2.304,51.241 1.636,52.646 1.413,54.143ZM29.231,52.468L29.331,52.468C31.386,51.194 33.55,49.588 35.825,47.647L35.825,47.411L35.558,47.411C32.5,49.576 30.392,51.261 29.231,52.465L29.231,52.468ZM24.779,57.825L24.779,57.96L25.014,57.96L35.325,54.779C37.355,54.422 38.707,54.243 39.375,54.243L42.054,54.243L42.923,54.378L42.923,54.243C42.923,52.568 41.741,50.673 39.375,48.552L39.241,48.552C36.004,51.454 32.411,53.986 28.462,56.153C26.432,57.269 25.203,57.828 24.779,57.828L24.779,57.825ZM25.783,55.012L25.783,55.279L25.918,55.279C27.816,54.253 28.92,53.572 29.233,53.237C28.876,53.237 28.697,53.114 28.697,52.869L28.597,52.869C27.838,53.337 27.201,53.885 26.689,54.51C26.31,54.845 26.009,55.012 25.786,55.012L25.783,55.012ZM24.779,55.648L24.779,55.783L24.914,55.783C25.071,55.695 25.193,55.648 25.281,55.648L25.281,55.514L25.147,55.514C24.99,55.602 24.868,55.648 24.779,55.648ZM26.285,58.964L26.42,58.964L27.189,58.829L27.424,58.964C30.191,58.339 31.674,57.96 31.875,57.825C31.875,57.267 33.482,56.709 36.697,56.15L36.697,56.05L36.06,55.915C35.793,55.915 32.622,56.841 26.552,58.694C26.373,58.716 26.285,58.807 26.285,58.961L26.285,58.964ZM39.14,56.922L38.237,57.056L37.468,57.056C37.311,57.078 37.233,57.169 37.233,57.323L38.102,57.189L38.871,57.189C39.05,57.189 39.138,57.1 39.138,56.922L39.14,56.922ZM51.961,66.06L51.324,66.194L49.282,66.194L49.282,66.329C49.907,66.329 50.377,66.373 50.688,66.464C51.023,66.376 51.312,66.329 51.557,66.329C52.002,66.417 52.26,66.464 52.326,66.464C52.414,66.464 52.46,66.42 52.46,66.329L53.097,66.464L58.285,66.464L58.285,66.329C56.611,66.241 55.35,66.194 54.502,66.194L53.33,66.194C53.263,66.194 53.229,66.15 53.229,66.06C53.141,66.06 53.094,66.104 53.094,66.194L52.593,66.06L52.091,66.194C52.002,66.194 51.956,66.15 51.956,66.06L51.961,66.06ZM46.606,67.734L46.74,67.734C48.526,67.734 50.602,67.6 52.967,67.333L52.967,67.198L47.509,67.198C47.064,67.198 46.763,67.377 46.606,67.734ZM34.821,67.734L34.821,67.835L35.825,67.835C36.518,67.835 37.443,67.756 38.604,67.6L38.604,67.465L38.369,67.465C36.271,67.644 35.088,67.732 34.821,67.732L34.821,67.734ZM57.247,35.262C57.36,35.284 57.414,35.318 57.414,35.362L57.85,35.328L58.185,35.362C59.546,35.475 60.908,36.109 62.269,37.27C62.693,37.872 62.962,38.185 63.072,38.207C63.898,37.693 64.723,37.426 65.55,37.404C65.572,37.225 66.598,37.103 68.631,37.037C70.014,37.172 71.319,37.862 72.548,39.113C73.285,39.983 73.564,41.368 73.386,43.264C73.452,43.286 73.486,43.386 73.486,43.565C73.329,45.127 72.348,47.003 70.54,49.189C69.603,50.462 69.123,51.319 69.101,51.767L69.066,51.868C69.022,52.426 69.346,52.771 70.036,52.906L70.102,52.906C71.865,53.063 74.253,51.043 77.267,46.846L77.734,46.545C78.023,46.567 78.236,46.723 78.371,47.012L78.337,47.179C78.048,48.094 76.875,49.622 74.821,51.765C73.347,53.415 71.608,54.152 69.598,53.974C67.277,53.237 66.138,52.624 66.182,52.132C65.736,51.351 65.545,50.57 65.614,49.789L65.714,48.785L67.59,44.165C67.857,43.45 68.026,42.715 68.092,41.956C68.07,41.197 67.847,40.573 67.423,40.08C66.664,39.299 65.683,38.854 64.478,38.741C64.211,38.807 63.863,38.954 63.44,39.177C63.418,39.378 63.506,39.645 63.707,39.98L63.64,40.749C63.506,42.088 62.938,43.259 61.934,44.265C58.832,46.542 57.225,48.337 57.113,49.654C57.047,49.654 57.012,49.689 57.012,49.755C56.968,50.269 57.147,50.915 57.548,51.696C57.57,51.809 57.583,51.919 57.583,52.032C57.47,52.277 57.26,52.389 56.946,52.367L56.611,52.333C54.735,50.614 53.853,49.143 53.966,47.913C53.9,47.399 53.832,47.132 53.765,47.11C53.966,44.855 55.014,42.838 56.912,41.05C57.982,39.889 58.54,39.064 58.587,38.572C58.675,37.634 58.195,36.875 57.147,36.295C56.3,36.05 55.874,35.837 55.874,35.658L55.908,35.558C55.908,35.357 56.353,35.257 57.247,35.257L57.247,35.262ZM60.494,39.547L60.328,39.512L60.328,39.679C60.261,40.526 59.96,41.263 59.424,41.887C59.402,42.154 58.832,43.092 57.717,44.698L57.818,44.698L59.96,42.823L59.926,42.186C60.261,41.092 60.45,40.21 60.494,39.542L60.494,39.547ZM70.604,41.288L70.504,41.288C70.482,41.51 70.19,41.89 69.635,42.426C69.522,42.649 69.368,43.073 69.167,43.699L69.132,44.135L69.901,43.667L69.968,43.702C70.056,43.702 70.146,43.903 70.234,44.304C69.162,45.979 68.606,47.039 68.56,47.485C68.738,47.328 69.218,46.491 69.999,44.975L70.2,44.909L70.401,44.909L70.401,45.477L70.501,45.477C70.925,44.517 71.148,43.927 71.17,43.702L70.702,44.103C70.545,44.015 70.479,43.824 70.501,43.535L70.636,42.196L70.604,41.288ZM56.412,44.669C56.591,44.669 57.015,44.155 57.685,43.129C58.445,42.26 58.912,41.834 59.091,41.856C59.091,41.789 59.079,41.699 59.057,41.589L59.292,40.484L59.191,40.484C57.83,41.689 57.127,42.514 57.083,42.962C57.061,43.163 56.838,43.731 56.415,44.669L56.412,44.669ZM58.621,45.271C58.687,45.271 58.966,45.036 59.458,44.569L59.292,44.569C58.868,44.814 58.645,45.048 58.623,45.271L58.621,45.271ZM69.5,48.148L69.666,48.249L70.536,47.044L70.57,46.944L70.403,46.909C70.068,46.887 69.767,47.301 69.5,48.148ZM109.903,3.661L110.07,3.661C110.158,3.683 110.249,3.783 110.337,3.962C110.315,4.096 109.02,5.289 106.453,7.544C103.797,10.468 101.544,14.028 99.691,18.222C98.887,19.897 97.168,23.957 94.536,30.409C92.707,34.916 91.032,38.332 89.514,40.653L89.681,40.653C93.028,39.226 96.297,38.254 99.49,37.742L99.957,37.877L100.192,37.911L101.13,37.877L101.498,38.445L101.463,38.712C101.441,38.913 100.18,39.135 97.68,39.38C96.987,39.603 96.642,39.747 96.642,39.816L96.642,39.916C98.07,40.362 98.998,41.033 99.421,41.924C99.889,42.771 100.09,43.599 100.024,44.402C99.889,45.786 99.108,47.47 97.68,49.456C96.542,50.817 95.93,51.956 95.839,52.872C95.974,53.339 96.231,53.596 96.608,53.641L97.276,53.707C98.704,53.506 100.312,52.223 102.097,49.858C103.302,47.894 104.083,46.767 104.441,46.476L104.742,46.51C105.031,46.532 105.222,46.667 105.31,46.912L105.31,47.078C104.617,49.042 102.888,51.363 100.121,54.042C98.873,54.823 97.511,55.159 96.037,55.046C95.19,54.958 94.184,54.064 93.025,52.367C92.847,51.944 92.768,51.273 92.79,50.359C92.79,50.293 92.813,50.259 92.857,50.259L92.822,49.858C93.359,48.339 93.961,46.9 94.629,45.538C94.764,45.338 94.842,45.102 94.864,44.836L94.965,43.396C95.053,42.527 94.406,41.946 93.023,41.655C91.439,41.52 90.134,41.789 89.105,42.458C88.079,42.882 86.561,44.177 84.554,46.341C80.962,49.578 78.393,51.429 76.853,51.9C76.429,52.279 75.993,52.458 75.548,52.436L75.347,52.402C75.259,52.402 75.158,52.279 75.046,52.034L75.046,51.968C75.582,51.589 76.865,50.262 78.895,47.984C81.953,44.079 83.939,41.133 84.855,39.148C86.282,36.246 88.079,32.297 90.244,27.297C92.653,22.319 94.629,18.749 96.17,16.584C97.71,14.175 99.83,11.731 102.531,9.253C102.597,9.008 104.149,7.691 107.183,5.304C108.278,4.635 109.037,4.131 109.46,3.798C109.46,3.71 109.605,3.663 109.896,3.663L109.903,3.661ZM94.47,22.573L94.47,22.774L94.571,22.774C94.593,22.639 94.784,22.272 95.139,21.67C95.004,21.648 94.781,21.949 94.47,22.573ZM87.475,36.667L87.641,36.701C88.981,34.27 89.997,32.25 90.687,30.641C90.954,30.485 91.647,29.001 92.763,26.19C92.964,25.967 93.077,25.732 93.099,25.487L92.732,25.453C92.33,25.876 91.75,27.037 90.991,28.935C90.276,30.409 89.105,32.984 87.475,36.667ZM90.788,35.462L90.788,35.563L90.888,35.563C92.293,32.394 93.231,30.13 93.699,28.768C93.432,28.969 92.773,30.274 91.723,32.686C91.522,33.153 91.209,34.082 90.785,35.465L90.788,35.462ZM90.051,34.525L89.884,34.49C88.746,36.746 87.406,39.077 85.866,41.486L85.866,41.552L85.966,41.552L88.846,37.066C89.181,36.866 89.46,36.777 89.683,36.799L89.749,37L89.749,37.066C89.727,37.267 89.504,37.781 89.081,38.606L89.081,38.673L89.147,38.707C90.107,37.145 90.621,36.173 90.687,35.795L90.587,35.795C90.474,35.862 90.352,35.884 90.22,35.862L89.884,35.827C89.749,35.827 89.696,35.761 89.718,35.627C89.718,35.492 89.83,35.125 90.053,34.522L90.051,34.525ZM96.547,44.87L96.312,44.87C96.29,45.071 95.932,46.052 95.242,47.815L95.207,48.183L95.242,49.052L95.308,49.086C95.33,48.863 95.854,48.016 96.882,46.542L96.882,46.341C96.615,46.677 96.446,46.843 96.38,46.843C96.267,46.821 96.223,46.721 96.245,46.542C96.424,45.739 96.525,45.181 96.547,44.867L96.547,44.87ZM97.651,45.538L97.484,45.438C97.484,45.526 97.35,45.717 97.083,46.006L97.083,46.106L97.651,45.705L97.751,45.739L97.986,45.94L98.087,45.94L98.121,45.472L97.651,45.538ZM145.682,1.851C151.952,1.851 159.017,3.648 166.872,7.24C168.701,8.11 169.739,8.545 169.984,8.545C175.988,5.042 182.324,3.291 188.999,3.291C196.43,3.291 201.854,5.12 205.27,8.781C206.386,9.875 206.945,10.989 206.945,12.128L206.945,12.63C206.945,14.86 204.79,16.569 200.483,17.752C199.146,18.075 197.603,18.318 195.853,18.479C196.658,18.719 197.518,19.145 198.433,19.76C198.835,20.183 199.026,20.72 199.001,21.366C198.979,21.479 198.913,21.523 198.801,21.501L198.634,21.501C197.853,20.676 196.715,20.061 195.218,19.66L194.817,19.66C192.787,19.547 191.413,20.161 190.698,21.501C190.698,21.613 190.62,21.824 190.463,22.137C190.419,23.386 190.777,24.503 191.536,25.485C191.937,26.444 195.184,27.235 201.279,27.862C201.511,27.463 201.822,26.834 202.219,25.977C201.722,25.254 201.386,24.231 201.21,22.909L201.21,22.843C201.21,22.754 201.232,22.72 201.276,22.742L201.242,22.541C201.242,22.497 201.264,22.485 201.308,22.507C201.308,22.441 201.286,22.407 201.242,22.407C201.308,20.933 202.023,19.762 203.384,18.891C204.195,18.516 205.111,18.305 206.132,18.264C206.399,17.789 206.665,17.319 206.935,16.849C208.431,14.439 210.304,12.106 212.559,9.853C214.636,7.867 216.264,6.528 217.446,5.835C218.943,4.787 220.103,4.138 220.928,3.893C221.151,4.006 221.274,4.116 221.296,4.229L221.261,4.564C219.699,5.634 218.36,6.628 217.243,7.544C215.346,9.664 213.783,11.986 212.557,14.508C211.709,16.305 210.941,18.021 210.245,19.652C210.302,19.689 210.355,19.726 210.412,19.762C210.813,20.186 211.004,20.722 210.98,21.369C210.958,21.481 210.892,21.525 210.779,21.503L210.613,21.503C210.368,21.244 210.086,21.004 209.768,20.786C209.19,22.182 208.668,23.514 208.206,24.784C207.855,25.676 207.569,26.427 207.344,27.039C208.867,27.341 210.838,27.615 213.257,27.862C213.659,27.169 214.305,25.786 215.199,23.712C216.403,21.347 217.642,19.06 218.916,16.849C220.412,14.439 222.285,12.106 224.54,9.853C226.616,7.867 228.245,6.528 229.427,5.835C230.923,4.787 232.084,4.138 232.909,3.893C233.132,4.006 233.254,4.116 233.276,4.229L233.242,4.564C231.68,5.634 230.341,6.628 229.224,7.544C227.326,9.664 225.764,11.986 224.537,14.508C222.752,18.301 221.3,21.729 220.186,24.784C219.493,26.547 219.048,27.764 218.847,28.433L219.851,28.467C219.986,28.489 220.096,28.523 220.186,28.567C220.252,28.567 220.287,28.533 220.287,28.467C222.696,28.78 225.086,28.991 227.451,29.104L230.732,29.304C230.911,29.282 231.156,29.317 231.469,29.405C231.513,29.405 231.535,29.383 231.535,29.339C231.557,29.339 231.915,29.373 232.605,29.439C233.7,29.527 235.651,29.696 238.465,29.941C238.732,30.054 238.879,30.164 238.901,30.276L238.835,30.845C238.835,31.111 238.32,31.224 237.294,31.18L237.228,31.18C236.983,31.158 236.761,31.114 236.56,31.045L236.224,31.146C234.239,30.879 232.554,30.7 231.171,30.609L229.496,30.543C229.383,30.543 229.295,30.499 229.229,30.409C229.141,30.431 229.094,30.465 229.094,30.509L226.917,30.313L226.856,30.842C226.856,31.109 226.342,31.222 225.316,31.177L225.25,31.177C225.005,31.155 224.782,31.111 224.582,31.043L224.246,31.143C222.26,30.876 220.576,30.698 219.192,30.607L217.948,30.558C217.461,31.782 216.658,33.496 215.541,35.695C214.246,38.195 212.762,40.582 211.09,42.859C209.305,46.63 208.367,49.265 208.279,50.761L208.279,51.163C208.345,51.407 208.546,51.643 208.881,51.865C209.543,51.895 210.439,51.346 211.577,50.225C210.737,49.086 210.319,47.859 210.319,46.542C210.319,45.046 210.943,43.474 212.194,41.821C213.935,40.147 215.319,39.199 216.345,38.976C216.345,38.932 216.367,38.91 216.411,38.91C216.812,38.998 217.013,39.099 217.013,39.211L217.013,39.277C216.856,39.5 216.198,39.936 215.037,40.582C213.967,41.966 213.431,43.17 213.431,44.199C213.431,45.323 213.759,46.221 214.413,46.887C215.267,45.759 216.203,44.439 217.216,42.926L217.383,42.926C217.679,42.938 217.899,42.997 218.044,43.102C217.691,42.434 217.513,41.628 217.513,40.683C217.713,39.41 217.936,38.775 218.181,38.775C218.805,37.527 219.922,36.9 221.528,36.9C222.243,36.9 223.012,37.079 223.837,37.436C225.914,38.731 226.949,40.695 226.949,43.327L226.413,45.805C226.435,45.918 226.491,45.972 226.58,45.972L227.383,45.972C227.495,45.972 227.596,45.95 227.684,45.906C227.728,45.906 227.75,45.928 227.75,45.972C228.448,45.832 229.038,45.729 229.525,45.663C229.721,44.434 230.321,43.153 231.33,41.821C233.071,40.147 234.454,39.199 235.48,38.976C235.48,38.932 235.502,38.91 235.546,38.91C235.948,38.998 236.149,39.099 236.149,39.211L236.149,39.277C235.992,39.5 235.333,39.936 234.173,40.582C233.1,41.966 232.566,43.17 232.566,44.199C232.566,45.56 233.046,46.586 234.006,47.279C235.189,48.06 236.384,48.452 237.588,48.452L238.391,48.452C239.753,48.185 240.823,47.837 241.604,47.414C242.118,47.078 242.373,46.834 242.373,46.677C239.917,46.008 238.267,44.948 237.419,43.496C236.905,42.759 236.65,41.821 236.65,40.685C236.851,39.412 237.074,38.778 237.319,38.778C237.943,37.529 239.06,36.902 240.666,36.902C241.381,36.902 242.15,37.081 242.975,37.438C245.051,38.734 246.087,40.697 246.087,43.33L245.551,45.808C245.573,45.92 245.629,45.974 245.717,45.974L246.521,45.974C246.633,45.974 246.734,45.952 246.822,45.908C246.866,45.908 246.888,45.93 246.888,45.974C248.227,45.707 249.175,45.573 249.733,45.573C249.912,45.839 250,45.996 250,46.04C250,46.398 248.918,46.733 246.753,47.044L246.386,47.01C246.119,47.032 245.972,47.044 245.95,47.044L245.784,47.01C245.695,47.032 245.595,47.044 245.482,47.044C245.46,47.044 245.394,47.032 245.282,47.01C245.103,47.01 244.714,47.468 244.109,48.384C243.394,49.343 242.982,49.823 242.87,49.823C242.177,50.492 241.286,51.097 240.191,51.63C238.695,52.211 237.434,52.5 236.408,52.5L235.705,52.5C234.077,52.5 232.468,51.819 230.884,50.457C229.963,49.302 229.486,48.055 229.447,46.714C228.96,46.826 228.347,46.934 227.605,47.042L227.238,47.007C226.971,47.029 226.824,47.042 226.802,47.042L226.636,47.007C226.548,47.029 226.447,47.042 226.335,47.042C226.313,47.042 226.247,47.029 226.134,47.007C225.955,47.007 225.566,47.465 224.961,48.381C224.246,49.341 223.835,49.821 223.722,49.821C223.029,50.489 222.138,51.094 221.043,51.628C219.547,52.208 218.286,52.497 217.26,52.497L216.558,52.497C215.208,52.497 213.876,52.032 212.559,51.099C212.442,51.214 212.29,51.381 212.109,51.594C211.105,52.441 210.302,52.967 209.699,53.168C208.049,53.102 207.234,52.823 207.256,52.331C207.077,52.331 206.92,51.785 206.788,50.69C207.302,48.413 207.826,46.841 208.362,45.969L208.362,45.734L208.296,45.734C208.274,45.8 207.581,46.427 206.22,47.61C203.761,49.593 201.741,50.91 200.157,51.562C200.147,51.572 200.138,51.584 200.13,51.594C199.126,52.441 198.323,52.967 197.721,53.168C196.071,53.102 195.255,52.823 195.277,52.331C195.098,52.331 194.942,51.785 194.81,50.69C195.324,48.413 195.848,46.841 196.384,45.969L196.384,45.734L196.318,45.734C196.296,45.8 195.603,46.427 194.241,47.61C191.697,49.664 189.621,51.001 188.015,51.628L186.776,52.531L186.509,52.531C186.443,52.531 186.421,52.497 186.443,52.431L186.276,52.531C186.054,52.443 185.953,52.353 185.975,52.264L185.975,52.098C186.377,51.674 187.202,51.003 188.453,50.09C190.037,48.729 191.232,47.389 192.035,46.072C193.083,44.711 194.278,42.757 195.618,40.213C196.957,37.603 198.228,34.845 199.435,31.944C199.592,31.765 199.993,30.805 200.64,29.064L199.57,28.998C198.632,28.976 197.895,28.854 197.361,28.631C197.317,28.631 197.295,28.665 197.295,28.731C195.554,28.619 193.634,28.085 191.536,27.125L190.667,26.488C189.93,25.773 189.45,24.581 189.227,22.906L189.227,22.84C189.227,22.752 189.249,22.718 189.293,22.74L189.259,22.539C189.259,22.495 189.281,22.483 189.325,22.505C189.325,22.439 189.303,22.404 189.259,22.404C189.325,20.93 190.04,19.76 191.401,18.888C191.548,18.82 191.7,18.756 191.857,18.7C191.247,18.714 190.618,18.722 189.969,18.722L189.501,18.587C189.344,18.675 189.178,18.722 188.999,18.722C183.598,18.163 178.5,17.093 173.701,15.509C172.05,14.863 170.966,14.493 170.454,14.405C167.665,18.288 166.269,20.531 166.269,21.134C168.054,23.075 169.249,25.786 169.851,29.268C169.94,30.071 169.986,30.707 169.986,31.175L169.986,31.878C169.986,34.664 169.178,37.274 167.562,39.701C168.791,38.785 170.324,38.009 172.158,37.367C173.585,37.211 174.658,37.154 175.37,37.201L175.437,37.201C175.571,37.201 175.65,37.179 175.672,37.135L176.007,37.235L176.343,37.27C178.039,37.448 179.533,38.007 180.828,38.944C181.029,38.944 181.431,39.211 182.033,39.747C182.726,38.609 183.25,38.063 183.607,38.107C183.808,38.352 183.909,38.575 183.909,38.775C183.887,38.932 183.551,39.556 182.905,40.651L182.905,40.717C183.306,41.341 183.541,42.625 183.607,44.566C183.429,46.486 182.559,47.703 180.997,48.215C180.64,48.281 180.339,48.315 180.094,48.315L179.391,48.249C179.19,48.227 178.899,49.243 178.522,51.295C178.745,52.211 179.09,52.7 179.56,52.769C180.608,52.857 181.724,52.176 182.907,50.727C184.156,49.409 185.329,47.948 186.423,46.341L186.489,46.341C186.825,46.564 186.982,46.821 186.957,47.11C186.869,47.913 185.708,49.61 183.475,52.198C183.363,52.176 182.772,52.634 181.7,53.572C181.054,53.861 180.473,53.986 179.959,53.939L179.156,53.873C179.112,53.873 179.09,53.851 179.09,53.807L178.955,53.873C177.951,53.785 177.371,53.048 177.214,51.664L177.28,51.028C177.302,50.56 177.393,50.034 177.547,49.454L177.413,49.419C175.894,50.467 174.856,51.094 174.3,51.295C174.278,51.608 172.983,52.01 170.417,52.5C169.971,52.455 169.67,52.455 169.514,52.5C166.678,52.255 164.883,50.959 164.124,48.616C163.968,47.992 163.879,47.142 163.857,46.072C163.953,44.995 164.225,43.998 164.67,43.082C163.637,44.057 162.452,44.997 161.115,45.906C158.659,47.49 155.591,48.685 151.908,49.488C151.796,49.554 151.517,49.588 151.071,49.588L150.334,49.588C149.641,51.395 147.21,54.397 143.037,58.594C141.14,60.58 139.154,62.455 137.077,64.218C133.461,66.919 131.497,68.268 131.186,68.268C131.654,68.736 135.248,69.818 141.965,71.515C144.396,71.917 148.314,72.308 153.715,72.688L155.256,72.688C161.884,72.688 170.62,71.973 181.467,70.545C182.829,70.457 184.146,70.411 185.417,70.411L186.12,70.31C186.208,70.31 186.254,70.345 186.254,70.411L186.857,70.31C195.138,70.31 202.199,71.706 208.046,74.495C210.101,75.188 212.645,76.503 215.679,78.444L215.813,79.047L215.813,79.282L215.446,79.282C212.366,77.183 207.936,75.543 202.155,74.36C199.388,74.047 197.682,73.893 197.033,73.893L196.898,73.893C196.832,73.893 196.798,73.858 196.798,73.792L196.531,73.893L195.226,73.893C190.919,73.893 183.745,74.774 173.701,76.537C168.032,77.095 164.083,77.374 161.85,77.374L161.614,77.475C161.458,77.409 161.291,77.374 161.113,77.374L160.877,77.374C160.297,77.374 159.861,77.409 159.572,77.475C159.036,77.409 158.512,77.374 157.998,77.374L157.161,77.374C157.094,77.374 157.06,77.33 157.06,77.24C156.972,77.24 156.925,77.284 156.925,77.374C150.41,76.681 145.868,75.925 143.302,75.097C138.079,73.378 133.571,71.505 129.778,69.473C123.708,72.82 120.271,74.495 119.467,74.495L119.232,74.128L119.232,74.027C119.232,73.848 120.873,72.81 124.154,70.915C124.154,70.802 125.349,69.999 127.736,68.506L127.736,68.405C125.058,66.956 122.905,65.516 121.275,64.086L121.275,63.719C121.297,63.562 121.375,63.484 121.51,63.484C121.732,63.484 123.451,64.478 126.664,66.464C127.758,67.11 128.549,67.433 129.041,67.433L129.176,67.433C130.315,66.853 133.025,64.343 137.31,59.902C139.788,57 141.94,54.089 143.772,51.165C143.772,51.03 144.051,50.597 144.609,49.86L144.609,49.725L143.537,49.725C141.037,49.659 137.398,48.464 132.624,46.143C124.568,40.832 120.538,34.003 120.538,25.656C120.538,21.484 121.821,17.221 124.387,12.867C126.617,9.498 129.487,6.986 132.991,5.335C136.784,3.281 141.015,2.123 145.679,1.854L145.682,1.851ZM218.25,43.496C217.706,44.652 216.802,46.048 215.539,47.681C216.501,48.195 217.471,48.45 218.448,48.45L219.251,48.45C220.612,48.183 221.682,47.835 222.464,47.411C222.978,47.076 223.232,46.831 223.232,46.674C220.776,46.006 219.126,44.946 218.279,43.494C218.267,43.477 218.254,43.459 218.242,43.442C218.245,43.459 218.247,43.477 218.247,43.494L218.25,43.496ZM203.223,23.712C203.913,22.358 204.614,21.028 205.326,19.726C204.09,19.926 203.208,20.519 202.684,21.503C202.684,21.616 202.606,21.826 202.449,22.14C202.42,22.975 202.569,23.749 202.897,24.464C203.002,24.224 203.11,23.974 203.223,23.712ZM206.871,28.433L207.327,28.447C207.185,28.416 207.043,28.381 206.898,28.345C206.888,28.374 206.881,28.403 206.871,28.433ZM210.018,29.872L209.851,29.806L209.685,29.872C208.791,29.76 208.088,29.694 207.576,29.672L206.739,29.637L206.337,29.537C205.958,30.742 205.032,32.796 203.558,35.698C202.263,38.198 200.779,40.585 199.107,42.862C197.322,46.633 196.384,49.267 196.296,50.764L196.296,51.165C196.362,51.41 196.563,51.645 196.898,51.868C198.416,51.934 201.195,48.956 205.233,42.931L205.4,42.931C205.666,42.94 205.872,42.989 206.017,43.077C206.521,42.225 207.052,41.273 207.606,40.22C208.945,37.61 210.216,34.853 211.423,31.951C211.545,31.812 211.822,31.185 212.248,30.076L210.018,29.872ZM145.449,2.924L141.13,3.526L141.13,3.661L142.335,3.526L144.242,3.526C144.377,3.526 144.531,3.683 144.71,3.994C145.513,3.927 146.115,3.893 146.517,3.893C147.543,3.893 148.659,3.927 149.864,3.994L150.099,3.994L150.099,3.893C149.161,3.893 148.37,3.614 147.721,3.056C147.028,2.968 146.426,2.921 145.914,2.921L145.449,2.924ZM141.497,4.496L141.632,4.731C141.61,4.843 140.684,5.154 138.853,5.668L136.71,6.873L135.973,7.108L135.973,7.243L136.108,7.243C138.495,6.44 141.13,5.881 144.009,5.568C144.098,5.568 144.144,5.602 144.144,5.668C144.881,5.512 145.518,5.433 146.051,5.433L146.051,5.568C146.051,5.48 146.487,5.433 147.357,5.433L147.357,5.333C145.327,5.333 144.088,5.088 143.64,4.596C143.796,4.53 143.919,4.496 144.007,4.496L144.007,4.229C143.85,4.229 143.772,4.194 143.772,4.128C142.834,4.241 142.075,4.363 141.495,4.496L141.497,4.496ZM174.038,10.722L174.038,10.957C182.43,14.618 189.851,16.447 196.301,16.447C198.732,16.447 201.333,15.967 204.102,15.007C204.459,14.829 205.049,14.038 205.877,12.63L205.877,12.128C205.877,10.208 203.49,8.1 198.713,5.801C196.749,4.997 194.193,4.596 191.046,4.596L189.976,4.596C184.508,4.596 179.198,6.638 174.041,10.722L174.038,10.722ZM148.796,6.271L148.094,6.271L148.094,6.405C148.517,6.405 150.07,6.606 152.746,7.008L152.981,7.008L152.981,6.873C151.262,6.472 149.869,6.271 148.796,6.271ZM156.93,7.008C156.93,7.164 157.366,7.321 158.235,7.475L158.37,7.24C158.035,7.24 157.555,7.162 156.93,7.005L156.93,7.008ZM140.292,7.475C140.226,7.475 140.192,7.431 140.192,7.341C138.987,7.363 136.632,8.122 133.128,9.618C130.427,10.957 127.905,12.921 125.562,15.509C123.018,18.969 121.745,22.159 121.745,25.083L121.879,25.651C121.791,26.097 121.745,26.42 121.745,26.621C121.745,31.888 124.176,36.998 129.041,41.954C132.254,44.811 135.569,46.684 138.985,47.578C141.394,48.293 143.27,48.648 144.609,48.648L145.212,48.648C146.438,47.242 149.151,42.098 153.346,33.215C154.372,31.317 156.247,27.524 158.97,21.834C159.058,21.834 159.773,20.673 161.113,18.352C161.357,18.286 161.48,18.051 161.48,17.649C158.422,15.328 154.874,14.167 150.833,14.167C146.615,14.167 142.699,15.284 139.083,17.515C137.207,19.299 136.059,20.661 135.635,21.599C135.368,21.912 134.732,23.227 133.728,25.548C133.483,26.508 133.282,26.988 133.126,26.988L132.758,26.988C132.602,26.988 132.523,26.91 132.523,26.753L132.523,26.486C132.702,24.566 133.571,22.38 135.133,19.924C137.232,17.446 139.274,15.805 141.26,15.002C144.697,13.641 147.922,12.96 150.934,12.96C155.04,12.96 158.757,14.243 162.082,16.809L165.564,12.39C159.337,9.667 155.265,8.306 153.346,8.306C153.346,8.127 152.43,7.926 150.601,7.703C150.601,7.637 150.557,7.603 150.466,7.603C150.378,7.603 150.332,7.637 150.332,7.703C148.904,7.39 146.715,7.235 143.769,7.235L142.464,7.235C141.818,7.235 141.091,7.314 140.288,7.471L140.292,7.475ZM166.974,14.674L166.739,14.54C164.195,17.576 162.119,20.487 160.513,23.276L160.513,23.376L162.79,20.164L166.974,14.775L166.974,14.674ZM163.392,17.049L163.392,17.284L163.627,17.284C163.627,17.106 163.75,16.871 163.994,16.582L163.994,16.347C163.906,16.347 163.706,16.582 163.392,17.049ZM162.555,18.489L162.689,18.489C162.689,18.423 162.846,18.176 163.157,17.752L163.157,17.517C162.978,17.517 162.778,17.84 162.555,18.487L162.555,18.489ZM162.454,18.724L162.187,18.724C162.187,18.812 162.153,18.937 162.087,19.091L162.087,19.192L162.187,19.192C162.187,19.079 162.276,18.925 162.454,18.724ZM165.569,22.206L165.434,22.206C159.854,33.097 155.782,40.795 153.216,45.306L151.309,48.286L151.309,48.521C156.619,47.36 160.571,45.453 163.16,42.796C165.503,40.719 166.864,39.079 167.244,37.874C168.27,36.425 168.784,34.226 168.784,31.28C168.784,27.977 167.714,24.953 165.571,22.208L165.569,22.206ZM161.115,25.186L161.015,25.186L160.78,25.086L161.115,24.348L161.115,24.248L160.88,24.248C160.88,24.427 160.478,25.174 159.675,26.491C159.675,27.027 159.44,27.752 158.972,28.668L158.972,28.903C159.597,28.903 160.757,27.152 162.454,23.648C161.761,24.63 161.316,25.144 161.115,25.188L161.115,25.186ZM162.79,24.951L162.555,24.951C159.945,29.549 158.27,32.862 157.533,34.894C157.621,34.894 159.374,31.579 162.787,24.951L162.79,24.951ZM157.401,27.595L155.726,30.942L155.726,31.177L155.993,31.177C155.993,30.82 156.384,30.183 157.165,29.27L157.401,29.27L157.401,29.505C157.579,29.505 157.824,28.947 158.138,27.83C157.849,27.83 157.601,27.752 157.401,27.595ZM155.625,31.413L155.491,31.413C155.491,31.457 155.456,31.613 155.39,31.88C155.547,31.88 155.625,31.768 155.625,31.545L155.625,31.413ZM153.449,39.782C154.342,38.599 155.704,36.043 157.533,32.115L157.533,32.015C154.989,36.099 153.627,38.687 153.449,39.782ZM154.888,32.85C155.001,32.85 155.167,32.605 155.39,32.113L155.39,32.012C155.211,32.012 155.045,32.292 154.888,32.85ZM180.498,62.042C187.371,62.042 193.642,63.359 199.312,65.991L204.2,68.033L204.334,68.635L204.099,68.736C197.961,66.66 193.453,65.624 190.576,65.624L185.654,65.624C184.315,65.624 177.329,66.349 164.697,67.801C162.822,67.957 161.228,68.036 159.91,68.036L155.39,68.036C150.033,68.036 144.722,67.277 139.455,65.758L139.455,65.291C139.477,65.134 139.555,65.056 139.69,65.056C140.694,65.278 143.216,65.558 147.256,65.893C151.987,65.893 160.324,64.855 172.263,62.781C174.271,62.446 177.016,62.201 180.498,62.044L180.498,62.042ZM177.151,63.381L177.151,63.246L176.916,63.381L176.213,63.381C176.213,63.76 175.968,63.949 175.476,63.949L175.476,64.451C175.877,64.451 176.837,64.373 178.355,64.216L178.355,64.081C178.289,64.081 177.932,64.003 177.283,63.846L177.283,63.611C177.907,63.454 178.588,63.376 179.325,63.376L180.765,63.376L180.765,63.109L180.63,63.109C180.385,63.109 180.263,63.153 180.263,63.244C180.175,63.244 180.062,63.2 179.927,63.109C178.409,63.197 177.484,63.288 177.148,63.376L177.151,63.381ZM171.526,65.758C171.526,65.602 171.414,65.523 171.191,65.523C170.61,65.523 169.729,65.602 168.546,65.758C168.703,65.959 168.781,66.16 168.781,66.361C171.705,65.959 175.532,65.523 180.263,65.056L180.263,64.921L180.162,64.921C178.823,64.921 175.943,65.2 171.526,65.758ZM163.527,66.226L163.527,66.361L164.129,66.361C165.535,66.361 166.886,66.204 168.179,65.893L168.179,65.758C167.687,65.847 166.137,66.003 163.527,66.226ZM178.223,72.12L177.755,72.12L177.755,72.22L178.223,72.22L178.223,72.12ZM171.896,72.955L171.896,73.055C174.418,72.898 176.338,72.663 177.655,72.352L177.655,72.218L177.153,72.218C176.105,72.306 174.352,72.553 171.898,72.955L171.896,72.955ZM157.533,73.893L157.533,74.027C158.85,74.093 159.842,74.128 160.513,74.128L163.022,74.128C163.358,74.128 163.803,74.093 164.362,74.027C164.675,74.071 164.829,74.15 164.829,74.262C166.37,74.017 167.408,73.895 167.942,73.895L167.474,73.427C162.273,73.741 158.96,73.895 157.53,73.895L157.533,73.893ZM162.32,75.198L161.482,74.963L159.44,74.963L159.575,75.198L159.575,75.465C159.575,75.621 159.496,75.7 159.34,75.7L157.9,75.7C156.25,75.7 154.296,75.577 152.041,75.332C152.041,75.8 154.785,76.035 160.275,76.035C167.64,76.035 173.23,75.678 177.048,74.965L177.048,74.865L176.546,74.865C175.608,74.865 172.305,75.144 166.636,75.702L166.401,75.702L165.799,75.567L165.799,75.332C171.982,74.306 177.048,73.792 180.997,73.792L180.997,73.658L179.557,73.658C173.688,74.059 167.942,74.573 162.317,75.198L162.32,75.198ZM168.98,45.203L168.578,46.207C168.421,47.926 169.036,49.187 170.419,49.99L170.855,50.09C170.877,50.09 170.89,50.068 170.89,50.024L171.291,50.124L171.492,50.159C171.715,50.181 172.351,50.058 173.399,49.791L173.835,49.926C174.883,49.48 176.166,48.599 177.684,47.282C176.837,46.388 176.289,45.205 176.044,43.734L176.078,43.467C176.144,42.752 176.47,42.218 177.048,41.861L177.182,41.861C177.271,41.861 177.361,41.995 177.449,42.262C177.427,42.507 177.283,42.999 177.013,43.736C177.214,44.941 177.682,45.79 178.419,46.28L178.72,46.314C179.815,43.859 180.684,42.096 181.33,41.026C181.374,40.533 180.483,39.931 178.652,39.219C175.929,38.974 173.674,39.676 171.889,41.327C170.461,42.353 169.489,43.648 168.977,45.21L168.98,45.203ZM182.202,42.025C181.242,43.744 180.483,45.328 179.925,46.777L180.025,46.777C181.186,46.89 182.023,46.253 182.535,44.87L182.569,44.769L182.535,44.201L182.635,44.035C182.501,42.852 182.356,42.181 182.199,42.027L182.202,42.025ZM166.201,44.4L165.498,44.233L165.432,45.036C165.655,45.974 165.811,46.442 165.899,46.442C166.257,45.102 166.546,44.265 166.769,43.932L166.803,43.832C166.737,43.832 166.536,44.02 166.201,44.4ZM167.942,44.099L167.807,44.064C167.54,44.823 167.383,45.213 167.339,45.237C167.383,45.46 167.383,45.729 167.339,46.04L167.44,46.04C167.484,45.303 167.653,44.691 167.942,44.199L167.942,44.099ZM166.367,47.647L166.367,47.847C166.367,47.913 166.433,48.004 166.568,48.114L166.634,48.114C166.546,47.801 166.455,47.647 166.367,47.647ZM202.351,28.734L202.285,28.734C202.285,28.8 202.197,29.023 202.018,29.402L201.984,29.468L202.084,29.468C202.106,29.356 202.197,29.145 202.351,28.832L202.351,28.734ZM201.984,29.571L201.918,29.537C201.918,29.625 201.795,29.872 201.55,30.274L201.55,30.34L201.651,30.34C201.629,30.205 201.751,29.973 202.018,29.637L201.984,29.571ZM202.05,31.846C202.207,31.912 202.273,32.081 202.251,32.348L202.084,32.583L202.084,32.649C202.398,32.27 202.831,31.388 203.389,30.005L203.223,29.939L203.056,29.939C202.811,30.139 202.476,30.776 202.052,31.846L202.05,31.846ZM204.494,30.607L204.427,30.573C203.646,31.912 203.022,33.139 202.552,34.255C202.106,34.544 201.737,34.902 201.448,35.325L201.448,35.426C201.604,35.448 201.783,35.538 201.984,35.693C202.297,35.335 203.132,33.663 204.494,30.671L204.494,30.607ZM198.367,39.914L198.402,40.35L198.568,40.35C198.568,40.284 199.082,39.412 200.108,37.74C200.644,36.557 200.911,35.942 200.911,35.898L200.745,35.898C200.522,35.876 200.042,36.667 199.305,38.276C199.239,38.276 198.926,38.822 198.367,39.916L198.367,39.914ZM207.975,20.6L207.875,20.565L206.034,24.383L206.034,24.449L206.1,24.449L207.975,20.766L207.975,20.6ZM219.956,20.6L219.856,20.565L218.015,24.383L218.015,24.449L218.081,24.449L219.956,20.766L219.956,20.6ZM214.334,28.734L214.268,28.734C214.268,28.8 214.18,29.023 214.001,29.402L213.967,29.468L214.067,29.468C214.089,29.356 214.18,29.145 214.334,28.832L214.334,28.734ZM213.965,29.571L213.898,29.537C213.898,29.625 213.776,29.872 213.531,30.274L213.531,30.34L213.632,30.34C213.61,30.205 213.732,29.973 213.999,29.637L213.965,29.571ZM214.033,31.846C214.19,31.912 214.256,32.081 214.234,32.348L214.067,32.583L214.067,32.649C214.381,32.27 214.814,31.388 215.373,30.005L215.206,29.939L215.04,29.939C214.795,30.139 214.459,30.776 214.036,31.846L214.033,31.846ZM216.477,30.607L216.411,30.573C215.63,31.912 215.005,33.139 214.535,34.255C214.089,34.544 213.72,34.902 213.431,35.325L213.431,35.426C213.588,35.448 213.766,35.538 213.967,35.693C214.28,35.335 215.115,33.663 216.477,30.671L216.477,30.607ZM210.351,39.914L210.385,40.35L210.551,40.35C210.551,40.284 211.066,39.412 212.091,37.74C212.628,36.557 212.895,35.942 212.895,35.898L212.728,35.898C212.505,35.876 212.025,36.667 211.288,38.276C211.222,38.276 210.909,38.822 210.351,39.916L210.351,39.914ZM218.382,40.685C218.382,41.645 218.962,42.784 220.123,44.101C221.707,45.195 223.034,45.742 224.107,45.742L224.273,45.742C225.233,44.468 225.713,43.207 225.713,41.959C225.713,40.129 224.643,38.878 222.5,38.21L221.296,38.043C220.27,38.244 219.611,38.535 219.32,38.913C218.695,39.559 218.382,40.151 218.382,40.688L218.382,40.685ZM215.032,48.584L213.994,47.982L213.994,48.148C215.064,48.929 215.6,49.498 215.6,49.855L215.466,49.955C215.377,49.955 215.008,49.777 214.361,49.419L214.596,49.821L214.596,49.955C214.596,50.044 214.54,50.09 214.43,50.09C214.207,50.09 213.872,49.924 213.426,49.588L213.291,49.588L213.291,49.823L213.225,50.191C214.43,50.906 215.512,51.307 216.472,51.395C217.52,51.395 218.614,51.229 219.753,50.893L219.753,50.759C219.06,50.893 218.235,50.959 217.275,50.959L216.707,50.959C215.813,50.959 215.233,50.746 214.966,50.323L214.966,50.257C214.966,50.144 215.044,50.09 215.201,50.09C216.004,50.203 216.406,50.279 216.406,50.325C216.45,50.325 216.472,50.303 216.472,50.259L217.008,50.325L217.074,50.325L217.442,50.259L217.442,50.193C216.705,49.97 216.337,49.769 216.337,49.591L216.472,49.525L217.576,49.525L217.576,49.424C216.416,49.267 215.568,48.988 215.032,48.587L215.032,48.584ZM237.527,40.685C237.527,41.645 238.107,42.784 239.268,44.101C240.852,45.195 242.179,45.742 243.252,45.742L243.418,45.742C244.378,44.468 244.858,43.207 244.858,41.959C244.858,40.129 243.786,38.878 241.646,38.21L240.441,38.043C239.415,38.244 238.756,38.535 238.465,38.913C237.84,39.559 237.527,40.151 237.527,40.688L237.527,40.685ZM234.177,48.584L233.139,47.982L233.139,48.148C234.212,48.929 234.745,49.498 234.745,49.855L234.611,49.955C234.523,49.955 234.153,49.777 233.507,49.419L233.742,49.821L233.742,49.955C233.742,50.044 233.685,50.09 233.575,50.09C233.352,50.09 233.017,49.924 232.571,49.588L232.437,49.588L232.437,49.823L232.37,50.191C233.575,50.906 234.657,51.307 235.617,51.395C236.665,51.395 237.76,51.229 238.898,50.893L238.898,50.759C238.205,50.893 237.38,50.959 236.42,50.959L235.852,50.959C234.959,50.959 234.378,50.746 234.111,50.323L234.111,50.257C234.111,50.144 234.19,50.09 234.346,50.09C235.15,50.203 235.551,50.279 235.551,50.325C235.595,50.325 235.617,50.303 235.617,50.259L236.153,50.325L236.22,50.325L236.587,50.259L236.587,50.193C235.85,49.97 235.482,49.769 235.482,49.591L235.617,49.525L236.721,49.525L236.721,49.424C235.561,49.267 234.714,48.988 234.177,48.587L234.177,48.584Z" style="fill-rule:nonzero;"/>
    </g>
    <g transform="matrix(0.0600333,0,0,0.0600333,24.5661,9.80043)">
        <path d="M1154.32,1597.75L1089.96,1597.75L1089.96,1454.97L1154.32,1454.97L1154.32,1477.92L1116.53,1477.92L1116.53,1511.91L1151.59,1511.91L1151.59,1534.95L1116.53,1534.95L1116.53,1574.5L1154.32,1574.5L1154.32,1597.75Z" style="fill-rule:nonzero;"/>
    </g>
    <g transform="matrix(0.0600333,0,0,0.0600333,24.5661,9.80043)">
        <path d="M1240.16,1558.39C1240.16,1571.74 1236.79,1581.96 1230.05,1589.06C1223.31,1596.15 1213.6,1599.7 1200.9,1599.7C1188.47,1599.7 1177.89,1597.26 1169.16,1592.38L1169.16,1566.11C1179.84,1573.07 1189.64,1576.56 1198.56,1576.56C1203.64,1576.56 1207.46,1575.15 1210.03,1572.36C1212.6,1569.56 1213.89,1565.75 1213.89,1560.93C1213.89,1556.18 1212.36,1551.83 1209.3,1547.89C1206.24,1543.95 1201.19,1539.58 1194.16,1534.76C1188.04,1530.53 1183.4,1526.47 1180.25,1522.6C1177.09,1518.73 1174.65,1514.38 1172.92,1509.56C1171.2,1504.75 1170.34,1499.15 1170.34,1492.77C1170.34,1480.53 1173.74,1470.83 1180.54,1463.66C1187.34,1456.5 1196.48,1452.92 1207.93,1452.92C1218.87,1452.92 1229.38,1455.98 1239.48,1462.1L1230.69,1483.39C1227.56,1481.57 1224.29,1479.94 1220.87,1478.51C1217.45,1477.08 1213.79,1476.36 1209.89,1476.36C1205.59,1476.36 1202.29,1477.78 1199.97,1480.61C1197.66,1483.44 1196.51,1487.3 1196.51,1492.18C1196.51,1497 1197.89,1501.2 1200.66,1504.78C1203.42,1508.36 1208.26,1512.43 1215.16,1516.99C1224.47,1523.24 1230.96,1529.62 1234.64,1536.12C1238.32,1542.64 1240.16,1550.06 1240.16,1558.39Z" style="fill-rule:nonzero;"/>
    </g>
    <g transform="matrix(0.0600333,0,0,0.0600333,24.5661,9.80043)">
        <path d="M1301.59,1597.75L1275.12,1597.75L1275.12,1478.31L1247.78,1478.31L1247.78,1454.97L1328.93,1454.97L1328.93,1478.31L1301.59,1478.31L1301.59,1597.75Z" style="fill-rule:nonzero;"/>
    </g>
    <g transform="matrix(0.0600333,0,0,0.0600333,24.5661,9.80043)">
        <path d="M1336.84,1584.37C1336.84,1579.29 1338.19,1575.35 1340.89,1572.55C1343.59,1569.75 1347.61,1568.35 1352.95,1568.35C1358.29,1568.35 1362.33,1569.74 1365.06,1572.5C1367.8,1575.27 1369.16,1579.22 1369.16,1584.37C1369.16,1589.44 1367.75,1593.38 1364.92,1596.18C1362.08,1598.98 1358.1,1600.38 1352.95,1600.38C1347.68,1600.38 1343.67,1598.97 1340.94,1596.13C1338.21,1593.3 1336.84,1589.38 1336.84,1584.37Z" style="fill-rule:nonzero;"/>
    </g>
    <g transform="matrix(0.0600333,0,0,0.0600333,24.5661,9.80043)">
        <path d="M1500.61,1597.75L1474.44,1597.75L1474.44,1513.96C1474.44,1504.84 1474.89,1494.36 1475.8,1482.51C1475.35,1483.16 1473.67,1485.15 1470.78,1488.47C1467.88,1491.79 1462.23,1497.75 1453.83,1506.34L1438.99,1490.13L1476.98,1454.97L1500.61,1454.97L1500.61,1597.75Z" style="fill-rule:nonzero;"/>
    </g>
    <g transform="matrix(0.0600333,0,0,0.0600333,24.5661,9.80043)">
        <path d="M1606.76,1517.18C1606.76,1572.19 1588.37,1599.7 1551.59,1599.7C1545.47,1599.7 1540.39,1599.18 1536.35,1598.14L1536.35,1575.77C1540.78,1577.21 1544.91,1577.92 1548.75,1577.92C1559.63,1577.92 1567.88,1574.15 1573.51,1566.59C1579.14,1559.04 1582.25,1547.16 1582.84,1530.95L1581.96,1530.95C1579.87,1536.09 1576.89,1540.11 1573.02,1543.01C1569.15,1545.91 1564.54,1547.36 1559.2,1547.36C1549.5,1547.36 1541.98,1543.38 1536.64,1535.44C1531.31,1527.5 1528.64,1516.59 1528.64,1502.73C1528.64,1487.49 1532.14,1475.42 1539.13,1466.5C1546.13,1457.58 1555.49,1453.12 1567.21,1453.12C1579.97,1453.12 1589.75,1458.62 1596.56,1469.62C1603.36,1480.62 1606.76,1496.48 1606.76,1517.18ZM1567.41,1475.77C1563.5,1475.77 1560.39,1477.89 1558.08,1482.12C1555.77,1486.35 1554.61,1493.03 1554.61,1502.14C1554.61,1509.63 1555.62,1515.47 1557.64,1519.67C1559.66,1523.87 1562.72,1525.97 1566.82,1525.97C1570.53,1525.97 1573.75,1523.84 1576.49,1519.57C1579.22,1515.31 1580.59,1510.44 1580.59,1504.97C1580.59,1496.51 1579.38,1489.53 1576.98,1484.03C1574.57,1478.52 1571.38,1475.77 1567.41,1475.77Z" style="fill-rule:nonzero;"/>
    </g>
    <g transform="matrix(0.0600333,0,0,0.0600333,24.5661,9.80043)">
        <path d="M1632.15,1597.75L1672.19,1478.7L1622.39,1478.7L1622.39,1455.17L1698.95,1455.17L1698.95,1473.14L1659.59,1597.75L1632.15,1597.75Z" style="fill-rule:nonzero;"/>
    </g>
    <g transform="matrix(0.0600333,0,0,0.0600333,24.5661,9.80043)">
        <path d="M1792.5,1526.36C1792.5,1552.21 1789.39,1570.89 1783.18,1582.41C1776.96,1593.94 1766.95,1599.7 1753.15,1599.7C1739.35,1599.7 1729.43,1593.9 1723.41,1582.32C1717.39,1570.73 1714.38,1552.08 1714.38,1526.36C1714.38,1500.58 1717.54,1481.86 1723.85,1470.21C1730.17,1458.55 1740.06,1452.73 1753.54,1452.73C1767.28,1452.73 1777.2,1458.42 1783.32,1469.82C1789.44,1481.21 1792.5,1500.06 1792.5,1526.36ZM1740.94,1526.36C1740.94,1546.35 1741.8,1559.81 1743.53,1566.74C1745.25,1573.67 1748.53,1577.14 1753.34,1577.14C1756.6,1577.14 1759.12,1575.64 1760.91,1572.65C1762.7,1569.65 1763.99,1564.69 1764.77,1557.76C1765.55,1550.82 1765.94,1540.36 1765.94,1526.36C1765.94,1506.7 1765.03,1493.29 1763.21,1486.12C1761.38,1478.96 1758.1,1475.38 1753.34,1475.38C1748.53,1475.38 1745.25,1478.95 1743.53,1486.08C1741.8,1493.2 1740.94,1506.63 1740.94,1526.36Z" style="fill-rule:nonzero;"/>
    </g>
    <g transform="matrix(0.0600333,0,0,0.0600333,24.5661,9.80043)">
        <path d="M1949.54,1454.97L1949.54,1547.36C1949.54,1564.35 1945.69,1577.32 1938.01,1586.27C1930.33,1595.22 1919.23,1599.7 1904.71,1599.7C1890.52,1599.7 1879.71,1595.26 1872.29,1586.37C1864.87,1577.48 1861.16,1564.35 1861.16,1546.97L1861.16,1454.97L1887.52,1454.97L1887.52,1548.92C1887.52,1567.08 1893.55,1576.16 1905.59,1576.16C1911.19,1576.16 1915.52,1573.85 1918.58,1569.23C1921.64,1564.61 1923.17,1558.03 1923.17,1549.5L1923.17,1454.97L1949.54,1454.97Z" style="fill-rule:nonzero;"/>
    </g>
    <g transform="matrix(0.0600333,0,0,0.0600333,24.5661,9.80043)">
        <path d="M1969.36,1584.37C1969.36,1579.29 1970.71,1575.35 1973.41,1572.55C1976.11,1569.75 1980.13,1568.35 1985.47,1568.35C1990.81,1568.35 1994.85,1569.74 1997.58,1572.5C2000.32,1575.27 2001.68,1579.22 2001.68,1584.37C2001.68,1589.44 2000.27,1593.38 1997.43,1596.18C1994.6,1598.98 1990.62,1600.38 1985.47,1600.38C1980.2,1600.38 1976.19,1598.97 1973.46,1596.13C1970.73,1593.3 1969.36,1589.38 1969.36,1584.37Z" style="fill-rule:nonzero;"/>
    </g>
    <g transform="matrix(0.0600333,0,0,0.0600333,24.5661,9.80043)">
        <path d="M2090.16,1558.39C2090.16,1571.74 2086.79,1581.96 2080.05,1589.06C2073.31,1596.15 2063.6,1599.7 2050.9,1599.7C2038.47,1599.7 2027.89,1597.26 2019.16,1592.38L2019.16,1566.11C2029.84,1573.07 2039.64,1576.56 2048.56,1576.56C2053.64,1576.56 2057.46,1575.15 2060.03,1572.36C2062.6,1569.56 2063.89,1565.75 2063.89,1560.93C2063.89,1556.18 2062.36,1551.83 2059.3,1547.89C2056.24,1543.95 2051.2,1539.58 2044.16,1534.76C2038.04,1530.53 2033.4,1526.47 2030.25,1522.6C2027.09,1518.73 2024.65,1514.38 2022.92,1509.56C2021.2,1504.75 2020.34,1499.15 2020.34,1492.77C2020.34,1480.53 2023.74,1470.83 2030.54,1463.66C2037.34,1456.5 2046.48,1452.92 2057.93,1452.92C2068.87,1452.92 2079.39,1455.98 2089.48,1462.1L2080.69,1483.39C2077.56,1481.57 2074.29,1479.94 2070.87,1478.51C2067.45,1477.08 2063.79,1476.36 2059.89,1476.36C2055.59,1476.36 2052.28,1477.78 2049.97,1480.61C2047.66,1483.44 2046.51,1487.3 2046.51,1492.18C2046.51,1497 2047.89,1501.2 2050.66,1504.78C2053.43,1508.36 2058.26,1512.43 2065.16,1516.99C2074.47,1523.24 2080.96,1529.62 2084.64,1536.12C2088.32,1542.64 2090.16,1550.06 2090.16,1558.39Z" style="fill-rule:nonzero;"/>
    </g>
    <g transform="matrix(0.0600333,0,0,0.0600333,24.5661,9.80043)">
        <path d="M2105.98,1584.37C2105.98,1579.29 2107.33,1575.35 2110.03,1572.55C2112.74,1569.75 2116.76,1568.35 2122.09,1568.35C2127.43,1568.35 2131.47,1569.74 2134.2,1572.5C2136.94,1575.27 2138.3,1579.22 2138.3,1584.37C2138.3,1589.44 2136.89,1593.38 2134.06,1596.18C2131.22,1598.98 2127.24,1600.38 2122.09,1600.38C2116.82,1600.38 2112.82,1598.97 2110.08,1596.13C2107.35,1593.3 2105.98,1589.38 2105.98,1584.37Z" style="fill-rule:nonzero;"/>
    </g>
    <g transform="matrix(0.0600333,0,0,0.0600333,24.5661,9.80043)">
        <path d="M2229.32,1597.75L2221.12,1561.71L2183.91,1561.71L2175.71,1597.75L2149.14,1597.75L2184.5,1454.39L2220.53,1454.39L2255.98,1597.75L2229.32,1597.75ZM2216.14,1538.18L2208.52,1504.97C2208.06,1502.95 2207.04,1497.89 2205.44,1489.79C2203.85,1481.68 2202.89,1476.26 2202.56,1473.53C2201.72,1479.13 2200.64,1485.3 2199.34,1492.03C2198.04,1498.77 2194.65,1514.15 2189.18,1538.18L2216.14,1538.18Z" style="fill-rule:nonzero;"/>
    </g>
    <g transform="matrix(0.0934359,0.0430174,-0.0430174,0.0934359,16.7832,-198.646)">
        <path d="M1394.34,2769.42L1394.34,2734.42L1409.93,2734.42L1409.93,2648.42L1394.34,2648.42L1394.34,2614.02L1475.54,2614.02L1475.54,2648.42L1459.93,2648.42L1459.93,2734.42L1484.93,2734.42L1494.34,2700.22L1519.13,2700.22L1519.13,2769.42L1394.34,2769.42Z" style="fill-rule:nonzero;"/>
    </g>
    <g transform="matrix(0.0955338,0.0381323,-0.0381323,0.0955338,3.9305,-202.791)">
        <path d="M1557.33,2837.89C1549.73,2837.89 1543.26,2835.62 1537.93,2831.09C1532.86,2826.82 1530.33,2820.89 1530.33,2813.29C1530.33,2805.82 1532.86,2800.02 1537.93,2795.89C1543,2791.49 1549.46,2789.29 1557.33,2789.29C1565.73,2789.29 1572.53,2791.49 1577.73,2795.89C1582.93,2800.29 1585.53,2806.09 1585.53,2813.29C1585.53,2820.62 1582.86,2826.56 1577.53,2831.09C1572.2,2835.49 1565.53,2837.69 1557.53,2837.69L1557.33,2837.89Z" style="fill-rule:nonzero;"/>
    </g>
    <g transform="matrix(0.0977533,0.0320162,-0.0320162,0.0977533,-15.4318,-201.958)">
        <path d="M1605.12,2866L1605.12,2831.6L1620.52,2831.6L1647.32,2745L1626.92,2745L1626.92,2710.6L1723.72,2710.6L1758.32,2831.6L1773.72,2831.6L1773.72,2866L1686.32,2866L1686.32,2831.6L1698.92,2831.6L1694.72,2815L1659.52,2815L1655.12,2831.6L1673.72,2831.6L1673.72,2866L1605.12,2866ZM1664.52,2791.4L1690.12,2791.4L1678.72,2743.8L1664.52,2791.4Z" style="fill-rule:nonzero;"/>
    </g>
    <g transform="matrix(0.0995924,0.0257324,-0.0257324,0.0995924,-34.31,-201.682)">
        <path d="M1814.47,2926.26C1806.87,2926.26 1800.4,2923.99 1795.07,2919.46C1790,2915.19 1787.47,2909.26 1787.47,2901.66C1787.47,2894.19 1790,2888.39 1795.07,2884.26C1800.14,2879.86 1806.6,2877.66 1814.47,2877.66C1822.87,2877.66 1829.67,2879.86 1834.87,2884.26C1840.07,2888.66 1842.67,2894.46 1842.67,2901.66C1842.67,2908.99 1840,2914.92 1834.67,2919.46C1829.34,2923.86 1822.67,2926.06 1814.67,2926.06L1814.47,2926.26Z" style="fill-rule:nonzero;"/>
    </g>
    <g transform="matrix(0.101332,0.0176791,-0.0176791,0.101332,-60.1631,-194.773)">
        <path d="M1934.87,2956.6L1934.87,2922.2L1950.47,2922.2L1950.47,2835.6L1934.87,2835.6L1934.87,2801.2L2016.07,2801.2L2016.07,2835.6L2000.47,2835.6L2000.47,2922.2L2016.07,2922.2L2016.07,2956.6L1934.87,2956.6Z" style="fill-rule:nonzero;"/>
    </g>
    <g transform="matrix(0.102415,0.00959559,-0.00959559,0.102415,-85.8815,-183.56)">
        <path d="M2048.62,2978.25L2048.62,2943.25L2064.42,2943.25L2064.42,2857.05L2049.02,2857.05L2049.02,2822.65L2120.82,2822.65L2169.42,2915.05L2169.42,2857.25L2153.82,2857.25L2153.82,2822.85L2216.02,2822.85L2216.02,2857.25L2200.62,2857.25L2200.62,2978.25L2141.42,2978.25L2095.22,2892.45L2095.22,2943.25L2110.82,2943.25L2110.82,2978.25L2048.62,2978.25Z" style="fill-rule:nonzero;"/>
    </g>
    <g transform="matrix(0.102859,-0.000901849,0.000901849,0.102859,-118.068,-163.282)">
        <path d="M2253.67,2961.76L2269.27,2961.76L2269.27,2875.16L2253.67,2875.16L2253.67,2840.76L2331.67,2840.76L2331.67,2875.16L2319.27,2875.16L2319.27,2910.55L2345.07,2875.16L2345.07,2840.76L2405.87,2840.76L2405.87,2875.16L2392.47,2875.16L2361.47,2912.76L2361.47,2914.16C2372,2914.16 2380.27,2915.95 2386.27,2919.55C2392.27,2923.16 2395.27,2929.42 2395.27,2938.36L2395.27,2954.16C2395.27,2956.16 2395.84,2957.92 2396.97,2959.45C2398.1,2960.99 2399.67,2961.76 2401.67,2961.76L2412.87,2961.76L2412.87,2996.16L2377.07,2996.16C2355.2,2996.16 2344.27,2986.16 2344.27,2966.16L2344.27,2949.16C2344.27,2945.82 2343.2,2942.55 2341.07,2939.36C2338.93,2936.16 2336.4,2934.55 2333.47,2934.55L2319.27,2934.55L2319.27,2961.76L2334.87,2961.76L2334.87,2996.16L2253.67,2996.16L2253.67,2961.76Z" style="fill-rule:nonzero;"/>
    </g>
    <g transform="matrix(0.102033,-0.013036,0.013036,0.102033,-152.255,-130.258)">
        <path d="M2579.72,2990.89C2571.72,2990.89 2565.35,2989.99 2560.62,2988.19C2555.89,2986.39 2550.78,2983.36 2545.32,2979.09L2541.92,2988.09L2510.32,2988.09L2510.32,2940.49L2541.72,2940.49C2543.72,2945.96 2546.82,2949.83 2551.02,2952.09C2555.22,2954.36 2560.39,2955.49 2566.52,2955.49C2570.25,2955.49 2573.45,2954.73 2576.12,2953.19C2578.78,2951.66 2580.12,2949.63 2580.12,2947.09C2580.12,2943.89 2578.75,2941.49 2576.02,2939.89C2573.28,2938.29 2569.45,2936.83 2564.52,2935.49C2551.99,2932.03 2541.68,2928.29 2533.62,2924.29C2525.55,2920.29 2519.05,2914.56 2514.12,2907.09C2509.18,2899.63 2506.72,2889.76 2506.72,2877.49C2506.72,2868.03 2508.75,2859.69 2512.82,2852.49C2516.89,2845.29 2522.72,2839.69 2530.32,2835.69C2537.92,2831.69 2546.85,2829.69 2557.12,2829.69C2569.65,2829.69 2579.59,2833.69 2586.92,2841.69L2591.92,2832.49L2619.92,2832.49L2619.92,2879.09L2589.92,2879.09C2587.12,2873.23 2584.02,2869.16 2580.62,2866.89C2577.22,2864.63 2572.59,2863.49 2566.72,2863.49C2562.18,2863.49 2558.68,2864.29 2556.22,2865.89C2553.75,2867.49 2552.52,2869.69 2552.52,2872.49C2552.52,2875.56 2554.28,2877.93 2557.82,2879.59C2561.35,2881.26 2566.39,2882.83 2572.92,2884.29C2584.52,2886.96 2594.35,2890.26 2602.42,2894.19C2610.49,2898.13 2616.95,2903.73 2621.82,2910.99C2626.68,2918.26 2629.12,2927.63 2629.12,2939.09C2629.12,2948.83 2627.09,2957.63 2623.02,2965.49C2618.95,2973.36 2613.15,2979.56 2605.62,2984.09C2598.09,2988.63 2589.45,2990.89 2579.72,2990.89Z" style="fill-rule:nonzero;"/>
    </g>
    <g transform="matrix(0.100616,-0.0213797,0.0213797,0.100616,-172.858,-101.876)">
        <path d="M2691.02,2967.69L2691.02,2932.49L2707.02,2932.49L2707.02,2846.69L2693.22,2846.69L2689.02,2873.49L2661.62,2873.49L2661.62,2812.29L2807.82,2812.29L2807.82,2873.49L2780.42,2873.49L2776.22,2846.69L2762.02,2846.69L2762.02,2932.49L2778.02,2932.49L2778.02,2967.69L2691.02,2967.69Z" style="fill-rule:nonzero;"/>
    </g>
    <g transform="matrix(0.0984361,-0.029853,0.029853,0.0984361,-190.292,-67.8242)">
        <path d="M2872.04,2929.4L2872.04,2894.4L2887.04,2894.4L2887.04,2865.8L2846.04,2808.4L2835.04,2808.4L2835.04,2774L2918.24,2774L2918.24,2808.4L2909.44,2808.4L2927.24,2834.4L2941.24,2808.4L2927.04,2808.4L2927.04,2774L2989.24,2774L2989.24,2808.4L2971.64,2808.4L2941.44,2860.6L2941.44,2894.4L2956.84,2894.4L2956.84,2929.4L2872.04,2929.4Z" style="fill-rule:nonzero;"/>
    </g>
    <g transform="matrix(0.0958103,-0.0374327,0.0374327,0.0958103,-201.809,-32.5276)">
        <path d="M3018.21,2875.36L3018.21,2840.36L3033.81,2840.36L3033.81,2754.36L3018.21,2754.36L3018.21,2719.95L3099.41,2719.95L3099.41,2754.36L3083.81,2754.36L3083.81,2840.36L3108.81,2840.36L3118.21,2806.16L3143.01,2806.16L3143.01,2875.36L3018.21,2875.36Z" style="fill-rule:nonzero;"/>
    </g>
    <g transform="matrix(0.0931306,-0.0436752,0.0436752,0.0931306,-207.693,-0.12262)">
        <path d="M3164,2816.72L3164,2782.32L3182.8,2782.32L3182.8,2695.72L3164,2695.72L3164,2661.32L3295.2,2661.32L3295.2,2723.12L3270.2,2723.12L3260.8,2695.72L3232.8,2695.72L3232.8,2721.12L3257.8,2721.12L3257.8,2746.72L3232.8,2746.72L3232.8,2782.32L3260.8,2782.32L3270.2,2750.52L3295.2,2750.52L3295.2,2816.72L3164,2816.72Z" style="fill-rule:nonzero;"/>
    </g>
</svg>
