<svg width="32" height="32" viewBox="0 0 32 32" fill="none" xmlns="http://www.w3.org/2000/svg">
<g clip-path="url(#clip0)">
<path d="M31.0077 27.2313L23.4277 20.7847C22.6443 20.0793 21.8063 19.756 21.129 19.7867C22.9183 17.6907 23.999 14.972 23.999 12C23.999 5.37267 18.6263 0 11.999 0C5.37166 0 -0.00100708 5.37267 -0.00100708 12C-0.00100708 18.6273 5.37166 24 11.999 24C14.971 24 17.6897 22.9193 19.7857 21.13C19.7543 21.8067 20.0783 22.6447 20.7837 23.4287L27.2303 31.0087C28.3343 32.2353 30.137 32.3387 31.237 31.2387C32.337 30.1387 32.2337 28.3353 31.007 27.232L31.0077 27.2313ZM11.9997 20C7.58166 20 3.99966 16.418 3.99966 12C3.99966 7.582 7.58166 4 11.9997 4C16.4177 4 19.9997 7.582 19.9997 12C19.9997 16.418 16.4177 20 11.9997 20Z" fill="black"/>
</g>
<defs>
<clipPath id="clip0">
<rect width="32" height="32" fill="white"/>
</clipPath>
</defs>
</svg>
