<?xml version="1.0" encoding="iso-8859-1"?>
<!-- Generator: Adobe Illustrator 19.0.0, SVG Export Plug-In . SVG Version: 6.00 Build 0)  -->
<svg version="1.1" id="Layer_1" xmlns="http://www.w3.org/2000/svg" xmlns:xlink="http://www.w3.org/1999/xlink" x="0px" y="0px"
	 viewBox="0 0 512 512" style="enable-background:new 0 0 512 512;" xml:space="preserve">
<path style="fill:#F2F2F2;" d="M386.299,127.922H128.467c-18.066,0-27.745-21.256-15.884-34.883l65.805-75.607
	c3.999-4.595,9.792-7.233,15.884-7.233h192.027c10.134,0,18.348,8.215,18.348,18.348v81.026
	C404.648,119.707,396.433,127.922,386.299,127.922z"/>
<path style="fill:#FFAD61;" d="M303.493,127.922h-76.738v359.599c0,7.886,6.393,14.279,14.279,14.279h48.179
	c7.886,0,14.279-6.393,14.279-14.279V127.922H303.493z"/>
<g>
	<path style="fill:#534741;" d="M386.299,0H194.273c-9.045,0-17.639,3.913-23.577,10.736L104.89,86.342
		c-8.145,9.358-10.011,22.184-4.869,33.475c5.141,11.289,16.041,18.304,28.447,18.304h88.09v349.401
		c0,13.497,10.981,24.478,24.478,24.478h48.179c13.497,0,24.478-10.981,24.478-24.478v-349.4h72.606
		c15.741,0,28.548-12.807,28.548-28.548V28.548C414.847,12.807,402.04,0,386.299,0z M293.294,487.522c0,2.25-1.83,4.08-4.08,4.08
		h-48.179c-2.25,0-4.08-1.83-4.08-4.08v-349.4h56.339v349.4H293.294z M128.467,117.723c-6.483,0-9.203-4.867-9.882-6.358
		c-0.679-1.492-2.565-6.739,1.692-11.629l65.805-75.607c2.063-2.37,5.05-3.73,8.192-3.73H386.3c4.494,0,8.149,3.655,8.149,8.149
		v81.026c0,4.494-3.655,8.149-8.149,8.149H128.467z"/>
	<path style="fill:#534741;" d="M371.947,31.61h-55.592c-5.632,0-10.199,4.567-10.199,10.199s4.567,10.199,10.199,10.199h55.592
		c5.632,0,10.199-4.567,10.199-10.199S377.58,31.61,371.947,31.61z"/>
	<path style="fill:#534741;" d="M283.655,31.61h-4.36c-5.632,0-10.199,4.567-10.199,10.199s4.567,10.199,10.199,10.199h4.36
		c5.632,0,10.199-4.567,10.199-10.199S289.287,31.61,283.655,31.61z"/>
</g>
<g>
</g>
<g>
</g>
<g>
</g>
<g>
</g>
<g>
</g>
<g>
</g>
<g>
</g>
<g>
</g>
<g>
</g>
<g>
</g>
<g>
</g>
<g>
</g>
<g>
</g>
<g>
</g>
<g>
</g>
</svg>
