<!-- Generated by IcoMoon.io -->
<svg version="1.1" xmlns="http://www.w3.org/2000/svg" width="16" height="16" viewBox="0 0 16 16">
<title>phone</title>
<path fill="#000000" d="M12 0h-8c-0.829 0-1.5 0.671-1.5 1.5v13c0 0.829 0.671 1.5 1.5 1.5h8c0.828 0 1.5-0.672 1.5-1.5v-13c0-0.829-0.672-1.5-1.5-1.5zM12.5 14.5c0 0.275-0.225 0.5-0.5 0.5h-8c-0.276 0-0.5-0.223-0.5-0.5v-1.002h9v1.002zM12.5 12.998h-9v-9.998h9v9.998zM12.5 2.5h-9v-1c0-0.276 0.224-0.5 0.5-0.5h8c0.275 0 0.5 0.224 0.5 0.5v1zM9 1.75c0 0.138-0.113 0.25-0.25 0.25h-1.5c-0.138 0-0.25-0.112-0.25-0.25v0c0-0.139 0.112-0.25 0.25-0.25h1.5c0.137 0 0.25 0.111 0.25 0.25v0zM8.5 14.248c0 0.137-0.113 0.25-0.25 0.25h-0.5c-0.138 0-0.25-0.113-0.25-0.25v0c0-0.139 0.112-0.25 0.25-0.25h0.5c0.137 0 0.25 0.111 0.25 0.25v0z"></path>
</svg>
