<?xml version="1.0" encoding="iso-8859-1"?>
<!-- Generator: Adobe Illustrator 19.0.0, SVG Export Plug-In . SVG Version: 6.00 Build 0)  -->
<svg version="1.1" id="Layer_1" xmlns="http://www.w3.org/2000/svg" xmlns:xlink="http://www.w3.org/1999/xlink" x="0px" y="0px"
	 viewBox="0 0 512 512" style="enable-background:new 0 0 512 512;" xml:space="preserve">
<polygon style="fill:#72BEDE;" points="62.508,311.771 37.695,371.843 97.767,347.031 338.056,106.742 302.796,71.482 "/>
<g>
	
		<rect x="310.33" y="51.368" transform="matrix(-0.7071 0.7071 -0.7071 -0.7071 634.3846 -133.2923)" style="fill:#FFAD61;" width="68.936" height="26.742"/>
	<path style="fill:#FFAD61;" d="M10.199,481.09H501.8V144.274L10.199,481.09z M435.308,414.6H224.083l211.225-144.719V414.6z"/>
</g>
<g>
	<path style="fill:#534741;" d="M37.697,382.042c1.311,0,2.632-0.252,3.891-0.773l60.072-24.813
		c1.241-0.512,2.368-1.265,3.319-2.214l240.289-240.289c3.983-3.983,3.983-10.441,0-14.425l-0.963-0.963l41.533-41.534
		c3.983-3.983,3.983-10.441,0-14.425l-18.909-18.91c-1.912-1.912-4.507-2.987-7.212-2.987c-2.705,0-5.3,1.075-7.212,2.987
		l-41.534,41.534l-0.962-0.962c-1.912-1.912-4.507-2.987-7.212-2.987c-2.705,0-5.298,1.075-7.212,2.987l-8.459,8.459l-0.719-0.719
		c-5.912-5.913-13.773-9.169-22.134-9.169c-8.361,0-16.223,3.256-22.135,9.168l-58.208,58.208c-3.983,3.983-3.983,10.441,0,14.425
		c1.992,1.991,4.602,2.987,7.212,2.987s5.22-0.996,7.212-2.987l58.208-58.208c2.06-2.06,4.798-3.194,7.712-3.194
		c2.912,0,5.65,1.134,7.712,3.194l0.719,0.719L55.295,304.559c-0.95,0.951-1.702,2.078-2.214,3.319L28.268,367.95
		c-1.574,3.808-0.701,8.191,2.214,11.106C32.433,381.007,35.042,382.042,37.697,382.042z M359.717,45.335l4.486,4.486
		l-34.321,34.321l-4.486-4.486L359.717,45.335z M323.632,106.743L91.994,338.38l-35.498,14.662l14.662-35.498L302.796,85.907
		L323.632,106.743z"/>
	<path style="fill:#534741;" d="M506.555,135.251c-3.347-1.764-7.396-1.531-10.519,0.61L4.435,472.678
		c-3.687,2.526-5.299,7.161-3.978,11.43c1.323,4.271,5.273,7.182,9.743,7.182h491.601c5.632,0,10.199-4.567,10.199-10.199V144.274
		C511.999,140.489,509.903,137.016,506.555,135.251z M491.601,470.892h-46.093v-9.421c0-5.632-4.567-10.199-10.199-10.199
		s-10.199,4.567-10.199,10.199v9.421h-83.88v-9.421c0-5.632-4.567-10.199-10.199-10.199c-5.632,0-10.199,4.567-10.199,10.199v9.421
		h-83.88v-9.421c0-5.632-4.567-10.199-10.199-10.199c-5.632,0-10.199,4.567-10.199,10.199v9.421h-83.88v-9.421
		c0-5.632-4.567-10.199-10.199-10.199s-10.199,4.567-10.199,10.199v9.421H43.13l448.47-307.267V470.892z"/>
	<path style="fill:#534741;" d="M224.083,424.798h211.225c5.632,0,10.199-4.567,10.199-10.199V269.881
		c0-3.785-2.096-7.258-5.443-9.023c-3.349-1.763-7.397-1.531-10.52,0.61L218.319,406.186c-3.687,2.527-5.299,7.161-3.978,11.431
		C215.663,421.887,219.613,424.798,224.083,424.798z M425.108,289.232V404.4H257.014L425.108,289.232z"/>
	<path style="fill:#534741;" d="M473.242,278.306c5.632,0,10.199-4.567,10.199-10.199v-60.175c0-5.632-4.567-10.199-10.199-10.199
		c-5.632,0-10.199,4.567-10.199,10.199v60.175C463.043,273.74,467.609,278.306,473.242,278.306z"/>
	<path style="fill:#534741;" d="M473.242,316.043c5.632,0,10.199-4.567,10.199-10.199v-8.159c0-5.632-4.567-10.199-10.199-10.199
		c-5.632,0-10.199,4.567-10.199,10.199v8.159C463.043,311.477,467.609,316.043,473.242,316.043z"/>
</g>
<g>
</g>
<g>
</g>
<g>
</g>
<g>
</g>
<g>
</g>
<g>
</g>
<g>
</g>
<g>
</g>
<g>
</g>
<g>
</g>
<g>
</g>
<g>
</g>
<g>
</g>
<g>
</g>
<g>
</g>
</svg>
