<svg xmlns="http://www.w3.org/2000/svg" viewBox="0 0 470 470"><path d="M439.196 186.932a7.5 7.5 0 0 0-10.452 1.806 7.5 7.5 0 0 0 1.805 10.452c11.154 7.868 24.45 20.448 24.45 35.694 0 23.599-32.986 48.215-88.649 63.802-6.24-20.87-14.612-42.684-24.852-64.739 9.839-21.465 17.918-42.707 23.973-62.98 14.631 4.038 28.066 8.78 39.954 14.167a7.474 7.474 0 0 0 3.091.671 7.5 7.5 0 0 0 3.1-14.333c-12.555-5.69-26.727-10.69-42.133-14.938 3.227-12.589 5.599-24.704 7.055-36.158 6.074-1.362 11.425-5.201 14.6-10.699a22.354 22.354 0 0 0 2.248-17.073 22.354 22.354 0 0 0-10.483-13.662 22.56 22.56 0 0 0-5.9-2.36c-3.045-21.588-11.762-37.083-25.444-44.981-23.118-13.346-56.986-3.604-95.365 27.434-7.177 5.804-14.376 12.241-21.546 19.231-7.249-7.079-14.527-13.595-21.784-19.463-38.379-31.037-72.247-40.781-95.365-27.434-13.789 7.961-22.536 23.632-25.515 45.487a22.491 22.491 0 0 0-4.889 2.086 22.352 22.352 0 0 0-10.484 13.662 22.353 22.353 0 0 0 2.248 17.073c3.01 5.214 7.975 8.943 13.659 10.477 1.474 11.592 3.888 23.861 7.175 36.614-12.496 3.475-24.165 7.446-34.805 11.88-4.038-3.842-9.493-6.208-15.493-6.208-12.407 0-22.5 10.094-22.5 22.5 0 1.553.158 3.07.459 4.535C9.437 203.122 0 218.735 0 234.884c0 26.694 25.372 51.153 71.441 68.872 8.613 3.313 17.785 6.328 27.42 9.042-3.97 15.325-6.688 29.964-8.026 43.567a7.499 7.499 0 0 0 7.472 8.235 7.503 7.503 0 0 0 7.455-6.767c1.266-12.864 3.842-26.729 7.601-41.266 21.098 5.049 44.082 8.73 68.211 10.925 13.702 19.39 28.106 37.149 42.691 52.655-41.576 40.862-79.669 57.352-100.206 45.494-13.204-7.623-17.451-25.428-18.688-39.021-.376-4.126-4.032-7.174-8.149-6.789a7.5 7.5 0 0 0-6.79 8.148c2.236 24.561 11.27 42.075 26.126 50.652 6.759 3.902 14.435 5.83 22.875 5.83 20.43 0 45.331-11.3 72.49-33.264 7.575-6.126 15.175-12.958 22.74-20.4 9.551 9.395 19.124 17.757 28.575 24.934-.007.026-.018.051-.025.078a22.354 22.354 0 0 0 2.248 17.073c4.007 6.94 11.479 11.252 19.5 11.252a22.504 22.504 0 0 0 15.582-6.288c10.405 4.231 20.165 6.36 29.057 6.36 8.486 0 16.186-1.934 22.898-5.809 23.118-13.347 31.614-47.549 23.924-96.306-1.477-9.367-3.523-19.089-6.086-29.073 9.928-2.772 19.37-5.861 28.221-9.265C444.628 286.037 470 261.578 470 234.884c0-17.154-10.652-33.736-30.804-47.952zM351.82 302.419c-16.197 3.816-34.006 6.901-53.237 9.046a601.572 601.572 0 0 0 17.75-28.849 593.711 593.711 0 0 0 16.685-30.991c7.554 17.318 13.868 34.372 18.802 50.794zM164.778 195.117c7.877-13.644 15.96-26.446 24.141-38.395A575.69 575.69 0 0 1 235 154.885a576.6 576.6 0 0 1 45.253 1.769c8.143 11.903 16.187 24.649 24.029 38.231a581.738 581.738 0 0 1 20.658 39.1 576.575 576.575 0 0 1-21.598 41.132c-7.819 13.543-15.841 26.255-23.96 38.129-14.156 1.064-28.969 1.638-44.383 1.638-15.682 0-30.743-.594-45.122-1.694a576.373 576.373 0 0 1-24.16-38.306 576.192 576.192 0 0 1-21.473-40.872 578.174 578.174 0 0 1 20.534-38.895zm-28.542 21.233c-7.189-16.67-13.225-33.086-17.985-48.869 16.072-3.774 33.332-6.758 51.388-8.869a601.428 601.428 0 0 0-17.851 29.004 595.139 595.139 0 0 0-15.552 28.734zm98.403-116.869c11.381 12.054 22.939 25.872 34.397 41.381a593.874 593.874 0 0 0-34.036-.979c-11.745 0-23.383.353-34.838 1.027 11.486-15.532 23.071-29.368 34.477-41.429zm98.302 116.836a602.148 602.148 0 0 0-15.669-28.933 601.655 601.655 0 0 0-17.764-28.87c18.063 2.08 35.341 5.024 51.432 8.768-4.753 15.832-10.794 32.303-17.999 49.035zm45.208-114.14a7.536 7.536 0 0 1-6.509 3.753 7.386 7.386 0 0 1-3.737-1.008 7.45 7.45 0 0 1-3.494-4.554 7.447 7.447 0 0 1 .75-5.691 7.527 7.527 0 0 1 5.716-3.7c.293-.028.541-.053.793-.053a7.38 7.38 0 0 1 3.736 1.008 7.456 7.456 0 0 1 3.494 4.554 7.447 7.447 0 0 1-.749 5.691zm-34.088-57.586c11.443 6.606 16.165 20.859 18.025 33.494-4.091 1.928-7.59 5.063-9.916 9.092a22.352 22.352 0 0 0-2.248 17.074 22.355 22.355 0 0 0 10.483 13.661c.408.236.824.457 1.245.666-1.379 10.84-3.629 22.32-6.686 34.264-20.59-4.822-43.009-8.376-66.474-10.53-13.914-19.726-28.538-37.73-43.403-53.437 41.094-39.982 78.637-56.026 98.974-44.284zM91.102 96.486a7.45 7.45 0 0 1 3.495-4.554 7.368 7.368 0 0 1 3.696-1.005c.05.003.1.003.15.005a7.532 7.532 0 0 1 6.399 3.746 7.452 7.452 0 0 1 .75 5.691 7.45 7.45 0 0 1-3.495 4.554 7.38 7.38 0 0 1-3.736 1.008 7.535 7.535 0 0 1-6.509-3.753 7.446 7.446 0 0 1-.75-5.692zm16.389 22.485a22.493 22.493 0 0 0 2.104-1.059 22.353 22.353 0 0 0 10.484-13.661 22.352 22.352 0 0 0-2.248-17.074 22.542 22.542 0 0 0-10.828-9.507c1.882-12.612 6.619-26.742 17.997-33.312 20.375-11.763 58.02 4.36 99.205 44.505-14.906 15.723-29.571 33.758-43.524 53.526-23.472 2.192-45.892 5.792-66.471 10.655-3.057-11.87-5.316-23.285-6.719-34.073zm-50.594 65.97c0 4.136-3.364 7.5-7.5 7.5s-7.5-3.364-7.5-7.5 3.364-7.5 7.5-7.5 7.5 3.364 7.5 7.5zM15 234.884c0-13.251 10.027-24.505 20.192-32.51a22.388 22.388 0 0 0 14.205 5.066c12.407 0 22.5-10.094 22.5-22.5 0-.976-.069-1.936-.191-2.879 9.813-4.036 20.543-7.667 32.021-10.862 6.066 20.218 14.141 41.394 23.958 62.783-10.191 21.967-18.556 43.731-24.803 64.489C47.684 282.873 15 258.374 15 234.884zm102.393 67.351c4.937-16.327 11.248-33.33 18.778-50.588a593.57 593.57 0 0 0 16.557 30.737 594.15 594.15 0 0 0 17.866 28.987c-19.226-2.175-37.027-5.289-53.201-9.136zM235 329.884c11.214 0 22.308-.311 33.221-.914-11.151 15.107-22.399 28.608-33.487 40.445-11.391-12.146-22.686-25.746-33.617-40.479a602.71 602.71 0 0 0 33.883.948zm43.454 95.499a7.451 7.451 0 0 1-.749-5.691 7.529 7.529 0 0 1 .857-1.993c.013-.018.028-.033.041-.05.054-.075.098-.154.149-.231a7.484 7.484 0 0 1 6.184-3.288 7.535 7.535 0 0 1 6.509 3.753c2.068 3.581.836 8.177-2.745 10.245a7.389 7.389 0 0 1-3.736 1.007 7.532 7.532 0 0 1-6.51-3.752zm83.153-80.952c6.558 41.583.505 71.099-16.607 80.979-11.351 6.553-25.91 3.617-37.732-1.023a22.374 22.374 0 0 0-2.834-14.003c-4.007-6.94-11.479-11.253-19.499-11.253a22.5 22.5 0 0 0-13.149 4.255c-8.805-6.722-17.731-14.537-26.65-23.307 14.556-15.491 28.869-33.176 42.501-52.513 24.105-2.158 47.077-5.799 68.182-10.803 2.438 9.509 4.384 18.761 5.788 27.668z" fill="#082947"/><path d="M41.897 184.941c0 4.136 3.364 7.5 7.5 7.5s7.5-3.364 7.5-7.5-3.364-7.5-7.5-7.5-7.5 3.364-7.5 7.5z" fill="#6da8d6"/><path d="M291.444 417.883a7.536 7.536 0 0 0-6.509-3.753 7.484 7.484 0 0 0-6.184 3.288c-.051.077-.095.156-.149.231-.013.018-.028.033-.041.05a7.515 7.515 0 0 0-.857 1.993 7.45 7.45 0 0 0 .749 5.691 7.535 7.535 0 0 0 6.509 3.752 7.386 7.386 0 0 0 3.736-1.007c3.582-2.068 4.814-6.664 2.746-10.245z" fill="#f2484b"/><path d="M375.405 91.932a7.38 7.38 0 0 0-3.736-1.008c-.252 0-.5.025-.748.05-2.415.256-4.558 1.62-5.761 3.703a7.452 7.452 0 0 0-.75 5.691 7.453 7.453 0 0 0 3.494 4.554 7.386 7.386 0 0 0 3.737 1.008 7.535 7.535 0 0 0 6.509-3.753 7.451 7.451 0 0 0 .749-5.691 7.456 7.456 0 0 0-3.494-4.554z" fill="#6da8d6"/><path d="M98.359 105.93a7.38 7.38 0 0 0 3.736-1.008 7.447 7.447 0 0 0 3.495-4.554 7.447 7.447 0 0 0-.75-5.691 7.534 7.534 0 0 0-6.399-3.746c-.05-.002-.1-.001-.15-.005a7.379 7.379 0 0 0-3.696 1.005 7.454 7.454 0 0 0-3.495 4.554 7.45 7.45 0 0 0 .749 5.691 7.539 7.539 0 0 0 6.51 3.754z" fill="#f2484b"/><path d="M235 272.384c20.678 0 37.5-16.822 37.5-37.5s-16.822-37.5-37.5-37.5-37.5 16.822-37.5 37.5 16.822 37.5 37.5 37.5z" fill="#ffcc75"/><path d="M235 287.384c28.949 0 52.5-23.552 52.5-52.5s-23.551-52.5-52.5-52.5-52.5 23.552-52.5 52.5 23.551 52.5 52.5 52.5zm0-90c20.678 0 37.5 16.822 37.5 37.5s-16.822 37.5-37.5 37.5-37.5-16.822-37.5-37.5 16.822-37.5 37.5-37.5z" fill="#082947"/></svg>