<?xml version="1.0" standalone="no"?>
<!DOCTYPE svg PUBLIC "-//W3C//DTD SVG 1.1//EN" "http://www.w3.org/Graphics/SVG/1.1/DTD/svg11.dtd">
<svg width="72px" height="28px" version="1.1" xmlns="http://www.w3.org/2000/svg" xmlns:xlink="http://www.w3.org/1999/xlink" xml:space="preserve" style="fill-rule:evenodd;clip-rule:evenodd;stroke-linejoin:round;stroke-miterlimit:1.41421;">
    <g>
        <g id="Layer1">
            <g id="BASE">
                <path d="M18.62,15.344C18.62,16.24 18.4333,17.01 18.06,17.654C17.6867,18.298 17.1733,18.8253 16.52,19.236C15.8667,19.6467 15.106,19.95 14.238,20.146C13.37,20.342 12.4507,20.44 11.48,20.44L1.708,20.44L1.708,0.56L13.244,0.56C13.9347,0.56 14.56,0.709333 15.12,1.008C15.68,1.30667 16.156,1.694 16.548,2.17C16.94,2.646 17.2433,3.18733 17.458,3.794C17.6727,4.40067 17.78,5.02133 17.78,5.656C17.78,6.58933 17.542,7.48067 17.066,8.33C16.59,9.17933 15.876,9.81867 14.924,10.248C16.0627,10.584 16.9633,11.1673 17.626,11.998C18.2887,12.8287 18.62,13.944 18.62,15.344ZM13.076,14.224C13.076,13.7387 12.9453,13.3327 12.684,13.006C12.4227,12.6793 12.0867,12.516 11.676,12.516L7.168,12.516L7.168,15.848L11.48,15.848C11.928,15.848 12.306,15.708 12.614,15.428C12.922,15.148 13.076,14.7467 13.076,14.224ZM7.168,5.208L7.168,8.26L10.892,8.26C11.2653,8.26 11.606,8.15733 11.914,7.952C12.222,7.74667 12.376,7.336 12.376,6.72C12.376,6.17867 12.2453,5.79133 11.984,5.558C11.7227,5.32467 11.4147,5.208 11.06,5.208L7.168,5.208Z" style="fill:white;fill-rule:nonzero;"/>
                <path d="M18.704,20.44L26.124,0.56L30.548,0.56L37.94,20.44L32.172,20.44L30.968,16.548L25.676,16.548L24.5,20.44L18.704,20.44ZM28.336,6.244L26.488,12.908L30.1,12.908L28.336,6.244Z" style="fill:white;fill-rule:nonzero;"/>
                <path d="M51.324,7.056C50.764,6.72 50.1853,6.42133 49.588,6.16C49.084,5.936 48.5193,5.726 47.894,5.53C47.2687,5.334 46.6573,5.236 46.06,5.236C45.5747,5.236 45.1873,5.31067 44.898,5.46C44.6087,5.60933 44.464,5.86133 44.464,6.216C44.464,6.47733 44.548,6.692 44.716,6.86C44.884,7.028 45.1267,7.182 45.444,7.322C45.7613,7.462 46.1487,7.59733 46.606,7.728C47.0633,7.85867 47.5813,8.01733 48.16,8.204C49.0747,8.484 49.9007,8.792 50.638,9.128C51.3753,9.464 52.0053,9.86067 52.528,10.318C53.0507,10.7753 53.452,11.3307 53.732,11.984C54.012,12.6373 54.152,13.4307 54.152,14.364C54.152,15.5587 53.9327,16.562 53.494,17.374C53.0553,18.186 52.4767,18.8347 51.758,19.32C51.0393,19.8053 50.2273,20.1553 49.322,20.37C48.4167,20.5847 47.5067,20.692 46.592,20.692C45.864,20.692 45.1173,20.636 44.352,20.524C43.5867,20.412 42.826,20.2533 42.07,20.048C41.314,19.8427 40.586,19.6 39.886,19.32C39.186,19.04 38.5373,18.7227 37.94,18.368L40.292,13.58C40.9453,13.9907 41.6267,14.3547 42.336,14.672C42.9333,14.952 43.61,15.204 44.366,15.428C45.122,15.652 45.892,15.764 46.676,15.764C47.2733,15.764 47.6887,15.6847 47.922,15.526C48.1553,15.3673 48.272,15.1573 48.272,14.896C48.272,14.616 48.1553,14.378 47.922,14.182C47.6887,13.986 47.3667,13.8133 46.956,13.664C46.5453,13.5147 46.074,13.3653 45.542,13.216C45.01,13.0667 44.4453,12.8893 43.848,12.684C42.9707,12.3853 42.2147,12.0633 41.58,11.718C40.9453,11.3727 40.4227,10.9807 40.012,10.542C39.6013,10.1033 39.298,9.604 39.102,9.044C38.906,8.484 38.808,7.84 38.808,7.112C38.808,6.01067 39.0087,5.04 39.41,4.2C39.8113,3.36 40.3573,2.66 41.048,2.1C41.7387,1.54 42.5273,1.11533 43.414,0.826C44.3007,0.536667 45.2387,0.392 46.228,0.392C46.956,0.392 47.6653,0.462 48.356,0.602C49.0467,0.742 49.714,0.919333 50.358,1.134C51.002,1.34867 51.604,1.582 52.164,1.834C52.724,2.086 53.228,2.324 53.676,2.548L51.324,7.056Z" style="fill:white;fill-rule:nonzero;"/>
                <path d="M70.728,15.68L70.728,20.44L56.56,20.44L56.56,0.56L70.476,0.56L70.476,5.32L62.02,5.32L62.02,8.12L69.244,8.12L69.244,12.544L62.02,12.544L62.02,15.68L70.728,15.68Z" style="fill:white;fill-rule:nonzero;"/>
            </g>
        </g>
    </g>
</svg>
