<svg width="80" height="98" xmlns="http://www.w3.org/2000/svg" xmlns:xlink="http://www.w3.org/1999/xlink"><use xlink:href="#path0_fill"/><use xlink:href="#path1_fill" transform="translate(22.091 8.103)"/><use xlink:href="#path2_fill" transform="translate(19.908 27.75)" fill="#FFCA02"/><defs><path id="path0_fill" d="M80 68.998c0 19.07-11.84 28.605-35.52 28.605H0V0h43.85c11.736 0 20.38 2.096 25.934 6.287 5.658 4.191 8.487 10.635 8.487 19.332 0 8.697-3.667 15.403-11.002 20.118v.628C75.756 50.242 80 57.786 80 68.998zm-41.965 9.116c2.83 0 4.716-.576 5.659-1.729.942-1.257 1.414-3.824 1.414-7.701s-.524-6.601-1.572-8.173c-.943-1.677-2.776-2.515-5.5-2.515h-4.559v20.118h4.558zm.158-37.407c1.886 0 3.248-.628 4.086-1.886.943-1.257 1.414-3.405 1.414-6.444 0-3.143-.471-5.396-1.414-6.758-.838-1.362-2.253-2.043-4.244-2.043h-4.558v17.131h4.716z"/><path id="path1_fill" d="M0 0h32.744v74.22H0V0z"/><path id="path2_fill" d="M35.504 0L21.252 21.252h14.252L0 56.756 10.72 31.91H0L10.72 0h24.784z"/></defs></svg>