<svg xmlns="http://www.w3.org/2000/svg" width="100" height="40" viewBox="0 0 100 40"><path d="M27.4 26.2c0 1.2-.2 2.1-.7 3-.5.8-1.1 1.5-2 2-.8.5-1.8.9-2.9 1.2s-2.3.4-3.5.4H5.6V7.2h14.8c.9 0 1.7.2 2.4.6s1.3.9 1.8 1.5.9 1.3 1.2 2.1.4 1.6.4 2.4c0 1.2-.3 2.3-.9 3.4s-1.5 1.9-2.8 2.5c1.5.4 2.6 1.2 3.5 2.2s1.4 2.5 1.4 4.3zM12.6 13.1V17h4.8c.5 0 .9-.1 1.3-.4s.6-.8.6-1.6c0-.7-.2-1.2-.5-1.5s-.7-.5-1.2-.5h-5zm7.6 11.6c0-.6-.2-1.1-.5-1.6-.3-.4-.8-.6-1.3-.6h-5.8v4.3h5.5c.6 0 1.1-.2 1.5-.5.4-.4.6-.9.6-1.6zM27.5 32.7L37 7.2h5.7l9.5 25.6h-7.4l-1.5-5h-6.8l-1.5 5h-7.5zm12.4-18.2L37.5 23h4.6l-2.2-8.5zM69.4 15.5c-.7-.4-1.5-.8-2.2-1.2-.6-.3-1.4-.6-2.2-.8s-1.6-.4-2.4-.4c-.6 0-1.1.1-1.5.3s-.6.5-.6 1c0 .3.1.6.3.8s.5.4.9.6c.4.2.9.4 1.5.5.6.2 1.3.4 2 .6 1.2.4 2.2.8 3.2 1.2s1.8.9 2.4 1.5c.7.6 1.2 1.3 1.5 2.1.4.8.5 1.9.5 3.1 0 1.5-.3 2.8-.8 3.9-.6 1-1.3 1.9-2.2 2.5s-2 1.1-3.1 1.3-2.3.4-3.5.4c-.9 0-1.9-.1-2.9-.2s-2-.3-2.9-.6c-1-.3-1.9-.6-2.8-.9-.9-.4-1.7-.8-2.5-1.2l3-6.2c.8.5 1.7 1 2.6 1.4.8.4 1.6.7 2.6 1s2 .4 3 .4c.8 0 1.3-.1 1.6-.3s.5-.5.5-.8c0-.4-.2-.7-.5-.9s-.7-.5-1.2-.7c-.5-.2-1.1-.4-1.8-.6s-1.4-.4-2.2-.7c-1.1-.4-2.1-.8-2.9-1.2s-1.5-.9-2-1.5-.9-1.2-1.2-1.9-.4-1.5-.4-2.5c0-1.4.3-2.7.8-3.7.5-1.1 1.2-2 2.1-2.7s1.9-1.3 3-1.6 2.3-.6 3.6-.6c.9 0 1.8.1 2.7.3s1.7.4 2.6.7c.8.3 1.6.6 2.3.9s1.4.6 1.9.9l-2.8 5.8zM94.4 26.6v6.1H76.2V7.2H94v6.1H83.2v3.6h9.3v5.7h-9.3v4h11.2z"/></svg>