<svg xmlns="http://www.w3.org/2000/svg" viewBox="0 0 475 475"><path d="M382.024 216.421H92.976c-6.893 0-12.5 5.607-12.5 12.5s5.607 12.5 12.5 12.5h289.048c6.893 0 12.5-5.607 12.5-12.5s-5.607-12.5-12.5-12.5z" fill="#fff"/><path d="M44.765 63.21c0 26.583 21.627 48.21 48.21 48.21s48.21-21.627 48.21-48.21c0-7.852-1.826-15.337-5.426-22.246a7.5 7.5 0 0 1 3.185-10.117 7.497 7.497 0 0 1 10.117 3.185c4.661 8.944 7.125 19.034 7.125 29.179 0 32.315-24.38 59.027-55.71 62.75v35.46h22.5a7.5 7.5 0 0 1 7.5 7.499h15a7.5 7.5 0 0 1 7.5-7.499h221.548v-35.46c-31.33-3.723-55.71-30.435-55.71-62.75 0-10.146 2.464-20.236 7.125-29.179a7.5 7.5 0 0 1 13.302 6.932c-3.601 6.908-5.426 14.393-5.426 22.246 0 26.583 21.627 48.21 48.21 48.21s48.21-21.627 48.21-48.21S408.608 15 382.024 15H92.976c-26.584 0-48.211 21.627-48.211 48.21zm311.549-7.5c.371 0 .733.036 1.09.088a25.76 25.76 0 0 1 17.209-17.209 7.537 7.537 0 0 1-.088-1.09 7.5 7.5 0 0 1 7.5-7.5c18.313 0 33.21 14.898 33.21 33.21s-14.898 33.21-33.21 33.21-33.21-14.898-33.21-33.21a7.498 7.498 0 0 1 7.499-7.499zm-177.628 0h117.627a7.5 7.5 0 0 1 0 15H178.686a7.5 7.5 0 0 1 0-15zM92.976 30a7.5 7.5 0 0 1 7.5 7.5c0 .371-.036.733-.088 1.09a25.76 25.76 0 0 1 17.209 17.209 7.537 7.537 0 0 1 1.09-.088 7.5 7.5 0 0 1 7.5 7.5c0 18.313-14.898 33.21-33.21 33.21s-33.21-14.898-33.21-33.21S74.663 30 92.976 30zm7.5 226.421V467.5h27.262V308.921c0-15.164 12.336-27.5 27.5-27.5s27.5 12.336 27.5 27.5V467.5H210V308.921c0-15.164 12.336-27.5 27.5-27.5s27.5 12.336 27.5 27.5V467.5h27.262V308.921c0-15.164 12.336-27.5 27.5-27.5s27.5 12.336 27.5 27.5v30a7.5 7.5 0 0 1-7.497 7.5v15a7.5 7.5 0 0 1 7.497 7.5V467.5h27.262V256.421H100.476z" fill="#f2ebd9"/><path d="M155.238 296.421c-6.893 0-12.5 5.607-12.5 12.5V467.5h25V308.921c0-6.893-5.607-12.5-12.5-12.5zm82.262 0c-6.893 0-12.5 5.607-12.5 12.5V467.5h25V308.921c0-6.893-5.608-12.5-12.5-12.5zm102.262 65c.003 0 .003-15 .003-15a7.5 7.5 0 0 1-7.503-7.5v-30c0-6.893-5.607-12.5-12.5-12.5s-12.5 5.607-12.5 12.5V467.5h25v-98.579a7.5 7.5 0 0 1 7.5-7.5zm-209.286-192.5a7.5 7.5 0 0 1-7.5 7.5h-22.5v25h274.048v-25H152.976a7.5 7.5 0 0 1-7.5-7.5h-15zM92.976 45c-10.042 0-18.21 8.169-18.21 18.21s8.169 18.21 18.21 18.21 18.21-8.169 18.21-18.21c0-3.771 2.786-6.883 6.41-7.412a25.76 25.76 0 0 0-17.209-17.209C99.859 42.214 96.747 45 92.976 45zm270.838 18.21c0 10.042 8.169 18.21 18.21 18.21s18.21-8.169 18.21-18.21S392.066 45 382.024 45c-3.771 0-6.883-2.786-7.412-6.41a25.76 25.76 0 0 0-17.209 17.209c3.625.528 6.411 3.64 6.411 7.411z" fill="#ffcc75"/><path d="M389.524 125.961c31.33-3.723 55.71-30.435 55.71-62.75 0-34.854-28.356-63.21-63.21-63.21H92.976c-34.854 0-63.21 28.356-63.21 63.21 0 32.315 24.38 59.027 55.71 62.75v76.508c-11.528 3.274-20 13.889-20 26.452s8.472 23.178 20 26.452V467.5a7.5 7.5 0 0 0 15 0V256.421h274.048V467.5a7.5 7.5 0 0 0 15 0V255.373c11.528-3.274 20-13.889 20-26.452s-8.472-23.178-20-26.452v-76.508zm-7.5 115.46H92.976c-6.893 0-12.5-5.607-12.5-12.5s5.607-12.5 12.5-12.5h289.048c6.893 0 12.5 5.607 12.5 12.5s-5.607 12.5-12.5 12.5zm0-226.421c26.583 0 48.21 21.627 48.21 48.21s-21.627 48.21-48.21 48.21-48.21-21.627-48.21-48.21c0-7.853 1.826-15.338 5.426-22.246a7.499 7.499 0 0 0-3.185-10.117 7.499 7.499 0 0 0-10.117 3.185c-4.661 8.942-7.125 19.032-7.125 29.179 0 32.315 24.38 59.027 55.71 62.75v35.46H152.976a7.5 7.5 0 1 0 0 15h221.548v25H100.476v-25h22.5a7.5 7.5 0 0 0 0-15h-22.5v-35.46c31.33-3.723 55.71-30.435 55.71-62.75 0-10.145-2.463-20.235-7.125-29.179a7.5 7.5 0 0 0-13.302 6.932c3.601 6.909 5.426 14.394 5.426 22.246 0 26.583-21.627 48.21-48.21 48.21s-48.21-21.627-48.21-48.21S66.392 15 92.976 15h289.048z" fill="#082947"/><path d="M155.238 281.421c-15.164 0-27.5 12.336-27.5 27.5V467.5a7.5 7.5 0 0 0 15 0V308.921c0-6.893 5.607-12.5 12.5-12.5s12.5 5.607 12.5 12.5V467.5a7.5 7.5 0 0 0 15 0V308.921c0-15.164-12.336-27.5-27.5-27.5zm82.262 0c-15.164 0-27.5 12.336-27.5 27.5V467.5a7.5 7.5 0 0 0 15 0V308.921c0-6.893 5.607-12.5 12.5-12.5s12.5 5.607 12.5 12.5V467.5a7.5 7.5 0 0 0 15 0V308.921c0-15.164-12.337-27.5-27.5-27.5zm82.262 15c6.893 0 12.5 5.607 12.5 12.5v30a7.5 7.5 0 0 0 15 0v-30c0-15.164-12.336-27.5-27.5-27.5s-27.5 12.336-27.5 27.5V467.5a7.5 7.5 0 0 0 15 0V308.921c0-6.893 5.607-12.5 12.5-12.5z" fill="#082947"/><path d="M339.765 361.421a7.5 7.5 0 0 0-7.503 7.5V467.5a7.5 7.5 0 0 0 15 0v-98.579a7.5 7.5 0 0 0-7.497-7.5zm-246.789-265c18.313 0 33.21-14.898 33.21-33.21a7.5 7.5 0 0 0-7.5-7.5c-.371 0-.733.036-1.09.088-3.624.529-6.41 3.641-6.41 7.412 0 10.042-8.169 18.21-18.21 18.21s-18.21-8.169-18.21-18.21S82.934 45 92.976 45c3.771 0 6.883-2.786 7.412-6.41.052-.357.088-.719.088-1.09a7.5 7.5 0 0 0-7.5-7.5c-18.313 0-33.21 14.898-33.21 33.21s14.897 33.211 33.21 33.211zm289.048 0c18.313 0 33.21-14.898 33.21-33.21S400.337 30 382.024 30a7.5 7.5 0 0 0-7.5 7.5c0 .371.036.733.088 1.09.529 3.624 3.641 6.41 7.412 6.41 10.042 0 18.21 8.169 18.21 18.21s-8.169 18.21-18.21 18.21-18.21-8.169-18.21-18.21c0-3.771-2.786-6.883-6.41-7.412a7.525 7.525 0 0 0-1.09-.088 7.5 7.5 0 0 0-7.5 7.5c0 18.313 14.898 33.211 33.21 33.211zM178.686 70.71h117.627a7.5 7.5 0 0 0 0-15H178.686a7.5 7.5 0 0 0 0 15z" fill="#082947"/></svg>