<svg xmlns="http://www.w3.org/2000/svg" viewBox="0 0 470 470"><path d="M260.667 271.339C272.459 262.992 279.5 249.407 279.5 235s-7.041-27.992-18.833-36.339c-3.232-2.288-4.099-6.664-2.078-9.999a51.603 51.603 0 0 0-16.089-5.117v102.908a51.603 51.603 0 0 0 16.089-5.117 7.493 7.493 0 0 1 2.078-9.997z" fill="#f2484b"/><path d="M263.02 337.494c46.061-12.607 78.23-54.754 78.23-102.494 0-47.739-32.169-89.886-78.23-102.493-3.916-1.072-6.245-5.057-5.306-8.977a113.461 113.461 0 0 0-15.214-2.027v62.042a51.603 51.603 0 0 1 16.089 5.117c.093-.153.184-.308.289-.456a7.5 7.5 0 0 1 10.455-1.789C285.092 197.573 294.5 215.734 294.5 235s-9.408 37.427-25.167 48.582a7.468 7.468 0 0 1-4.327 1.379 7.491 7.491 0 0 1-6.128-3.167c-.105-.148-.196-.303-.289-.456a51.603 51.603 0 0 1-16.089 5.117v62.042a113.3 113.3 0 0 0 15.214-2.027c-.939-3.92 1.39-7.904 5.306-8.976z" fill="#ff6e1d"/><path d="M113.817 227.5c.697-43.956 7.513-85.862 19.643-121.818a234.737 234.737 0 0 1-48.685-31.247C43.567 113.013 17.172 167.218 15.142 227.5h98.675zm24.817-135.973c2.849-7.212 5.923-14.145 9.224-20.748 10.611-21.223 22.981-38.005 36.533-49.895-32.827 7.758-62.833 22.891-88.172 43.545a219.728 219.728 0 0 0 42.415 27.098zM227.5 454.439v-98.048a219.836 219.836 0 0 0-75.16 15.969c2.755 7.018 5.733 13.75 8.935 20.152 18.301 36.602 41.581 58.263 66.225 61.927zM84.775 395.565a234.684 234.684 0 0 1 48.685-31.247c-12.13-35.956-18.945-77.862-19.643-121.818H15.142c2.03 60.282 28.425 114.487 69.633 153.065zM227.5 341.384V242.5h-98.681c.683 41.839 7.066 81.627 18.414 115.745a234.813 234.813 0 0 1 80.267-16.861zM161.275 77.487c-3.201 6.402-6.18 13.135-8.935 20.152a219.836 219.836 0 0 0 75.16 15.969V15.561c-24.644 3.664-47.924 25.325-66.225 61.926zm-13.417 321.734c-3.302-6.603-6.376-13.535-9.224-20.748A219.764 219.764 0 0 0 96.22 405.57c25.339 20.655 55.344 35.788 88.172 43.545-13.552-11.889-25.922-28.672-36.534-49.894zM227.5 227.5v-98.884a234.847 234.847 0 0 1-80.268-16.861c-11.348 34.117-17.731 73.906-18.414 115.745H227.5z" fill="#6da8d6"/><path d="M263.865 422.812C355.727 408.754 425 328.012 425 235S355.727 61.246 263.865 47.188c-4.041-.618-6.826-4.356-6.295-8.391-4.971-.568-9.996-.95-15.07-1.141v83.847a113.3 113.3 0 0 1 15.214 2.027c.019-.079.031-.158.052-.237 1.094-3.995 5.219-6.351 9.214-5.254 52.561 14.387 89.27 62.483 89.27 116.961 0 54.479-36.709 102.575-89.27 116.961a7.525 7.525 0 0 1-1.984.268 7.502 7.502 0 0 1-7.229-5.522c-.022-.079-.033-.159-.052-.238a113.461 113.461 0 0 1-15.214 2.027v83.847c5.074-.19 10.1-.573 15.07-1.141-.532-4.034 2.253-7.772 6.294-8.39z" fill="#ffcc75"/><path d="M242.5 15.142v22.515c5.074.19 10.1.573 15.07 1.141.007-.053.008-.105.016-.158a7.496 7.496 0 0 1 8.548-6.279c47.882 7.328 91.85 31.667 123.802 68.536C422.22 138.147 440 185.773 440 235s-17.78 96.853-50.063 134.104c-31.952 36.868-75.919 61.208-123.802 68.536a7.501 7.501 0 0 1-8.548-6.279c-.008-.053-.009-.105-.016-.158-4.971.568-9.996.95-15.07 1.141v22.515C360.348 450.889 455 353.797 455 235S360.348 19.111 242.5 15.142z" fill="#185f8d"/><path d="M401.17 68.83C356.785 24.444 297.771 0 235 0S113.215 24.444 68.83 68.83C24.444 113.215 0 172.229 0 235s24.444 121.785 68.83 166.17C113.215 445.556 172.229 470 235 470s121.785-24.444 166.17-68.83C445.556 356.785 470 297.771 470 235s-24.444-121.785-68.83-166.17zM227.5 113.608a219.836 219.836 0 0 1-75.16-15.969c2.755-7.018 5.733-13.75 8.935-20.152 18.301-36.601 41.581-58.262 66.225-61.927v98.048zm0 15.008V227.5h-98.681c.683-41.839 7.066-81.627 18.414-115.745a234.813 234.813 0 0 0 80.267 16.861zm0 113.884v98.884a234.847 234.847 0 0 0-80.268 16.861c-11.348-34.117-17.731-73.906-18.414-115.745H227.5zm0 113.892v98.048c-24.644-3.665-47.924-25.326-66.225-61.927-3.201-6.402-6.18-13.135-8.935-20.152a219.812 219.812 0 0 1 75.16-15.969zM147.858 70.779c-3.302 6.603-6.376 13.535-9.224 20.748A219.764 219.764 0 0 1 96.22 64.43c25.339-20.655 55.344-35.788 88.172-43.545-13.552 11.889-25.922 28.672-36.534 49.894zm-63.083 3.656a234.684 234.684 0 0 0 48.685 31.247c-12.13 35.956-18.945 77.862-19.643 121.818H15.142c2.03-60.282 28.425-114.487 69.633-153.065zM113.817 242.5c.697 43.956 7.513 85.862 19.643 121.818a234.737 234.737 0 0 0-48.685 31.247C43.567 356.987 17.172 302.782 15.142 242.5h98.675zm24.817 135.973c2.849 7.212 5.923 14.145 9.224 20.748 10.611 21.223 22.981 38.005 36.533 49.895-32.827-7.758-62.833-22.891-88.172-43.545a219.728 219.728 0 0 1 42.415-27.098zM242.5 454.858V15.142C360.348 19.111 455 116.203 455 235s-94.652 215.889-212.5 219.858z" fill="#082947"/><path d="M263.865 47.188C355.727 61.246 425 141.988 425 235s-69.273 173.754-161.135 187.812c-4.041.618-6.826 4.356-6.295 8.391.007.053.008.105.016.158a7.501 7.501 0 0 0 8.548 6.279c47.882-7.328 91.85-31.667 123.802-68.536C422.22 331.853 440 284.227 440 235s-17.78-96.853-50.063-134.104c-31.952-36.868-75.919-61.208-123.802-68.536a7.496 7.496 0 0 0-8.548 6.279c-.008.053-.009.105-.016.158-.532 4.035 2.253 7.773 6.294 8.391z" fill="#082947"/><path d="M263.02 132.507c46.061 12.607 78.23 54.754 78.23 102.493s-32.169 89.886-78.23 102.494c-3.916 1.072-6.245 5.056-5.306 8.976.019.079.031.159.052.238a7.503 7.503 0 0 0 7.229 5.522 7.52 7.52 0 0 0 1.984-.268c52.561-14.387 89.27-62.483 89.27-116.961s-36.709-102.574-89.27-116.961c-3.995-1.097-8.12 1.259-9.214 5.254-.022.079-.033.158-.052.237-.938 3.919 1.391 7.904 5.307 8.976z" fill="#082947"/><path d="M260.667 198.661C272.459 207.008 279.5 220.593 279.5 235s-7.041 27.992-18.833 36.339c-3.232 2.288-4.099 6.664-2.078 9.999.093.153.184.308.289.456a7.491 7.491 0 0 0 6.128 3.167 7.47 7.47 0 0 0 4.327-1.379C285.092 272.427 294.5 254.266 294.5 235s-9.408-37.427-25.167-48.582a7.5 7.5 0 0 0-10.455 1.789c-.105.148-.196.303-.289.456-2.021 3.334-1.154 7.71 2.078 9.998z" fill="#082947"/></svg>