<svg xmlns="http://www.w3.org/2000/svg" xmlns:xlink="http://www.w3.org/1999/xlink" width="351" height="24" viewBox="0 0 351 24"><svg width="24" height="24" viewBox="0 0 24 24"><path fill="#101010" d="M0 1.5v15h24v-15H0zM22.5 15h-21V3h21v12zm-6.75 3h-7.5l-.75 3L6 22.5h12L16.5 21z"/></svg><svg width="24" height="24" viewBox="0 0 24 24" x="54"><path fill="#101010" d="M4.5 12c0-.285.017-.567.048-.844L.213 9.746C.073 10.477 0 11.23 0 12c0 3.45 1.458 6.56 3.79 8.75l2.68-3.687C5.246 15.73 4.5 13.95 4.5 12zm15 0c0 1.952-.746 3.73-1.967 5.063l2.68 3.687C22.542 18.56 24 15.45 24 12c0-.77-.072-1.523-.21-2.253l-4.336 1.41c.03.276.048.558.048.843zm-6-7.35c2.155.437 3.974 1.8 5.026 3.652l4.335-1.41C21.146 3.25 17.653.61 13.5.093V4.65zM5.474 8.302C6.526 6.448 8.344 5.087 10.5 4.65V.093C6.347.61 2.854 3.25 1.138 6.893l4.335 1.41zm9.633 10.526c-.947.43-2 .672-3.107.672s-2.16-.24-3.107-.672l-2.68 3.687C7.93 23.46 9.904 24 12 24s4.07-.54 5.784-1.485l-2.68-3.687z"/></svg><svg width="24" height="24" viewBox="0 0 24 24" x="108"><path fill="#101010" d="M0 12.038v.005c.004.09.014.18.032.266l.016.134c.005.044.01.092.017.142.01.06.018.124.028.192.02.135.042.284.068.444.033.15.067.314.103.49.017.086.042.175.065.266l.074.28c.013.05.024.098.04.147l.047.148.096.304.025.078.03.078.06.157.12.322.14.327c.025.054.05.11.073.165s.053.11.08.166l.166.337c.057.112.12.223.183.336l.094.17.102.166.208.335c.296.443.625.88.99 1.296.367.413.766.804 1.187 1.164.426.355.873.677 1.33.964.46.282.93.523 1.392.73l.35.142c.057.023.113.048.17.068l.174.06s.228.082.34.118l.335.1c.055.015.11.032.164.046l.163.04.32.077.31.06.15.028.075.014.074.01.288.04.14.02.135.012.262.023c.085.007.166.016.247.017h.016c.014.817.68 1.474 1.5 1.474H12.02c.09-.004.18-.014.266-.032l.135-.016c.044-.005.092-.01.142-.017.06-.01.124-.018.192-.028.135-.02.284-.042.444-.068l.49-.102c.087-.017.176-.042.267-.065l.28-.074c.05-.013.098-.024.146-.04l.148-.047.305-.098.078-.025.078-.03c.053-.018.105-.038.158-.058l.322-.122.327-.14c.055-.025.11-.05.166-.073s.11-.053.166-.08l.335-.166c.112-.06.223-.123.336-.185.057-.03.114-.063.17-.094s.11-.067.167-.1c.11-.07.223-.14.336-.21.443-.296.88-.625 1.296-.99.41-.367.802-.766 1.162-1.187.355-.426.677-.873.964-1.33.282-.46.523-.93.73-1.392l.142-.348c.023-.058.048-.114.068-.172l.06-.173s.082-.227.118-.34l.1-.334c.015-.055.033-.11.046-.164l.04-.165.077-.32.06-.31.03-.15.013-.075.01-.074.04-.288.02-.14.012-.135.023-.262c.007-.084.016-.166.017-.246v-.037c.827-.003 1.495-.674 1.495-1.5v-.038-.006c-.004-.09-.014-.18-.032-.266l-.016-.135-.018-.142c-.01-.06-.018-.123-.028-.19-.02-.136-.042-.285-.068-.445l-.102-.49c-.017-.086-.042-.175-.065-.266l-.075-.282c-.013-.048-.024-.097-.04-.146l-.047-.148-.097-.304-.024-.078-.03-.078c-.018-.052-.038-.104-.058-.157l-.12-.322-.142-.327-.072-.166-.08-.166-.166-.336c-.058-.112-.122-.223-.184-.336l-.094-.17-.102-.166c-.07-.11-.14-.223-.21-.336-.295-.443-.624-.88-.988-1.296-.368-.412-.767-.803-1.188-1.163-.426-.355-.873-.677-1.33-.964-.46-.283-.93-.524-1.392-.73-.117-.05-.234-.096-.35-.143-.057-.023-.113-.048-.17-.068l-.174-.062s-.227-.08-.34-.117l-.334-.098c-.055-.016-.11-.033-.164-.047l-.164-.04-.32-.077-.31-.06-.15-.03-.075-.013-.075-.01-.288-.04-.14-.02-.135-.012-.262-.023c-.085-.007-.167-.016-.247-.017-.02 0-.04 0-.06-.002C13.46.657 12.794 0 11.976 0h-.038-.005c-.09.004-.18.014-.266.032l-.135.016-.14.017c-.06.01-.125.018-.193.028-.135.02-.284.042-.444.068-.15.033-.314.067-.49.103-.086.017-.175.042-.266.065l-.28.074c-.05.013-.098.024-.147.04L9.422.49l-.304.096L9.04.61l-.078.03-.157.06-.322.12-.327.14c-.055.025-.11.05-.166.073s-.11.053-.166.08l-.336.166c-.112.057-.223.12-.336.183l-.17.094-.166.102-.336.208c-.443.296-.88.625-1.296.99-.412.367-.803.766-1.163 1.187-.354.426-.676.873-.963 1.33-.282.46-.523.93-.73 1.392l-.142.35c-.023.057-.048.113-.068.17l-.06.174s-.082.228-.118.34c-.035.113-.068.225-.1.335-.016.055-.034.11-.047.164l-.04.163-.077.32-.06.31-.03.15-.013.075-.01.074-.04.288-.02.14-.012.135-.022.262c-.007.085-.016.167-.017.247v.038c-.806.026-1.45.687-1.45 1.5v.037zm1.723-1.52c0-.006.002-.01.003-.015.015-.076.038-.153.06-.233l.067-.245c.012-.042.022-.084.036-.127l.04-.128.09-.265.02-.068c.01-.022.018-.045.027-.067l.053-.137.11-.28.125-.283c.02-.048.043-.096.064-.144s.047-.095.07-.144l.15-.29c.05-.098.108-.194.163-.29l.084-.148.09-.145.187-.292c.263-.382.554-.76.875-1.117.324-.353.675-.688 1.044-.996.374-.303.766-.578 1.164-.82.4-.24.81-.443 1.213-.616l.304-.118c.05-.02.1-.04.15-.057l.15-.05s.195-.068.293-.097c.098-.028.195-.055.29-.08.048-.014.094-.03.142-.04l.14-.032.276-.063.27-.046.13-.023.063-.01.063-.008.25-.03.12-.016.116-.01.224-.016c.073-.005.143-.012.212-.012l.384-.01c.11.005.21.01.3.012.045 0 .087.003.127.004l.14.01.136.008c.076.012.154.018.234.018h.038c.73-.02 1.33-.558 1.443-1.26l.038.007c.076.015.153.038.233.06l.244.067c.042.012.084.022.127.036l.13.042.264.088.068.022c.022.01.045.017.067.026l.136.053c.09.037.185.073.28.11.093.04.187.084.283.126l.143.064.144.072.29.148c.098.052.194.11.29.164l.148.084.145.09.29.187c.383.263.76.554 1.117.875.354.325.69.676.997 1.045.303.374.578.766.82 1.164.24.4.443.81.616 1.212l.118.303c.02.05.04.1.057.15l.05.15s.068.196.097.293c.028.098.055.195.08.29.014.048.03.094.04.142l.032.142.063.275.047.27.023.13c.004.02.008.042.01.063l.01.064.03.25.015.12.01.116.016.225c.005.073.012.143.012.212l.01.384c-.005.11-.01.21-.012.3 0 .046-.003.088-.004.128l-.01.14-.008.136c-.012.076-.018.154-.018.234v.039H21c.018.72.545 1.316 1.235 1.438l-.005.02c-.015.077-.038.154-.06.234l-.068.245c-.012.042-.022.084-.036.127l-.042.128-.088.265-.022.068c-.01.023-.017.046-.026.068l-.053.137-.11.28-.125.283c-.02.048-.043.096-.064.144s-.048.095-.072.144l-.148.29c-.052.098-.11.194-.164.29l-.084.148-.09.145-.187.29c-.262.382-.553.76-.874 1.117-.325.354-.676.69-1.045.997-.373.303-.765.578-1.163.82-.4.24-.81.443-1.213.616l-.303.118c-.05.02-.098.04-.148.057l-.15.05s-.196.068-.294.097c-.098.028-.195.055-.29.08-.048.014-.094.03-.142.04l-.142.032-.275.063-.27.047-.13.023c-.02.004-.043.008-.064.01l-.064.01-.25.03-.12.015-.116.01-.225.016c-.072.005-.142.012-.21.012l-.385.01c-.11-.005-.21-.01-.3-.012-.045 0-.087-.003-.127-.004l-.14-.01-.136-.008c-.076-.012-.154-.018-.234-.018h-.038c-.727.02-1.325.554-1.44 1.252-.076-.015-.152-.038-.23-.06l-.245-.066c-.042-.012-.084-.022-.127-.036l-.128-.042-.265-.088-.068-.022c-.022-.01-.045-.017-.067-.026l-.137-.053-.28-.11-.283-.125c-.048-.02-.096-.043-.144-.064s-.095-.048-.144-.072l-.29-.148c-.098-.052-.194-.11-.29-.164l-.148-.084L7.51 21l-.292-.187c-.382-.263-.76-.554-1.116-.875-.354-.325-.69-.676-.997-1.045-.303-.374-.578-.766-.82-1.164-.24-.402-.443-.812-.616-1.214l-.12-.303c-.018-.05-.04-.1-.056-.15l-.05-.15s-.068-.195-.097-.293c-.028-.098-.055-.195-.08-.29-.014-.048-.03-.094-.04-.142l-.032-.142-.063-.275-.047-.268-.023-.13c-.004-.02-.008-.043-.01-.064l-.01-.064-.03-.248-.015-.12-.01-.117-.016-.226c-.004-.073-.01-.143-.01-.212l-.01-.384.01-.3.005-.127.01-.14.008-.135C2.995 12.16 3 12.08 3 12v-.032-.005c-.02-.735-.567-1.34-1.277-1.445z"/></svg><svg width="24" height="24" viewBox="0 0 24 24" x="162"><path fill="#101010" d="M22.5 0L12 3 1.5 0s-.105 1.212 0 3L12 6.283 22.5 3c.105-1.788 0-3 0-3zM1.692 4.573C2.254 10.45 4.352 20.328 12 24c7.648-3.672 9.746-13.552 10.308-19.427L12 8.45 1.692 4.572z"/></svg><svg width="24" height="24" viewBox="0 0 24 24" x="216"><path fill="#101010" d="M9 0L0 12h9L3 24 24 9H12l9-9z"/></svg><svg width="27" height="24" viewBox="0 0 27 24" x="270"><path fill="#101010" d="M5.25 3H.75C.337 3 0 3.338 0 3.75v16.5c0 .413.338.75.75.75h4.5c.412 0 .75-.337.75-.75V3.75C6 3.338 5.662 3 5.25 3zM4.5 7.5h-3V6h3v1.5zM12.75 3h-4.5c-.413 0-.75.338-.75.75v16.5c0 .413.337.75.75.75h4.5c.413 0 .75-.337.75-.75V3.75c0-.412-.337-.75-.75-.75zM12 7.5H9V6h3v1.5z"/><path fill="#101010" d="M17.932 4.16l-4.02 2.025c-.367.186-.517.64-.33 1.007l6.748 13.396c.186.368.64.518 1.007.332l4.02-2.025c.367-.186.517-.64.33-1.007L18.94 4.492c-.187-.368-.64-.518-1.008-.332z"/><path fill="#101010" d="M21.75 20.25c0 .414-.336.75-.75.75s-.75-.336-.75-.75.336-.75.75-.75.75.336.75.75z"/></svg></svg>