<svg version="1.0" xmlns="http://www.w3.org/2000/svg" width="933.333" height="933.333" viewBox="0 0 700 700"><path d="M196 350.5v187.6l99.3-.4c104.8-.3 105.4-.4 125.7-5.1 34.6-8.1 58.6-25.1 71.5-50.6 8.9-17.5 12.8-41.5 10.6-65.5-1.5-17-3.9-26.6-10-39-7.2-14.6-17-24.7-32.3-33.4-3.2-1.8-5.8-3.8-5.8-4.5 0-.7 2.6-3.1 5.8-5.4 14.9-10.4 26.8-27 32.2-44.7 6.7-22.2 4.7-53.6-4.9-74.1-10.9-23.4-32.9-39.1-65.6-47-21.4-5.1-28.3-5.4-131.2-5.4H196v187.5zm213-81c0 .3-12.2 18.6-27.1 40.8l-27 40.2 27 .5 27.1.5-68 68c-37.5 37.4-67.7 66.9-67.2 65.5.6-1.4 9.8-22.9 20.5-47.8l19.5-45.2h-20.4c-11.2 0-20.4-.3-20.4-.7 0-.5 37.7-113.3 40.5-121.1.3-.9 10.8-1.2 48-1.2 26.1 0 47.5.2 47.5.5z"/></svg>